<svg width="536" height="160" viewBox="0 0 536 160" fill="none" xmlns="http://www.w3.org/2000/svg">
<path d="M4.6665 28.0001L27.165 39.2493C27.4711 39.4024 27.6242 39.4789 27.7847 39.509C27.9269 39.5357 28.0728 39.5357 28.215 39.509C28.3755 39.4789 28.5285 39.4024 28.8346 39.2493L51.3332 28.0001M4.6665 39.6667L27.165 50.916C27.4711 51.0691 27.6242 51.1456 27.7847 51.1757C27.9269 51.2024 28.0728 51.2024 28.215 51.1757C28.3755 51.1456 28.5285 51.0691 28.8346 50.916L51.3332 39.6667M4.6665 16.3334L27.165 5.08414C27.4711 4.93109 27.6242 4.85457 27.7847 4.82445C27.9269 4.79777 28.0728 4.79777 28.215 4.82445C28.3755 4.85457 28.5285 4.93109 28.8346 5.08414L51.3332 16.3334L28.8346 27.5827C28.5285 27.7357 28.3755 27.8122 28.215 27.8424C28.0728 27.869 27.9269 27.869 27.7847 27.8424C27.6242 27.8122 27.4711 27.7357 27.165 27.5827L4.6665 16.3334Z" stroke="#8E8E8E" stroke-width="4" stroke-linecap="round" stroke-linejoin="round"/>
<path d="M195 49V36.4C195 35.0932 195 34.4398 194.746 33.9407C194.522 33.5016 194.165 33.1447 193.726 32.921C193.227 32.6667 192.573 32.6667 191.267 32.6667H184.733C183.427 32.6667 182.773 32.6667 182.274 32.921C181.835 33.1447 181.478 33.5016 181.254 33.9407C181 34.4398 181 35.0932 181 36.4V49M167 16.3333C167 20.1993 170.134 23.3333 174 23.3333C177.866 23.3333 181 20.1993 181 16.3333C181 20.1993 184.134 23.3333 188 23.3333C191.866 23.3333 195 20.1993 195 16.3333C195 20.1993 198.134 23.3333 202 23.3333C205.866 23.3333 209 20.1993 209 16.3333M174.467 49H201.533C204.147 49 205.454 49 206.452 48.4914C207.33 48.044 208.044 47.33 208.491 46.452C209 45.4537 209 44.1469 209 41.5333V14.4667C209 11.8531 209 10.5463 208.491 9.54804C208.044 8.66995 207.33 7.95605 206.452 7.50864C205.454 7 204.147 7 201.533 7H174.467C171.853 7 170.546 7 169.548 7.50864C168.67 7.95605 167.956 8.66995 167.509 9.54804C167 10.5463 167 11.8531 167 14.4667V41.5333C167 44.1469 167 45.4537 167.509 46.452C167.956 47.33 168.67 48.044 169.548 48.4914C170.546 49 171.853 49 174.467 49Z" stroke="#8E8E8E" stroke-width="4" stroke-linecap="round" stroke-linejoin="round"/>
<path d="M348 29.1667C351.866 29.1667 355 26.0327 355 22.1667C355 18.3008 351.866 15.1667 348 15.1667C344.134 15.1667 341 18.3008 341 22.1667C341 26.0327 344.134 29.1667 348 29.1667Z" stroke="#8E8E8E" stroke-width="4" stroke-linecap="round" stroke-linejoin="round"/>
<path d="M348 51.3334C352.667 42.0001 366.667 35.9761 366.667 23.3334C366.667 13.0241 358.309 4.66675 348 4.66675C337.691 4.66675 329.333 13.0241 329.333 23.3334C329.333 35.9761 343.333 42.0001 348 51.3334Z" stroke="#8E8E8E" stroke-width="4" stroke-linecap="round" stroke-linejoin="round"/>
<path d="M508 35.0001C500.268 35.0001 494 28.7321 494 21.0001V8.03712C494 7.07147 494 6.58865 494.141 6.20203C494.376 5.55391 494.887 5.04336 495.535 4.80747C495.922 4.66675 496.405 4.66675 497.37 4.66675H518.629C519.595 4.66675 520.078 4.66675 520.465 4.80747C521.113 5.04336 521.623 5.55391 521.859 6.20203C522 6.58865 522 7.07147 522 8.03712V21.0001C522 28.7321 515.732 35.0001 508 35.0001ZM508 35.0001V42.0001M522 9.33341H527.833C528.92 9.33341 529.464 9.33341 529.893 9.51103C530.464 9.74785 530.919 10.2021 531.156 10.7738C531.333 11.2026 531.333 11.7462 531.333 12.8334V14.0001C531.333 16.17 531.333 17.255 531.095 18.1451C530.447 20.5608 528.561 22.4476 526.145 23.0949C525.255 23.3334 524.17 23.3334 522 23.3334M494 9.33341H488.167C487.079 9.33341 486.536 9.33341 486.107 9.51103C485.535 9.74785 485.081 10.2021 484.844 10.7738C484.667 11.2026 484.667 11.7462 484.667 12.8334V14.0001C484.667 16.17 484.667 17.255 484.905 18.1451C485.552 20.5608 487.439 22.4476 489.855 23.0949C490.745 23.3334 491.83 23.3334 494 23.3334M497.37 51.3334H518.629C519.202 51.3334 519.667 50.8691 519.667 50.2964C519.667 45.7145 515.952 42.0001 511.37 42.0001H504.629C500.048 42.0001 496.333 45.7145 496.333 50.2964C496.333 50.8691 496.797 51.3334 497.37 51.3334Z" stroke="#8E8E8E" stroke-width="4" stroke-linecap="round" stroke-linejoin="round"/>
<path d="M30.3569 110.814L44.1235 116.927C48.0902 118.677 48.0902 121.57 44.1235 123.32L30.3569 129.434C28.7935 130.134 26.2269 130.134 24.6635 129.434L10.8969 123.32C6.93021 121.57 6.93021 118.677 10.8969 116.927L24.6635 110.814C26.2269 110.114 28.7935 110.114 30.3569 110.814Z" stroke="#8E8E8E" stroke-width="4" stroke-linecap="round" stroke-linejoin="round"/>
<path d="M7 129.667C7 131.627 8.47 133.89 10.2667 134.683L26.11 141.73C27.3233 142.267 28.7 142.267 29.89 141.73L45.7333 134.683C47.53 133.89 49 131.627 49 129.667" stroke="#8E8E8E" stroke-width="3" stroke-linecap="round" stroke-linejoin="round"/>
<path d="M7 141.333C7 143.503 8.28333 145.463 10.2667 146.35L26.11 153.397C27.3233 153.933 28.7 153.933 29.89 153.397L45.7333 146.35C47.7167 145.463 49 143.503 49 141.333" stroke="#8E8E8E" stroke-width="4" stroke-linecap="round" stroke-linejoin="round"/>
<path d="M167.023 130.18V140.657C167.023 151.134 171.223 155.334 181.7 155.334H194.277C204.753 155.334 208.953 151.134 208.953 140.657V130.18" stroke="#8E8E8E" stroke-width="4" stroke-linecap="round" stroke-linejoin="round"/>
<path d="M188 132C192.27 132 195.42 128.523 195 124.253L193.46 108.667H182.563L181 124.253C180.58 128.523 183.73 132 188 132Z" stroke="#8E8E8E" stroke-width="4" stroke-linecap="round" stroke-linejoin="round"/>
<path d="M202.723 132C207.437 132 210.89 128.173 210.423 123.483L209.77 117.067C208.93 111 206.597 108.667 200.483 108.667H193.367L195 125.023C195.397 128.873 198.873 132 202.723 132Z" stroke="#8E8E8E" stroke-width="4" stroke-linecap="round" stroke-linejoin="round"/>
<path d="M173.16 132C177.01 132 180.487 128.873 180.86 125.023L181.374 119.867L182.494 108.667H175.377C169.264 108.667 166.93 111 166.09 117.067L165.46 123.483C164.994 128.173 168.447 132 173.16 132Z" stroke="#8E8E8E" stroke-width="4" stroke-linecap="round" stroke-linejoin="round"/>
<path d="M188 143.667C184.103 143.667 182.167 145.603 182.167 149.5V155.333H193.833V149.5C193.833 145.603 191.897 143.667 188 143.667Z" stroke="#8E8E8E" stroke-width="4" stroke-linecap="round" stroke-linejoin="round"/>
<path d="M348 135.337C352.021 135.337 355.28 132.077 355.28 128.057C355.28 124.036 352.021 120.777 348 120.777C343.98 120.777 340.72 124.036 340.72 128.057C340.72 132.077 343.98 135.337 348 135.337Z" stroke="#8E8E8E" stroke-width="4"/>
<path d="M328.447 123.81C333.043 103.603 362.98 103.627 367.553 123.833C370.237 135.687 362.863 145.72 356.4 151.927C351.71 156.453 344.29 156.453 339.577 151.927C333.137 145.72 325.763 135.663 328.447 123.81Z" stroke="#8E8E8E" stroke-width="4"/>
<path d="M508.35 142.5V147.4" stroke="#8E8E8E" stroke-width="4" stroke-linecap="round" stroke-linejoin="round"/>
<path d="M496.683 155.333H520.016V153C520.016 150.433 517.916 148.333 515.35 148.333H501.35C498.783 148.333 496.683 150.433 496.683 153V155.333V155.333Z" stroke="#8E8E8E" stroke-width="4" stroke-miterlimit="10"/>
<path d="M494.35 155.333H522.35" stroke="#8E8E8E" stroke-width="4" stroke-linecap="round" stroke-linejoin="round"/>
<path d="M508 141.333C498.97 141.333 491.667 134.03 491.667 125V118C491.667 112.843 495.843 108.667 501 108.667H515C520.157 108.667 524.333 112.843 524.333 118V125C524.333 134.03 517.03 141.333 508 141.333Z" stroke="#8E8E8E" stroke-width="4" stroke-linecap="round" stroke-linejoin="round"/>
<path d="M492.763 131.183C491.013 130.623 489.473 129.597 488.26 128.383C486.16 126.05 484.76 123.25 484.76 119.983C484.76 116.717 487.326 114.15 490.593 114.15H492.11C491.643 115.223 491.41 116.413 491.41 117.65V124.65C491.41 126.983 491.9 129.177 492.763 131.183Z" stroke="#8E8E8E" stroke-width="4" stroke-linecap="round" stroke-linejoin="round"/>
<path d="M523.237 131.183C524.987 130.623 526.527 129.597 527.74 128.383C529.84 126.05 531.24 123.25 531.24 119.983C531.24 116.717 528.673 114.15 525.407 114.15H523.89C524.357 115.223 524.59 116.413 524.59 117.65V124.65C524.59 126.983 524.1 129.177 523.237 131.183Z" stroke="#8E8E8E" stroke-width="4" stroke-linecap="round" stroke-linejoin="round"/>
<path d="M4.6665 39.6667L27.165 50.916C27.4711 51.0691 27.6242 51.1456 27.7847 51.1757C27.9269 51.2024 28.0728 51.2024 28.215 51.1757C28.3755 51.1456 28.5285 51.0691 28.8346 50.916L51.3332 39.6667" stroke="white" stroke-width="4" stroke-linecap="round" stroke-linejoin="round"/>
<path d="M195 49.0001V36.4001C195 35.0933 195 34.4399 194.746 33.9408C194.522 33.5017 194.165 33.1448 193.726 32.9211C193.227 32.6667 192.573 32.6667 191.267 32.6667H184.733C183.427 32.6667 182.773 32.6667 182.274 32.9211C181.835 33.1448 181.478 33.5017 181.254 33.9408C181 34.4399 181 35.0933 181 36.4001V49.0001" stroke="white" stroke-width="4" stroke-linecap="round" stroke-linejoin="round"/>
<path d="M348 29.1667C351.866 29.1667 355 26.0327 355 22.1667C355 18.3008 351.866 15.1667 348 15.1667C344.134 15.1667 341 18.3008 341 22.1667C341 26.0327 344.134 29.1667 348 29.1667Z" stroke="white" stroke-width="4" stroke-linecap="round" stroke-linejoin="round"/>
<path d="M494 21.0001V8.03712C494 7.07147 494 6.58865 494.141 6.20203C494.376 5.55391 494.887 5.04336 495.535 4.80747C495.922 4.66675 496.405 4.66675 497.37 4.66675H518.629C519.595 4.66675 520.078 4.66675 520.465 4.80747C521.113 5.04336 521.623 5.55391 521.859 6.20203C522 6.58865 522 7.07147 522 8.03712V21.0001M522 9.33341H527.833C528.92 9.33341 529.464 9.33341 529.893 9.51103C530.464 9.74785 530.919 10.2021 531.156 10.7738C531.333 11.2026 531.333 11.7462 531.333 12.8334V14.0001C531.333 16.17 531.333 17.255 531.095 18.1451M494 9.33341H488.167C487.079 9.33341 486.536 9.33341 486.107 9.51103C485.535 9.74785 485.081 10.2021 484.844 10.7738C484.667 11.2026 484.667 11.7462 484.667 12.8334V14.0001C484.667 16.17 484.667 17.255 484.905 18.1451" stroke="white" stroke-width="4" stroke-linecap="round" stroke-linejoin="round"/>
<path d="M30.3569 110.814L44.1235 116.927C48.0902 118.677 48.0902 121.57 44.1235 123.32L30.3569 129.434C28.7935 130.134 26.2269 130.134 24.6635 129.434L10.8969 123.32C6.93021 121.57 6.93021 118.677 10.8969 116.927L24.6635 110.814C26.2269 110.114 28.7935 110.114 30.3569 110.814Z" stroke="#8E8E8E" stroke-width="4" stroke-linecap="round" stroke-linejoin="round"/>
<path d="M7 129.667C7 131.627 8.47 133.89 10.2667 134.683L26.11 141.73C27.3233 142.267 28.7 142.267 29.89 141.73L45.7333 134.683C47.53 133.89 49 131.627 49 129.667" stroke="#8E8E8E" stroke-width="4" stroke-linecap="round" stroke-linejoin="round"/>
<path d="M7 141.333C7 143.503 8.28333 145.463 10.2667 146.35L26.11 153.397C27.3233 153.933 28.7 153.933 29.89 153.397L45.7333 146.35C47.7167 145.463 49 143.503 49 141.333" stroke="white" stroke-width="4" stroke-linecap="round" stroke-linejoin="round"/>
<path d="M167.023 130.18V140.657C167.023 151.134 171.223 155.334 181.7 155.334H194.277C204.753 155.334 208.953 151.134 208.953 140.657V130.18" stroke="#8E8E8E" stroke-width="4" stroke-linecap="round" stroke-linejoin="round"/>
<path d="M188 132C192.27 132 195.42 128.523 195 124.253L193.46 108.667H182.563L181 124.253C180.58 128.523 183.73 132 188 132Z" stroke="#8E8E8E" stroke-width="4" stroke-linecap="round" stroke-linejoin="round"/>
<path d="M202.723 132C207.437 132 210.89 128.173 210.423 123.483L209.77 117.067C208.93 111 206.597 108.667 200.483 108.667H193.367L195 125.023C195.397 128.873 198.873 132 202.723 132Z" stroke="#8E8E8E" stroke-width="4" stroke-linecap="round" stroke-linejoin="round"/>
<path d="M173.16 132C177.01 132 180.487 128.873 180.86 125.023L181.374 119.867L182.494 108.667H175.377C169.264 108.667 166.93 111 166.09 117.067L165.46 123.483C164.994 128.173 168.447 132 173.16 132Z" stroke="#8E8E8E" stroke-width="4" stroke-linecap="round" stroke-linejoin="round"/>
<path d="M188 143.667C184.103 143.667 182.167 145.603 182.167 149.5V155.333H193.833V149.5C193.833 145.603 191.897 143.667 188 143.667Z" stroke="white" stroke-width="4" stroke-linecap="round" stroke-linejoin="round"/>
<path d="M348 135.337C352.021 135.337 355.28 132.077 355.28 128.057C355.28 124.036 352.021 120.777 348 120.777C343.98 120.777 340.72 124.036 340.72 128.057C340.72 132.077 343.98 135.337 348 135.337Z" stroke="white" stroke-width="4"/>
<path d="M328.447 123.81C333.043 103.603 362.98 103.627 367.553 123.833C370.237 135.687 362.863 145.72 356.4 151.927C351.71 156.453 344.29 156.453 339.577 151.927C333.137 145.72 325.763 135.663 328.447 123.81Z" stroke="#8E8E8E" stroke-width="4"/>
<path d="M491.667 125V118C491.667 112.843 495.843 108.667 501 108.667H515C520.157 108.667 524.333 112.843 524.333 118V125" stroke="white" stroke-width="4" stroke-linecap="round" stroke-linejoin="round"/>
<path d="M484.76 119.983C484.76 116.717 487.326 114.15 490.593 114.15H492.11C491.643 115.223 491.41 116.413 491.41 117.65V124.65" stroke="white" stroke-width="4" stroke-linecap="round" stroke-linejoin="round"/>
<path d="M531.24 119.983C531.24 116.717 528.673 114.15 525.407 114.15H523.89C524.357 115.223 524.59 116.413 524.59 117.65V124.65" stroke="white" stroke-width="4" stroke-linecap="round" stroke-linejoin="round"/>
</svg>
