<svg width="536" height="160" viewBox="0 0 536 160" fill="none" xmlns="http://www.w3.org/2000/svg">
<path d="M4.66666 39.6667L27.1652 50.916C27.4713 51.0691 27.6243 51.1456 27.7849 51.1757C27.927 51.2024 28.0729 51.2024 28.2151 51.1757C28.3757 51.1456 28.5287 51.0691 28.8348 50.916L51.3333 39.6667" stroke="#7AE684" stroke-width="4" stroke-linecap="round" stroke-linejoin="round"/>
<path d="M195 49.0001V36.4001C195 35.0933 195 34.4399 194.746 33.9408C194.522 33.5017 194.165 33.1448 193.726 32.9211C193.227 32.6667 192.573 32.6667 191.267 32.6667H184.733C183.427 32.6667 182.773 32.6667 182.274 32.9211C181.835 33.1448 181.478 33.5017 181.254 33.9408C181 34.4399 181 35.0933 181 36.4001V49.0001" stroke="#7AE684" stroke-width="4" stroke-linecap="round" stroke-linejoin="round"/>
<path d="M348 29.1667C351.866 29.1667 355 26.0327 355 22.1667C355 18.3008 351.866 15.1667 348 15.1667C344.134 15.1667 341 18.3008 341 22.1667C341 26.0327 344.134 29.1667 348 29.1667Z" stroke="#7AE684" stroke-width="4" stroke-linecap="round" stroke-linejoin="round"/>
<path d="M494 21.0001V8.03712C494 7.07147 494 6.58865 494.141 6.20203C494.377 5.55391 494.887 5.04336 495.535 4.80747C495.922 4.66675 496.405 4.66675 497.37 4.66675H518.63C519.595 4.66675 520.078 4.66675 520.465 4.80747C521.113 5.04336 521.623 5.55391 521.859 6.20203C522 6.58865 522 7.07147 522 8.03712V21.0001M522 9.33341H527.833C528.921 9.33341 529.464 9.33341 529.893 9.51103C530.465 9.74785 530.919 10.2021 531.156 10.7738C531.333 11.2026 531.333 11.7462 531.333 12.8334V14.0001C531.333 16.17 531.333 17.255 531.095 18.1451M494 9.33341H488.167C487.079 9.33341 486.536 9.33341 486.107 9.51103C485.535 9.74785 485.081 10.2021 484.844 10.7738C484.667 11.2026 484.667 11.7462 484.667 12.8334V14.0001C484.667 16.17 484.667 17.255 484.905 18.1451" stroke="#7AE684" stroke-width="4" stroke-linecap="round" stroke-linejoin="round"/>
<path d="M30.3567 110.814L44.1233 116.927C48.09 118.677 48.09 121.57 44.1233 123.32L30.3567 129.434C28.7933 130.134 26.2267 130.134 24.6633 129.434L10.8967 123.32C6.92999 121.57 6.92999 118.677 10.8967 116.927L24.6633 110.814C26.2267 110.114 28.7933 110.114 30.3567 110.814Z" stroke="#595959" stroke-width="4" stroke-linecap="round" stroke-linejoin="round"/>
<path d="M7 129.667C7 131.627 8.47 133.89 10.2667 134.683L26.11 141.73C27.3233 142.267 28.7 142.267 29.89 141.73L45.7333 134.683C47.53 133.89 49 131.627 49 129.667" stroke="#595959" stroke-width="4" stroke-linecap="round" stroke-linejoin="round"/>
<path d="M7 141.333C7 143.503 8.28333 145.463 10.2667 146.35L26.11 153.397C27.3233 153.933 28.7 153.933 29.89 153.397L45.7333 146.35C47.7167 145.463 49 143.503 49 141.333" stroke="#7AE684" stroke-width="4" stroke-linecap="round" stroke-linejoin="round"/>
<path d="M167.023 130.18V140.657C167.023 151.134 171.223 155.334 181.7 155.334H194.277C204.753 155.334 208.953 151.134 208.953 140.657V130.18" stroke="#595959" stroke-width="4" stroke-linecap="round" stroke-linejoin="round"/>
<path d="M188 132C192.27 132 195.42 128.523 195 124.253L193.46 108.667H182.563L181 124.253C180.58 128.523 183.73 132 188 132Z" stroke="#595959" stroke-width="4" stroke-linecap="round" stroke-linejoin="round"/>
<path d="M202.723 132C207.437 132 210.89 128.173 210.423 123.483L209.77 117.067C208.93 111 206.597 108.667 200.483 108.667H193.367L195 125.023C195.397 128.873 198.873 132 202.723 132Z" stroke="#595959" stroke-width="4" stroke-linecap="round" stroke-linejoin="round"/>
<path d="M173.16 132C177.01 132 180.487 128.873 180.86 125.023L181.373 119.867L182.493 108.667H175.377C169.263 108.667 166.93 111 166.09 117.067L165.46 123.483C164.993 128.173 168.447 132 173.16 132Z" stroke="#595959" stroke-width="4" stroke-linecap="round" stroke-linejoin="round"/>
<path d="M188 143.667C184.103 143.667 182.167 145.603 182.167 149.5V155.333H193.833V149.5C193.833 145.603 191.897 143.667 188 143.667Z" stroke="#7AE684" stroke-width="4" stroke-linecap="round" stroke-linejoin="round"/>
<path d="M348 135.337C352.021 135.337 355.28 132.077 355.28 128.057C355.28 124.036 352.021 120.777 348 120.777C343.979 120.777 340.72 124.036 340.72 128.057C340.72 132.077 343.979 135.337 348 135.337Z" stroke="#7AE684" stroke-width="4"/>
<path d="M328.447 123.81C333.043 103.603 362.98 103.627 367.553 123.833C370.237 135.687 362.863 145.72 356.4 151.927C351.71 156.453 344.29 156.453 339.577 151.927C333.137 145.72 325.763 135.663 328.447 123.81Z" stroke="#595959" stroke-width="4"/>
<path d="M491.667 125V118C491.667 112.843 495.843 108.667 501 108.667H515C520.157 108.667 524.333 112.843 524.333 118V125" stroke="#7AE684" stroke-width="4" stroke-linecap="round" stroke-linejoin="round"/>
<path d="M484.76 119.983C484.76 116.717 487.327 114.15 490.593 114.15H492.11C491.643 115.223 491.41 116.413 491.41 117.65V124.65" stroke="#7AE684" stroke-width="4" stroke-linecap="round" stroke-linejoin="round"/>
<path d="M531.24 119.983C531.24 116.717 528.673 114.15 525.407 114.15H523.89C524.357 115.223 524.59 116.413 524.59 117.65V124.65" stroke="#7AE684" stroke-width="4" stroke-linecap="round" stroke-linejoin="round"/>
</svg>
