<svg width="536" height="296" viewBox="0 0 536 296" fill="none" xmlns="http://www.w3.org/2000/svg">
<path d="M30.3567 6.81357L44.1234 12.9269C48.09 14.6769 48.09 17.5702 44.1234 19.3202L30.3567 25.4336C28.7934 26.1336 26.2267 26.1336 24.6634 25.4336L10.8967 19.3202C6.93003 17.5702 6.93003 14.6769 10.8967 12.9269L24.6634 6.81357C26.2267 6.11357 28.7934 6.11357 30.3567 6.81357Z" stroke="white" stroke-width="4" stroke-linecap="round" stroke-linejoin="round"/>
<path d="M7 25.6665C7 27.6265 8.47 29.8898 10.2667 30.6832L26.11 37.7298C27.3233 38.2665 28.7 38.2665 29.89 37.7298L45.7333 30.6832C47.53 29.8898 49 27.6265 49 25.6665" stroke="white" stroke-width="4" stroke-linecap="round" stroke-linejoin="round"/>
<path d="M7 37.3335C7 39.5035 8.28333 41.4635 10.2667 42.3502L26.11 49.3968C27.3233 49.9335 28.7 49.9335 29.89 49.3968L45.7333 42.3502C47.7167 41.4635 49 39.5035 49 37.3335" stroke="white" stroke-width="4" stroke-linecap="round" stroke-linejoin="round"/>
<path d="M167.023 26.1802V36.6568C167.023 47.1335 171.223 51.3335 181.7 51.3335H194.277C204.753 51.3335 208.953 47.1335 208.953 36.6568V26.1802" stroke="white" stroke-width="4" stroke-linecap="round" stroke-linejoin="round"/>
<path d="M188 27.9998C192.27 27.9998 195.42 24.5232 195 20.2532L193.46 4.6665H182.563L181 20.2532C180.58 24.5232 183.73 27.9998 188 27.9998Z" stroke="white" stroke-width="4" stroke-linecap="round" stroke-linejoin="round"/>
<path d="M202.723 27.9998C207.437 27.9998 210.89 24.1732 210.423 19.4832L209.77 13.0665C208.93 6.99984 206.597 4.6665 200.483 4.6665H193.367L195 21.0232C195.397 24.8732 198.873 27.9998 202.723 27.9998Z" stroke="white" stroke-width="4" stroke-linecap="round" stroke-linejoin="round"/>
<path d="M173.16 27.9998C177.01 27.9998 180.487 24.8732 180.86 21.0232L181.373 15.8665L182.493 4.6665H175.377C169.263 4.6665 166.93 6.99984 166.09 13.0665L165.46 19.4832C164.993 24.1732 168.447 27.9998 173.16 27.9998Z" stroke="white" stroke-width="4" stroke-linecap="round" stroke-linejoin="round"/>
<path d="M188 39.6665C184.103 39.6665 182.167 41.6032 182.167 45.4998V51.3332H193.833V45.4998C193.833 41.6032 191.897 39.6665 188 39.6665Z" stroke="white" stroke-width="4" stroke-linecap="round" stroke-linejoin="round"/>
<path d="M348 31.3369C352.021 31.3369 355.28 28.0775 355.28 24.0569C355.28 20.0362 352.021 16.7769 348 16.7769C343.979 16.7769 340.72 20.0362 340.72 24.0569C340.72 28.0775 343.979 31.3369 348 31.3369Z" stroke="white" stroke-width="4"/>
<path d="M328.447 19.8098C333.043 -0.396824 362.98 -0.37349 367.553 19.8332C370.237 31.6865 362.863 41.7198 356.4 47.9265C351.71 52.4532 344.29 52.4532 339.577 47.9265C333.137 41.7198 325.763 31.6632 328.447 19.8098Z" stroke="white" stroke-width="4"/>
<path d="M508.35 38.5V43.4" stroke="white" stroke-width="4" stroke-linecap="round" stroke-linejoin="round"/>
<path d="M496.683 51.3335H520.017V49.0002C520.017 46.4335 517.917 44.3335 515.35 44.3335H501.35C498.783 44.3335 496.683 46.4335 496.683 49.0002V51.3335V51.3335Z" stroke="white" stroke-width="4" stroke-miterlimit="10"/>
<path d="M494.35 51.3335H522.35" stroke="white" stroke-width="4" stroke-linecap="round" stroke-linejoin="round"/>
<path d="M508 37.3332C498.97 37.3332 491.667 30.0298 491.667 20.9998V13.9998C491.667 8.84317 495.843 4.6665 501 4.6665H515C520.157 4.6665 524.333 8.84317 524.333 13.9998V20.9998C524.333 30.0298 517.03 37.3332 508 37.3332Z" stroke="white" stroke-width="4" stroke-linecap="round" stroke-linejoin="round"/>
<path d="M492.763 27.1832C491.013 26.6232 489.473 25.5966 488.26 24.3832C486.16 22.0499 484.76 19.2499 484.76 15.9832C484.76 12.7166 487.327 10.1499 490.593 10.1499H492.11C491.643 11.2232 491.41 12.4132 491.41 13.6499V20.6499C491.41 22.9832 491.9 25.1766 492.763 27.1832Z" stroke="white" stroke-width="4" stroke-linecap="round" stroke-linejoin="round"/>
<path d="M523.237 27.1832C524.987 26.6232 526.527 25.5966 527.74 24.3832C529.84 22.0499 531.24 19.2499 531.24 15.9832C531.24 12.7166 528.673 10.1499 525.407 10.1499H523.89C524.357 11.2232 524.59 12.4132 524.59 13.6499V20.6499C524.59 22.9832 524.1 25.1766 523.237 27.1832Z" stroke="white" stroke-width="4" stroke-linecap="round" stroke-linejoin="round"/>
<path d="M42.02 101.84L53.82 107.08C57.22 108.58 57.22 111.06 53.82 112.56L42.02 117.8C40.68 118.4 38.48 118.4 37.14 117.8L25.34 112.56C21.94 111.06 21.94 108.58 25.34 107.08L37.14 101.84C38.48 101.24 40.68 101.24 42.02 101.84Z" stroke="white" stroke-width="3.5" stroke-linecap="round" stroke-linejoin="round"/>
<path d="M22 118C22 119.68 23.26 121.62 24.8 122.3L38.38 128.34C39.42 128.8 40.6 128.8 41.62 128.34L55.2 122.3C56.74 121.62 58 119.68 58 118" stroke="white" stroke-width="3.5" stroke-linecap="round" stroke-linejoin="round"/>
<path d="M22 128C22 129.86 23.1 131.54 24.8 132.3L38.38 138.34C39.42 138.8 40.6 138.8 41.62 138.34L55.2 132.3C56.9 131.54 58 129.86 58 128" stroke="white" stroke-width="3.5" stroke-linecap="round" stroke-linejoin="round"/>
<path d="M174.02 118.44V127.42C174.02 136.4 177.62 140 186.6 140H197.38C206.36 140 209.96 136.4 209.96 127.42V118.44" stroke="white" stroke-width="3.5" stroke-linecap="round" stroke-linejoin="round"/>
<path d="M192 120C195.66 120 198.36 117.02 198 113.36L196.68 100H187.34L186 113.36C185.64 117.02 188.34 120 192 120Z" stroke="white" stroke-width="3.5" stroke-linecap="round" stroke-linejoin="round"/>
<path d="M204.62 120C208.66 120 211.62 116.72 211.22 112.7L210.66 107.2C209.94 102 207.94 100 202.7 100H196.6L198 114.02C198.34 117.32 201.32 120 204.62 120Z" stroke="white" stroke-width="3.5" stroke-linecap="round" stroke-linejoin="round"/>
<path d="M179.28 120C182.58 120 185.56 117.32 185.88 114.02L186.32 109.6L187.28 100H181.18C175.94 100 173.94 102 173.22 107.2L172.68 112.7C172.28 116.72 175.24 120 179.28 120Z" stroke="white" stroke-width="3.5" stroke-linecap="round" stroke-linejoin="round"/>
<path d="M192 130C188.66 130 187 131.66 187 135V140H197V135C197 131.66 195.34 130 192 130Z" stroke="white" stroke-width="3.5" stroke-linecap="round" stroke-linejoin="round"/>
<path d="M344 122.86C347.446 122.86 350.24 120.066 350.24 116.62C350.24 113.174 347.446 110.38 344 110.38C340.554 110.38 337.76 113.174 337.76 116.62C337.76 120.066 340.554 122.86 344 122.86Z" stroke="white" stroke-width="3.5"/>
<path d="M327.24 112.98C331.18 95.66 356.84 95.68 360.76 113C363.06 123.16 356.74 131.76 351.2 137.08C347.18 140.96 340.82 140.96 336.78 137.08C331.26 131.76 324.94 123.14 327.24 112.98Z" stroke="white" stroke-width="3.5"/>
<path d="M496.3 129V133.2" stroke="white" stroke-width="3.5" stroke-linecap="round" stroke-linejoin="round"/>
<path d="M486.3 140H506.3V138C506.3 135.8 504.5 134 502.3 134H490.3C488.1 134 486.3 135.8 486.3 138V140V140Z" stroke="white" stroke-width="3.5" stroke-miterlimit="10"/>
<path d="M484.3 140H508.3" stroke="white" stroke-width="3.5" stroke-linecap="round" stroke-linejoin="round"/>
<path d="M496 128C488.26 128 482 121.74 482 114V108C482 103.58 485.58 100 490 100H502C506.42 100 510 103.58 510 108V114C510 121.74 503.74 128 496 128Z" stroke="white" stroke-width="3.5" stroke-linecap="round" stroke-linejoin="round"/>
<path d="M482.94 119.3C481.44 118.82 480.12 117.94 479.08 116.9C477.28 114.9 476.08 112.5 476.08 109.7C476.08 106.9 478.28 104.7 481.08 104.7H482.38C481.98 105.62 481.78 106.64 481.78 107.7V113.7C481.78 115.7 482.2 117.58 482.94 119.3Z" stroke="white" stroke-width="3.5" stroke-linecap="round" stroke-linejoin="round"/>
<path d="M509.06 119.3C510.56 118.82 511.88 117.94 512.92 116.9C514.72 114.9 515.92 112.5 515.92 109.7C515.92 106.9 513.72 104.7 510.92 104.7H509.62C510.02 105.62 510.22 106.64 510.22 107.7V113.7C510.22 115.7 509.8 117.58 509.06 119.3Z" stroke="white" stroke-width="3.5" stroke-linecap="round" stroke-linejoin="round"/>
<path d="M53.6833 188.867L63.5167 193.233C66.35 194.483 66.35 196.55 63.5167 197.8L53.6833 202.167C52.5667 202.667 50.7333 202.667 49.6167 202.167L39.7833 197.8C36.95 196.55 36.95 194.483 39.7833 193.233L49.6167 188.867C50.7333 188.367 52.5667 188.367 53.6833 188.867Z" stroke="white" stroke-width="3" stroke-linecap="round" stroke-linejoin="round"/>
<path d="M37 202.333C37 203.733 38.05 205.35 39.3333 205.917L50.65 210.95C51.5167 211.333 52.5 211.333 53.35 210.95L64.6667 205.917C65.95 205.35 67 203.733 67 202.333" stroke="white" stroke-width="3" stroke-linecap="round" stroke-linejoin="round"/>
<path d="M37 210.667C37 212.217 37.9167 213.617 39.3333 214.25L50.65 219.283C51.5167 219.667 52.5 219.667 53.35 219.283L64.6667 214.25C66.0833 213.617 67 212.217 67 210.667" stroke="white" stroke-width="3" stroke-linecap="round" stroke-linejoin="round"/>
<path d="M181.017 202.7V210.184C181.017 217.667 184.017 220.667 191.5 220.667H200.483C207.967 220.667 210.967 217.667 210.967 210.184V202.7" stroke="white" stroke-width="3" stroke-linecap="round" stroke-linejoin="round"/>
<path d="M196 204C199.05 204 201.3 201.517 201 198.467L199.9 187.333H192.117L191 198.467C190.7 201.517 192.95 204 196 204Z" stroke="white" stroke-width="3" stroke-linecap="round" stroke-linejoin="round"/>
<path d="M206.517 204C209.883 204 212.35 201.267 212.017 197.917L211.55 193.333C210.95 189 209.283 187.333 204.917 187.333H199.833L201 199.017C201.283 201.767 203.767 204 206.517 204Z" stroke="white" stroke-width="3" stroke-linecap="round" stroke-linejoin="round"/>
<path d="M185.4 204C188.15 204 190.633 201.767 190.9 199.017L191.267 195.333L192.067 187.333H186.983C182.617 187.333 180.95 189 180.35 193.333L179.9 197.917C179.567 201.267 182.033 204 185.4 204Z" stroke="white" stroke-width="3" stroke-linecap="round" stroke-linejoin="round"/>
<path d="M196 212.333C193.217 212.333 191.833 213.717 191.833 216.5V220.667H200.167V216.5C200.167 213.717 198.783 212.333 196 212.333Z" stroke="white" stroke-width="3" stroke-linecap="round" stroke-linejoin="round"/>
<path d="M340 206.383C342.872 206.383 345.2 204.055 345.2 201.183C345.2 198.312 342.872 195.983 340 195.983C337.128 195.983 334.8 198.312 334.8 201.183C334.8 204.055 337.128 206.383 340 206.383Z" stroke="white" stroke-width="3"/>
<path d="M326.033 198.15C329.317 183.717 350.7 183.734 353.967 198.167C355.883 206.633 350.617 213.8 346 218.234C342.65 221.467 337.35 221.467 333.983 218.234C329.383 213.8 324.117 206.617 326.033 198.15Z" stroke="white" stroke-width="3"/>
<path d="M484.25 211.5V215" stroke="white" stroke-width="3" stroke-linecap="round" stroke-linejoin="round"/>
<path d="M475.917 220.667H492.583V219C492.583 217.167 491.083 215.667 489.25 215.667H479.25C477.417 215.667 475.917 217.167 475.917 219V220.667V220.667Z" stroke="white" stroke-width="3" stroke-miterlimit="10"/>
<path d="M474.25 220.667H494.25" stroke="white" stroke-width="3" stroke-linecap="round" stroke-linejoin="round"/>
<path d="M484 210.667C477.55 210.667 472.333 205.45 472.333 199V194C472.333 190.317 475.317 187.333 479 187.333H489C492.683 187.333 495.667 190.317 495.667 194V199C495.667 205.45 490.45 210.667 484 210.667Z" stroke="white" stroke-width="3" stroke-linecap="round" stroke-linejoin="round"/>
<path d="M473.117 203.417C471.867 203.017 470.767 202.283 469.9 201.417C468.4 199.75 467.4 197.75 467.4 195.417C467.4 193.083 469.233 191.25 471.567 191.25H472.65C472.317 192.017 472.15 192.867 472.15 193.75V198.75C472.15 200.417 472.5 201.983 473.117 203.417Z" stroke="white" stroke-width="3" stroke-linecap="round" stroke-linejoin="round"/>
<path d="M494.883 203.417C496.133 203.017 497.233 202.283 498.1 201.417C499.6 199.75 500.6 197.75 500.6 195.417C500.6 193.083 498.767 191.25 496.433 191.25H495.35C495.683 192.017 495.85 192.867 495.85 193.75V198.75C495.85 200.417 495.5 201.983 494.883 203.417Z" stroke="white" stroke-width="3" stroke-linecap="round" stroke-linejoin="round"/>
<path d="M65.3467 267.893L73.2133 271.387C75.48 272.387 75.48 274.04 73.2133 275.04L65.3467 278.533C64.4533 278.933 62.9867 278.933 62.0933 278.533L54.2267 275.04C51.96 274.04 51.96 272.387 54.2267 271.387L62.0933 267.893C62.9867 267.493 64.4533 267.493 65.3467 267.893Z" stroke="white" stroke-width="2.5" stroke-linecap="round" stroke-linejoin="round"/>
<path d="M52 278.667C52 279.787 52.84 281.08 53.8667 281.533L62.92 285.56C63.6133 285.867 64.4 285.867 65.08 285.56L74.1333 281.533C75.16 281.08 76 279.787 76 278.667" stroke="white" stroke-width="2.5" stroke-linecap="round" stroke-linejoin="round"/>
<path d="M52 285.333C52 286.573 52.7333 287.693 53.8667 288.2L62.92 292.227C63.6133 292.533 64.4 292.533 65.08 292.227L74.1333 288.2C75.2667 287.693 76 286.573 76 285.333" stroke="white" stroke-width="2.5" stroke-linecap="round" stroke-linejoin="round"/>
<path d="M188.013 278.96V284.947C188.013 290.933 190.413 293.333 196.4 293.333H203.587C209.573 293.333 211.973 290.933 211.973 284.947V278.96" stroke="white" stroke-width="2.5" stroke-linecap="round" stroke-linejoin="round"/>
<path d="M200 280C202.44 280 204.24 278.013 204 275.573L203.12 266.667H196.893L196 275.573C195.76 278.013 197.56 280 200 280Z" stroke="white" stroke-width="2.5" stroke-linecap="round" stroke-linejoin="round"/>
<path d="M208.413 280C211.107 280 213.08 277.813 212.813 275.133L212.44 271.467C211.96 268 210.627 266.667 207.133 266.667H203.067L204 276.013C204.227 278.213 206.213 280 208.413 280Z" stroke="white" stroke-width="2.5" stroke-linecap="round" stroke-linejoin="round"/>
<path d="M191.52 280C193.72 280 195.707 278.213 195.92 276.013L196.213 273.067L196.853 266.667H192.787C189.293 266.667 187.96 268 187.48 271.467L187.12 275.133C186.853 277.813 188.827 280 191.52 280Z" stroke="white" stroke-width="2.5" stroke-linecap="round" stroke-linejoin="round"/>
<path d="M200 286.667C197.773 286.667 196.667 287.773 196.667 290V293.333H203.333V290C203.333 287.773 202.227 286.667 200 286.667Z" stroke="white" stroke-width="2.5" stroke-linecap="round" stroke-linejoin="round"/>
<path d="M336 281.906C338.298 281.906 340.16 280.044 340.16 277.746C340.16 275.449 338.298 273.586 336 273.586C333.703 273.586 331.84 275.449 331.84 277.746C331.84 280.044 333.703 281.906 336 281.906Z" stroke="white" stroke-width="2.5"/>
<path d="M324.827 275.32C327.453 263.773 344.56 263.787 347.173 275.333C348.707 282.107 344.493 287.84 340.8 291.387C338.12 293.973 333.88 293.973 331.187 291.387C327.507 287.84 323.293 282.093 324.827 275.32Z" stroke="white" stroke-width="2.5"/>
<path d="M472.2 286V288.8" stroke="white" stroke-width="2.5" stroke-linecap="round" stroke-linejoin="round"/>
<path d="M465.533 293.333H478.867V292C478.867 290.533 477.667 289.333 476.2 289.333H468.2C466.733 289.333 465.533 290.533 465.533 292V293.333V293.333Z" stroke="white" stroke-width="2.5" stroke-miterlimit="10"/>
<path d="M464.2 293.333H480.2" stroke="white" stroke-width="2.5" stroke-linecap="round" stroke-linejoin="round"/>
<path d="M472 285.333C466.84 285.333 462.667 281.16 462.667 276V272C462.667 269.053 465.053 266.667 468 266.667H476C478.947 266.667 481.333 269.053 481.333 272V276C481.333 281.16 477.16 285.333 472 285.333Z" stroke="white" stroke-width="2.5" stroke-linecap="round" stroke-linejoin="round"/>
<path d="M463.293 279.533C462.293 279.213 461.413 278.626 460.72 277.933C459.52 276.6 458.72 275 458.72 273.133C458.72 271.266 460.187 269.8 462.053 269.8H462.92C462.653 270.413 462.52 271.093 462.52 271.8V275.8C462.52 277.133 462.8 278.386 463.293 279.533Z" stroke="white" stroke-width="2.5" stroke-linecap="round" stroke-linejoin="round"/>
<path d="M480.707 279.533C481.707 279.213 482.587 278.626 483.28 277.933C484.48 276.6 485.28 275 485.28 273.133C485.28 271.266 483.813 269.8 481.947 269.8H481.08C481.347 270.413 481.48 271.093 481.48 271.8V275.8C481.48 277.133 481.2 278.386 480.707 279.533Z" stroke="white" stroke-width="2.5" stroke-linecap="round" stroke-linejoin="round"/>
</svg>
