<svg width="1440" height="201" viewBox="0 0 1440 201" fill="none" xmlns="http://www.w3.org/2000/svg">
<g opacity="0.15" clip-path="url(#clip0_655_57579)">
<path d="M285.937 0H-3.63614V174.5H285.937L335.11 87.25L285.937 0Z" fill="#E84C88"/>
<path d="M-3.63614 349V0H92.1417L236.765 262.459L189.067 349H-3.63614Z" fill="#B2215A"/>
<path d="M585.127 126.731H520.055V155.305H576.604V187.151H520.055V245.391H486.126V94.8844H585.182V126.731H585.127ZM605.397 245.391V94.8844H639.326V245.391H605.397ZM742.972 159.231H816.403V170.846C816.403 185.461 813.071 198.657 806.46 210.491C799.903 222.269 790.779 231.485 779.141 238.193C767.449 244.791 754.391 248.117 739.858 248.117C728.766 248.117 718.276 246.154 708.496 242.173C698.662 238.138 690.302 232.63 683.309 225.759C676.315 218.889 670.797 210.654 666.754 201.057C662.766 191.405 660.799 181.098 660.799 170.192C660.799 159.286 662.82 148.979 666.863 139.436C670.906 129.784 676.479 121.496 683.527 114.625C690.576 107.754 699.044 102.301 708.933 98.3199C718.823 94.3391 729.367 92.376 740.513 92.376C753.462 92.376 765.428 94.9935 776.355 100.174C787.391 105.3 796.352 112.334 803.236 121.278L777.612 141.509C773.35 136.274 768.05 132.129 761.712 129.13C755.374 126.131 748.545 124.659 741.114 124.659C728.111 124.659 717.184 129.021 708.442 137.746C699.754 146.416 695.438 157.268 695.438 170.247C695.438 183.225 699.754 194.131 708.442 202.856C717.129 211.527 727.947 215.835 740.896 215.835C750.348 215.835 758.653 213.435 765.755 208.582C772.858 203.729 777.666 197.403 780.07 189.496H742.917V159.34L742.972 159.231ZM908.684 248.063C897.539 248.063 886.994 246.1 877.105 242.119C867.215 238.084 858.747 232.576 851.699 225.705C844.651 218.834 839.132 210.6 835.034 201.002C830.991 191.35 828.97 181.044 828.97 170.138C828.97 159.231 830.991 148.925 835.034 139.382C839.078 129.73 844.651 121.441 851.699 114.57C858.747 107.699 867.215 102.246 877.105 98.2654C886.994 94.2846 897.539 92.3215 908.684 92.3215C922.726 92.3215 935.511 95.3207 947.094 101.374C958.786 107.318 968.184 115.606 975.396 126.185L946.056 144.29C941.958 138.237 936.604 133.493 930.047 130.003C923.491 126.513 916.388 124.768 908.684 124.768C895.9 124.768 885.191 129.076 876.558 137.746C867.926 146.307 863.664 157.159 863.664 170.138C863.664 183.116 867.98 193.968 876.558 202.638C885.136 211.254 895.845 215.508 908.684 215.508C916.443 215.508 923.546 213.817 930.047 210.382C936.604 206.892 941.904 202.147 946.056 196.094L975.396 214.199C968.184 224.778 958.786 233.067 947.094 239.12C935.511 245.064 922.671 248.063 908.684 248.063ZM1094.28 242.119C1084.45 246.1 1073.96 248.063 1062.81 248.063C1051.67 248.063 1041.12 246.1 1031.23 242.119C1021.35 238.084 1012.88 232.576 1005.83 225.705C998.78 218.834 993.262 210.6 989.164 201.002C985.121 191.35 983.099 181.044 983.099 170.138C983.099 159.231 985.121 148.925 989.164 139.382C993.207 129.73 998.78 121.441 1005.83 114.57C1012.88 107.699 1021.35 102.246 1031.23 98.2654C1041.12 94.2846 1051.67 92.3215 1062.81 92.3215C1077.68 92.3215 1091.17 95.7024 1103.35 102.573C1115.59 109.335 1125.21 118.66 1132.15 130.602C1139.14 142.436 1142.58 155.687 1142.58 170.192C1142.58 181.153 1140.51 191.405 1136.41 201.057C1132.37 210.654 1126.79 218.889 1119.64 225.759C1112.59 232.63 1104.12 238.084 1094.23 242.173L1094.28 242.119ZM1030.63 202.584C1039.27 211.2 1049.97 215.453 1062.76 215.453C1075.54 215.453 1086.25 211.145 1094.89 202.584C1103.52 193.913 1107.78 183.116 1107.78 170.083C1107.78 157.05 1103.46 146.307 1094.89 137.691C1086.31 129.021 1075.54 124.713 1062.76 124.713C1049.97 124.713 1039.27 129.021 1030.63 137.691C1022 146.253 1017.74 157.105 1017.74 170.083C1017.74 183.061 1022.06 193.913 1030.63 202.584ZM1260.54 94.8844H1294.47V245.391H1260.11L1197.66 153.342V245.391H1163.73V94.8844H1197.88L1260.49 186.933V94.8844H1260.54ZM1376.76 248.063C1365.17 248.063 1353.53 245.881 1341.95 241.574C1330.37 237.266 1320.59 231.54 1312.72 224.396L1330.21 198.712C1336.49 204.438 1343.76 209.127 1352.06 212.672C1360.47 216.162 1368.61 217.907 1376.48 217.907C1383.48 217.907 1389.38 216.544 1394.18 213.763C1399.1 210.981 1401.56 207.437 1401.56 203.129C1401.56 201.439 1401.18 199.912 1400.47 198.548C1399.81 197.131 1398.66 195.822 1397.08 194.731C1395.5 193.586 1393.97 192.659 1392.49 191.841C1391.07 190.969 1388.94 190.151 1386.1 189.278C1383.26 188.351 1380.96 187.697 1379.16 187.26C1377.47 186.77 1374.84 186.115 1371.24 185.243C1336.11 176.79 1318.51 160.758 1318.51 137.201C1318.51 123.731 1323.87 112.825 1334.52 104.591C1345.18 96.3568 1359.22 92.2124 1376.7 92.2124C1387.85 92.2124 1398.06 93.9029 1407.3 97.3383C1416.64 100.719 1424.18 105.191 1430.03 110.753L1414.24 136.546C1409.81 132.347 1404.18 128.966 1397.24 126.294C1390.31 123.622 1383.42 122.368 1376.43 122.368C1369.43 122.368 1364.13 123.677 1359.76 126.185C1355.45 128.694 1353.26 131.911 1353.26 135.892C1353.26 138.237 1354.03 140.364 1355.5 142.272C1356.98 144.181 1359.11 145.817 1361.89 147.18C1364.74 148.543 1367.63 149.688 1370.53 150.561C1373.53 151.488 1376.92 152.36 1380.8 153.124C1383.42 153.669 1385.88 154.269 1388.17 154.923C1390.47 155.469 1393.58 156.505 1397.57 157.923C1401.56 159.286 1405.17 160.758 1408.34 162.394C1411.56 163.976 1414.95 166.048 1418.61 168.665C1422.21 171.228 1425.27 174.009 1427.68 177.063C1430.19 180.062 1432.21 183.661 1433.85 187.915C1435.49 192.114 1436.31 196.585 1436.31 201.438C1436.31 210.436 1433.69 218.561 1428.39 225.705C1423.14 232.794 1415.98 238.302 1406.91 242.228C1397.9 246.045 1387.79 247.954 1376.59 247.954L1376.76 248.063Z" fill="#0E0E0E"/>
</g>
<defs>
<clipPath id="clip0_655_57579">
<rect width="1440" height="349" fill="white"/>
</clipPath>
</defs>
</svg>
