<svg width="1440" height="200" viewBox="0 0 1440 200" fill="none" xmlns="http://www.w3.org/2000/svg">
<g clip-path="url(#clip0_355_646)">
<path d="M289.574 0H0V174H289.574L338.746 87L289.574 0Z" fill="#ECECEC"/>
<path d="M0 348V0H95.7778L240.401 261.707L192.703 348H0Z" fill="#E1E1E1" fill-opacity="0.8"/>
<path d="M588.763 126.368H523.691V154.86H580.24V186.615H523.691V244.688H489.762V94.6126H588.818V126.368H588.763ZM609.033 244.688V94.6126H642.963V244.688H609.033ZM746.608 158.775H820.039V170.357C820.039 184.929 816.707 198.088 810.096 209.888C803.539 221.633 794.415 230.822 782.777 237.51C771.085 244.089 758.027 247.406 743.494 247.406C732.402 247.406 721.912 245.449 712.132 241.479C702.298 237.456 693.938 231.964 686.945 225.113C679.951 218.261 674.433 210.051 670.39 200.481C666.402 190.856 664.435 180.579 664.435 169.704C664.435 158.829 666.456 148.553 670.499 139.037C674.542 129.413 680.115 121.148 687.163 114.296C694.212 107.445 702.68 102.008 712.569 98.0382C722.459 94.0689 733.003 92.1114 744.149 92.1114C757.098 92.1114 769.064 94.7214 779.991 99.887C791.027 104.998 799.988 112.013 806.872 120.93L781.248 141.103C776.986 135.883 771.686 131.751 765.348 128.76C759.01 125.769 752.181 124.301 744.75 124.301C731.747 124.301 720.82 128.651 712.078 137.351C703.39 145.997 699.074 156.818 699.074 169.759C699.074 182.7 703.39 193.575 712.078 202.275C720.765 210.921 731.583 215.216 744.532 215.216C753.984 215.216 762.289 212.824 769.391 207.984C776.494 203.145 781.302 196.838 783.706 188.953H746.553V158.884L746.608 158.775ZM912.32 247.352C901.175 247.352 890.63 245.395 880.741 241.425C870.851 237.401 862.383 231.909 855.335 225.058C848.287 218.207 842.768 209.996 838.671 200.426C834.627 190.802 832.606 180.525 832.606 169.65C832.606 158.775 834.627 148.498 838.671 138.983C842.714 129.358 848.287 121.093 855.335 114.242C862.383 107.391 870.851 101.953 880.741 97.9839C890.63 94.0145 901.175 92.057 912.32 92.057C926.362 92.057 939.147 95.0476 950.73 101.083C962.422 107.01 971.82 115.275 979.032 125.824L949.692 143.876C945.594 137.841 940.24 133.11 933.683 129.63C927.127 126.15 920.024 124.41 912.32 124.41C899.536 124.41 888.827 128.706 880.194 137.351C871.562 145.888 867.3 156.709 867.3 169.65C867.3 182.591 871.616 193.412 880.194 202.058C888.772 210.649 899.481 214.89 912.32 214.89C920.079 214.89 927.182 213.205 933.683 209.779C940.24 206.299 945.54 201.568 949.692 195.533L979.032 213.585C971.82 224.134 962.422 232.399 950.73 238.434C939.147 244.361 926.307 247.352 912.32 247.352ZM1097.92 241.425C1088.09 245.395 1077.6 247.352 1066.45 247.352C1055.3 247.352 1044.76 245.395 1034.87 241.425C1024.98 237.401 1016.51 231.909 1009.46 225.058C1002.42 218.207 996.898 209.996 992.8 200.426C988.757 190.802 986.735 180.525 986.735 169.65C986.735 158.775 988.757 148.498 992.8 138.983C996.843 129.358 1002.42 121.093 1009.46 114.242C1016.51 107.391 1024.98 101.953 1034.87 97.9839C1044.76 94.0145 1055.3 92.057 1066.45 92.057C1081.31 92.057 1094.81 95.4282 1106.99 102.279C1119.23 109.022 1128.85 118.32 1135.78 130.228C1142.78 142.028 1146.22 155.241 1146.22 169.704C1146.22 180.634 1144.14 190.856 1140.05 200.481C1136 210.051 1130.43 218.261 1123.27 225.113C1116.22 231.964 1107.76 237.401 1097.87 241.479L1097.92 241.425ZM1034.27 202.003C1042.9 210.595 1053.61 214.836 1066.4 214.836C1079.18 214.836 1089.89 210.54 1098.52 202.003C1107.15 193.358 1111.42 182.591 1111.42 169.596C1111.42 156.6 1107.1 145.888 1098.52 137.297C1089.94 128.651 1079.18 124.356 1066.4 124.356C1053.61 124.356 1042.9 128.651 1034.27 137.297C1025.64 145.834 1021.38 156.654 1021.38 169.596C1021.38 182.537 1025.69 193.358 1034.27 202.003ZM1264.18 94.6126H1298.11V244.688H1263.74L1201.29 152.903V244.688H1167.36V94.6126H1201.51L1264.12 186.398V94.6126H1264.18ZM1380.39 247.352C1368.81 247.352 1357.17 245.177 1345.59 240.881C1334.01 236.586 1324.23 230.876 1316.36 223.753L1333.84 198.143C1340.12 203.852 1347.39 208.528 1355.7 212.063C1364.11 215.543 1372.25 217.283 1380.12 217.283C1387.11 217.283 1393.01 215.923 1397.82 213.15C1402.74 210.377 1405.2 206.843 1405.2 202.547C1405.2 200.861 1404.81 199.339 1404.1 197.979C1403.45 196.566 1402.3 195.261 1400.72 194.173C1399.13 193.031 1397.6 192.107 1396.13 191.291C1394.71 190.421 1392.58 189.606 1389.73 188.736C1386.89 187.811 1384.6 187.159 1382.8 186.724C1381.1 186.234 1378.48 185.582 1374.87 184.712C1339.74 176.284 1322.15 160.298 1322.15 136.808C1322.15 123.377 1327.5 112.502 1338.16 104.291C1348.81 96.0807 1362.85 91.9482 1380.34 91.9482C1391.48 91.9482 1401.7 93.6339 1410.93 97.0595C1420.28 100.431 1427.82 104.889 1433.66 110.436L1417.87 136.155C1413.45 131.968 1407.82 128.597 1400.88 125.933C1393.94 123.268 1387.06 122.018 1380.06 122.018C1373.07 122.018 1367.77 123.323 1363.4 125.824C1359.08 128.325 1356.9 131.533 1356.9 135.503C1356.9 137.841 1357.66 139.961 1359.14 141.864C1360.61 143.768 1362.74 145.399 1365.53 146.758C1368.37 148.118 1371.27 149.259 1374.16 150.129C1377.17 151.054 1380.56 151.924 1384.43 152.685C1387.06 153.229 1389.52 153.827 1391.81 154.479C1394.11 155.023 1397.22 156.056 1401.21 157.47C1405.2 158.829 1408.8 160.298 1411.97 161.929C1415.19 163.506 1418.58 165.572 1422.24 168.182C1425.85 170.738 1428.91 173.511 1431.31 176.556C1433.83 179.546 1435.85 183.135 1437.49 187.376C1439.13 191.563 1439.95 196.022 1439.95 200.861C1439.95 209.833 1437.32 217.935 1432.02 225.058C1426.78 232.127 1419.62 237.619 1410.55 241.534C1401.54 245.34 1391.43 247.243 1380.23 247.243L1380.39 247.352Z" fill="#ECECEC"/>
</g>
<defs>
<clipPath id="clip0_355_646">
<rect width="1440" height="348" fill="white"/>
</clipPath>
</defs>
</svg>
