<svg width="352" height="408" viewBox="0 0 352 408" fill="none" xmlns="http://www.w3.org/2000/svg">
<rect width="352" height="408" rx="24" fill="#F6F6F6"/>
<g filter="url(#filter0_d_652_5314)">
<rect x="24" y="40" width="304" height="48" rx="12" fill="white" shape-rendering="crispEdges"/>
<path d="M48 54C45.38 54 43.25 56.13 43.25 58.75C43.25 61.32 45.26 63.4 47.88 63.49C47.96 63.48 48.04 63.48 48.1 63.49C48.12 63.49 48.13 63.49 48.15 63.49C48.16 63.49 48.16 63.49 48.17 63.49C50.73 63.4 52.74 61.32 52.75 58.75C52.75 56.13 50.62 54 48 54Z" fill="#E84C88"/>
<path d="M53.08 66.1499C50.29 64.2899 45.74 64.2899 42.93 66.1499C41.66 66.9999 40.96 68.1499 40.96 69.3799C40.96 70.6099 41.66 71.7499 42.92 72.5899C44.32 73.5299 46.16 73.9999 48 73.9999C49.84 73.9999 51.68 73.5299 53.08 72.5899C54.34 71.7399 55.04 70.5999 55.04 69.3599C55.03 68.1299 54.34 66.9899 53.08 66.1499Z" fill="#E84C88"/>
<rect x="72" y="55" width="80" height="6" rx="3" fill="#F6F6F6"/>
<rect x="72" y="67" width="244" height="6" rx="3" fill="#F6F6F6"/>
</g>
<g filter="url(#filter1_d_652_5314)">
<rect x="24" y="96" width="304" height="48" rx="12" fill="white" shape-rendering="crispEdges"/>
<path d="M56.05 118.63L51.38 116.62L50.34 116.18C50.18 116.1 50.04 115.89 50.04 115.71V112.65C50.04 111.69 49.33 110.55 48.47 110.11C48.17 109.96 47.81 109.96 47.51 110.11C46.66 110.55 45.95 111.7 45.95 112.66V115.72C45.95 115.9 45.81 116.11 45.65 116.19L39.95 118.64C39.32 118.9 38.81 119.69 38.81 120.37V121.69C38.81 122.54 39.45 122.96 40.24 122.62L45.25 120.46C45.64 120.29 45.96 120.5 45.96 120.93V122.04V123.84C45.96 124.07 45.83 124.4 45.67 124.56L43.35 126.89C43.11 127.13 43 127.6 43.11 127.94L43.56 129.3C43.74 129.89 44.41 130.17 44.96 129.89L47.34 127.89C47.7 127.58 48.29 127.58 48.65 127.89L51.03 129.89C51.58 130.16 52.25 129.89 52.45 129.3L52.9 127.94C53.01 127.61 52.9 127.13 52.66 126.89L50.34 124.56C50.17 124.4 50.04 124.07 50.04 123.84V120.93C50.04 120.5 50.35 120.3 50.75 120.46L55.76 122.62C56.55 122.96 57.19 122.54 57.19 121.69V120.37C57.19 119.69 56.68 118.9 56.05 118.63Z" fill="#E84C88"/>
<rect x="72" y="111" width="80" height="6" rx="3" fill="#F6F6F6"/>
<rect x="72" y="123" width="244" height="6" rx="3" fill="#F6F6F6"/>
</g>
<g filter="url(#filter2_d_652_5314)">
<rect x="24" y="152" width="304" height="48" rx="12" fill="white" shape-rendering="crispEdges"/>
<path d="M57.53 179.93C57.37 179.66 56.92 179.24 55.8 179.44C55.18 179.55 54.55 179.6 53.92 179.57C51.59 179.47 49.48 178.4 48.01 176.75C46.71 175.3 45.91 173.41 45.9 171.37C45.9 170.23 46.12 169.13 46.57 168.09C47.01 167.08 46.7 166.55 46.48 166.33C46.25 166.1 45.71 165.78 44.65 166.22C40.56 167.94 38.03 172.04 38.33 176.43C38.63 180.56 41.53 184.09 45.37 185.42C46.29 185.74 47.26 185.93 48.26 185.97C48.42 185.98 48.58 185.99 48.74 185.99C52.09 185.99 55.23 184.41 57.21 181.72C57.88 180.79 57.7 180.2 57.53 179.93Z" fill="#E84C88"/>
<rect x="72" y="167" width="80" height="6" rx="3" fill="#F6F6F6"/>
<rect x="72" y="179" width="244" height="6" rx="3" fill="#F6F6F6"/>
</g>
<g filter="url(#filter3_d_652_5314)">
<rect x="24" y="208" width="304" height="48" rx="12" fill="white" shape-rendering="crispEdges"/>
<path d="M52.65 223.86H45.91V226.88C45.91 227.27 45.59 227.58 45.21 227.58C44.83 227.58 44.51 227.27 44.51 226.88V223.86H43.35C39.4 223.86 38.1 225.04 38.01 228.73C38 228.91 38.08 229.1 38.21 229.23C38.34 229.37 38.51 229.44 38.71 229.44C40.11 229.44 41.26 230.6 41.26 232C41.26 233.4 40.11 234.56 38.71 234.56C38.52 234.56 38.34 234.63 38.21 234.77C38.08 234.9 38 235.09 38.01 235.27C38.1 238.96 39.4 240.14 43.35 240.14H44.51V237.12C44.51 236.73 44.83 236.42 45.21 236.42C45.59 236.42 45.91 236.73 45.91 237.12V240.14H52.65C56.75 240.14 58 238.89 58 234.79V229.21C58 225.11 56.75 223.86 52.65 223.86ZM54.47 231.9L53.54 232.8C53.5 232.83 53.49 232.89 53.5 232.94L53.72 234.21C53.76 234.44 53.67 234.68 53.47 234.82C53.28 234.96 53.03 234.98 52.82 234.87L51.67 234.27C51.63 234.25 51.57 234.25 51.53 234.27L50.38 234.87C50.29 234.92 50.19 234.94 50.09 234.94C49.96 234.94 49.84 234.9 49.73 234.82C49.54 234.68 49.44 234.45 49.48 234.21L49.7 232.94C49.71 232.89 49.69 232.84 49.66 232.8L48.73 231.9C48.56 231.74 48.5 231.49 48.57 231.27C48.64 231.04 48.83 230.88 49.07 230.85L50.35 230.66C50.4 230.65 50.44 230.62 50.47 230.58L51.04 229.42C51.15 229.21 51.36 229.08 51.6 229.08C51.84 229.08 52.05 229.21 52.15 229.42L52.72 230.58C52.74 230.63 52.78 230.66 52.83 230.66L54.11 230.85C54.35 230.88 54.54 231.05 54.61 231.27C54.7 231.49 54.64 231.73 54.47 231.9Z" fill="#E84C88"/>
<rect x="72" y="223" width="80" height="6" rx="3" fill="#F6F6F6"/>
<rect x="72" y="235" width="244" height="6" rx="3" fill="#F6F6F6"/>
</g>
<g filter="url(#filter4_d_652_5314)">
<rect x="24" y="264" width="304" height="48" rx="12" fill="white" shape-rendering="crispEdges"/>
<path d="M56.89 281.18V292.48C56.89 294.46 55.28 296.07 53.3 296.07C51.33 296.07 49.71 294.46 49.71 292.48C49.71 290.51 51.33 288.9 53.3 288.9C54.14 288.9 54.89 289.19 55.5 289.67V283.72L46.29 286.34V294.41C46.29 296.39 44.67 298 42.7 298C40.72 298 39.11 296.39 39.11 294.41C39.11 292.44 40.72 290.83 42.7 290.83C43.53 290.83 44.28 291.12 44.89 291.59V282.75C44.89 281.28 45.78 280.14 47.19 279.76L52.97 278.18C54.14 277.86 55.13 277.97 55.83 278.51C56.54 279.04 56.89 279.94 56.89 281.18Z" fill="#E84C88"/>
<rect x="72" y="279" width="80" height="6" rx="3" fill="#F6F6F6"/>
<rect x="72" y="291" width="244" height="6" rx="3" fill="#F6F6F6"/>
</g>
<g filter="url(#filter5_d_652_5314)">
<rect x="24" y="320" width="304" height="48" rx="12" fill="white" shape-rendering="crispEdges"/>
<path d="M53.18 337.25C51.47 337.25 49.43 337.9 49.43 341V347C49.43 350.1 51.47 350.75 53.18 350.75C54.89 350.75 56.93 350.1 56.93 347V341C56.93 337.9 54.89 337.25 53.18 337.25Z" fill="#E84C88"/>
<path d="M42.82 337.25C41.11 337.25 39.07 337.9 39.07 341V347C39.07 350.1 41.11 350.75 42.82 350.75C44.53 350.75 46.57 350.1 46.57 347V341C46.57 337.9 44.53 337.25 42.82 337.25Z" fill="#E84C88"/>
<path d="M49.43 343.25H46.57V344.75H49.43V343.25Z" fill="#E84C88"/>
<path d="M58.5 347.25C58.09 347.25 57.75 346.91 57.75 346.5V341.5C57.75 341.09 58.09 340.75 58.5 340.75C58.91 340.75 59.25 341.09 59.25 341.5V346.5C59.25 346.91 58.91 347.25 58.5 347.25Z" fill="#E84C88"/>
<path d="M37.5 347.25C37.09 347.25 36.75 346.91 36.75 346.5V341.5C36.75 341.09 37.09 340.75 37.5 340.75C37.91 340.75 38.25 341.09 38.25 341.5V346.5C38.25 346.91 37.91 347.25 37.5 347.25Z" fill="#E84C88"/>
<rect x="72" y="335" width="80" height="6" rx="3" fill="#F6F6F6"/>
<rect x="72" y="347" width="244" height="6" rx="3" fill="#F6F6F6"/>
</g>
<defs>
<filter id="filter0_d_652_5314" x="12" y="28" width="328" height="72" filterUnits="userSpaceOnUse" color-interpolation-filters="sRGB">
<feFlood flood-opacity="0" result="BackgroundImageFix"/>
<feColorMatrix in="SourceAlpha" type="matrix" values="0 0 0 0 0 0 0 0 0 0 0 0 0 0 0 0 0 0 127 0" result="hardAlpha"/>
<feOffset/>
<feGaussianBlur stdDeviation="6"/>
<feComposite in2="hardAlpha" operator="out"/>
<feColorMatrix type="matrix" values="0 0 0 0 0 0 0 0 0 0 0 0 0 0 0 0 0 0 0.05 0"/>
<feBlend mode="normal" in2="BackgroundImageFix" result="effect1_dropShadow_652_5314"/>
<feBlend mode="normal" in="SourceGraphic" in2="effect1_dropShadow_652_5314" result="shape"/>
</filter>
<filter id="filter1_d_652_5314" x="12" y="84" width="328" height="72" filterUnits="userSpaceOnUse" color-interpolation-filters="sRGB">
<feFlood flood-opacity="0" result="BackgroundImageFix"/>
<feColorMatrix in="SourceAlpha" type="matrix" values="0 0 0 0 0 0 0 0 0 0 0 0 0 0 0 0 0 0 127 0" result="hardAlpha"/>
<feOffset/>
<feGaussianBlur stdDeviation="6"/>
<feComposite in2="hardAlpha" operator="out"/>
<feColorMatrix type="matrix" values="0 0 0 0 0 0 0 0 0 0 0 0 0 0 0 0 0 0 0.05 0"/>
<feBlend mode="normal" in2="BackgroundImageFix" result="effect1_dropShadow_652_5314"/>
<feBlend mode="normal" in="SourceGraphic" in2="effect1_dropShadow_652_5314" result="shape"/>
</filter>
<filter id="filter2_d_652_5314" x="12" y="140" width="328" height="72" filterUnits="userSpaceOnUse" color-interpolation-filters="sRGB">
<feFlood flood-opacity="0" result="BackgroundImageFix"/>
<feColorMatrix in="SourceAlpha" type="matrix" values="0 0 0 0 0 0 0 0 0 0 0 0 0 0 0 0 0 0 127 0" result="hardAlpha"/>
<feOffset/>
<feGaussianBlur stdDeviation="6"/>
<feComposite in2="hardAlpha" operator="out"/>
<feColorMatrix type="matrix" values="0 0 0 0 0 0 0 0 0 0 0 0 0 0 0 0 0 0 0.05 0"/>
<feBlend mode="normal" in2="BackgroundImageFix" result="effect1_dropShadow_652_5314"/>
<feBlend mode="normal" in="SourceGraphic" in2="effect1_dropShadow_652_5314" result="shape"/>
</filter>
<filter id="filter3_d_652_5314" x="12" y="196" width="328" height="72" filterUnits="userSpaceOnUse" color-interpolation-filters="sRGB">
<feFlood flood-opacity="0" result="BackgroundImageFix"/>
<feColorMatrix in="SourceAlpha" type="matrix" values="0 0 0 0 0 0 0 0 0 0 0 0 0 0 0 0 0 0 127 0" result="hardAlpha"/>
<feOffset/>
<feGaussianBlur stdDeviation="6"/>
<feComposite in2="hardAlpha" operator="out"/>
<feColorMatrix type="matrix" values="0 0 0 0 0 0 0 0 0 0 0 0 0 0 0 0 0 0 0.05 0"/>
<feBlend mode="normal" in2="BackgroundImageFix" result="effect1_dropShadow_652_5314"/>
<feBlend mode="normal" in="SourceGraphic" in2="effect1_dropShadow_652_5314" result="shape"/>
</filter>
<filter id="filter4_d_652_5314" x="12" y="252" width="328" height="72" filterUnits="userSpaceOnUse" color-interpolation-filters="sRGB">
<feFlood flood-opacity="0" result="BackgroundImageFix"/>
<feColorMatrix in="SourceAlpha" type="matrix" values="0 0 0 0 0 0 0 0 0 0 0 0 0 0 0 0 0 0 127 0" result="hardAlpha"/>
<feOffset/>
<feGaussianBlur stdDeviation="6"/>
<feComposite in2="hardAlpha" operator="out"/>
<feColorMatrix type="matrix" values="0 0 0 0 0 0 0 0 0 0 0 0 0 0 0 0 0 0 0.05 0"/>
<feBlend mode="normal" in2="BackgroundImageFix" result="effect1_dropShadow_652_5314"/>
<feBlend mode="normal" in="SourceGraphic" in2="effect1_dropShadow_652_5314" result="shape"/>
</filter>
<filter id="filter5_d_652_5314" x="12" y="308" width="328" height="72" filterUnits="userSpaceOnUse" color-interpolation-filters="sRGB">
<feFlood flood-opacity="0" result="BackgroundImageFix"/>
<feColorMatrix in="SourceAlpha" type="matrix" values="0 0 0 0 0 0 0 0 0 0 0 0 0 0 0 0 0 0 127 0" result="hardAlpha"/>
<feOffset/>
<feGaussianBlur stdDeviation="6"/>
<feComposite in2="hardAlpha" operator="out"/>
<feColorMatrix type="matrix" values="0 0 0 0 0 0 0 0 0 0 0 0 0 0 0 0 0 0 0.05 0"/>
<feBlend mode="normal" in2="BackgroundImageFix" result="effect1_dropShadow_652_5314"/>
<feBlend mode="normal" in="SourceGraphic" in2="effect1_dropShadow_652_5314" result="shape"/>
</filter>
</defs>
</svg>
