<svg width="461" height="504" viewBox="0 0 461 504" fill="none" xmlns="http://www.w3.org/2000/svg">
<path d="M12.5 19V21.2C12.5 21.48 12.5 21.62 12.4455 21.727C12.3976 21.8211 12.3211 21.8976 12.227 21.9455C12.12 22 11.98 22 11.7 22H9.8C9.51997 22 9.37996 22 9.273 21.9455C9.17892 21.8976 9.10243 21.8211 9.0545 21.727C9 21.62 9 21.48 9 21.2V19M23 19V21.2C23 21.48 23 21.62 22.9455 21.727C22.8976 21.8211 22.8211 21.8976 22.727 21.9455C22.62 22 22.48 22 22.2 22H20.3C20.02 22 19.88 22 19.773 21.9455C19.6789 21.8976 19.6024 21.8211 19.5545 21.727C19.5 21.62 19.5 21.48 19.5 21.2V19M7 12H25M7 5.5H25M10.5 15.5H12M20 15.5H21.5M11.8 19H20.2C21.8802 19 22.7202 19 23.362 18.673C23.9265 18.3854 24.3854 17.9265 24.673 17.362C25 16.7202 25 15.8802 25 14.2V6.8C25 5.11984 25 4.27976 24.673 3.63803C24.3854 3.07354 23.9265 2.6146 23.362 2.32698C22.7202 2 21.8802 2 20.2 2H11.8C10.1198 2 9.27976 2 8.63803 2.32698C8.07354 2.6146 7.6146 3.07354 7.32698 3.63803C7 4.27976 7 5.11984 7 6.8V14.2C7 15.8802 7 16.7202 7.32698 17.362C7.6146 17.9265 8.07354 18.3854 8.63803 18.673C9.27976 19 10.1198 19 11.8 19Z" stroke="black" stroke-width="2" stroke-linecap="round" stroke-linejoin="round"/>
<path d="M54 12H74M54 12C54 17.5228 58.4772 22 64 22M54 12C54 6.47715 58.4772 2 64 2M74 12C74 17.5228 69.5228 22 64 22M74 12C74 6.47715 69.5228 2 64 2M64 2C66.5013 4.73835 67.9228 8.29203 68 12C67.9228 15.708 66.5013 19.2616 64 22M64 2C61.4987 4.73835 60.0772 8.29203 60 12C60.0772 15.708 61.4987 19.2616 64 22" stroke="black" stroke-width="2" stroke-linecap="round" stroke-linejoin="round"/>
<path d="M112 13C113.657 13 115 11.6569 115 10C115 8.34315 113.657 7 112 7C110.343 7 109 8.34315 109 10C109 11.6569 110.343 13 112 13Z" stroke="black" stroke-width="2" stroke-linecap="round" stroke-linejoin="round"/>
<path d="M112 22C116 18 120 14.4183 120 10C120 5.58172 116.418 2 112 2C107.582 2 104 5.58172 104 10C104 14.4183 108 18 112 22Z" stroke="black" stroke-width="2" stroke-linecap="round" stroke-linejoin="round"/>
<path d="M161 10.9999L151.5 20.4999M162.018 3.53838C163.236 4.34658 164.407 5.29941 165.501 6.3934C166.604 7.49683 167.564 8.67831 168.377 9.90766M157.255 7.89605L154.38 6.93776C154.049 6.8274 153.684 6.89763 153.418 7.12306L150.56 9.54065C149.975 10.0356 150.142 10.9775 150.861 11.2424L153.568 12.2398M159.681 18.3524L160.678 21.0596C160.943 21.7786 161.885 21.9448 162.38 21.3599L164.797 18.5027C165.023 18.2363 165.093 17.8716 164.983 17.5405L164.024 14.6657M167.348 2.27063L162.442 3.08838C161.912 3.17668 161.426 3.43709 161.059 3.82932L154.446 10.8985C152.732 12.7308 152.78 15.5924 154.554 17.3667C156.328 19.1409 159.19 19.1886 161.022 17.4744L168.091 10.8614C168.483 10.4944 168.744 10.0085 168.832 9.47869L169.65 4.57222C169.875 3.21858 168.702 2.04503 167.348 2.27063Z" stroke="black" stroke-width="2" stroke-linecap="round" stroke-linejoin="round"/>
<path d="M201 13H204M198 9L200 10L201.271 6.18807C201.533 5.40125 201.664 5.00784 201.907 4.71698C202.122 4.46013 202.398 4.26132 202.71 4.13878C203.062 4 203.477 4 204.306 4H211.694C212.523 4 212.938 4 213.29 4.13878C213.602 4.26132 213.878 4.46013 214.093 4.71698C214.336 5.00784 214.467 5.40125 214.729 6.18807L216 10L218 9M212 13H215M202.8 10H213.2C214.88 10 215.72 10 216.362 10.327C216.926 10.6146 217.385 11.0735 217.673 11.638C218 12.2798 218 13.1198 218 14.8V17.5C218 17.9647 218 18.197 217.962 18.3902C217.804 19.1836 217.184 19.8038 216.39 19.9616C216.197 20 215.965 20 215.5 20H215C213.895 20 213 19.1046 213 18C213 17.7239 212.776 17.5 212.5 17.5H203.5C203.224 17.5 203 17.7239 203 18C203 19.1046 202.105 20 201 20H200.5C200.035 20 199.803 20 199.61 19.9616C198.816 19.8038 198.196 19.1836 198.038 18.3902C198 18.197 198 17.9647 198 17.5V14.8C198 13.1198 198 12.2798 198.327 11.638C198.615 11.0735 199.074 10.6146 199.638 10.327C200.28 10 201.12 10 202.8 10Z" stroke="black" stroke-width="2" stroke-linecap="round" stroke-linejoin="round"/>
<path d="M256 2C258.501 4.73835 259.923 8.29203 260 12C259.923 15.708 258.501 19.2616 256 22M256 2C253.499 4.73835 252.077 8.29203 252 12C252.077 15.708 253.499 19.2616 256 22M256 2C250.477 2 246 6.47715 246 12C246 17.5228 250.477 22 256 22M256 2C261.523 2 266 6.47715 266 12C266 17.5228 261.523 22 256 22M246.5 9H265.5M246.5 15H265.5" stroke="black" stroke-width="2" stroke-linecap="round" stroke-linejoin="round"/>
<path d="M304 12.5C305.657 12.5 307 11.1569 307 9.5C307 7.84315 305.657 6.5 304 6.5C302.343 6.5 301 7.84315 301 9.5C301 11.1569 302.343 12.5 304 12.5Z" stroke="black" stroke-width="2" stroke-linecap="round" stroke-linejoin="round"/>
<path d="M304 22C306 18 312 15.4183 312 10C312 5.58172 308.418 2 304 2C299.582 2 296 5.58172 296 10C296 15.4183 302 18 304 22Z" stroke="black" stroke-width="2" stroke-linecap="round" stroke-linejoin="round"/>
<path d="M352 15L349 12M352 15C353.397 14.4687 354.737 13.7987 356 13M352 15V20C352 20 355.03 19.45 356 18C357.08 16.38 356 13 356 13M349 12C349.532 10.6194 350.202 9.29607 351 8.05C352.165 6.18699 353.788 4.65305 355.713 3.5941C357.638 2.53514 359.803 1.98637 362 2C362 4.72 361.22 9.5 356 13M349 12H344C344 12 344.55 8.97 346 8C347.62 6.92 351 8 351 8M344.5 16.5C343 17.76 342.5 21.5 342.5 21.5C342.5 21.5 346.24 21 347.5 19.5C348.21 18.66 348.2 17.37 347.41 16.59C347.021 16.219 346.509 16.0046 345.972 15.988C345.435 15.9714 344.911 16.1537 344.5 16.5Z" stroke="black" stroke-width="2" stroke-linecap="round" stroke-linejoin="round"/>
<path d="M407 10V6.2C407 5.0799 407 4.51984 406.782 4.09202C406.59 3.71569 406.284 3.40973 405.908 3.21799C405.48 3 404.92 3 403.8 3H396.2C395.08 3 394.52 3 394.092 3.21799C393.716 3.40973 393.41 3.71569 393.218 4.09202C393 4.51984 393 5.0799 393 6.2V10M393 9H390V8M407 9H410V8M394 13.5H394.01M406 13.5H406.01M394.8 10H405.2C406.88 10 407.72 10 408.362 10.327C408.926 10.6146 409.385 11.0735 409.673 11.638C410 12.2798 410 13.1198 410 14.8V18C410 18.9319 410 19.3978 409.848 19.7654C409.645 20.2554 409.255 20.6448 408.765 20.8478C408.398 21 407.932 21 407 21H406.4C406.028 21 405.843 21 405.687 20.9754C404.831 20.8398 404.16 20.1687 404.025 19.3129C404 19.1574 404 18.9716 404 18.6C404 18.5071 404 18.4606 403.994 18.4218C403.96 18.2078 403.792 18.04 403.578 18.0062C403.539 18 403.493 18 403.4 18H396.6C396.507 18 396.461 18 396.422 18.0062C396.208 18.04 396.04 18.2078 396.006 18.4218C396 18.4606 396 18.5071 396 18.6C396 18.9716 396 19.1574 395.975 19.3129C395.84 20.1687 395.169 20.8398 394.313 20.9754C394.157 21 393.972 21 393.6 21H393C392.068 21 391.602 21 391.235 20.8478C390.745 20.6448 390.355 20.2554 390.152 19.7654C390 19.3978 390 18.9319 390 18V14.8C390 13.1198 390 12.2798 390.327 11.638C390.615 11.0735 391.074 10.6146 391.638 10.327C392.28 10 393.12 10 394.8 10ZM394.5 13.5C394.5 13.7761 394.276 14 394 14C393.724 14 393.5 13.7761 393.5 13.5C393.5 13.2239 393.724 13 394 13C394.276 13 394.5 13.2239 394.5 13.5ZM406.5 13.5C406.5 13.7761 406.276 14 406 14C405.724 14 405.5 13.7761 405.5 13.5C405.5 13.2239 405.724 13 406 13C406.276 13 406.5 13.2239 406.5 13.5Z" stroke="black" stroke-width="2" stroke-linecap="round" stroke-linejoin="round"/>
<path d="M448 2C451 4 451.923 8.29203 452 12C451.923 15.708 451 20 448 22M448 2C445 4 444.077 8.29203 444 12C444.077 15.708 445 20 448 22M448 2C442.477 2 438 6.47715 438 12M448 2C453.523 2 458 6.47715 458 12M448 22C453.523 22 458 17.5228 458 12M448 22C442.477 22 438 17.5228 438 12M458 12C456 15 451.708 15.9228 448 16C444.292 15.9228 440 15 438 12M458 12C456 9 451.708 8.07725 448 8C444.292 8.07725 440 9 438 12" stroke="black" stroke-width="2" stroke-linecap="round" stroke-linejoin="round"/>
<path d="M16 70C17 65 24 64.4183 24 58C24 53.5817 20.4183 50 16 50C11.5817 50 8 53.5817 8 58C8 64.4183 15 65 16 70Z" stroke="black" stroke-width="2" stroke-linecap="round" stroke-linejoin="round"/>
<path d="M16 61C17.6569 61 19 59.6569 19 58C19 56.3431 17.6569 55 16 55C14.3431 55 13 56.3431 13 58C13 59.6569 14.3431 61 16 61Z" stroke="black" stroke-width="2" stroke-linecap="round" stroke-linejoin="round"/>
<path d="M63.5 53H63.9344C66.9816 53 68.5053 53 69.0836 53.5473C69.5836 54.0204 69.8051 54.7173 69.6702 55.3922C69.514 56.173 68.2701 57.0529 65.7823 58.8125L61.7177 61.6875C59.2299 63.4471 57.986 64.327 57.8298 65.1078C57.6949 65.7827 57.9164 66.4796 58.4164 66.9527C58.9947 67.5 60.5184 67.5 63.5656 67.5H64.5M60 53C60 54.6569 58.6569 56 57 56C55.3431 56 54 54.6569 54 53C54 51.3431 55.3431 50 57 50C58.6569 50 60 51.3431 60 53ZM74 67C74 68.6569 72.6569 70 71 70C69.3431 70 68 68.6569 68 67C68 65.3431 69.3431 64 71 64C72.6569 64 74 65.3431 74 67Z" stroke="black" stroke-width="2" stroke-linecap="round" stroke-linejoin="round"/>
<path d="M122 60C122 65.5228 117.523 70 112 70M122 60C122 54.4772 117.523 50 112 50M122 60H120M112 70C106.477 70 102 65.5228 102 60M112 70V68M102 60C102 54.4772 106.477 50 112 50M102 60H104M112 50V52M119.071 67.0711L117.657 65.6569M106.343 54.3431L104.929 52.9289M117.657 54.3431L119.071 52.9289M104.929 67.0711L106.343 65.6569M108 60L110.5 58.5L112 56L113.5 58.5L116 60L113.5 61.5L112 64L110.5 61.5L108 60Z" stroke="black" stroke-width="2" stroke-linecap="round" stroke-linejoin="round"/>
<path d="M151.076 55.4828L155.364 58.5457C155.587 58.705 155.699 58.7847 155.815 58.8031C155.918 58.8192 156.023 58.8029 156.116 58.7565C156.222 58.7037 156.304 58.594 156.469 58.3747L157.375 57.1665C157.422 57.1045 157.445 57.0735 157.472 57.0467C157.497 57.023 157.523 57.0017 157.552 56.9834C157.584 56.9627 157.619 56.947 157.69 56.9155L161.559 55.1961C161.719 55.1248 161.799 55.0892 161.86 55.0335C161.913 54.9843 161.955 54.924 161.983 54.8568C162.015 54.7809 162.02 54.6934 162.032 54.5183L162.315 50.2694M161.5 61.5L164.116 62.6211C164.42 62.7512 164.571 62.8163 164.652 62.9243C164.722 63.0191 164.757 63.1358 164.75 63.2537C164.741 63.3881 164.65 63.5255 164.467 63.8002L163.237 65.6438C163.151 65.774 163.107 65.8391 163.05 65.8863C162.999 65.928 162.941 65.9593 162.878 65.9784C162.807 66 162.728 66 162.572 66H160.577C160.369 66 160.266 66 160.177 65.9653C160.099 65.9347 160.031 65.885 159.977 65.8208C159.916 65.7481 159.883 65.6497 159.818 65.453L159.105 63.3144C159.066 63.1983 159.047 63.1403 159.042 63.0814C159.037 63.0291 159.041 62.9764 159.053 62.9253C159.066 62.8677 159.094 62.813 159.148 62.7036L159.69 61.6206C159.8 61.4005 159.855 61.2905 159.939 61.2222C160.014 61.162 160.105 61.1246 160.2 61.1143C160.308 61.1027 160.425 61.1416 160.658 61.2194L161.5 61.5ZM170 60C170 65.5228 165.523 70 160 70C154.477 70 150 65.5228 150 60C150 54.4772 154.477 50 160 50C165.523 50 170 54.4772 170 60Z" stroke="black" stroke-width="2" stroke-linecap="round" stroke-linejoin="round"/>
<path d="M201 62.2864C199.149 63.1031 198 64.2412 198 65.5C198 67.9853 202.477 70 208 70C213.523 70 218 67.9853 218 65.5C218 64.2412 216.851 63.1031 215 62.2864M214 56C214 60.0637 209.5 62 208 65C206.5 62 202 60.0637 202 56C202 52.6863 204.686 50 208 50C211.314 50 214 52.6863 214 56ZM209 56C209 56.5523 208.552 57 208 57C207.448 57 207 56.5523 207 56C207 55.4477 207.448 55 208 55C208.552 55 209 55.4477 209 56Z" stroke="black" stroke-width="2" stroke-linecap="round" stroke-linejoin="round"/>
<path d="M254 56V55M254 60.5V59.5M254 65V64M249.2 52H262.8C263.92 52 264.48 52 264.908 52.218C265.284 52.4097 265.59 52.7157 265.782 53.092C266 53.5198 266 54.0799 266 55.2V56.5C264.067 56.5 262.5 58.067 262.5 60C262.5 61.933 264.067 63.5 266 63.5V64.8C266 65.9201 266 66.4802 265.782 66.908C265.59 67.2843 265.284 67.5903 264.908 67.782C264.48 68 263.92 68 262.8 68H249.2C248.08 68 247.52 68 247.092 67.782C246.716 67.5903 246.41 67.2843 246.218 66.908C246 66.4802 246 65.9201 246 64.8V63.5C247.933 63.5 249.5 61.933 249.5 60C249.5 58.067 247.933 56.5 246 56.5V55.2C246 54.0799 246 53.5198 246.218 53.092C246.41 52.7157 246.716 52.4097 247.092 52.218C247.52 52 248.08 52 249.2 52Z" stroke="black" stroke-width="2" stroke-linecap="round" stroke-linejoin="round"/>
<path d="M314 60H312M314 60C314 65.5228 309.523 70 304 70M314 60C314 54.4772 309.523 50 304 50M311.071 67.0711L309.657 65.6569M296 60H294M294 60C294 65.5228 298.477 70 304 70M294 60C294 54.4772 298.477 50 304 50M298.343 54.3431L296.929 52.9289M304 52V50M309.657 54.3431L311.071 52.9289M304 70V68M296.929 67.0711L298.343 65.6569M304 56L308 60L304 64L300 60L304 56Z" stroke="black" stroke-width="2" stroke-linecap="round" stroke-linejoin="round"/>
<path d="M355 50.4578C354.053 50.1604 353.045 50 352 50C346.477 50 342 54.4772 342 60C342 65.5228 346.477 70 352 70C357.523 70 362 65.5228 362 60C362 58.2847 361.568 56.6702 360.807 55.2594M357 53.75H357.005M350.5 69.8883L350.5 67.6849C350.5 67.5656 350.543 67.4502 350.621 67.3596L353.106 64.4594C353.311 64.2211 353.247 63.8556 352.975 63.6999L350.119 62.0677C350.041 62.0234 349.977 61.9591 349.932 61.8814L348.07 58.6186C347.974 58.4488 347.787 58.3511 347.592 58.3684L342.064 58.8607M361 54C361 56.2091 359 58 357 60C355 58 353 56.2091 353 54C353 51.7909 354.791 50 357 50C359.209 50 361 51.7909 361 54ZM357.25 53.75C357.25 53.8881 357.138 54 357 54C356.862 54 356.75 53.8881 356.75 53.75C356.75 53.6119 356.862 53.5 357 53.5C357.138 53.5 357.25 53.6119 357.25 53.75Z" stroke="black" stroke-width="2" stroke-linecap="round" stroke-linejoin="round"/>
<path d="M404 61.3744C407.532 62.0688 410 63.6547 410 65.5C410 67.9853 405.523 70 400 70C394.477 70 390 67.9853 390 65.5C390 63.6547 392.468 62.0688 396 61.3744M400 65V51L405.318 54.2724C405.706 54.5111 405.9 54.6305 405.961 54.7809C406.015 54.912 406.011 55.0599 405.95 55.1877C405.879 55.3343 405.679 55.4422 405.278 55.6581L400 58.5" stroke="black" stroke-width="2" stroke-linecap="round" stroke-linejoin="round"/>
<path d="M444 56V55M444 60.5V59.5M444 65V64M442.8 68H453.2C454.88 68 455.72 68 456.362 67.673C456.926 67.3854 457.385 66.9265 457.673 66.362C458 65.7202 458 64.8802 458 63.2V56.8C458 55.1198 458 54.2798 457.673 53.638C457.385 53.0735 456.926 52.6146 456.362 52.327C455.72 52 454.88 52 453.2 52H442.8C441.12 52 440.28 52 439.638 52.327C439.074 52.6146 438.615 53.0735 438.327 53.638C438 54.2798 438 55.1198 438 56.8V63.2C438 64.8802 438 65.7202 438.327 66.362C438.615 66.9265 439.074 67.3854 439.638 67.673C440.28 68 441.12 68 442.8 68Z" stroke="black" stroke-width="2" stroke-linecap="round" stroke-linejoin="round"/>
<path d="M16 118C21.5228 118 26 113.523 26 108C26 102.477 21.5228 98 16 98C10.4772 98 6 102.477 6 108C6 113.523 10.4772 118 16 118Z" stroke="black" stroke-width="2" stroke-linecap="round" stroke-linejoin="round"/>
<path d="M18.7221 104.266C19.2107 104.103 19.4549 104.022 19.6174 104.08C19.7587 104.13 19.87 104.241 19.9204 104.383C19.9783 104.545 19.8969 104.789 19.734 105.278L18.2465 109.741C18.2001 109.88 18.1769 109.949 18.1374 110.007C18.1024 110.058 18.0582 110.102 18.007 110.137C17.9492 110.177 17.8797 110.2 17.7405 110.246L13.2779 111.734C12.7893 111.897 12.5451 111.978 12.3826 111.92C12.2413 111.87 12.13 111.759 12.0796 111.617C12.0217 111.455 12.1031 111.211 12.266 110.722L13.7535 106.259C13.7999 106.12 13.8231 106.051 13.8626 105.993C13.8976 105.942 13.9418 105.898 13.993 105.863C14.0508 105.823 14.1203 105.8 14.2595 105.754L18.7221 104.266Z" stroke="black" stroke-width="2" stroke-linecap="round" stroke-linejoin="round"/>
<path d="M54.6867 111.645L56.5949 110.544C56.6983 110.484 56.8196 110.463 56.9369 110.485L60.6914 111.188C61 111.246 61.2848 111.008 61.2834 110.694L61.2688 107.404C61.2684 107.315 61.2919 107.227 61.337 107.15L63.2317 103.906C63.3303 103.737 63.3215 103.527 63.2091 103.367L60.0189 98.8257M71.0002 100.859C65.5002 103.5 68.5 107 69.5002 107.5C71.3773 108.438 73.9876 108.5 73.9876 108.5C73.9958 108.334 74 108.168 74 108C74 102.477 69.5228 98 64 98C58.4772 98 54 102.477 54 108C54 113.523 58.4772 118 64 118C64.1677 118 64.3344 117.996 64.5 117.988M68.7578 117.94L65.591 109.591L73.9398 112.758L70.2376 114.238L68.7578 117.94Z" stroke="black" stroke-width="2" stroke-linecap="round" stroke-linejoin="round"/>
<path d="M116 109.374C119.532 110.069 122 111.655 122 113.5C122 115.985 117.523 118 112 118C106.477 118 102 115.985 102 113.5C102 111.655 104.468 110.069 108 109.374M112 113V105M112 105C113.657 105 115 103.657 115 102C115 100.343 113.657 99 112 99C110.343 99 109 100.343 109 102C109 103.657 110.343 105 112 105Z" stroke="black" stroke-width="2" stroke-linecap="round" stroke-linejoin="round"/>
<path d="M157.5 118H162.5M156 98H164M160 101V98M152 108H168M165 115L166.5 118M155 115L153.5 118M156.5 111.5H156.51M163.5 111.5H163.51M156.8 115H163.2C164.88 115 165.72 115 166.362 114.673C166.926 114.385 167.385 113.926 167.673 113.362C168 112.72 168 111.88 168 110.2V105.8C168 104.12 168 103.28 167.673 102.638C167.385 102.074 166.926 101.615 166.362 101.327C165.72 101 164.88 101 163.2 101H156.8C155.12 101 154.28 101 153.638 101.327C153.074 101.615 152.615 102.074 152.327 102.638C152 103.28 152 104.12 152 105.8V110.2C152 111.88 152 112.72 152.327 113.362C152.615 113.926 153.074 114.385 153.638 114.673C154.28 115 155.12 115 156.8 115ZM157 111.5C157 111.776 156.776 112 156.5 112C156.224 112 156 111.776 156 111.5C156 111.224 156.224 111 156.5 111C156.776 111 157 111.224 157 111.5ZM164 111.5C164 111.776 163.776 112 163.5 112C163.224 112 163 111.776 163 111.5C163 111.224 163.224 111 163.5 111C163.776 111 164 111.224 164 111.5Z" stroke="black" stroke-width="2" stroke-linecap="round" stroke-linejoin="round"/>
<path d="M200 111C200 111 201 110 204 110C207 110 209 112 212 112C215 112 216 111 216 111V99C216 99 215 100 212 100C209 100 207 98 204 98C201 98 200 99 200 99L200 118" stroke="black" stroke-width="2" stroke-linecap="round" stroke-linejoin="round"/>
<path d="M252 118V116M253.5 111V103M260 118V116M258.5 111V103M252.8 116H259.2C260.88 116 261.72 116 262.362 115.673C262.926 115.385 263.385 114.926 263.673 114.362C264 113.72 264 112.88 264 111.2V102.8C264 101.12 264 100.28 263.673 99.638C263.385 99.0735 262.926 98.6146 262.362 98.327C261.72 98 260.88 98 259.2 98H252.8C251.12 98 250.28 98 249.638 98.327C249.074 98.6146 248.615 99.0735 248.327 99.638C248 100.28 248 101.12 248 102.8V111.2C248 112.88 248 113.72 248.327 114.362C248.615 114.926 249.074 115.385 249.638 115.673C250.28 116 251.12 116 252.8 116Z" stroke="black" stroke-width="2" stroke-linecap="round" stroke-linejoin="round"/>
<path d="M295.413 106.744C294.818 106.513 294.52 106.397 294.434 106.23C294.358 106.086 294.358 105.914 294.433 105.769C294.52 105.602 294.818 105.486 295.413 105.254L312.3 98.6633C312.838 98.4536 313.106 98.3488 313.278 98.4062C313.427 98.456 313.544 98.5729 313.594 98.722C313.651 98.8936 313.546 99.1622 313.336 99.6994L306.746 116.587C306.514 117.182 306.398 117.48 306.231 117.566C306.086 117.642 305.914 117.642 305.769 117.566C305.602 117.479 305.487 117.182 305.255 116.586L302.627 109.828C302.58 109.707 302.557 109.647 302.52 109.596C302.488 109.551 302.449 109.512 302.404 109.479C302.353 109.443 302.292 109.42 302.171 109.373L295.413 106.744Z" stroke="black" stroke-width="2" stroke-linecap="round" stroke-linejoin="round"/>
<path d="M358.5 99L357.513 98.5067C357.136 98.3178 356.947 98.2233 356.748 98.1566C356.573 98.0974 356.392 98.0547 356.208 98.029C356.001 98 355.789 98 355.367 98H348.633C348.211 98 347.999 98 347.792 98.029C347.608 98.0547 347.427 98.0974 347.252 98.1566C347.053 98.2233 346.864 98.3178 346.487 98.5067L345.5 99M351 102L349 98M353 102L355 98M344 109H360M357 116L358 118M347 116L346 118M348.5 112.5H348.51M355.5 112.5H355.51M348.8 116H355.2C356.88 116 357.72 116 358.362 115.673C358.926 115.385 359.385 114.926 359.673 114.362C360 113.72 360 112.88 360 111.2V106.8C360 105.12 360 104.28 359.673 103.638C359.385 103.074 358.926 102.615 358.362 102.327C357.72 102 356.88 102 355.2 102H348.8C347.12 102 346.28 102 345.638 102.327C345.074 102.615 344.615 103.074 344.327 103.638C344 104.28 344 105.12 344 106.8V111.2C344 112.88 344 113.72 344.327 114.362C344.615 114.926 345.074 115.385 345.638 115.673C346.28 116 347.12 116 348.8 116ZM349 112.5C349 112.776 348.776 113 348.5 113C348.224 113 348 112.776 348 112.5C348 112.224 348.224 112 348.5 112C348.776 112 349 112.224 349 112.5ZM356 112.5C356 112.776 355.776 113 355.5 113C355.224 113 355 112.776 355 112.5C355 112.224 355.224 112 355.5 112C355.776 112 356 112.224 356 112.5Z" stroke="black" stroke-width="2" stroke-linecap="round" stroke-linejoin="round"/>
<path d="M392 111C392 111 393 110 396 110C399 110 401 112 404 112C407 112 408 111 408 111V100C408 100 407 101 404 101C401 101 399 99 396 99C393 99 392 100 392 100M392 118L392 98" stroke="black" stroke-width="2" stroke-linecap="round" stroke-linejoin="round"/>
<path d="M452 103C452 102.07 452 101.605 451.898 101.224C451.62 100.188 450.812 99.3796 449.776 99.1022C449.395 99 448.93 99 448 99C447.07 99 446.605 99 446.224 99.1022C445.188 99.3796 444.38 100.188 444.102 101.224C444 101.605 444 102.07 444 103M448.8 113.5H453.7C453.98 113.5 454.12 113.5 454.227 113.446C454.321 113.398 454.398 113.321 454.446 113.227C454.5 113.12 454.5 112.98 454.5 112.7V110.3C454.5 110.02 454.5 109.88 454.446 109.773C454.398 109.679 454.321 109.602 454.227 109.554C454.12 109.5 453.98 109.5 453.7 109.5H448.8C448.52 109.5 448.38 109.5 448.273 109.554C448.179 109.602 448.102 109.679 448.054 109.773C448 109.88 448 110.02 448 110.3V112.7C448 112.98 448 113.12 448.054 113.227C448.102 113.321 448.179 113.398 448.273 113.446C448.38 113.5 448.52 113.5 448.8 113.5ZM442.8 117H453.2C454.88 117 455.72 117 456.362 116.673C456.926 116.385 457.385 115.926 457.673 115.362C458 114.72 458 113.88 458 112.2V107.8C458 106.12 458 105.28 457.673 104.638C457.385 104.074 456.926 103.615 456.362 103.327C455.72 103 454.88 103 453.2 103H442.8C441.12 103 440.28 103 439.638 103.327C439.074 103.615 438.615 104.074 438.327 104.638C438 105.28 438 106.12 438 107.8V112.2C438 113.88 438 114.72 438.327 115.362C438.615 115.926 439.074 116.385 439.638 116.673C440.28 117 441.12 117 442.8 117Z" stroke="black" stroke-width="2" stroke-linecap="round" stroke-linejoin="round"/>
<path d="M9.03685 165.325C8.45216 165.583 8.15982 165.711 7.98042 165.655C7.8249 165.606 7.70303 165.484 7.65387 165.329C7.59717 165.149 7.72545 164.857 7.98203 164.272L15.2634 147.67C15.495 147.142 15.6108 146.878 15.7727 146.797C15.9133 146.727 16.0787 146.727 16.2193 146.797C16.3812 146.878 16.497 147.142 16.7287 147.67L24.01 164.272C24.2666 164.857 24.3949 165.149 24.3382 165.329C24.289 165.484 24.1671 165.606 24.0116 165.655C23.8322 165.711 23.5399 165.583 22.9552 165.325L16.3182 162.405C16.1995 162.353 16.1402 162.327 16.0785 162.316C16.0239 162.307 15.9681 162.307 15.9135 162.316C15.8519 162.327 15.7925 162.353 15.6738 162.405L9.03685 165.325Z" stroke="black" stroke-width="2" stroke-linecap="round" stroke-linejoin="round"/>
<path d="M66 151H68.3373C68.5818 151 68.7041 151 68.8192 151.028C68.9213 151.052 69.0188 151.093 69.1083 151.147C69.2092 151.209 69.2957 151.296 69.4686 151.469L73.5314 155.531C73.7043 155.704 73.7908 155.791 73.8526 155.892C73.9075 155.981 73.9479 156.079 73.9724 156.181C74 156.296 74 156.418 74 156.663V159.5C74 159.966 74 160.199 73.9239 160.383C73.8224 160.628 73.6277 160.822 73.3827 160.924C73.1989 161 72.9659 161 72.5 161M67.5 161H66M66 161V151.2C66 150.08 66 149.52 65.782 149.092C65.5903 148.716 65.2843 148.41 64.908 148.218C64.4802 148 63.9201 148 62.8 148H57.2C56.0799 148 55.5198 148 55.092 148.218C54.7157 148.41 54.4097 148.716 54.218 149.092C54 149.52 54 150.08 54 151.2V159C54 160.105 54.8954 161 56 161M66 161H62M62 161C62 162.657 60.6569 164 59 164C57.3431 164 56 162.657 56 161M62 161C62 159.343 60.6569 158 59 158C57.3431 158 56 159.343 56 161M72.5 161.5C72.5 162.881 71.3807 164 70 164C68.6193 164 67.5 162.881 67.5 161.5C67.5 160.119 68.6193 159 70 159C71.3807 159 72.5 160.119 72.5 161.5Z" stroke="black" stroke-width="2" stroke-linecap="round" stroke-linejoin="round"/>
<path d="M104 157H119.587C120.05 157 120.281 157 120.413 156.903C120.528 156.818 120.601 156.689 120.615 156.546C120.63 156.383 120.511 156.185 120.273 155.788L118.247 152.412C118.157 152.262 118.112 152.187 118.095 152.107C118.079 152.037 118.079 151.963 118.095 151.893C118.112 151.813 118.157 151.738 118.247 151.588L120.273 148.212C120.511 147.815 120.63 147.617 120.615 147.454C120.601 147.311 120.528 147.182 120.413 147.097C120.281 147 120.05 147 119.587 147H104L104 165" stroke="black" stroke-width="2" stroke-linecap="round" stroke-linejoin="round"/>
<path d="M156 165V151C156 150.07 156 149.605 156.102 149.224C156.38 148.188 157.188 147.38 158.224 147.102C158.605 147 159.07 147 160 147C160.93 147 161.395 147 161.776 147.102C162.812 147.38 163.62 148.188 163.898 149.224C164 149.605 164 150.07 164 151V157.5M164 161.5V165M154.8 165H165.2C166.88 165 167.72 165 168.362 164.673C168.926 164.385 169.385 163.926 169.673 163.362C170 162.72 170 161.88 170 160.2V155.8C170 154.12 170 153.28 169.673 152.638C169.385 152.074 168.926 151.615 168.362 151.327C167.72 151 166.88 151 165.2 151H154.8C153.12 151 152.28 151 151.638 151.327C151.074 151.615 150.615 152.074 150.327 152.638C150 153.28 150 154.12 150 155.8V160.2C150 161.88 150 162.72 150.327 163.362C150.615 163.926 151.074 164.385 151.638 164.673C152.28 165 153.12 165 154.8 165ZM160.8 161.5H165.7C165.98 161.5 166.12 161.5 166.227 161.446C166.321 161.398 166.398 161.321 166.446 161.227C166.5 161.12 166.5 160.98 166.5 160.7V158.3C166.5 158.02 166.5 157.88 166.446 157.773C166.398 157.679 166.321 157.602 166.227 157.554C166.12 157.5 165.98 157.5 165.7 157.5H160.8C160.52 157.5 160.38 157.5 160.273 157.554C160.179 157.602 160.102 157.679 160.054 157.773C160 157.88 160 158.02 160 158.3V160.7C160 160.98 160 161.12 160.054 161.227C160.102 161.321 160.179 161.398 160.273 161.446C160.38 161.5 160.52 161.5 160.8 161.5Z" stroke="black" stroke-width="2" stroke-linecap="round" stroke-linejoin="round"/>
<path d="M207.337 150.161L216.3 146.663C216.838 146.454 217.106 146.349 217.278 146.406C217.427 146.456 217.544 146.573 217.594 146.722C217.651 146.894 217.546 147.162 217.336 147.699L213.827 156.691M212.386 160.386L210.746 164.587C210.514 165.182 210.398 165.48 210.231 165.566C210.086 165.642 209.914 165.642 209.769 165.566C209.603 165.479 209.487 165.182 209.255 164.586L206.627 157.828C206.58 157.707 206.557 157.647 206.52 157.596C206.488 157.551 206.449 157.512 206.404 157.479C206.353 157.443 206.292 157.42 206.171 157.373L199.413 154.744C198.818 154.513 198.52 154.397 198.434 154.23C198.358 154.086 198.358 153.914 198.433 153.769C198.52 153.602 198.818 153.486 199.413 153.254L203.617 151.613M217 165L199 147" stroke="black" stroke-width="2" stroke-linecap="round" stroke-linejoin="round"/>
<path d="M260 160V150.2C260 149.08 260 148.52 259.782 148.092C259.59 147.716 259.284 147.41 258.908 147.218C258.48 147 257.92 147 256.8 147H249.2C248.08 147 247.52 147 247.092 147.218C246.716 147.41 246.41 147.716 246.218 148.092C246 148.52 246 149.08 246 150.2V156.8C246 157.92 246 158.48 246.218 158.908C246.41 159.284 246.716 159.59 247.092 159.782C247.52 160 248.08 160 249.2 160H260ZM260 160H264.4C264.96 160 265.24 160 265.454 159.891C265.642 159.795 265.795 159.642 265.891 159.454C266 159.24 266 158.96 266 158.4V155.663C266 155.418 266 155.296 265.972 155.181C265.948 155.079 265.907 154.981 265.853 154.892C265.791 154.791 265.704 154.704 265.531 154.531L263.469 152.469C263.296 152.296 263.209 152.209 263.108 152.147C263.019 152.093 262.921 152.052 262.819 152.028C262.704 152 262.582 152 262.337 152H260M253 162.5C253 163.881 251.881 165 250.5 165C249.119 165 248 163.881 248 162.5C248 161.119 249.119 160 250.5 160C251.881 160 253 161.119 253 162.5ZM264 162.5C264 163.881 262.881 165 261.5 165C260.119 165 259 163.881 259 162.5C259 161.119 260.119 160 261.5 160C262.881 160 264 161.119 264 162.5Z" stroke="black" stroke-width="2" stroke-linecap="round" stroke-linejoin="round"/>
<path d="M305.5 150.5H311.706C312.134 150.5 312.348 150.5 312.478 150.59C312.59 150.669 312.666 150.791 312.686 150.927C312.709 151.083 312.613 151.274 312.421 151.658L311.169 154.162C311.107 154.286 311.076 154.348 311.063 154.414C311.051 154.471 311.05 154.531 311.059 154.589C311.069 154.655 311.097 154.718 311.153 154.845L312.5 157.875C312.667 158.25 312.75 158.437 312.723 158.589C312.699 158.721 312.623 158.838 312.512 158.914C312.384 159 312.179 159 311.769 159H304.1C303.54 159 303.26 159 303.046 158.891C302.858 158.795 302.705 158.642 302.609 158.454C302.5 158.24 302.5 157.96 302.5 157.4V155M295 165L295 147.5M295 155H303.9C304.46 155 304.74 155 304.954 154.891C305.142 154.795 305.295 154.642 305.391 154.454C305.5 154.24 305.5 153.96 305.5 153.4V148.1C305.5 147.54 305.5 147.26 305.391 147.046C305.295 146.858 305.142 146.705 304.954 146.609C304.74 146.5 304.46 146.5 303.9 146.5L296.6 146.5C296.04 146.5 295.76 146.5 295.546 146.609C295.358 146.705 295.205 146.858 295.109 147.046C295 147.26 295 147.54 295 148.1V155Z" stroke="black" stroke-width="2" stroke-linecap="round" stroke-linejoin="round"/>
<path d="M349 162L342 166V150L349 146M349 162L356 166M349 162V146M356 166L362 162V146L356 150M356 166V150M356 150L349 146" stroke="black" stroke-width="2" stroke-linecap="round" stroke-linejoin="round"/>
<path d="M398.471 149.476L399.263 147.67C399.495 147.142 399.61 146.878 399.772 146.798C399.913 146.727 400.078 146.727 400.219 146.798C400.381 146.878 400.497 147.142 400.728 147.67L403.901 154.903M396.947 152.952L391.982 164.272C391.725 164.857 391.597 165.149 391.653 165.329C391.703 165.484 391.824 165.606 391.98 165.655C392.159 165.711 392.452 165.583 393.036 165.326L399.673 162.405C399.792 162.353 399.851 162.327 399.913 162.317C399.968 162.307 400.023 162.307 400.078 162.317C400.14 162.327 400.199 162.353 400.318 162.405L406.955 165.326C407.539 165.583 407.832 165.711 408.011 165.655C408.167 165.606 408.289 165.484 408.338 165.329C408.394 165.149 408.266 164.857 408.01 164.272L407.805 163.807M410 166L390 146" stroke="black" stroke-width="2" stroke-linecap="round" stroke-linejoin="round"/>
<path d="M450.111 150.722H456.14C456.588 150.722 456.811 150.722 456.942 150.816C457.056 150.898 457.131 151.025 457.147 151.164C457.166 151.324 457.057 151.52 456.84 151.911L455.37 154.556C455.291 154.698 455.252 154.769 455.237 154.844C455.223 154.91 455.223 154.979 455.237 155.045C455.252 155.12 455.291 155.191 455.37 155.333L456.84 157.978C457.057 158.369 457.166 158.565 457.147 158.725C457.131 158.864 457.056 158.991 456.942 159.073C456.811 159.167 456.588 159.167 456.14 159.167H448.544C447.984 159.167 447.704 159.167 447.49 159.058C447.302 158.962 447.149 158.809 447.053 158.621C446.944 158.407 446.944 158.127 446.944 157.567V154.944M443.25 165.5L439.028 148.611M440.611 154.944H448.511C449.071 154.944 449.351 154.944 449.565 154.835C449.753 154.74 449.906 154.587 450.002 154.398C450.111 154.185 450.111 153.904 450.111 153.344V148.1C450.111 147.54 450.111 147.26 450.002 147.046C449.906 146.858 449.753 146.705 449.565 146.609C449.351 146.5 449.071 146.5 448.511 146.5H440.549C439.851 146.5 439.501 146.5 439.263 146.645C439.053 146.772 438.898 146.971 438.825 147.205C438.743 147.472 438.828 147.81 438.997 148.488L440.611 154.944Z" stroke="black" stroke-width="2" stroke-linecap="round" stroke-linejoin="round"/>
<path d="M12 195L20 213M7 209L16 204M11.8 213H20.2C21.8802 213 22.7202 213 23.362 212.673C23.9265 212.385 24.3854 211.926 24.673 211.362C25 210.72 25 209.88 25 208.2V199.8C25 198.12 25 197.28 24.673 196.638C24.3854 196.074 23.9265 195.615 23.362 195.327C22.7202 195 21.8802 195 20.2 195H11.8C10.1198 195 9.27976 195 8.63803 195.327C8.07354 195.615 7.6146 196.074 7.32698 196.638C7 197.28 7 198.12 7 199.8V208.2C7 209.88 7 210.72 7.32698 211.362C7.6146 211.926 8.07354 212.385 8.63803 212.673C9.27976 213 10.1198 213 11.8 213Z" stroke="black" stroke-width="2" stroke-linecap="round" stroke-linejoin="round"/>
<path d="M62 208H66M60.8 214H67.2C68.8802 214 69.7202 214 70.362 213.673C70.9265 213.385 71.3854 212.926 71.673 212.362C72 211.72 72 210.88 72 209.2V198.8C72 197.12 72 196.28 71.673 195.638C71.3854 195.074 70.9265 194.615 70.362 194.327C69.7202 194 68.8802 194 67.2 194H60.8C59.1198 194 58.2798 194 57.638 194.327C57.0735 194.615 56.6146 195.074 56.327 195.638C56 196.28 56 197.12 56 198.8V209.2C56 210.88 56 211.72 56.327 212.362C56.6146 212.926 57.0735 213.385 57.638 213.673C58.2798 214 59.1198 214 60.8 214ZM67 201C67 202.657 65.6569 204 64 204C62.3431 204 61 202.657 61 201C61 199.343 62.3431 198 64 198C65.6569 198 67 199.343 67 201Z" stroke="black" stroke-width="2" stroke-linecap="round" stroke-linejoin="round"/>
<path d="M104 213L104 196M104 205H111.4C111.96 205 112.24 205 112.454 204.891C112.642 204.795 112.795 204.642 112.891 204.454C113 204.24 113 203.96 113 203.4V196.6C113 196.04 113 195.76 112.891 195.546C112.795 195.358 112.642 195.205 112.454 195.109C112.24 195 111.96 195 111.4 195H105.6C105.04 195 104.76 195 104.546 195.109C104.358 195.205 104.205 195.358 104.109 195.546C104 195.76 104 196.04 104 196.6V205ZM113 197H119.4C119.96 197 120.24 197 120.454 197.109C120.642 197.205 120.795 197.358 120.891 197.546C121 197.76 121 198.04 121 198.6V205.4C121 205.96 121 206.24 120.891 206.454C120.795 206.642 120.642 206.795 120.454 206.891C120.24 207 119.96 207 119.4 207H114.6C114.04 207 113.76 207 113.546 206.891C113.358 206.795 113.205 206.642 113.109 206.454C113 206.24 113 205.96 113 205.4V197Z" stroke="black" stroke-width="2" stroke-linecap="round" stroke-linejoin="round"/>
<path d="M168 204C168 208.418 164.418 212 160 212M168 204C168 199.582 164.418 196 160 196M168 204H170M160 212C155.582 212 152 208.418 152 204M160 212V214M152 204C152 199.582 155.582 196 160 196M152 204H150M160 196V194M163 204C163 205.657 161.657 207 160 207C158.343 207 157 205.657 157 204C157 202.343 158.343 201 160 201C161.657 201 163 202.343 163 204Z" stroke="black" stroke-width="2" stroke-linecap="round" stroke-linejoin="round"/>
<path d="M213.745 194.813C214.709 193.816 216.304 193.803 217.284 194.784C218.238 195.738 218.256 197.279 217.324 198.255L214.546 201.164C214.328 201.392 214.219 201.506 214.152 201.64C214.092 201.758 214.057 201.887 214.048 202.019C214.037 202.168 214.073 202.322 214.144 202.629L215.872 210.117C215.944 210.432 215.981 210.59 215.969 210.742C215.959 210.877 215.921 211.009 215.858 211.129C215.787 211.265 215.673 211.379 215.444 211.608L215.073 211.979C214.467 212.585 214.164 212.888 213.854 212.943C213.583 212.991 213.304 212.925 213.083 212.761C212.831 212.573 212.695 212.166 212.424 211.353L210.414 205.324L207.069 208.669C206.869 208.869 206.769 208.969 206.703 209.086C206.643 209.191 206.603 209.304 206.584 209.423C206.563 209.556 206.579 209.697 206.61 209.977L206.794 211.631C206.825 211.911 206.84 212.052 206.819 212.185C206.8 212.304 206.76 212.418 206.701 212.522C206.634 212.639 206.535 212.739 206.335 212.939L206.137 213.136C205.664 213.609 205.428 213.846 205.165 213.914C204.934 213.974 204.69 213.95 204.476 213.846C204.231 213.727 204.046 213.449 203.675 212.892L202.106 210.54C202.04 210.441 202.007 210.391 201.968 210.346C201.934 210.306 201.897 210.268 201.857 210.234C201.812 210.196 201.762 210.162 201.663 210.096L199.31 208.528C198.753 208.157 198.475 207.971 198.356 207.727C198.252 207.513 198.228 207.268 198.288 207.038C198.357 206.775 198.593 206.538 199.066 206.065L199.264 205.868C199.463 205.668 199.563 205.568 199.681 205.501C199.785 205.442 199.899 205.402 200.017 205.383C200.151 205.362 200.291 205.378 200.572 205.409L202.225 205.593C202.506 205.624 202.646 205.639 202.78 205.618C202.898 205.599 203.012 205.559 203.116 205.5C203.234 205.433 203.334 205.333 203.533 205.134L206.879 201.788L200.849 199.779C200.036 199.508 199.629 199.372 199.442 199.119C199.278 198.898 199.212 198.62 199.26 198.349C199.315 198.039 199.618 197.736 200.224 197.129L200.595 196.759C200.824 196.53 200.938 196.415 201.074 196.344C201.194 196.282 201.325 196.244 201.46 196.234C201.613 196.222 201.77 196.258 202.086 196.331L209.545 198.052C209.855 198.124 210.01 198.16 210.16 198.149C210.304 198.139 210.445 198.097 210.571 198.027C210.703 197.955 210.813 197.841 211.035 197.612L213.745 194.813Z" stroke="black" stroke-width="2" stroke-linecap="round" stroke-linejoin="round"/>
<path d="M256 204H256.01M259.535 207.536C254.849 212.222 249.467 214.438 247.514 212.485C245.562 210.533 247.778 205.151 252.464 200.465C257.15 195.778 262.532 193.562 264.485 195.515C266.437 197.467 264.221 202.849 259.535 207.536ZM259.535 200.464C264.221 205.151 266.437 210.533 264.485 212.485C262.532 214.438 257.15 212.222 252.464 207.535C247.778 202.849 245.562 197.467 247.514 195.515C249.467 193.562 254.849 195.778 259.535 200.464ZM256.5 204C256.5 204.276 256.276 204.5 256 204.5C255.723 204.5 255.5 204.276 255.5 204C255.5 203.724 255.723 203.5 256 203.5C256.276 203.5 256.5 203.724 256.5 204Z" stroke="black" stroke-width="2" stroke-linecap="round" stroke-linejoin="round"/>
<path d="M309.115 207.358C308.845 207.664 308.561 207.966 308.264 208.264C303.968 212.559 298.586 214.142 296.243 211.799C294.636 210.193 294.875 207.158 296.568 204.024M298.89 200.725C299.171 200.405 299.468 200.089 299.778 199.778C304.074 195.482 309.456 193.9 311.799 196.243C313.407 197.85 313.166 200.888 311.47 204.024M308.264 199.778C312.559 204.074 314.142 209.456 311.799 211.799C309.456 214.142 304.074 212.559 299.778 208.264C295.482 203.968 293.9 198.586 296.243 196.243C298.586 193.9 303.968 195.482 308.264 199.778ZM305 204C305 204.552 304.552 205 304 205C303.448 205 303 204.552 303 204C303 203.448 303.448 203 304 203C304.552 203 305 203.448 305 204Z" stroke="black" stroke-width="2" stroke-linecap="round" stroke-linejoin="round"/>
<path d="M347.967 206.722L347 214L351.588 211.247C351.738 211.157 351.813 211.112 351.893 211.095C351.963 211.079 352.037 211.079 352.107 211.095C352.187 211.112 352.262 211.157 352.412 211.247L357 214L356.034 206.721M359 201C359 204.866 355.866 208 352 208C348.134 208 345 204.866 345 201C345 197.134 348.134 194 352 194C355.866 194 359 197.134 359 201Z" stroke="black" stroke-width="2" stroke-linecap="round" stroke-linejoin="round"/>
<path d="M395 207.09V214L399.703 212.119C399.813 212.075 399.868 212.053 399.924 212.044C399.974 212.037 400.026 212.037 400.076 212.044C400.132 212.053 400.187 212.075 400.297 212.119L405 214V207.09M407.5 201.5C407.5 205.642 404.142 209 400 209C395.858 209 392.5 205.642 392.5 201.5C392.5 197.358 395.858 194 400 194C404.142 194 407.5 197.358 407.5 201.5Z" stroke="black" stroke-width="2" stroke-linecap="round" stroke-linejoin="round"/>
<path d="M443.869 207.46L443 214L447.588 211.247C447.738 211.157 447.813 211.112 447.893 211.095C447.963 211.079 448.037 211.079 448.107 211.095C448.187 211.112 448.262 211.157 448.412 211.247L453 214L452.132 207.457M452.426 196.249C452.58 196.622 452.877 196.919 453.25 197.074L454.559 197.616C454.932 197.771 455.229 198.068 455.384 198.442C455.539 198.815 455.539 199.235 455.384 199.608L454.842 200.916C454.687 201.29 454.687 201.71 454.843 202.084L455.384 203.391C455.46 203.576 455.5 203.775 455.5 203.975C455.5 204.175 455.46 204.374 455.384 204.559C455.307 204.744 455.195 204.912 455.053 205.053C454.911 205.195 454.743 205.307 454.558 205.384L453.25 205.926C452.877 206.08 452.58 206.377 452.425 206.75L451.883 208.059C451.728 208.432 451.431 208.729 451.058 208.884C450.684 209.039 450.264 209.039 449.891 208.884L448.583 208.342C448.209 208.188 447.79 208.188 447.417 208.343L446.108 208.884C445.734 209.039 445.315 209.039 444.942 208.884C444.569 208.729 444.272 208.433 444.117 208.06L443.575 206.75C443.42 206.377 443.124 206.08 442.751 205.925L441.442 205.383C441.068 205.228 440.772 204.932 440.617 204.558C440.462 204.185 440.462 203.765 440.616 203.392L441.158 202.084C441.312 201.71 441.312 201.291 441.157 200.917L440.616 199.608C440.54 199.423 440.5 199.224 440.5 199.024C440.5 198.824 440.539 198.625 440.616 198.44C440.693 198.255 440.805 198.087 440.947 197.946C441.088 197.804 441.256 197.692 441.442 197.615L442.749 197.073C443.123 196.919 443.419 196.623 443.574 196.25L444.117 194.941C444.271 194.568 444.568 194.271 444.942 194.116C445.315 193.961 445.735 193.961 446.108 194.116L447.416 194.658C447.79 194.812 448.209 194.812 448.583 194.657L449.892 194.117C450.266 193.962 450.685 193.962 451.059 194.117C451.432 194.272 451.729 194.568 451.884 194.942L452.426 196.251L452.426 196.249Z" stroke="black" stroke-width="2" stroke-linecap="round" stroke-linejoin="round"/>
<path d="M12.8762 253.095L8.70122 247.877C8.44132 247.552 8.31138 247.389 8.21897 247.208C8.13698 247.048 8.07706 246.877 8.04084 246.701C8 246.502 8 246.294 8 245.878V245.2C8 244.08 8 243.52 8.21799 243.092C8.40973 242.716 8.71569 242.41 9.09202 242.218C9.51984 242 10.0799 242 11.2 242H20.8C21.9201 242 22.4802 242 22.908 242.218C23.2843 242.41 23.5903 242.716 23.782 243.092C24 243.52 24 244.08 24 245.2V245.878C24 246.294 24 246.502 23.9592 246.701C23.9229 246.877 23.863 247.048 23.781 247.208C23.6886 247.389 23.5587 247.552 23.2988 247.877L19.1238 253.095M9.00005 243L16.0001 252L23 243M19.5355 253.464C21.4882 255.417 21.4882 258.583 19.5355 260.536C17.5829 262.488 14.4171 262.488 12.4645 260.536C10.5118 258.583 10.5118 255.417 12.4645 253.464C14.4171 251.512 17.5829 251.512 19.5355 253.464Z" stroke="black" stroke-width="2" stroke-linecap="round" stroke-linejoin="round"/>
<path d="M59.1351 251.189L55.3304 244.381C54.8929 243.598 54.6742 243.206 54.711 242.886C54.7432 242.606 54.8917 242.353 55.1201 242.189C55.3819 242 55.8303 242 56.7271 242H58.9619C59.2952 242 59.4619 242 59.6114 242.048C59.7436 242.091 59.8656 242.16 59.9694 242.253C60.0867 242.357 60.1713 242.501 60.3405 242.788L64.0001 249L67.6597 242.788C67.8289 242.501 67.9135 242.357 68.0308 242.253C68.1347 242.16 68.2566 242.091 68.3889 242.048C68.5383 242 68.705 242 69.0383 242H71.2731C72.1699 242 72.6183 242 72.8801 242.189C73.1085 242.353 73.257 242.606 73.2892 242.886C73.326 243.206 73.1073 243.598 72.6698 244.381L68.8651 251.189M62.5001 254L64.0001 253V258M62.7501 258H65.2501M68.5963 250.904C71.1347 253.442 71.1347 257.558 68.5963 260.096C66.0579 262.635 61.9423 262.635 59.4039 260.096C56.8655 257.558 56.8655 253.442 59.4039 250.904C61.9423 248.365 66.0579 248.365 68.5963 250.904Z" stroke="black" stroke-width="2" stroke-linecap="round" stroke-linejoin="round"/>
<path d="M120 253V257.8C120 258.92 120 259.48 119.782 259.908C119.59 260.284 119.284 260.59 118.908 260.782C118.48 261 117.92 261 116.8 261H107.2C106.08 261 105.52 261 105.092 260.782C104.716 260.59 104.41 260.284 104.218 259.908C104 259.48 104 258.92 104 257.8V253M109 250H115M109.286 254H114.714C116.847 254 117.913 254 118.736 253.604C119.552 253.211 120.211 252.552 120.604 251.736C121 250.913 121 249.847 121 247.714C121 246.115 121 245.315 120.703 244.698C120.408 244.086 119.914 243.592 119.302 243.297C118.685 243 117.885 243 116.286 243H107.714C106.115 243 105.315 243 104.698 243.297C104.086 243.592 103.592 244.086 103.297 244.698C103 245.315 103 246.115 103 247.714C103 249.847 103 250.913 103.396 251.736C103.789 252.552 104.448 253.211 105.264 253.604C106.087 254 107.153 254 109.286 254Z" stroke="black" stroke-width="2" stroke-linecap="round" stroke-linejoin="round"/>
<path d="M158 242V246.661C158 246.878 158 246.986 157.967 247.073C157.936 247.154 157.894 247.213 157.829 247.271C157.759 247.331 157.646 247.373 157.42 247.456C154.549 248.507 152.5 251.264 152.5 254.5C152.5 258.642 155.858 262 160 262C164.142 262 167.5 258.642 167.5 254.5C167.5 251.264 165.451 248.507 162.58 247.456C162.354 247.373 162.241 247.331 162.171 247.271C162.106 247.213 162.064 247.154 162.033 247.073C162 246.986 162 246.878 162 246.661V242M156.5 242H163.5" stroke="black" stroke-width="2" stroke-linecap="round" stroke-linejoin="round"/>
<path d="M205 246V250.501C205 251.052 205 251.328 204.931 251.583C204.87 251.809 204.77 252.023 204.636 252.214C204.483 252.43 204.272 252.607 203.849 252.96L200.151 256.04C199.728 256.393 199.517 256.57 199.364 256.786C199.23 256.977 199.13 257.191 199.069 257.417C199 257.672 199 257.948 199 258.499V258.8C199 259.92 199 260.48 199.218 260.908C199.41 261.284 199.716 261.59 200.092 261.782C200.52 262 201.08 262 202.2 262H213.8C214.92 262 215.48 262 215.908 261.782C216.284 261.59 216.59 261.284 216.782 260.908C217 260.48 217 259.92 217 258.8V258.499C217 257.948 217 257.672 216.931 257.417C216.87 257.191 216.77 256.977 216.636 256.786C216.483 256.57 216.272 256.393 215.849 256.04L212.151 252.96C211.728 252.607 211.517 252.43 211.364 252.214C211.23 252.023 211.13 251.809 211.069 251.583C211 251.328 211 251.052 211 250.501V246M204.3 246H211.7C211.98 246 212.12 246 212.227 245.946C212.321 245.898 212.398 245.821 212.446 245.727C212.5 245.62 212.5 245.48 212.5 245.2V242.8C212.5 242.52 212.5 242.38 212.446 242.273C212.398 242.179 212.321 242.102 212.227 242.054C212.12 242 211.98 242 211.7 242H204.3C204.02 242 203.88 242 203.773 242.054C203.679 242.102 203.602 242.179 203.554 242.273C203.5 242.38 203.5 242.52 203.5 242.8V245.2C203.5 245.48 203.5 245.62 203.554 245.727C203.602 245.821 203.679 245.898 203.773 245.946C203.88 246 204.02 246 204.3 246ZM201.5 257H214.5C214.965 257 215.197 257 215.39 257.038C216.184 257.196 216.804 257.816 216.962 258.61C217 258.803 217 259.035 217 259.5C217 259.965 217 260.197 216.962 260.39C216.804 261.184 216.184 261.804 215.39 261.962C215.197 262 214.965 262 214.5 262H201.5C201.035 262 200.803 262 200.61 261.962C199.816 261.804 199.196 261.184 199.038 260.39C199 260.197 199 259.965 199 259.5C199 259.035 199 258.803 199.038 258.61C199.196 257.816 199.816 257.196 200.61 257.038C200.803 257 201.035 257 201.5 257Z" stroke="black" stroke-width="2" stroke-linecap="round" stroke-linejoin="round"/>
<path d="M264 259V256H251C249.343 256 248 257.343 248 259M252.8 262H260.8C261.92 262 262.48 262 262.908 261.782C263.284 261.59 263.59 261.284 263.782 260.908C264 260.48 264 259.92 264 258.8V245.2C264 244.08 264 243.52 263.782 243.092C263.59 242.716 263.284 242.41 262.908 242.218C262.48 242 261.92 242 260.8 242H252.8C251.12 242 250.28 242 249.638 242.327C249.074 242.615 248.615 243.074 248.327 243.638C248 244.28 248 245.12 248 246.8V257.2C248 258.88 248 259.72 248.327 260.362C248.615 260.926 249.074 261.385 249.638 261.673C250.28 262 251.12 262 252.8 262Z" stroke="black" stroke-width="2" stroke-linecap="round" stroke-linejoin="round"/>
<path d="M304 261L303.9 260.85C303.205 259.808 302.858 259.287 302.399 258.91C301.993 258.576 301.525 258.325 301.022 258.173C300.453 258 299.827 258 298.575 258H297.2C296.08 258 295.52 258 295.092 257.782C294.716 257.59 294.41 257.284 294.218 256.908C294 256.48 294 255.92 294 254.8V246.2C294 245.08 294 244.52 294.218 244.092C294.41 243.716 294.716 243.41 295.092 243.218C295.52 243 296.08 243 297.2 243H297.6C299.84 243 300.96 243 301.816 243.436C302.569 243.819 303.181 244.431 303.564 245.184C304 246.04 304 247.16 304 249.4M304 261V249.4M304 261L304.1 260.85C304.795 259.808 305.142 259.287 305.601 258.91C306.007 258.576 306.475 258.325 306.978 258.173C307.547 258 308.173 258 309.425 258H310.8C311.92 258 312.48 258 312.908 257.782C313.284 257.59 313.59 257.284 313.782 256.908C314 256.48 314 255.92 314 254.8V246.2C314 245.08 314 244.52 313.782 244.092C313.59 243.716 313.284 243.41 312.908 243.218C312.48 243 311.92 243 310.8 243H310.4C308.16 243 307.04 243 306.184 243.436C305.431 243.819 304.819 244.431 304.436 245.184C304 246.04 304 247.16 304 249.4" stroke="black" stroke-width="2" stroke-linecap="round" stroke-linejoin="round"/>
<path d="M352 260H345.2C344.08 260 343.52 260 343.092 259.782C342.716 259.59 342.41 259.284 342.218 258.908C342 258.48 342 257.92 342 256.8V247.2C342 246.08 342 245.52 342.218 245.092C342.41 244.716 342.716 244.41 343.092 244.218C343.52 244 344.08 244 345.2 244H345.6C347.84 244 348.96 244 349.816 244.436C350.569 244.819 351.181 245.431 351.564 246.184C352 247.04 352 248.16 352 250.4M352 260V250.4M352 260H358.8C359.92 260 360.48 260 360.908 259.782C361.284 259.59 361.59 259.284 361.782 258.908C362 258.48 362 257.92 362 256.8V247.2C362 246.08 362 245.52 361.782 245.092C361.59 244.716 361.284 244.41 360.908 244.218C360.48 244 359.92 244 358.8 244H358.4C356.16 244 355.04 244 354.184 244.436C353.431 244.819 352.819 245.431 352.436 246.184C352 247.04 352 248.16 352 250.4" stroke="black" stroke-width="2" stroke-linecap="round" stroke-linejoin="round"/>
<path d="M404 247C404 246.07 404 245.605 403.898 245.224C403.62 244.188 402.812 243.38 401.776 243.102C401.395 243 400.93 243 400 243C399.07 243 398.605 243 398.224 243.102C397.188 243.38 396.38 244.188 396.102 245.224C396 245.605 396 246.07 396 247M393.2 261H406.8C407.92 261 408.48 261 408.908 260.782C409.284 260.59 409.59 260.284 409.782 259.908C410 259.48 410 258.92 410 257.8V250.2C410 249.08 410 248.52 409.782 248.092C409.59 247.716 409.284 247.41 408.908 247.218C408.48 247 407.92 247 406.8 247H393.2C392.08 247 391.52 247 391.092 247.218C390.716 247.41 390.41 247.716 390.218 248.092C390 248.52 390 249.08 390 250.2V257.8C390 258.92 390 259.48 390.218 259.908C390.41 260.284 390.716 260.59 391.092 260.782C391.52 261 392.08 261 393.2 261Z" stroke="black" stroke-width="2" stroke-linecap="round" stroke-linejoin="round"/>
<path d="M444 261V247C444 246.07 444 245.605 444.102 245.224C444.38 244.188 445.188 243.38 446.224 243.102C446.605 243 447.07 243 448 243C448.93 243 449.395 243 449.776 243.102C450.812 243.38 451.62 244.188 451.898 245.224C452 245.605 452 246.07 452 247V261M441.2 261H454.8C455.92 261 456.48 261 456.908 260.782C457.284 260.59 457.59 260.284 457.782 259.908C458 259.48 458 258.92 458 257.8V250.2C458 249.08 458 248.52 457.782 248.092C457.59 247.716 457.284 247.41 456.908 247.218C456.48 247 455.92 247 454.8 247H441.2C440.08 247 439.52 247 439.092 247.218C438.716 247.41 438.41 247.716 438.218 248.092C438 248.52 438 249.08 438 250.2V257.8C438 258.92 438 259.48 438.218 259.908C438.41 260.284 438.716 260.59 439.092 260.782C439.52 261 440.08 261 441.2 261Z" stroke="black" stroke-width="2" stroke-linecap="round" stroke-linejoin="round"/>
<path d="M21.5 294.5L10.5 305.5M12.5 298.5V294.5M10.5 296.5H14.5M17.5 303.5H21.5M11.8 309H20.2C21.8802 309 22.7202 309 23.362 308.673C23.9265 308.385 24.3854 307.926 24.673 307.362C25 306.72 25 305.88 25 304.2V295.8C25 294.12 25 293.28 24.673 292.638C24.3854 292.074 23.9265 291.615 23.362 291.327C22.7202 291 21.8802 291 20.2 291H11.8C10.1198 291 9.27976 291 8.63803 291.327C8.07354 291.615 7.6146 292.074 7.32698 292.638C7 293.28 7 294.12 7 295.8V304.2C7 305.88 7 306.72 7.32698 307.362C7.6146 307.926 8.07354 308.385 8.63803 308.673C9.27976 309 10.1198 309 11.8 309Z" stroke="black" stroke-width="2" stroke-linecap="round" stroke-linejoin="round"/>
<path d="M58.5 308H57C55.8954 308 55 307.105 55 306V292C55 290.895 55.8954 290 57 290H71C72.1046 290 73 290.895 73 292V306C73 307.105 72.1046 308 71 308H69.5M64 307C65.6569 307 67 305.657 67 304C67 302.343 65.6569 301 64 301C62.3431 301 61 302.343 61 304C61 305.657 62.3431 307 64 307ZM64 307L64.0214 307L60.8287 310.193L58.0002 307.364L61.0197 304.345M64 307L67.1928 310.193L70.0212 307.364L67.0018 304.345M61 294H67M59 297.5H69" stroke="black" stroke-width="2" stroke-linecap="round" stroke-linejoin="round"/>
<path d="M109 306.5H115M107 303H117M105 290H119C120.105 290 121 290.995 121 292.222V307.778C121 309.005 120.105 310 119 310H105C103.895 310 103 309.005 103 307.778V292.222C103 290.995 103.895 290 105 290ZM111.998 294.212C111.298 293.433 110.131 293.223 109.254 293.937C108.377 294.65 108.254 295.843 108.942 296.687C109.631 297.531 111.998 299.5 111.998 299.5C111.998 299.5 114.364 297.531 115.053 296.687C115.741 295.843 115.633 294.643 114.741 293.937C113.849 293.231 112.697 293.433 111.998 294.212Z" stroke="black" stroke-width="2" stroke-linecap="round" stroke-linejoin="round"/>
<path d="M160 292C158.619 292 157.5 293.119 157.5 294.5C157.5 295.881 158.619 297 160 297C161.381 297 162.5 295.881 162.5 294.5C162.5 293.119 161.381 292 160 292ZM160 292V290M169 302.937C166.801 305.429 163.584 307 160 307C156.416 307 153.199 305.429 151 302.937M158.745 296.662L151 310M161.255 296.662L169 310" stroke="black" stroke-width="2" stroke-linecap="round" stroke-linejoin="round"/>
<path d="M206 299.535C207.234 298.822 208.766 298.822 210 299.535M204.828 297.172C206.391 298.734 206.391 301.266 204.828 302.828C203.266 304.391 200.734 304.391 199.172 302.828C197.609 301.266 197.609 298.734 199.172 297.172C200.734 295.609 203.266 295.609 204.828 297.172ZM216.828 297.172C218.391 298.734 218.391 301.266 216.828 302.828C215.266 304.391 212.734 304.391 211.172 302.828C209.609 301.266 209.609 298.734 211.172 297.172C212.734 295.609 215.266 295.609 216.828 297.172Z" stroke="black" stroke-width="2" stroke-linecap="round" stroke-linejoin="round"/>
<path d="M254 302.535C255.234 301.822 256.766 301.822 258 302.535M246 303L246.701 295.985C246.728 295.719 246.741 295.586 246.762 295.472C247.002 294.127 248.121 293.114 249.484 293.009C249.599 293 249.733 293 250 293M266 303L265.299 295.985C265.272 295.719 265.259 295.586 265.238 295.472C264.998 294.127 263.879 293.114 262.516 293.009C262.401 293 262.267 293 262 293M252.828 300.172C254.391 301.734 254.391 304.266 252.828 305.828C251.266 307.391 248.734 307.391 247.172 305.828C245.609 304.266 245.609 301.734 247.172 300.172C248.734 298.609 251.266 298.609 252.828 300.172ZM264.828 300.172C266.391 301.734 266.391 304.266 264.828 305.828C263.266 307.391 260.734 307.391 259.172 305.828C257.609 304.266 257.609 301.734 259.172 300.172C260.734 298.609 263.266 298.609 264.828 300.172Z" stroke="black" stroke-width="2" stroke-linecap="round" stroke-linejoin="round"/>
<path d="M310.632 290.368C315.123 294.859 315.123 302.141 310.632 306.632C306.331 310.933 299.471 311.115 294.953 307.178C294.756 307.006 294.658 306.921 294.613 306.803C294.576 306.705 294.572 306.583 294.602 306.481C294.639 306.361 294.737 306.263 294.934 306.066L297.149 303.851M310 298.5C310 302.642 306.642 306 302.5 306C298.358 306 295 302.642 295 298.5C295 294.358 298.358 291 302.5 291C306.642 291 310 294.358 310 298.5Z" stroke="black" stroke-width="2" stroke-linecap="round" stroke-linejoin="round"/>
<path d="M342.661 306.339L347.255 301.745M358.217 290.782C361.927 294.492 361.927 300.508 358.217 304.217C354.508 307.927 348.492 307.927 344.782 304.217M357 310H347M352 310V307M357.5 297.5C357.5 300.814 354.814 303.5 351.5 303.5C348.186 303.5 345.5 300.814 345.5 297.5C345.5 294.186 348.186 291.5 351.5 291.5C354.814 291.5 357.5 294.186 357.5 297.5Z" stroke="black" stroke-width="2" stroke-linecap="round" stroke-linejoin="round"/>
<path d="M393 298V304.011C393 304.37 393 304.55 393.055 304.708C393.103 304.848 393.182 304.976 393.286 305.082C393.403 305.201 393.563 305.282 393.884 305.442L399.284 308.142C399.547 308.273 399.678 308.339 399.816 308.365C399.937 308.388 400.063 308.388 400.184 308.365C400.322 308.339 400.453 308.273 400.716 308.142L406.116 305.442C406.437 305.282 406.597 305.201 406.714 305.082C406.818 304.976 406.897 304.848 406.945 304.708C407 304.55 407 304.37 407 304.011V298M390 296.5L399.642 291.679C399.773 291.613 399.839 291.58 399.908 291.568C399.969 291.556 400.031 291.556 400.092 291.568C400.161 291.58 400.227 291.613 400.358 291.679L410 296.5L400.358 301.321C400.227 301.387 400.161 301.419 400.092 301.432C400.031 301.444 399.969 301.444 399.908 301.432C399.839 301.419 399.773 301.387 399.642 301.321L390 296.5Z" stroke="black" stroke-width="2" stroke-linecap="round" stroke-linejoin="round"/>
<path d="M453 302.5V299.494C453 299.315 453 299.225 452.973 299.146C452.949 299.076 452.909 299.012 452.857 298.959C452.799 298.899 452.718 298.859 452.558 298.779L448 296.5M440 297.5V304.307C440 304.678 440 304.864 440.058 305.027C440.109 305.171 440.193 305.301 440.302 305.408C440.426 305.529 440.595 305.606 440.933 305.761L447.333 308.694C447.579 308.807 447.701 308.863 447.829 308.885C447.942 308.905 448.058 308.905 448.171 308.885C448.299 308.863 448.421 308.807 448.667 308.694L455.067 305.761C455.405 305.606 455.574 305.529 455.698 305.408C455.807 305.301 455.891 305.171 455.942 305.027C456 304.864 456 304.678 456 304.307V297.5M438 296.5L447.642 291.679C447.773 291.613 447.839 291.58 447.908 291.568C447.969 291.556 448.031 291.556 448.092 291.568C448.161 291.58 448.227 291.613 448.358 291.679L458 296.5L448.358 301.321C448.227 301.387 448.161 301.419 448.092 301.432C448.031 301.444 447.969 301.444 447.908 301.432C447.839 301.419 447.773 301.387 447.642 301.321L438 296.5Z" stroke="black" stroke-width="2" stroke-linecap="round" stroke-linejoin="round"/>
<path d="M7 358H16M15 342.252C15.6392 342.088 16.3094 342 17 342C21.4183 342 25 345.582 25 350C25 353.357 22.9318 356.232 20 357.418M9.5 349H13.5C13.9647 349 14.197 349 14.3902 349.038C15.1836 349.196 15.8038 349.816 15.9616 350.61C16 350.803 16 351.035 16 351.5C16 351.965 16 352.197 15.9616 352.39C15.8038 353.184 15.1836 353.804 14.3902 353.962C14.197 354 13.9647 354 13.5 354H9.5C9.03534 354 8.80302 354 8.60982 353.962C7.81644 353.804 7.19624 353.184 7.03843 352.39C7 352.197 7 351.965 7 351.5C7 351.035 7 350.803 7.03843 350.61C7.19624 349.816 7.81644 349.196 8.60982 349.038C8.80302 349 9.03534 349 9.5 349ZM8 341.5V349H15V341.5C15 339.567 13.433 338 11.5 338C9.567 338 8 339.567 8 341.5Z" stroke="black" stroke-width="2" stroke-linecap="round" stroke-linejoin="round"/>
<path d="M66.5 341.5L68 343M63.5 344.5L65 346M60.5 347.5L62 349M57.5 350.5L59 352M54.5656 353.566L58.4342 357.434C58.6322 357.632 58.7313 357.731 58.8454 357.768C58.9458 357.801 59.054 357.801 59.1544 357.768C59.2686 357.731 59.3676 357.632 59.5656 357.434L73.4342 343.566C73.6322 343.368 73.7313 343.269 73.7683 343.155C73.801 343.054 73.801 342.946 73.7683 342.846C73.7313 342.731 73.6322 342.632 73.4342 342.434L69.5656 338.566C69.3676 338.368 69.2686 338.269 69.1544 338.232C69.054 338.199 68.9458 338.199 68.8454 338.232C68.7313 338.269 68.6322 338.368 68.4342 338.566L54.5656 352.434C54.3676 352.632 54.2686 352.731 54.2315 352.846C54.1989 352.946 54.1989 353.054 54.2315 353.155C54.2686 353.269 54.3676 353.368 54.5656 353.566Z" stroke="black" stroke-width="2" stroke-linecap="round" stroke-linejoin="round"/>
<path d="M109 353L104 358M115 353L120 358M112 338V340M112 358V353M105.2 353H118.8C119.92 353 120.48 353 120.908 352.782C121.284 352.59 121.59 352.284 121.782 351.908C122 351.48 122 350.92 122 349.8V343.2C122 342.08 122 341.52 121.782 341.092C121.59 340.716 121.284 340.41 120.908 340.218C120.48 340 119.92 340 118.8 340H105.2C104.08 340 103.52 340 103.092 340.218C102.716 340.41 102.41 340.716 102.218 341.092C102 341.52 102 342.08 102 343.2V349.8C102 350.92 102 351.48 102.218 351.908C102.41 352.284 102.716 352.59 103.092 352.782C103.52 353 104.08 353 105.2 353Z" stroke="black" stroke-width="2" stroke-linecap="round" stroke-linejoin="round"/>
<path d="M161.122 350.845L166 358M158.879 350.845L154 358M162 349.2C162 350.305 161.105 351.2 160 351.2C158.896 351.2 158 350.305 158 349.2C158 348.095 158.896 347.2 160 347.2C161.105 347.2 162 348.095 162 349.2ZM165.149 340.532L153.365 343.69C153.094 343.762 152.959 343.799 152.87 343.879C152.791 343.95 152.737 344.043 152.715 344.146C152.69 344.264 152.726 344.399 152.799 344.67L153.679 347.954C153.751 348.224 153.788 348.36 153.868 348.449C153.939 348.527 154.032 348.581 154.136 348.603C154.253 348.628 154.388 348.592 154.659 348.519L166.443 345.362L165.149 340.532ZM169.793 345.5C168.711 345.789 168.17 345.934 167.7 345.835C167.287 345.747 166.912 345.53 166.63 345.217C166.308 344.86 166.164 344.319 165.874 343.237L165.718 342.657C165.428 341.575 165.283 341.034 165.383 340.565C165.471 340.152 165.687 339.777 166.001 339.494C166.358 339.173 166.899 339.028 167.981 338.738C168.252 338.666 168.387 338.629 168.504 338.654C168.607 338.676 168.701 338.73 168.772 338.809C168.852 338.898 168.888 339.033 168.961 339.304L170.358 344.52C170.431 344.79 170.467 344.926 170.442 345.043C170.42 345.146 170.366 345.24 170.288 345.311C170.199 345.391 170.063 345.427 169.793 345.5ZM151.502 348.33L152.854 347.968C153.125 347.895 153.26 347.859 153.349 347.779C153.428 347.708 153.482 347.614 153.504 347.511C153.529 347.394 153.493 347.258 153.42 346.988L153.058 345.636C152.985 345.365 152.949 345.23 152.869 345.141C152.798 345.062 152.704 345.008 152.601 344.986C152.484 344.961 152.348 344.997 152.078 345.07L150.726 345.432C150.455 345.505 150.32 345.541 150.231 345.621C150.152 345.692 150.098 345.786 150.076 345.889C150.051 346.006 150.087 346.142 150.16 346.412L150.522 347.764C150.595 348.035 150.631 348.17 150.711 348.259C150.782 348.338 150.876 348.392 150.979 348.414C151.096 348.439 151.232 348.402 151.502 348.33Z" stroke="black" stroke-width="2" stroke-linecap="round" stroke-linejoin="round"/>
<path d="M208 351C204.686 351 202 348.314 202 345V339.444C202 339.031 202 338.824 202.06 338.658C202.161 338.38 202.38 338.161 202.658 338.06C202.824 338 203.031 338 203.444 338H212.556C212.969 338 213.176 338 213.342 338.06C213.62 338.161 213.839 338.38 213.94 338.658C214 338.824 214 339.031 214 339.444V345C214 348.314 211.314 351 208 351ZM208 351V354M214 340H216.5C216.966 340 217.199 340 217.383 340.076C217.628 340.178 217.822 340.372 217.924 340.617C218 340.801 218 341.034 218 341.5V342C218 342.93 218 343.395 217.898 343.776C217.62 344.812 216.812 345.62 215.776 345.898C215.395 346 214.93 346 214 346M202 340H199.5C199.034 340 198.801 340 198.617 340.076C198.372 340.178 198.178 340.372 198.076 340.617C198 340.801 198 341.034 198 341.5V342C198 342.93 198 343.395 198.102 343.776C198.38 344.812 199.188 345.62 200.224 345.898C200.605 346 201.07 346 202 346M203.444 358H212.556C212.801 358 213 357.801 213 357.556C213 355.592 211.408 354 209.444 354H206.556C204.592 354 203 355.592 203 357.556C203 357.801 203.199 358 203.444 358Z" stroke="black" stroke-width="2" stroke-linecap="round" stroke-linejoin="round"/>
<path d="M256 353C252.41 353 249.5 350.09 249.5 346.5V340.556C249.5 340.037 249.5 339.778 249.594 339.577C249.693 339.364 249.864 339.193 250.077 339.094C250.278 339 250.537 339 251.056 339H260.944C261.463 339 261.722 339 261.923 339.094C262.136 339.193 262.307 339.364 262.406 339.577C262.5 339.778 262.5 340.037 262.5 340.556V346.5C262.5 350.09 259.59 353 256 353ZM256 353V357M261 357H251M266 341V346M246 341V346" stroke="black" stroke-width="2" stroke-linecap="round" stroke-linejoin="round"/>
<path d="M304 344V348M304 352H304.01M314 348C314 353.523 309.523 358 304 358C298.477 358 294 353.523 294 348C294 342.477 298.477 338 304 338C309.523 338 314 342.477 314 348Z" stroke="black" stroke-width="2" stroke-linecap="round" stroke-linejoin="round"/>
<path d="M352 344V348M352 352H352.01M343 343.941V352.059C343 352.401 343 352.572 343.05 352.725C343.095 352.86 343.168 352.985 343.265 353.089C343.374 353.208 343.523 353.291 343.823 353.457L351.223 357.568C351.507 357.726 351.648 357.805 351.799 357.836C351.931 357.863 352.069 357.863 352.201 357.836C352.352 357.805 352.493 357.726 352.777 357.568L360.177 353.457C360.477 353.291 360.626 353.208 360.735 353.089C360.832 352.985 360.905 352.86 360.95 352.725C361 352.572 361 352.401 361 352.059V343.941C361 343.599 361 343.427 360.95 343.275C360.905 343.139 360.832 343.015 360.735 342.911C360.626 342.792 360.477 342.709 360.177 342.543L352.777 338.432C352.493 338.274 352.352 338.195 352.201 338.164C352.069 338.137 351.931 338.137 351.799 338.164C351.648 338.195 351.507 338.274 351.223 338.432L343.823 342.543C343.523 342.709 343.374 342.792 343.265 342.911C343.168 343.015 343.095 343.139 343.05 343.275C343 343.427 343 343.599 343 343.941Z" stroke="black" stroke-width="2" stroke-linecap="round" stroke-linejoin="round"/>
<path d="M400 344V348M400 352H400.01M390 344.523V351.477C390 351.722 390 351.844 390.028 351.959C390.052 352.061 390.093 352.159 390.147 352.248C390.209 352.349 390.296 352.436 390.469 352.609L395.391 357.531C395.564 357.704 395.651 357.791 395.752 357.853C395.841 357.907 395.939 357.948 396.041 357.972C396.156 358 396.278 358 396.523 358H403.477C403.722 358 403.844 358 403.959 357.972C404.061 357.948 404.159 357.907 404.248 357.853C404.349 357.791 404.436 357.704 404.609 357.531L409.531 352.609C409.704 352.436 409.791 352.349 409.853 352.248C409.907 352.159 409.948 352.061 409.972 351.959C410 351.844 410 351.722 410 351.477V344.523C410 344.278 410 344.156 409.972 344.041C409.948 343.939 409.907 343.841 409.853 343.752C409.791 343.651 409.704 343.564 409.531 343.391L404.609 338.469C404.436 338.296 404.349 338.209 404.248 338.147C404.159 338.093 404.061 338.052 403.959 338.028C403.844 338 403.722 338 403.477 338H396.523C396.278 338 396.156 338 396.041 338.028C395.939 338.052 395.841 338.093 395.752 338.147C395.651 338.209 395.564 338.296 395.391 338.469L390.469 343.391C390.296 343.564 390.209 343.651 390.147 343.752C390.093 343.841 390.052 343.939 390.028 344.041C390 344.156 390 344.278 390 344.523Z" stroke="black" stroke-width="2" stroke-linecap="round" stroke-linejoin="round"/>
<path d="M448 344V348M448 352H448.01M443.8 357H452.2C453.88 357 454.72 357 455.362 356.673C455.926 356.385 456.385 355.926 456.673 355.362C457 354.72 457 353.88 457 352.2V343.8C457 342.12 457 341.28 456.673 340.638C456.385 340.074 455.926 339.615 455.362 339.327C454.72 339 453.88 339 452.2 339H443.8C442.12 339 441.28 339 440.638 339.327C440.074 339.615 439.615 340.074 439.327 340.638C439 341.28 439 342.12 439 343.8V352.2C439 353.88 439 354.72 439.327 355.362C439.615 355.926 440.074 356.385 440.638 356.673C441.28 357 442.12 357 443.8 357Z" stroke="black" stroke-width="2" stroke-linecap="round" stroke-linejoin="round"/>
<path d="M15.9998 393V397M15.9998 401H16.0098M14.6151 387.892L6.39019 402.098C5.93398 402.886 5.70588 403.28 5.73959 403.604C5.769 403.886 5.91677 404.142 6.14613 404.309C6.40908 404.5 6.86435 404.5 7.77487 404.5H24.2246C25.1352 404.5 25.5904 404.5 25.8534 404.309C26.0827 404.142 26.2305 403.886 26.2599 403.604C26.2936 403.28 26.0655 402.886 25.6093 402.098L17.3844 387.892C16.9299 387.107 16.7026 386.714 16.4061 386.582C16.1474 386.467 15.8521 386.467 15.5935 386.582C15.2969 386.714 15.0696 387.107 14.6151 387.892Z" stroke="black" stroke-width="2" stroke-linecap="round" stroke-linejoin="round"/>
<path d="M74 392V396M62.25 389.5H58.8C57.1198 389.5 56.2798 389.5 55.638 389.827C55.0735 390.115 54.6146 390.574 54.327 391.138C54 391.78 54 392.62 54 394.3L54 395.5C54 396.432 54 396.898 54.1522 397.265C54.3552 397.755 54.7446 398.145 55.2346 398.348C55.6022 398.5 56.0681 398.5 57 398.5V402.75C57 402.982 57 403.098 57.0096 403.196C57.1032 404.146 57.8544 404.897 58.804 404.99C58.9017 405 59.0178 405 59.25 405C59.4822 405 59.5983 405 59.696 404.99C60.6456 404.897 61.3968 404.146 61.4904 403.196C61.5 403.098 61.5 402.982 61.5 402.75V398.5H62.25C64.0164 398.5 66.1772 399.447 67.8443 400.356C68.8168 400.886 69.3031 401.151 69.6216 401.112C69.9169 401.076 70.1402 400.943 70.3133 400.701C70.5 400.44 70.5 399.918 70.5 398.874V389.126C70.5 388.082 70.5 387.56 70.3133 387.299C70.1402 387.057 69.9169 386.924 69.6216 386.888C69.3031 386.849 68.8168 387.114 67.8443 387.644C66.1772 388.553 64.0164 389.5 62.25 389.5Z" stroke="black" stroke-width="2" stroke-linecap="round" stroke-linejoin="round"/>
<path d="M104 398L105.575 404.299C105.619 404.476 105.641 404.564 105.667 404.642C105.923 405.397 106.604 405.928 107.399 405.993C107.48 406 107.571 406 107.754 406C107.982 406 108.097 406 108.193 405.991C109.145 405.898 109.898 405.145 109.991 404.193C110 404.097 110 403.982 110 403.754V389.5M118.5 397.5C120.433 397.5 122 395.933 122 394C122 392.067 120.433 390.5 118.5 390.5M110.25 389.5H106.5C104.015 389.5 102 391.515 102 394C102 396.485 104.015 398.5 106.5 398.5H110.25C112.016 398.5 114.177 399.447 115.844 400.356C116.817 400.886 117.303 401.151 117.622 401.112C117.917 401.076 118.14 400.943 118.313 400.701C118.5 400.44 118.5 399.918 118.5 398.874V389.126C118.5 388.082 118.5 387.56 118.313 387.299C118.14 387.057 117.917 386.924 117.622 386.888C117.303 386.849 116.817 387.114 115.844 387.644C114.177 388.553 112.016 389.5 110.25 389.5Z" stroke="black" stroke-width="2" stroke-linecap="round" stroke-linejoin="round"/>
<path d="M166.5 400C168.433 400 170 397.09 170 393.5C170 389.91 168.433 387 166.5 387M166.5 400C164.567 400 163 397.09 163 393.5C163 389.91 164.567 387 166.5 387M166.5 400L153.444 397.626C152.516 397.457 152.052 397.373 151.677 397.189C150.914 396.814 150.346 396.134 150.114 395.316C150 394.914 150 394.443 150 393.5C150 392.557 150 392.086 150.114 391.684C150.346 390.866 150.914 390.186 151.677 389.811C152.052 389.627 152.516 389.543 153.444 389.374L166.5 387M153 398L153.394 403.514C153.431 404.038 153.45 404.299 153.564 404.498C153.664 404.673 153.815 404.813 153.996 404.901C154.202 405 154.465 405 154.99 405H156.772C157.372 405 157.672 405 157.895 404.88C158.09 404.775 158.244 404.608 158.334 404.405C158.437 404.175 158.414 403.876 158.367 403.277L158 398.5" stroke="black" stroke-width="2" stroke-linecap="round" stroke-linejoin="round"/>
<path d="M205.354 405C206.059 405.622 206.985 406 208 406C209.014 406 209.94 405.622 210.646 405M214 392C214 390.409 213.368 388.883 212.242 387.757C211.117 386.632 209.591 386 208 386C206.408 386 204.882 386.632 203.757 387.757C202.632 388.883 202 390.409 202 392C202 395.09 201.22 397.206 200.349 398.605C199.615 399.786 199.248 400.376 199.261 400.541C199.276 400.723 199.315 400.793 199.462 400.902C199.594 401 200.192 401 201.389 401H214.611C215.807 401 216.405 401 216.538 400.902C216.685 400.793 216.724 400.723 216.738 400.541C216.752 400.376 216.385 399.786 215.65 398.605C214.779 397.206 214 395.09 214 392Z" stroke="black" stroke-width="2" stroke-linecap="round" stroke-linejoin="round"/>
<path d="M258 405H254M262 392C262 390.409 261.368 388.883 260.242 387.757C259.117 386.632 257.591 386 256 386C254.408 386 252.882 386.632 251.757 387.757C250.632 388.883 250 390.409 250 392C250 395.09 249.22 397.206 248.349 398.605C247.615 399.786 247.248 400.376 247.261 400.541C247.276 400.723 247.315 400.793 247.462 400.902C247.594 401 248.192 401 249.389 401H262.611C263.807 401 264.405 401 264.538 400.902C264.685 400.793 264.724 400.723 264.738 400.541C264.752 400.376 264.385 399.786 263.65 398.605C262.779 397.206 262 395.09 262 392Z" stroke="black" stroke-width="2" stroke-linecap="round" stroke-linejoin="round"/>
<path d="M307 403C307 404.657 305.657 406 304 406C302.343 406 301 404.657 301 403M305.796 390.239C306.232 389.789 306.5 389.176 306.5 388.5C306.5 387.119 305.38 386 304 386C302.619 386 301.5 387.119 301.5 388.5C301.5 389.176 301.768 389.789 302.203 390.239M310 395.2C310 393.821 309.368 392.498 308.242 391.523C307.117 390.548 305.591 390 304 390C302.408 390 300.882 390.548 299.757 391.523C298.632 392.498 298 393.821 298 395.2C298 397.482 297.434 399.151 296.728 400.345C295.923 401.706 295.521 402.386 295.537 402.549C295.555 402.735 295.588 402.793 295.739 402.904C295.871 403 296.533 403 297.858 403H310.142C311.466 403 312.129 403 312.26 402.904C312.411 402.793 312.445 402.735 312.463 402.549C312.479 402.386 312.076 401.706 311.272 400.345C310.566 399.151 310 397.482 310 395.2Z" stroke="black" stroke-width="2" stroke-linecap="round" stroke-linejoin="round"/>
<path d="M354.391 402.015C354.82 403.615 353.87 405.26 352.27 405.689C350.669 406.118 349.024 405.168 348.595 403.568M350.891 389.741C351.196 389.194 351.296 388.532 351.121 387.88C350.764 386.546 349.393 385.754 348.059 386.112C346.725 386.469 345.934 387.84 346.291 389.174C346.466 389.826 346.884 390.349 347.421 390.671M356.236 393.445C355.879 392.113 354.926 390.999 353.587 390.349C352.247 389.698 350.631 389.564 349.094 389.976C347.557 390.387 346.225 391.312 345.39 392.545C344.556 393.778 344.288 395.219 344.645 396.551C345.235 398.755 345.121 400.514 344.748 401.85C344.323 403.373 344.11 404.134 344.167 404.287C344.233 404.462 344.281 404.51 344.455 404.577C344.607 404.636 345.247 404.465 346.526 404.122L358.392 400.943C359.671 400.6 360.311 400.429 360.413 400.301C360.53 400.156 360.548 400.09 360.517 399.906C360.49 399.745 359.925 399.192 358.796 398.086C357.805 397.115 356.826 395.649 356.236 393.445Z" stroke="black" stroke-width="2" stroke-linecap="round" stroke-linejoin="round"/>
<path d="M397.354 405C398.059 405.622 398.985 406 400 406C401.014 406 401.94 405.622 402.646 405M403 389H409M401 386.084C400.672 386.028 400.337 386 400 386C398.408 386 396.882 386.632 395.757 387.757C394.632 388.883 394 390.409 394 392C394 395.09 393.22 397.206 392.349 398.605C391.615 399.786 391.248 400.376 391.261 400.541C391.276 400.723 391.315 400.793 391.462 400.902C391.594 401 392.192 401 393.389 401H406.611C407.807 401 408.405 401 408.538 400.902C408.685 400.793 408.724 400.723 408.739 400.541C408.752 400.376 408.385 399.786 407.65 398.606C406.877 397.363 406.175 395.554 406.028 393" stroke="black" stroke-width="2" stroke-linecap="round" stroke-linejoin="round"/>
<path d="M444.633 387.034C445.62 386.365 446.791 386 448 386C449.591 386 451.117 386.632 452.243 387.757C453.368 388.883 454 390.409 454 392C454 394.101 454.27 395.751 454.648 397.032M442.259 390.257C442.089 390.817 442 391.404 442 392C442 395.09 441.22 397.206 440.35 398.605C439.615 399.786 439.248 400.376 439.261 400.541C439.276 400.723 439.315 400.793 439.462 400.902C439.594 401 440.193 401 441.389 401H453M445.354 405C446.059 405.622 446.986 406 448 406C449.014 406 449.941 405.622 450.646 405M457 405L439 387" stroke="black" stroke-width="2" stroke-linecap="round" stroke-linejoin="round"/>
<path d="M18 453H14M12.6331 435.034C13.6196 434.365 14.791 434 16 434C17.5913 434 19.1174 434.632 20.2426 435.757C21.3679 436.883 22 438.409 22 440C22 442.101 22.2702 443.751 22.6484 445.032M10.2587 438.257C10.0887 438.817 10 439.404 10 440C10 443.09 9.22047 445.206 8.34966 446.605C7.61513 447.786 7.24786 448.376 7.26132 448.541C7.27624 448.723 7.31486 448.793 7.46178 448.902C7.59446 449 8.19259 449 9.38885 449H21M25 453L7 435" stroke="black" stroke-width="2" stroke-linecap="round" stroke-linejoin="round"/>
<path d="M67 451C67 452.657 65.6569 454 64 454C62.3431 454 61 452.657 61 451M59.3775 439.885C58.4909 440.813 58 441.985 58 443.2C58 445.482 57.4341 447.151 56.7281 448.345C55.9233 449.706 55.521 450.386 55.5369 450.549C55.555 450.735 55.5885 450.793 55.7393 450.904C55.8712 451 56.5335 451 57.8582 451H71.88M64 438C63.7071 438 63.4164 438.019 63.13 438.055C62.7485 438.103 62.5577 438.128 62.3662 438.076C62.2284 438.038 62.0206 437.917 61.9198 437.816C61.7798 437.675 61.7492 437.601 61.688 437.453C61.5668 437.159 61.5 436.837 61.5 436.5C61.5 435.119 62.6193 434 64 434C65.3807 434 66.5 435.119 66.5 436.5C66.5 437.176 66.232 437.789 65.7965 438.239C65.2203 438.082 64.615 438 64 438ZM64 438C65.5913 438 67.1174 438.548 68.2426 439.523C69.3679 440.498 70 441.821 70 443.2C70 443.535 70.0091 443.856 70.0264 444.165M73 452L55 436" stroke="black" stroke-width="2" stroke-linecap="round" stroke-linejoin="round"/>
<path d="M109.354 453C110.059 453.622 110.985 454 112 454C113.014 454 113.94 453.622 114.646 453M118 440V434M115 437H121M113 434.084C112.672 434.028 112.337 434 112 434C110.408 434 108.882 434.632 107.757 435.757C106.632 436.883 106 438.409 106 440C106 443.09 105.22 445.206 104.349 446.605C103.615 447.786 103.248 448.376 103.261 448.541C103.276 448.723 103.315 448.793 103.462 448.902C103.594 449 104.192 449 105.389 449H118.611C119.807 449 120.405 449 120.538 448.902C120.685 448.793 120.723 448.723 120.738 448.541C120.752 448.376 120.385 447.786 119.65 446.605C119.158 445.814 118.695 444.795 118.385 443.5" stroke="black" stroke-width="2" stroke-linecap="round" stroke-linejoin="round"/>
<path d="M157.354 453C158.06 453.622 158.986 454 160 454C161.015 454 161.941 453.622 162.646 453M150.294 437.82C150.28 436.369 151.062 435.013 152.326 434.3M169.702 437.82C169.717 436.369 168.934 435.013 167.67 434.3M166 440C166 438.409 165.368 436.883 164.243 435.757C163.118 434.632 161.592 434 160 434C158.409 434 156.883 434.632 155.758 435.757C154.632 436.883 154 438.409 154 440C154 443.09 153.221 445.206 152.35 446.605C151.615 447.786 151.248 448.376 151.262 448.541C151.276 448.723 151.315 448.793 151.462 448.902C151.595 449 152.193 449 153.389 449H166.611C167.808 449 168.406 449 168.538 448.902C168.685 448.793 168.724 448.723 168.739 448.541C168.752 448.376 168.385 447.786 167.651 446.605C166.78 445.206 166 443.09 166 440Z" stroke="black" stroke-width="2" stroke-linecap="round" stroke-linejoin="round"/>
<path d="M210 453H206M198.294 437.82C198.28 436.369 199.062 435.013 200.326 434.3M217.703 437.82C217.717 436.369 216.934 435.013 215.67 434.3M214 440C214 438.409 213.368 436.883 212.243 435.757C211.118 434.632 209.592 434 208 434C206.409 434 204.883 434.632 203.758 435.757C202.632 436.883 202 438.409 202 440C202 443.09 201.221 445.206 200.35 446.605C199.615 447.786 199.248 448.376 199.262 448.541C199.277 448.723 199.315 448.793 199.462 448.902C199.595 449 200.193 449 201.389 449H214.611C215.808 449 216.406 449 216.539 448.902C216.685 448.793 216.724 448.723 216.739 448.541C216.752 448.376 216.385 447.786 215.651 446.605C214.78 445.206 214 443.09 214 440Z" stroke="black" stroke-width="2" stroke-linecap="round" stroke-linejoin="round"/>
<path d="M259 451C259 452.657 257.657 454 256 454C254.343 454 253 452.657 253 451M257.797 438.239C258.232 437.789 258.5 437.176 258.5 436.5C258.5 435.119 257.381 434 256 434C254.62 434 253.5 435.119 253.5 436.5C253.5 437.176 253.768 437.789 254.204 438.239M246.547 440.323C246.533 438.872 247.315 437.516 248.579 436.803M265.453 440.323C265.468 438.872 264.685 437.516 263.421 436.803M262 443.2C262 441.821 261.368 440.498 260.243 439.523C259.118 438.548 257.592 438 256 438C254.409 438 252.883 438.548 251.758 439.523C250.632 440.498 250 441.821 250 443.2C250 445.482 249.434 447.151 248.728 448.345C247.924 449.706 247.521 450.386 247.537 450.549C247.555 450.735 247.589 450.793 247.74 450.904C247.871 451 248.534 451 249.858 451H262.142C263.467 451 264.129 451 264.261 450.904C264.412 450.793 264.445 450.735 264.463 450.549C264.479 450.386 264.077 449.706 263.272 448.345C262.566 447.151 262 445.482 262 443.2Z" stroke="black" stroke-width="2" stroke-linecap="round" stroke-linejoin="round"/>
<path d="M307.646 450.015C308.075 451.615 307.125 453.26 305.525 453.689C303.924 454.118 302.279 453.168 301.85 451.568M294.057 443.613C293.667 442.215 294.072 440.704 295.109 439.687M304.146 437.741C304.451 437.194 304.551 436.532 304.376 435.88C304.019 434.546 302.648 433.754 301.314 434.112C299.98 434.469 299.189 435.84 299.546 437.174C299.721 437.826 300.139 438.349 300.676 438.671M312.319 438.72C311.957 437.315 310.851 436.208 309.445 435.846M309.491 441.445C309.134 440.113 308.181 438.999 306.841 438.349C305.502 437.698 303.886 437.564 302.349 437.976C300.812 438.387 299.48 439.312 298.645 440.545C297.811 441.778 297.543 443.219 297.9 444.551C298.49 446.755 298.375 448.514 298.002 449.85C297.577 451.373 297.365 452.134 297.422 452.287C297.488 452.462 297.535 452.51 297.71 452.577C297.862 452.636 298.502 452.465 299.781 452.122L311.646 448.943C312.926 448.6 313.566 448.429 313.668 448.301C313.785 448.156 313.802 448.09 313.772 447.906C313.745 447.745 313.18 447.192 312.051 446.086C311.06 445.115 310.081 443.649 309.491 441.445Z" stroke="black" stroke-width="2" stroke-linecap="round" stroke-linejoin="round"/>
<path d="M351 436H347.8C346.12 436 345.28 436 344.638 436.327C344.074 436.615 343.615 437.074 343.327 437.638C343 438.28 343 439.12 343 440.8V448.2C343 449.88 343 450.72 343.327 451.362C343.615 451.926 344.074 452.385 344.638 452.673C345.28 453 346.12 453 347.8 453H355.2C356.88 453 357.72 453 358.362 452.673C358.926 452.385 359.385 451.926 359.673 451.362C360 450.72 360 449.88 360 448.2V445M360.121 435.879C361.293 437.05 361.293 438.95 360.121 440.121C358.95 441.293 357.05 441.293 355.879 440.121C354.707 438.95 354.707 437.05 355.879 435.879C357.05 434.707 358.95 434.707 360.121 435.879Z" stroke="black" stroke-width="2" stroke-linecap="round" stroke-linejoin="round"/>
<path d="M399 436H395.8C394.12 436 393.28 436 392.638 436.327C392.074 436.615 391.615 437.074 391.327 437.638C391 438.28 391 439.12 391 440.8V446C391 446.93 391 447.395 391.102 447.776C391.38 448.812 392.188 449.62 393.224 449.898C393.605 450 394.07 450 395 450V452.336C395 452.868 395 453.135 395.109 453.272C395.204 453.391 395.348 453.46 395.501 453.46C395.676 453.459 395.884 453.293 396.3 452.96L398.685 451.052C399.173 450.662 399.416 450.467 399.687 450.328C399.928 450.205 400.184 450.116 400.449 450.061C400.748 450 401.06 450 401.684 450H403.2C404.88 450 405.72 450 406.362 449.673C406.926 449.385 407.385 448.926 407.673 448.362C408 447.72 408 446.88 408 445.2V445M408.121 435.879C409.293 437.05 409.293 438.95 408.121 440.121C406.95 441.293 405.05 441.293 403.879 440.121C402.707 438.95 402.707 437.05 403.879 435.879C405.05 434.707 406.95 434.707 408.121 435.879Z" stroke="black" stroke-width="2" stroke-linecap="round" stroke-linejoin="round"/>
<path d="M447 436H443.8C442.12 436 441.28 436 440.638 436.327C440.074 436.615 439.615 437.074 439.327 437.638C439 438.28 439 439.12 439 440.8V448.2C439 449.88 439 450.72 439.327 451.362C439.615 451.926 440.074 452.385 440.638 452.673C441.28 453 442.12 453 443.8 453H451.2C452.88 453 453.72 453 454.362 452.673C454.926 452.385 455.385 451.926 455.673 451.362C456 450.72 456 449.88 456 448.2V445M449 449H443M451 445H443M456.121 435.879C457.293 437.05 457.293 438.95 456.121 440.121C454.95 441.293 453.05 441.293 451.879 440.121C450.707 438.95 450.707 437.05 451.879 435.879C453.05 434.707 454.95 434.707 456.121 435.879Z" stroke="black" stroke-width="2" stroke-linecap="round" stroke-linejoin="round"/>
<path d="M21.0001 482V493M26.0001 489.8V485.2C26.0001 484.08 26.0001 483.52 25.7821 483.092C25.5903 482.716 25.2844 482.41 24.908 482.218C24.4802 482 23.9202 482 22.8001 482H12.1181C10.6566 482 9.92584 482 9.33563 482.267C8.81545 482.503 8.37335 482.882 8.06129 483.361C7.70722 483.903 7.59611 484.626 7.37388 486.07L6.8508 489.47C6.5577 491.375 6.41114 492.328 6.69386 493.069C6.94199 493.72 7.4087 494.264 8.01398 494.608C8.70358 495 9.66739 495 11.595 495H12.4001C12.9601 495 13.2401 495 13.454 495.109C13.6422 495.205 13.7952 495.358 13.8911 495.546C14.0001 495.76 14.0001 496.04 14.0001 496.6V499.534C14.0001 500.896 15.104 502 16.4659 502C16.7907 502 17.0851 501.809 17.217 501.512L20.5778 493.95C20.7306 493.606 20.807 493.434 20.9278 493.308C21.0346 493.197 21.1658 493.112 21.311 493.059C21.4753 493 21.6635 493 22.0398 493H22.8001C23.9202 493 24.4802 493 24.908 492.782C25.2844 492.59 25.5903 492.284 25.7821 491.908C26.0001 491.48 26.0001 490.92 26.0001 489.8Z" stroke="black" stroke-width="2" stroke-linecap="round" stroke-linejoin="round"/>
<path d="M59 502V491M54 493V500C54 501.105 54.8954 502 56 502H69.4262C70.907 502 72.1662 500.92 72.3914 499.456L73.4683 492.456C73.7479 490.639 72.3418 489 70.5032 489H67C66.4477 489 66 488.552 66 488V484.466C66 483.104 64.896 482 63.5342 482C63.2093 482 62.915 482.191 62.7831 482.488L59.2639 490.406C59.1034 490.767 58.7453 491 58.3501 491H56C54.8954 491 54 491.895 54 493Z" stroke="black" stroke-width="2" stroke-linecap="round" stroke-linejoin="round"/>
<path d="M119 501L122 498M122 498L119 495M122 498H116M112 495.5H107.5C106.104 495.5 105.407 495.5 104.839 495.672C103.56 496.06 102.56 497.06 102.172 498.339C102 498.907 102 499.604 102 501M114.5 487.5C114.5 489.985 112.485 492 110 492C107.515 492 105.5 489.985 105.5 487.5C105.5 485.015 107.515 483 110 483C112.485 483 114.5 485.015 114.5 487.5Z" stroke="black" stroke-width="2" stroke-linecap="round" stroke-linejoin="round"/>
<path d="M167 489L170 486M170 486L167 483M170 486L164 486M164 501V499.8C164 498.12 164 497.28 163.673 496.638C163.385 496.074 162.926 495.615 162.362 495.327C161.72 495 160.88 495 159.2 495H154.8C153.12 495 152.28 495 151.638 495.327C151.074 495.615 150.615 496.074 150.327 496.638C150 497.28 150 498.12 150 499.8V501M160.5 487.5C160.5 489.433 158.933 491 157 491C155.067 491 153.5 489.433 153.5 487.5C153.5 485.567 155.067 484 157 484C158.933 484 160.5 485.567 160.5 487.5Z" stroke="black" stroke-width="2" stroke-linecap="round" stroke-linejoin="round"/>
<path d="M200 501.817C200.603 502 201.416 502 202.8 502H213.2C214.584 502 215.397 502 216 501.817M200 501.817C199.871 501.778 199.751 501.731 199.638 501.673C199.074 501.385 198.615 500.926 198.327 500.362C198 499.72 198 498.88 198 497.2V486.8C198 485.12 198 484.28 198.327 483.638C198.615 483.074 199.074 482.615 199.638 482.327C200.28 482 201.12 482 202.8 482H213.2C214.88 482 215.72 482 216.362 482.327C216.926 482.615 217.385 483.074 217.673 483.638C218 484.28 218 485.12 218 486.8V497.2C218 498.88 218 499.72 217.673 500.362C217.385 500.926 216.926 501.385 216.362 501.673C216.249 501.731 216.129 501.778 216 501.817M200 501.817C200 501.008 200.005 500.58 200.077 500.22C200.392 498.633 201.633 497.392 203.22 497.077C203.606 497 204.071 497 205 497H211C211.929 497 212.394 497 212.78 497.077C214.367 497.392 215.608 498.633 215.923 500.22C215.995 500.58 216 501.008 216 501.817M212 489.5C212 491.709 210.209 493.5 208 493.5C205.791 493.5 204 491.709 204 489.5C204 487.291 205.791 485.5 208 485.5C210.209 485.5 212 487.291 212 489.5Z" stroke="black" stroke-width="2" stroke-linecap="round" stroke-linejoin="round"/>
<path d="M260 498L263 495M263 495L266 498M263 495V501M256 495.5H251.5C250.104 495.5 249.407 495.5 248.839 495.672C247.56 496.06 246.56 497.06 246.172 498.339C246 498.907 246 499.604 246 501M258.5 487.5C258.5 489.985 256.485 492 254 492C251.515 492 249.5 489.985 249.5 487.5C249.5 485.015 251.515 483 254 483C256.485 483 258.5 485.015 258.5 487.5Z" stroke="black" stroke-width="2" stroke-linecap="round" stroke-linejoin="round"/>
<path d="M308 486L311 483M311 483L314 486M311 483V489M308 501V499.8C308 498.12 308 497.28 307.673 496.638C307.385 496.074 306.926 495.615 306.362 495.327C305.72 495 304.88 495 303.2 495H298.8C297.12 495 296.28 495 295.638 495.327C295.074 495.615 294.615 496.074 294.327 496.638C294 497.28 294 498.12 294 499.8V501M304.5 487.5C304.5 489.433 302.933 491 301 491C299.067 491 297.5 489.433 297.5 487.5C297.5 485.567 299.067 484 301 484C302.933 484 304.5 485.567 304.5 487.5Z" stroke="black" stroke-width="2" stroke-linecap="round" stroke-linejoin="round"/>
<path d="M356.5 496L361.5 501M361.5 496L356.5 501M352 495.5H347.5C346.104 495.5 345.407 495.5 344.839 495.672C343.56 496.06 342.56 497.06 342.172 498.339C342 498.907 342 499.604 342 501M354.5 487.5C354.5 489.985 352.485 492 350 492C347.515 492 345.5 489.985 345.5 487.5C345.5 485.015 347.515 483 350 483C352.485 483 354.5 485.015 354.5 487.5Z" stroke="black" stroke-width="2" stroke-linecap="round" stroke-linejoin="round"/>
<path d="M404.5 484L409.5 489M409.5 484L404.5 489M404 501V499.8C404 498.12 404 497.28 403.673 496.638C403.385 496.074 402.926 495.615 402.362 495.327C401.72 495 400.88 495 399.2 495H394.8C393.12 495 392.28 495 391.638 495.327C391.074 495.615 390.615 496.074 390.327 496.638C390 497.28 390 498.12 390 499.8V501M400.5 487.5C400.5 489.433 398.933 491 397 491C395.067 491 393.5 489.433 393.5 487.5C393.5 485.567 395.067 484 397 484C398.933 484 400.5 485.567 400.5 487.5Z" stroke="black" stroke-width="2" stroke-linecap="round" stroke-linejoin="round"/>
<path d="M458 501V499C458 497.136 456.725 495.57 455 495.126M451.5 483.291C452.966 483.884 454 485.321 454 487C454 488.679 452.966 490.116 451.5 490.709M453 501C453 499.136 453 498.204 452.696 497.469C452.29 496.489 451.511 495.71 450.531 495.304C449.796 495 448.864 495 447 495H444C442.136 495 441.204 495 440.469 495.304C439.489 495.71 438.71 496.489 438.304 497.469C438 498.204 438 499.136 438 501M449.5 487C449.5 489.209 447.709 491 445.5 491C443.291 491 441.5 489.209 441.5 487C441.5 484.791 443.291 483 445.5 483C447.709 483 449.5 484.791 449.5 487Z" stroke="black" stroke-width="2" stroke-linecap="round" stroke-linejoin="round"/>
<rect width="461" height="504" fill="url(#paint0_linear_2003_4401)"/>
<defs>
<linearGradient id="paint0_linear_2003_4401" x1="230.5" y1="0" x2="230.5" y2="504" gradientUnits="userSpaceOnUse">
<stop stop-color="white" stop-opacity="0.9"/>
<stop offset="0.5" stop-color="white" stop-opacity="0"/>
<stop offset="1" stop-color="white" stop-opacity="0.9"/>
</linearGradient>
</defs>
</svg>
