<svg width="364" height="422" viewBox="0 0 364 422" fill="none" xmlns="http://www.w3.org/2000/svg">
<g opacity="0.4" filter="url(#filter0_d_2001_4283)">
<rect x="14" y="16" width="56" height="56" rx="12" fill="white" shape-rendering="crispEdges"/>
<path d="M38.5 51V53.2C38.5 53.48 38.5 53.62 38.4455 53.727C38.3976 53.8211 38.3211 53.8976 38.227 53.9455C38.12 54 37.98 54 37.7 54H35.8C35.52 54 35.38 54 35.273 53.9455C35.1789 53.8976 35.1024 53.8211 35.0545 53.727C35 53.62 35 53.48 35 53.2V51M49 51V53.2C49 53.48 49 53.62 48.9455 53.727C48.8976 53.8211 48.8211 53.8976 48.727 53.9455C48.62 54 48.48 54 48.2 54H46.3C46.02 54 45.88 54 45.773 53.9455C45.6789 53.8976 45.6024 53.8211 45.5545 53.727C45.5 53.62 45.5 53.48 45.5 53.2V51M33 44H51M33 37.5H51M36.5 47.5H38M46 47.5H47.5M37.8 51H46.2C47.8802 51 48.7202 51 49.362 50.673C49.9265 50.3854 50.3854 49.9265 50.673 49.362C51 48.7202 51 47.8802 51 46.2V38.8C51 37.1198 51 36.2798 50.673 35.638C50.3854 35.0735 49.9265 34.6146 49.362 34.327C48.7202 34 47.8802 34 46.2 34H37.8C36.1198 34 35.2798 34 34.638 34.327C34.0735 34.6146 33.6146 35.0735 33.327 35.638C33 36.2798 33 37.1198 33 38.8V46.2C33 47.8802 33 48.7202 33.327 49.362C33.6146 49.9265 34.0735 50.3854 34.638 50.673C35.2798 51 36.1198 51 37.8 51Z" stroke="#ECECEC" stroke-width="2" stroke-linecap="round" stroke-linejoin="round"/>
</g>
<g opacity="0.4" filter="url(#filter1_d_2001_4283)">
<rect x="14" y="72" width="56" height="56" rx="12" fill="white" shape-rendering="crispEdges"/>
<path d="M42 100.5C43.6569 100.5 45 99.1569 45 97.5C45 95.8431 43.6569 94.5 42 94.5C40.3431 94.5 39 95.8431 39 97.5C39 99.1569 40.3431 100.5 42 100.5Z" stroke="#ECECEC" stroke-width="2" stroke-linecap="round" stroke-linejoin="round"/>
<path d="M42 110C44 106 50 103.418 50 98C50 93.5817 46.4183 90 42 90C37.5817 90 34 93.5817 34 98C34 103.418 40 106 42 110Z" stroke="#ECECEC" stroke-width="2" stroke-linecap="round" stroke-linejoin="round"/>
</g>
<g opacity="0.4" filter="url(#filter2_d_2001_4283)">
<rect x="14" y="128" width="56" height="56" rx="12" fill="white" shape-rendering="crispEdges"/>
<path d="M52 156C52 161.523 47.5228 166 42 166M52 156C52 150.477 47.5228 146 42 146M52 156H50M42 166C36.4772 166 32 161.523 32 156M42 166V164M32 156C32 150.477 36.4772 146 42 146M32 156H34M42 146V148M49.0711 163.071L47.6569 161.657M36.3431 150.343L34.9289 148.929M47.6569 150.343L49.0711 148.929M34.9289 163.071L36.3431 161.657M38 156L40.5 154.5L42 152L43.5 154.5L46 156L43.5 157.5L42 160L40.5 157.5L38 156Z" stroke="#ECECEC" stroke-width="2" stroke-linecap="round" stroke-linejoin="round"/>
</g>
<g opacity="0.4" filter="url(#filter3_d_2001_4283)">
<rect x="14" y="184" width="56" height="56" rx="12" fill="white" shape-rendering="crispEdges"/>
<path d="M46 213.374C49.5318 214.069 52 215.655 52 217.5C52 219.985 47.5228 222 42 222C36.4772 222 32 219.985 32 217.5C32 215.655 34.4682 214.069 38 213.374M42 217V203L47.3177 206.272C47.7056 206.511 47.8995 206.63 47.9614 206.781C48.0154 206.912 48.0111 207.06 47.9497 207.188C47.8792 207.334 47.6787 207.442 47.2777 207.658L42 210.5" stroke="#ECECEC" stroke-width="2" stroke-linecap="round" stroke-linejoin="round"/>
</g>
<g opacity="0.4" filter="url(#filter4_d_2001_4283)">
<rect x="14" y="240" width="56" height="56" rx="12" fill="white" shape-rendering="crispEdges"/>
<path d="M34 271C34 271 35 270 38 270C41 270 43 272 46 272C49 272 50 271 50 271V259C50 259 49 260 46 260C43 260 41 258 38 258C35 258 34 259 34 259L34 278" stroke="#ECECEC" stroke-width="2" stroke-linecap="round" stroke-linejoin="round"/>
</g>
<g opacity="0.4" filter="url(#filter5_d_2001_4283)">
<rect x="14" y="296" width="56" height="56" rx="12" fill="white" shape-rendering="crispEdges"/>
<path d="M41 316H37.8C36.1198 316 35.2798 316 34.638 316.327C34.0735 316.615 33.6146 317.074 33.327 317.638C33 318.28 33 319.12 33 320.8V326C33 326.93 33 327.395 33.1022 327.776C33.3796 328.812 34.1883 329.62 35.2235 329.898C35.605 330 36.07 330 37 330V332.336C37 332.868 37 333.135 37.1092 333.272C37.2042 333.391 37.3483 333.46 37.5005 333.46C37.6756 333.459 37.8837 333.293 38.2998 332.96L40.6852 331.052C41.1725 330.662 41.4162 330.467 41.6875 330.328C41.9282 330.205 42.1844 330.116 42.4492 330.061C42.7477 330 43.0597 330 43.6837 330H45.2C46.8802 330 47.7202 330 48.362 329.673C48.9265 329.385 49.3854 328.926 49.673 328.362C50 327.72 50 326.88 50 325.2V325M50.1213 315.879C51.2929 317.05 51.2929 318.95 50.1213 320.121C48.9497 321.293 47.0503 321.293 45.8787 320.121C44.7071 318.95 44.7071 317.05 45.8787 315.879C47.0503 314.707 48.9497 314.707 50.1213 315.879Z" stroke="#ECECEC" stroke-width="2" stroke-linecap="round" stroke-linejoin="round"/>
</g>
<g opacity="0.4" filter="url(#filter6_d_2001_4283)">
<rect x="14" y="352" width="56" height="56" rx="12" fill="white" shape-rendering="crispEdges"/>
<path d="M49 377L52 374M52 374L49 371M52 374L46 374M46 389V387.8C46 386.12 46 385.28 45.673 384.638C45.3854 384.074 44.9265 383.615 44.362 383.327C43.7202 383 42.8802 383 41.2 383H36.8C35.1198 383 34.2798 383 33.638 383.327C33.0735 383.615 32.6146 384.074 32.327 384.638C32 385.28 32 386.12 32 387.8V389M42.5 375.5C42.5 377.433 40.933 379 39 379C37.067 379 35.5 377.433 35.5 375.5C35.5 373.567 37.067 372 39 372C40.933 372 42.5 373.567 42.5 375.5Z" stroke="#ECECEC" stroke-width="2" stroke-linecap="round" stroke-linejoin="round"/>
</g>
<g opacity="0.4" filter="url(#filter7_d_2001_4283)">
<rect x="70" y="16" width="56" height="56" rx="12" fill="white" shape-rendering="crispEdges"/>
<path d="M88 44H108M88 44C88 49.5228 92.4772 54 98 54M88 44C88 38.4772 92.4772 34 98 34M108 44C108 49.5228 103.523 54 98 54M108 44C108 38.4772 103.523 34 98 34M98 34C100.501 36.7384 101.923 40.292 102 44C101.923 47.708 100.501 51.2616 98 54M98 34C95.4987 36.7384 94.0772 40.292 94 44C94.0772 47.708 95.4987 51.2616 98 54" stroke="#ECECEC" stroke-width="2" stroke-linecap="round" stroke-linejoin="round"/>
</g>
<g opacity="0.4" filter="url(#filter8_d_2001_4283)">
<rect x="70" y="72" width="56" height="56" rx="12" fill="white" shape-rendering="crispEdges"/>
<path d="M98 103L95 100M98 103C99.3968 102.469 100.737 101.799 102 101M98 103V108C98 108 101.03 107.45 102 106C103.08 104.38 102 101 102 101M95 100C95.5321 98.6194 96.2022 97.2961 97 96.05C98.1652 94.187 99.7876 92.6531 101.713 91.5941C103.638 90.5351 105.803 89.9864 108 90C108 92.72 107.22 97.5 102 101M95 100H90C90 100 90.55 96.97 92 96C93.62 94.92 97 96 97 96M90.5 104.5C89 105.76 88.5 109.5 88.5 109.5C88.5 109.5 92.24 109 93.5 107.5C94.21 106.66 94.2 105.37 93.41 104.59C93.0213 104.219 92.5093 104.005 91.9722 103.988C91.4352 103.971 90.9109 104.154 90.5 104.5Z" stroke="#ECECEC" stroke-width="2" stroke-linecap="round" stroke-linejoin="round"/>
</g>
<g opacity="0.4" filter="url(#filter9_d_2001_4283)">
<rect x="70" y="128" width="56" height="56" rx="12" fill="white" shape-rendering="crispEdges"/>
<path d="M89.076 151.483L93.364 154.546C93.5872 154.705 93.6987 154.785 93.8155 154.803C93.9182 154.819 94.0234 154.803 94.1165 154.756C94.2222 154.704 94.3045 154.594 94.469 154.375L95.3751 153.167C95.4216 153.104 95.4449 153.073 95.4722 153.047C95.4965 153.023 95.5232 153.002 95.5517 152.983C95.5839 152.963 95.6193 152.947 95.6902 152.915L99.5588 151.196C99.7192 151.125 99.7993 151.089 99.8598 151.034C99.9133 150.984 99.9554 150.924 99.9832 150.857C100.015 150.781 100.02 150.693 100.032 150.518L100.315 146.269M99.5 157.5L102.116 158.621C102.42 158.751 102.571 158.816 102.652 158.924C102.722 159.019 102.757 159.136 102.75 159.254C102.741 159.388 102.65 159.525 102.467 159.8L101.237 161.644C101.151 161.774 101.107 161.839 101.05 161.886C100.999 161.928 100.941 161.959 100.878 161.978C100.807 162 100.728 162 100.572 162H98.5766C98.3693 162 98.2656 162 98.1774 161.965C98.0995 161.935 98.0305 161.885 97.9768 161.821C97.916 161.748 97.8832 161.65 97.8177 161.453L97.1048 159.314C97.0661 159.198 97.0468 159.14 97.0417 159.081C97.0372 159.029 97.0409 158.976 97.0528 158.925C97.0662 158.868 97.0935 158.813 97.1482 158.704L97.6897 157.621C97.7997 157.401 97.8547 157.291 97.9395 157.222C98.0141 157.162 98.1046 157.125 98.1999 157.114C98.3081 157.103 98.4248 157.142 98.6582 157.219L99.5 157.5ZM108 156C108 161.523 103.523 166 98 166C92.4772 166 88 161.523 88 156C88 150.477 92.4772 146 98 146C103.523 146 108 150.477 108 156Z" stroke="#ECECEC" stroke-width="2" stroke-linecap="round" stroke-linejoin="round"/>
</g>
<g opacity="0.4" filter="url(#filter10_d_2001_4283)">
<rect x="70" y="184" width="56" height="56" rx="12" fill="white" shape-rendering="crispEdges"/>
<path d="M94 208V207M94 212.5V211.5M94 217V216M92.8 220H103.2C104.88 220 105.72 220 106.362 219.673C106.926 219.385 107.385 218.926 107.673 218.362C108 217.72 108 216.88 108 215.2V208.8C108 207.12 108 206.28 107.673 205.638C107.385 205.074 106.926 204.615 106.362 204.327C105.72 204 104.88 204 103.2 204H92.8C91.1198 204 90.2798 204 89.638 204.327C89.0735 204.615 88.6146 205.074 88.327 205.638C88 206.28 88 207.12 88 208.8V215.2C88 216.88 88 217.72 88.327 218.362C88.6146 218.926 89.0735 219.385 89.638 219.673C90.2798 220 91.1198 220 92.8 220Z" stroke="#ECECEC" stroke-width="2" stroke-linecap="round" stroke-linejoin="round"/>
</g>
<g opacity="0.4" filter="url(#filter11_d_2001_4283)">
<rect x="70" y="296" width="56" height="56" rx="12" fill="white" shape-rendering="crispEdges"/>
<path d="M97 316H93.8C92.1198 316 91.2798 316 90.638 316.327C90.0735 316.615 89.6146 317.074 89.327 317.638C89 318.28 89 319.12 89 320.8V328.2C89 329.88 89 330.72 89.327 331.362C89.6146 331.926 90.0735 332.385 90.638 332.673C91.2798 333 92.1198 333 93.8 333H101.2C102.88 333 103.72 333 104.362 332.673C104.926 332.385 105.385 331.926 105.673 331.362C106 330.72 106 329.88 106 328.2V325M99 329H93M101 325H93M106.121 315.879C107.293 317.05 107.293 318.95 106.121 320.121C104.95 321.293 103.05 321.293 101.879 320.121C100.707 318.95 100.707 317.05 101.879 315.879C103.05 314.707 104.95 314.707 106.121 315.879Z" stroke="#ECECEC" stroke-width="2" stroke-linecap="round" stroke-linejoin="round"/>
</g>
<g opacity="0.4" filter="url(#filter12_d_2001_4283)">
<rect x="126" y="16" width="56" height="56" rx="12" fill="white" shape-rendering="crispEdges"/>
<path d="M154 45C155.657 45 157 43.6569 157 42C157 40.3431 155.657 39 154 39C152.343 39 151 40.3431 151 42C151 43.6569 152.343 45 154 45Z" stroke="#ECECEC" stroke-width="2" stroke-linecap="round" stroke-linejoin="round"/>
<path d="M154 54C158 50 162 46.4183 162 42C162 37.5817 158.418 34 154 34C149.582 34 146 37.5817 146 42C146 46.4183 150 50 154 54Z" stroke="#ECECEC" stroke-width="2" stroke-linecap="round" stroke-linejoin="round"/>
</g>
<g opacity="0.4" filter="url(#filter13_d_2001_4283)">
<rect x="126" y="128" width="56" height="56" rx="12" fill="white" shape-rendering="crispEdges"/>
<path d="M147 158.286C145.149 159.103 144 160.241 144 161.5C144 163.985 148.477 166 154 166C159.523 166 164 163.985 164 161.5C164 160.241 162.851 159.103 161 158.286M160 152C160 156.064 155.5 158 154 161C152.5 158 148 156.064 148 152C148 148.686 150.686 146 154 146C157.314 146 160 148.686 160 152ZM155 152C155 152.552 154.552 153 154 153C153.448 153 153 152.552 153 152C153 151.448 153.448 151 154 151C154.552 151 155 151.448 155 152Z" stroke="#ECECEC" stroke-width="2" stroke-linecap="round" stroke-linejoin="round"/>
</g>
<g opacity="0.4" filter="url(#filter14_d_2001_4283)">
<rect x="126" y="296" width="56" height="56" rx="12" fill="white" shape-rendering="crispEdges"/>
<path d="M158.999 314V325M163.999 321.8V317.2C163.999 316.08 163.999 315.52 163.781 315.092C163.589 314.716 163.283 314.41 162.907 314.218C162.479 314 161.919 314 160.799 314H150.117C148.656 314 147.925 314 147.335 314.267C146.814 314.503 146.372 314.882 146.06 315.361C145.706 315.903 145.595 316.626 145.373 318.07L144.85 321.47C144.557 323.375 144.41 324.328 144.693 325.069C144.941 325.72 145.408 326.264 146.013 326.608C146.703 327 147.666 327 149.594 327H150.399C150.959 327 151.239 327 151.453 327.109C151.641 327.205 151.794 327.358 151.89 327.546C151.999 327.76 151.999 328.04 151.999 328.6V331.534C151.999 332.896 153.103 334 154.465 334C154.79 334 155.084 333.809 155.216 333.512L158.577 325.95C158.73 325.606 158.806 325.434 158.927 325.308C159.034 325.197 159.165 325.112 159.31 325.059C159.474 325 159.663 325 160.039 325H160.799C161.919 325 162.479 325 162.907 324.782C163.283 324.59 163.589 324.284 163.781 323.908C163.999 323.48 163.999 322.92 163.999 321.8Z" stroke="#ECECEC" stroke-width="2" stroke-linecap="round" stroke-linejoin="round"/>
</g>
<g opacity="0.4" filter="url(#filter15_d_2001_4283)">
<rect x="126" y="352" width="56" height="56" rx="12" fill="white" shape-rendering="crispEdges"/>
<path d="M158 374L161 371M161 371L164 374M161 371V377M158 389V387.8C158 386.12 158 385.28 157.673 384.638C157.385 384.074 156.926 383.615 156.362 383.327C155.72 383 154.88 383 153.2 383H148.8C147.12 383 146.28 383 145.638 383.327C145.074 383.615 144.615 384.074 144.327 384.638C144 385.28 144 386.12 144 387.8V389M154.5 375.5C154.5 377.433 152.933 379 151 379C149.067 379 147.5 377.433 147.5 375.5C147.5 373.567 149.067 372 151 372C152.933 372 154.5 373.567 154.5 375.5Z" stroke="#ECECEC" stroke-width="2" stroke-linecap="round" stroke-linejoin="round"/>
</g>
<g opacity="0.4" filter="url(#filter16_d_2001_4283)">
<rect x="182" y="16" width="56" height="56" rx="12" fill="white" shape-rendering="crispEdges"/>
<path d="M211.001 42.9999L201.501 52.4999M212.019 35.5384C213.237 36.3466 214.408 37.2994 215.502 38.3934C216.605 39.4968 217.565 40.6783 218.378 41.9077M207.256 39.896L204.381 38.9378C204.05 38.8274 203.685 38.8976 203.419 39.1231L200.561 41.5407C199.976 42.0356 200.143 42.9775 200.862 43.2424L203.569 44.2398M209.682 50.3524L210.679 53.0596C210.944 53.7786 211.886 53.9448 212.381 53.3599L214.798 50.5027C215.024 50.2363 215.094 49.8716 214.984 49.5405L214.025 46.6657M217.349 34.2706L212.443 35.0884C211.913 35.1767 211.427 35.4371 211.06 35.8293L204.447 42.8985C202.733 44.7308 202.781 47.5924 204.555 49.3667C206.329 51.1409 209.191 51.1886 211.023 49.4744L218.092 42.8614C218.484 42.4944 218.745 42.0085 218.833 41.4787L219.651 36.5722C219.876 35.2186 218.703 34.045 217.349 34.2706Z" stroke="#ECECEC" stroke-width="2" stroke-linecap="round" stroke-linejoin="round"/>
</g>
<g opacity="0.4" filter="url(#filter17_d_2001_4283)">
<rect x="182" y="72" width="56" height="56" rx="12" fill="white" shape-rendering="crispEdges"/>
<path d="M210 90C213 92 213.923 96.292 214 100C213.923 103.708 213 108 210 110M210 90C207 92 206.077 96.292 206 100C206.077 103.708 207 108 210 110M210 90C204.477 90 200 94.4772 200 100M210 90C215.523 90 220 94.4772 220 100M210 110C215.523 110 220 105.523 220 100M210 110C204.477 110 200 105.523 200 100M220 100C218 103 213.708 103.923 210 104C206.292 103.923 202 103 200 100M220 100C218 97 213.708 96.0772 210 96C206.292 96.0772 202 97 200 100" stroke="#ECECEC" stroke-width="2" stroke-linecap="round" stroke-linejoin="round"/>
</g>
<g opacity="0.4" filter="url(#filter18_d_2001_4283)">
<rect x="182" y="352" width="56" height="56" rx="12" fill="white" shape-rendering="crispEdges"/>
<path d="M214.5 384L219.5 389M219.5 384L214.5 389M210 383.5H205.5C204.104 383.5 203.407 383.5 202.839 383.672C201.56 384.06 200.56 385.06 200.172 386.339C200 386.907 200 387.604 200 389M212.5 375.5C212.5 377.985 210.485 380 208 380C205.515 380 203.5 377.985 203.5 375.5C203.5 373.015 205.515 371 208 371C210.485 371 212.5 373.015 212.5 375.5Z" stroke="#ECECEC" stroke-width="2" stroke-linecap="round" stroke-linejoin="round"/>
</g>
<g opacity="0.4" filter="url(#filter19_d_2001_4283)">
<rect x="238" y="16" width="56" height="56" rx="12" fill="white" shape-rendering="crispEdges"/>
<path d="M259 45H262M256 41L258 42L259.271 38.1881C259.533 37.4013 259.664 37.0078 259.907 36.717C260.122 36.4601 260.398 36.2613 260.71 36.1388C261.062 36 261.477 36 262.306 36H269.694C270.523 36 270.938 36 271.29 36.1388C271.602 36.2613 271.878 36.4601 272.093 36.717C272.336 37.0078 272.467 37.4013 272.729 38.1881L274 42L276 41M270 45H273M260.8 42H271.2C272.88 42 273.72 42 274.362 42.327C274.926 42.6146 275.385 43.0735 275.673 43.638C276 44.2798 276 45.1198 276 46.8V49.5C276 49.9647 276 50.197 275.962 50.3902C275.804 51.1836 275.184 51.8038 274.39 51.9616C274.197 52 273.965 52 273.5 52H273C271.895 52 271 51.1046 271 50C271 49.7239 270.776 49.5 270.5 49.5H261.5C261.224 49.5 261 49.7239 261 50C261 51.1046 260.105 52 259 52H258.5C258.035 52 257.803 52 257.61 51.9616C256.816 51.8038 256.196 51.1836 256.038 50.3902C256 50.197 256 49.9647 256 49.5V46.8C256 45.1198 256 44.2798 256.327 43.638C256.615 43.0735 257.074 42.6146 257.638 42.327C258.28 42 259.12 42 260.8 42Z" stroke="#ECECEC" stroke-width="2" stroke-linecap="round" stroke-linejoin="round"/>
</g>
<g opacity="0.4" filter="url(#filter20_d_2001_4283)">
<rect x="238" y="72" width="56" height="56" rx="12" fill="white" shape-rendering="crispEdges"/>
<path d="M266 110C267 105 274 104.418 274 98C274 93.5817 270.418 90 266 90C261.582 90 258 93.5817 258 98C258 104.418 265 105 266 110Z" stroke="#ECECEC" stroke-width="2" stroke-linecap="round" stroke-linejoin="round"/>
<path d="M266 101C267.657 101 269 99.6569 269 98C269 96.3431 267.657 95 266 95C264.343 95 263 96.3431 263 98C263 99.6569 264.343 101 266 101Z" stroke="#ECECEC" stroke-width="2" stroke-linecap="round" stroke-linejoin="round"/>
</g>
<g opacity="0.4" filter="url(#filter21_d_2001_4283)">
<rect x="238" y="128" width="56" height="56" rx="12" fill="white" shape-rendering="crispEdges"/>
<path d="M276 156H274M276 156C276 161.523 271.523 166 266 166M276 156C276 150.477 271.523 146 266 146M273.071 163.071L271.657 161.657M258 156H256M256 156C256 161.523 260.477 166 266 166M256 156C256 150.477 260.477 146 266 146M260.343 150.343L258.929 148.929M266 148V146M271.657 150.343L273.071 148.929M266 166V164M258.929 163.071L260.343 161.657M266 152L270 156L266 160L262 156L266 152Z" stroke="#ECECEC" stroke-width="2" stroke-linecap="round" stroke-linejoin="round"/>
</g>
<g opacity="0.4" filter="url(#filter22_d_2001_4283)">
<rect x="238" y="184" width="56" height="56" rx="12" fill="white" shape-rendering="crispEdges"/>
<path d="M270 213.374C273.532 214.069 276 215.655 276 217.5C276 219.985 271.523 222 266 222C260.477 222 256 219.985 256 217.5C256 215.655 258.468 214.069 262 213.374M266 217V209M266 209C267.657 209 269 207.657 269 206C269 204.343 267.657 203 266 203C264.343 203 263 204.343 263 206C263 207.657 264.343 209 266 209Z" stroke="#ECECEC" stroke-width="2" stroke-linecap="round" stroke-linejoin="round"/>
</g>
<g opacity="0.4" filter="url(#filter23_d_2001_4283)">
<rect x="238" y="240" width="56" height="56" rx="12" fill="white" shape-rendering="crispEdges"/>
<path d="M273 266V262.2C273 261.08 273 260.52 272.782 260.092C272.59 259.716 272.284 259.41 271.908 259.218C271.48 259 270.92 259 269.8 259H262.2C261.08 259 260.52 259 260.092 259.218C259.716 259.41 259.41 259.716 259.218 260.092C259 260.52 259 261.08 259 262.2V266M259 265H256V264M273 265H276V264M260 269.5H260.01M272 269.5H272.01M260.8 266H271.2C272.88 266 273.72 266 274.362 266.327C274.926 266.615 275.385 267.074 275.673 267.638C276 268.28 276 269.12 276 270.8V274C276 274.932 276 275.398 275.848 275.765C275.645 276.255 275.255 276.645 274.765 276.848C274.398 277 273.932 277 273 277H272.4C272.028 277 271.843 277 271.687 276.975C270.831 276.84 270.16 276.169 270.025 275.313C270 275.157 270 274.972 270 274.6C270 274.507 270 274.461 269.994 274.422C269.96 274.208 269.792 274.04 269.578 274.006C269.539 274 269.493 274 269.4 274H262.6C262.507 274 262.461 274 262.422 274.006C262.208 274.04 262.04 274.208 262.006 274.422C262 274.461 262 274.507 262 274.6C262 274.972 262 275.157 261.975 275.313C261.84 276.169 261.169 276.84 260.313 276.975C260.157 277 259.972 277 259.6 277H259C258.068 277 257.602 277 257.235 276.848C256.745 276.645 256.355 276.255 256.152 275.765C256 275.398 256 274.932 256 274V270.8C256 269.12 256 268.28 256.327 267.638C256.615 267.074 257.074 266.615 257.638 266.327C258.28 266 259.12 266 260.8 266ZM260.5 269.5C260.5 269.776 260.276 270 260 270C259.724 270 259.5 269.776 259.5 269.5C259.5 269.224 259.724 269 260 269C260.276 269 260.5 269.224 260.5 269.5ZM272.5 269.5C272.5 269.776 272.276 270 272 270C271.724 270 271.5 269.776 271.5 269.5C271.5 269.224 271.724 269 272 269C272.276 269 272.5 269.224 272.5 269.5Z" stroke="#ECECEC" stroke-width="2" stroke-linecap="round" stroke-linejoin="round"/>
</g>
<g opacity="0.4" filter="url(#filter24_d_2001_4283)">
<rect x="238" y="296" width="56" height="56" rx="12" fill="white" shape-rendering="crispEdges"/>
<path d="M261 334V323M256 325V332C256 333.105 256.895 334 258 334H271.426C272.907 334 274.166 332.92 274.391 331.456L275.468 324.456C275.748 322.639 274.342 321 272.503 321H269C268.448 321 268 320.552 268 320V316.466C268 315.104 266.896 314 265.534 314C265.209 314 264.915 314.191 264.783 314.488L261.264 322.406C261.103 322.767 260.745 323 260.35 323H258C256.895 323 256 323.895 256 325Z" stroke="#ECECEC" stroke-width="2" stroke-linecap="round" stroke-linejoin="round"/>
</g>
<g opacity="0.4" filter="url(#filter25_d_2001_4283)">
<rect x="238" y="352" width="56" height="56" rx="12" fill="white" shape-rendering="crispEdges"/>
<path d="M270.5 372L275.5 377M275.5 372L270.5 377M270 389V387.8C270 386.12 270 385.28 269.673 384.638C269.385 384.074 268.926 383.615 268.362 383.327C267.72 383 266.88 383 265.2 383H260.8C259.12 383 258.28 383 257.638 383.327C257.074 383.615 256.615 384.074 256.327 384.638C256 385.28 256 386.12 256 387.8V389M266.5 375.5C266.5 377.433 264.933 379 263 379C261.067 379 259.5 377.433 259.5 375.5C259.5 373.567 261.067 372 263 372C264.933 372 266.5 373.567 266.5 375.5Z" stroke="#ECECEC" stroke-width="2" stroke-linecap="round" stroke-linejoin="round"/>
</g>
<g opacity="0.4" filter="url(#filter26_d_2001_4283)">
<rect x="294" y="16" width="56" height="56" rx="12" fill="white" shape-rendering="crispEdges"/>
<path d="M322 34C324.501 36.7384 325.923 40.292 326 44C325.923 47.708 324.501 51.2616 322 54M322 34C319.499 36.7384 318.077 40.292 318 44C318.077 47.708 319.499 51.2616 322 54M322 34C316.477 34 312 38.4772 312 44C312 49.5228 316.477 54 322 54M322 34C327.523 34 332 38.4772 332 44C332 49.5228 327.523 54 322 54M312.5 41H331.5M312.5 47H331.5" stroke="#ECECEC" stroke-width="2" stroke-linecap="round" stroke-linejoin="round"/>
</g>
<g opacity="0.4" filter="url(#filter27_d_2001_4283)">
<rect x="294" y="72" width="56" height="56" rx="12" fill="white" shape-rendering="crispEdges"/>
<path d="M321.5 93H321.934C324.982 93 326.505 93 327.084 93.5473C327.584 94.0204 327.805 94.7173 327.67 95.3922C327.514 96.173 326.27 97.0529 323.782 98.8125L319.718 101.687C317.23 103.447 315.986 104.327 315.83 105.108C315.695 105.783 315.916 106.48 316.416 106.953C316.995 107.5 318.518 107.5 321.566 107.5H322.5M318 93C318 94.6569 316.657 96 315 96C313.343 96 312 94.6569 312 93C312 91.3431 313.343 90 315 90C316.657 90 318 91.3431 318 93ZM332 107C332 108.657 330.657 110 329 110C327.343 110 326 108.657 326 107C326 105.343 327.343 104 329 104C330.657 104 332 105.343 332 107Z" stroke="#ECECEC" stroke-width="2" stroke-linecap="round" stroke-linejoin="round"/>
</g>
<g opacity="0.4" filter="url(#filter28_d_2001_4283)">
<rect x="294" y="128" width="56" height="56" rx="12" fill="white" shape-rendering="crispEdges"/>
<path d="M325 146.458C324.053 146.16 323.045 146 322 146C316.477 146 312 150.477 312 156C312 161.523 316.477 166 322 166C327.523 166 332 161.523 332 156C332 154.285 331.568 152.67 330.807 151.259M327 149.75H327.005M320.5 165.888L320.5 163.685C320.5 163.566 320.543 163.45 320.621 163.36L323.106 160.459C323.311 160.221 323.247 159.856 322.975 159.7L320.119 158.068C320.041 158.023 319.977 157.959 319.932 157.881L318.07 154.619C317.974 154.449 317.787 154.351 317.592 154.368L312.064 154.861M331 150C331 152.209 329 154 327 156C325 154 323 152.209 323 150C323 147.791 324.791 146 327 146C329.209 146 331 147.791 331 150ZM327.25 149.75C327.25 149.888 327.138 150 327 150C326.862 150 326.75 149.888 326.75 149.75C326.75 149.612 326.862 149.5 327 149.5C327.138 149.5 327.25 149.612 327.25 149.75Z" stroke="#ECECEC" stroke-width="2" stroke-linecap="round" stroke-linejoin="round"/>
</g>
<g opacity="0.4" filter="url(#filter29_d_2001_4283)">
<rect x="294" y="184" width="56" height="56" rx="12" fill="white" shape-rendering="crispEdges"/>
<path d="M319.5 222H324.5M318 202H326M322 205V202M314 212H330M327 219L328.5 222M317 219L315.5 222M318.5 215.5H318.51M325.5 215.5H325.51M318.8 219H325.2C326.88 219 327.72 219 328.362 218.673C328.926 218.385 329.385 217.926 329.673 217.362C330 216.72 330 215.88 330 214.2V209.8C330 208.12 330 207.28 329.673 206.638C329.385 206.074 328.926 205.615 328.362 205.327C327.72 205 326.88 205 325.2 205H318.8C317.12 205 316.28 205 315.638 205.327C315.074 205.615 314.615 206.074 314.327 206.638C314 207.28 314 208.12 314 209.8V214.2C314 215.88 314 216.72 314.327 217.362C314.615 217.926 315.074 218.385 315.638 218.673C316.28 219 317.12 219 318.8 219ZM319 215.5C319 215.776 318.776 216 318.5 216C318.224 216 318 215.776 318 215.5C318 215.224 318.224 215 318.5 215C318.776 215 319 215.224 319 215.5ZM326 215.5C326 215.776 325.776 216 325.5 216C325.224 216 325 215.776 325 215.5C325 215.224 325.224 215 325.5 215C325.776 215 326 215.224 326 215.5Z" stroke="#ECECEC" stroke-width="2" stroke-linecap="round" stroke-linejoin="round"/>
</g>
<g opacity="0.4" filter="url(#filter30_d_2001_4283)">
<rect x="294" y="240" width="56" height="56" rx="12" fill="white" shape-rendering="crispEdges"/>
<path d="M315 266V272.011C315 272.37 315 272.55 315.055 272.708C315.103 272.848 315.182 272.976 315.286 273.082C315.403 273.201 315.563 273.282 315.884 273.442L321.284 276.142C321.547 276.273 321.678 276.339 321.816 276.365C321.937 276.388 322.063 276.388 322.184 276.365C322.322 276.339 322.453 276.273 322.716 276.142L328.116 273.442C328.437 273.282 328.597 273.201 328.714 273.082C328.818 272.976 328.897 272.848 328.945 272.708C329 272.55 329 272.37 329 272.011V266M312 264.5L321.642 259.679C321.773 259.613 321.839 259.581 321.908 259.568C321.969 259.556 322.031 259.556 322.092 259.568C322.161 259.581 322.227 259.613 322.358 259.679L332 264.5L322.358 269.321C322.227 269.387 322.161 269.42 322.092 269.432C322.031 269.444 321.969 269.444 321.908 269.432C321.839 269.42 321.773 269.387 321.642 269.321L312 264.5Z" stroke="#ECECEC" stroke-width="2" stroke-linecap="round" stroke-linejoin="round"/>
</g>
<g opacity="0.4" filter="url(#filter31_d_2001_4283)">
<rect x="294" y="296" width="56" height="56" rx="12" fill="white" shape-rendering="crispEdges"/>
<path d="M329 333L332 330M332 330L329 327M332 330H326M322 327.5H317.5C316.104 327.5 315.407 327.5 314.839 327.672C313.56 328.06 312.56 329.06 312.172 330.339C312 330.907 312 331.604 312 333M324.5 319.5C324.5 321.985 322.485 324 320 324C317.515 324 315.5 321.985 315.5 319.5C315.5 317.015 317.515 315 320 315C322.485 315 324.5 317.015 324.5 319.5Z" stroke="#ECECEC" stroke-width="2" stroke-linecap="round" stroke-linejoin="round"/>
</g>
<g opacity="0.4" filter="url(#filter32_d_2001_4283)">
<rect x="294" y="352" width="56" height="56" rx="12" fill="white" shape-rendering="crispEdges"/>
<path d="M332 389V387C332 385.136 330.725 383.57 329 383.126M325.5 371.291C326.966 371.884 328 373.321 328 375C328 376.679 326.966 378.116 325.5 378.709M327 389C327 387.136 327 386.204 326.696 385.469C326.29 384.489 325.511 383.71 324.531 383.304C323.796 383 322.864 383 321 383H318C316.136 383 315.204 383 314.469 383.304C313.489 383.71 312.71 384.489 312.304 385.469C312 386.204 312 387.136 312 389M323.5 375C323.5 377.209 321.709 379 319.5 379C317.291 379 315.5 377.209 315.5 375C315.5 372.791 317.291 371 319.5 371C321.709 371 323.5 372.791 323.5 375Z" stroke="#ECECEC" stroke-width="2" stroke-linecap="round" stroke-linejoin="round"/>
</g>
<g filter="url(#filter33_d_2001_4283)">
<rect x="126" y="72" width="56" height="56" rx="12" fill="white" shape-rendering="crispEdges"/>
<path d="M159.745 90.8128C160.709 89.8163 162.304 89.8034 163.284 90.7842C164.238 91.7381 164.256 93.279 163.324 94.2546L160.546 97.1644C160.328 97.3925 160.219 97.5065 160.152 97.6401C160.092 97.7583 160.057 97.8871 160.048 98.0191C160.037 98.1682 160.073 98.3219 160.144 98.6292L161.872 106.117C161.944 106.432 161.981 106.59 161.969 106.742C161.959 106.877 161.921 107.009 161.858 107.129C161.787 107.265 161.673 107.379 161.444 107.608L161.073 107.979C160.467 108.585 160.164 108.888 159.854 108.943C159.583 108.991 159.304 108.925 159.083 108.761C158.831 108.573 158.695 108.166 158.424 107.353L156.414 101.324L153.069 104.669C152.869 104.869 152.769 104.969 152.703 105.086C152.643 105.191 152.603 105.304 152.584 105.423C152.563 105.556 152.579 105.697 152.61 105.977L152.794 107.631C152.825 107.911 152.84 108.052 152.819 108.185C152.8 108.304 152.76 108.418 152.701 108.522C152.634 108.639 152.535 108.739 152.335 108.939L152.137 109.136C151.664 109.609 151.428 109.846 151.165 109.914C150.934 109.974 150.69 109.95 150.476 109.846C150.231 109.727 150.046 109.449 149.675 108.892L148.106 106.54C148.04 106.441 148.007 106.391 147.968 106.346C147.934 106.306 147.897 106.268 147.857 106.234C147.812 106.196 147.762 106.162 147.663 106.096L145.31 104.528C144.753 104.157 144.475 103.971 144.356 103.727C144.252 103.513 144.228 103.268 144.288 103.038C144.357 102.775 144.593 102.538 145.066 102.065L145.264 101.868C145.463 101.668 145.563 101.568 145.681 101.501C145.785 101.442 145.899 101.402 146.017 101.383C146.151 101.362 146.291 101.378 146.572 101.409L148.225 101.593C148.506 101.624 148.646 101.639 148.78 101.618C148.898 101.599 149.012 101.559 149.116 101.5C149.234 101.433 149.334 101.333 149.533 101.134L152.879 97.7884L146.849 95.7787C146.036 95.5076 145.629 95.372 145.442 95.1191C145.278 94.8983 145.212 94.6197 145.26 94.3488C145.315 94.0386 145.618 93.7355 146.224 93.1294L146.595 92.7586C146.824 92.5297 146.938 92.4153 147.074 92.3444C147.194 92.2816 147.325 92.2439 147.46 92.2335C147.613 92.2218 147.77 92.2582 148.086 92.331L155.545 94.0523C155.855 94.1238 156.01 94.1596 156.16 94.149C156.304 94.1387 156.445 94.0972 156.571 94.0272C156.703 93.9548 156.813 93.8406 157.035 93.612L159.745 90.8128Z" stroke="#E84C88" stroke-width="2" stroke-linecap="round" stroke-linejoin="round"/>
</g>
<g filter="url(#filter34_d_2001_4283)">
<rect x="70" y="352" width="56" height="56" rx="12" fill="white" shape-rendering="crispEdges"/>
<path d="M95.3534 389C96.0586 389.622 96.9848 390 97.9993 390C99.0137 390 99.94 389.622 100.645 389M88.2932 373.82C88.2788 372.369 89.0613 371.013 90.3254 370.3M107.701 373.82C107.716 372.369 106.933 371.013 105.669 370.3M103.999 376C103.999 374.409 103.367 372.883 102.242 371.757C101.117 370.632 99.5906 370 97.9993 370C96.408 370 94.8819 370.632 93.7566 371.757C92.6314 372.883 91.9993 374.409 91.9993 376C91.9993 379.09 91.2197 381.206 90.3489 382.605C89.6144 383.786 89.2471 384.376 89.2606 384.541C89.2755 384.723 89.3141 384.793 89.461 384.902C89.5937 385 90.1919 385 91.3881 385H104.61C105.807 385 106.405 385 106.537 384.902C106.684 384.793 106.723 384.723 106.738 384.541C106.751 384.376 106.384 383.786 105.65 382.605C104.779 381.206 103.999 379.09 103.999 376Z" stroke="#E84C88" stroke-width="2" stroke-linecap="round" stroke-linejoin="round"/>
</g>
<g filter="url(#filter35_d_2001_4283)">
<rect x="182" y="296" width="56" height="56" rx="12" fill="white" shape-rendering="crispEdges"/>
<path d="M207 318V322.501C207 323.052 207 323.328 206.931 323.583C206.87 323.809 206.77 324.023 206.636 324.214C206.483 324.43 206.272 324.607 205.849 324.96L202.151 328.04C201.728 328.393 201.517 328.57 201.364 328.786C201.23 328.977 201.13 329.191 201.069 329.417C201 329.672 201 329.948 201 330.499V330.8C201 331.92 201 332.48 201.218 332.908C201.41 333.284 201.716 333.59 202.092 333.782C202.52 334 203.08 334 204.2 334H215.8C216.92 334 217.48 334 217.908 333.782C218.284 333.59 218.59 333.284 218.782 332.908C219 332.48 219 331.92 219 330.8V330.499C219 329.948 219 329.672 218.931 329.417C218.87 329.191 218.77 328.977 218.636 328.786C218.483 328.57 218.272 328.393 217.849 328.04L214.151 324.96C213.728 324.607 213.517 324.43 213.364 324.214C213.23 324.023 213.13 323.809 213.069 323.583C213 323.328 213 323.052 213 322.501V318M206.3 318H213.7C213.98 318 214.12 318 214.227 317.946C214.321 317.898 214.398 317.821 214.446 317.727C214.5 317.62 214.5 317.48 214.5 317.2V314.8C214.5 314.52 214.5 314.38 214.446 314.273C214.398 314.179 214.321 314.102 214.227 314.054C214.12 314 213.98 314 213.7 314H206.3C206.02 314 205.88 314 205.773 314.054C205.679 314.102 205.602 314.179 205.554 314.273C205.5 314.38 205.5 314.52 205.5 314.8V317.2C205.5 317.48 205.5 317.62 205.554 317.727C205.602 317.821 205.679 317.898 205.773 317.946C205.88 318 206.02 318 206.3 318ZM203.5 329H216.5C216.965 329 217.197 329 217.39 329.038C218.184 329.196 218.804 329.816 218.962 330.61C219 330.803 219 331.035 219 331.5C219 331.965 219 332.197 218.962 332.39C218.804 333.184 218.184 333.804 217.39 333.962C217.197 334 216.965 334 216.5 334H203.5C203.035 334 202.803 334 202.61 333.962C201.816 333.804 201.196 333.184 201.038 332.39C201 332.197 201 331.965 201 331.5C201 331.035 201 330.803 201.038 330.61C201.196 329.816 201.816 329.196 202.61 329.038C202.803 329 203.035 329 203.5 329Z" stroke="#E84C88" stroke-width="2" stroke-linecap="round" stroke-linejoin="round"/>
</g>
<g filter="url(#filter36_d_2001_4283)">
<rect x="126" y="240" width="56" height="56" rx="12" fill="white" shape-rendering="crispEdges"/>
<path d="M150 278V276M151.5 271V263M158 278V276M156.5 271V263M150.8 276H157.2C158.88 276 159.72 276 160.362 275.673C160.926 275.385 161.385 274.926 161.673 274.362C162 273.72 162 272.88 162 271.2V262.8C162 261.12 162 260.28 161.673 259.638C161.385 259.074 160.926 258.615 160.362 258.327C159.72 258 158.88 258 157.2 258H150.8C149.12 258 148.28 258 147.638 258.327C147.074 258.615 146.615 259.074 146.327 259.638C146 260.28 146 261.12 146 262.8V271.2C146 272.88 146 273.72 146.327 274.362C146.615 274.926 147.074 275.385 147.638 275.673C148.28 276 149.12 276 150.8 276Z" stroke="#E84C88" stroke-width="2" stroke-linecap="round" stroke-linejoin="round"/>
</g>
<g filter="url(#filter37_d_2001_4283)">
<rect x="182" y="184" width="56" height="56" rx="12" fill="white" shape-rendering="crispEdges"/>
<path d="M200.687 215.645L202.595 214.544C202.698 214.484 202.82 214.463 202.937 214.485L206.691 215.188C207 215.246 207.285 215.008 207.283 214.694L207.269 211.404C207.268 211.315 207.292 211.227 207.337 211.15L209.232 207.906C209.33 207.737 209.322 207.527 209.209 207.367L206.019 202.826M217 204.859C211.5 207.5 214.5 211 215.5 211.5C217.377 212.438 219.988 212.5 219.988 212.5C219.996 212.334 220 212.168 220 212C220 206.477 215.523 202 210 202C204.477 202 200 206.477 200 212C200 217.523 204.477 222 210 222C210.168 222 210.334 221.996 210.5 221.988M214.758 221.94L211.591 213.591L219.94 216.758L216.238 218.238L214.758 221.94Z" stroke="#E84C88" stroke-width="2" stroke-linecap="round" stroke-linejoin="round"/>
</g>
<g filter="url(#filter38_d_2001_4283)">
<rect x="126" y="184" width="56" height="56" rx="12" fill="white" shape-rendering="crispEdges"/>
<path d="M154 222C159.523 222 164 217.523 164 212C164 206.477 159.523 202 154 202C148.477 202 144 206.477 144 212C144 217.523 148.477 222 154 222Z" stroke="#E84C88" stroke-width="2" stroke-linecap="round" stroke-linejoin="round"/>
<path d="M156.722 208.266C157.211 208.103 157.455 208.022 157.617 208.08C157.759 208.13 157.87 208.241 157.92 208.383C157.978 208.545 157.897 208.789 157.734 209.278L156.246 213.741C156.2 213.88 156.177 213.949 156.137 214.007C156.102 214.058 156.058 214.102 156.007 214.137C155.949 214.177 155.88 214.2 155.741 214.246L151.278 215.734C150.789 215.897 150.545 215.978 150.383 215.92C150.241 215.87 150.13 215.759 150.08 215.617C150.022 215.455 150.103 215.211 150.266 214.722L151.754 210.259C151.8 210.12 151.823 210.051 151.863 209.993C151.898 209.942 151.942 209.898 151.993 209.863C152.051 209.823 152.12 209.8 152.259 209.754L156.722 208.266Z" stroke="#E84C88" stroke-width="2" stroke-linecap="round" stroke-linejoin="round"/>
</g>
<g filter="url(#filter39_d_2001_4283)">
<rect x="182" y="128" width="56" height="56" rx="12" fill="white" shape-rendering="crispEdges"/>
<path d="M202 159C202 159 203 158 206 158C209 158 211 160 214 160C217 160 218 159 218 159V148C218 148 217 149 214 149C211 149 209 147 206 147C203 147 202 148 202 148M202 166L202 146" stroke="#E84C88" stroke-width="2" stroke-linecap="round" stroke-linejoin="round"/>
</g>
<g filter="url(#filter40_d_2001_4283)">
<rect x="182" y="240" width="56" height="56" rx="12" fill="white" shape-rendering="crispEdges"/>
<path d="M208 264V263M208 268.5V267.5M208 273V272M203.2 260H216.8C217.92 260 218.48 260 218.908 260.218C219.284 260.41 219.59 260.716 219.782 261.092C220 261.52 220 262.08 220 263.2V264.5C218.067 264.5 216.5 266.067 216.5 268C216.5 269.933 218.067 271.5 220 271.5V272.8C220 273.92 220 274.48 219.782 274.908C219.59 275.284 219.284 275.59 218.908 275.782C218.48 276 217.92 276 216.8 276H203.2C202.08 276 201.52 276 201.092 275.782C200.716 275.59 200.41 275.284 200.218 274.908C200 274.48 200 273.92 200 272.8V271.5C201.933 271.5 203.5 269.933 203.5 268C203.5 266.067 201.933 264.5 200 264.5V263.2C200 262.08 200 261.52 200.218 261.092C200.41 260.716 200.716 260.41 201.092 260.218C201.52 260 202.08 260 203.2 260Z" stroke="#E84C88" stroke-width="2" stroke-linecap="round" stroke-linejoin="round"/>
</g>
<g filter="url(#filter41_d_2001_4283)">
<rect x="70" y="240" width="56" height="56" rx="12" fill="white" shape-rendering="crispEdges"/>
<path d="M89.4135 266.744C88.8181 266.513 88.5204 266.397 88.4335 266.23C88.3582 266.086 88.3581 265.914 88.4333 265.769C88.52 265.602 88.8175 265.486 89.4126 265.254L106.3 258.663C106.838 258.454 107.106 258.349 107.278 258.406C107.427 258.456 107.544 258.573 107.594 258.722C107.651 258.894 107.546 259.162 107.336 259.699L100.746 276.587C100.514 277.182 100.398 277.48 100.231 277.566C100.086 277.642 99.9139 277.642 99.7693 277.566C99.6025 277.479 99.4867 277.182 99.2552 276.586L96.6271 269.828C96.5801 269.707 96.5566 269.647 96.5203 269.596C96.4881 269.551 96.4487 269.512 96.4036 269.479C96.3527 269.443 96.2923 269.42 96.1715 269.373L89.4135 266.744Z" stroke="#E84C88" stroke-width="2" stroke-linecap="round" stroke-linejoin="round"/>
</g>
<rect y="2" width="364" height="420" fill="url(#paint0_radial_2001_4283)"/>
<defs>
<filter id="filter0_d_2001_4283" x="-2" y="0" width="88" height="88" filterUnits="userSpaceOnUse" color-interpolation-filters="sRGB">
<feFlood flood-opacity="0" result="BackgroundImageFix"/>
<feColorMatrix in="SourceAlpha" type="matrix" values="0 0 0 0 0 0 0 0 0 0 0 0 0 0 0 0 0 0 127 0" result="hardAlpha"/>
<feOffset/>
<feGaussianBlur stdDeviation="8"/>
<feComposite in2="hardAlpha" operator="out"/>
<feColorMatrix type="matrix" values="0 0 0 0 0 0 0 0 0 0 0 0 0 0 0 0 0 0 0.1 0"/>
<feBlend mode="normal" in2="BackgroundImageFix" result="effect1_dropShadow_2001_4283"/>
<feBlend mode="normal" in="SourceGraphic" in2="effect1_dropShadow_2001_4283" result="shape"/>
</filter>
<filter id="filter1_d_2001_4283" x="-2" y="56" width="88" height="88" filterUnits="userSpaceOnUse" color-interpolation-filters="sRGB">
<feFlood flood-opacity="0" result="BackgroundImageFix"/>
<feColorMatrix in="SourceAlpha" type="matrix" values="0 0 0 0 0 0 0 0 0 0 0 0 0 0 0 0 0 0 127 0" result="hardAlpha"/>
<feOffset/>
<feGaussianBlur stdDeviation="8"/>
<feComposite in2="hardAlpha" operator="out"/>
<feColorMatrix type="matrix" values="0 0 0 0 0 0 0 0 0 0 0 0 0 0 0 0 0 0 0.1 0"/>
<feBlend mode="normal" in2="BackgroundImageFix" result="effect1_dropShadow_2001_4283"/>
<feBlend mode="normal" in="SourceGraphic" in2="effect1_dropShadow_2001_4283" result="shape"/>
</filter>
<filter id="filter2_d_2001_4283" x="-2" y="112" width="88" height="88" filterUnits="userSpaceOnUse" color-interpolation-filters="sRGB">
<feFlood flood-opacity="0" result="BackgroundImageFix"/>
<feColorMatrix in="SourceAlpha" type="matrix" values="0 0 0 0 0 0 0 0 0 0 0 0 0 0 0 0 0 0 127 0" result="hardAlpha"/>
<feOffset/>
<feGaussianBlur stdDeviation="8"/>
<feComposite in2="hardAlpha" operator="out"/>
<feColorMatrix type="matrix" values="0 0 0 0 0 0 0 0 0 0 0 0 0 0 0 0 0 0 0.1 0"/>
<feBlend mode="normal" in2="BackgroundImageFix" result="effect1_dropShadow_2001_4283"/>
<feBlend mode="normal" in="SourceGraphic" in2="effect1_dropShadow_2001_4283" result="shape"/>
</filter>
<filter id="filter3_d_2001_4283" x="-2" y="168" width="88" height="88" filterUnits="userSpaceOnUse" color-interpolation-filters="sRGB">
<feFlood flood-opacity="0" result="BackgroundImageFix"/>
<feColorMatrix in="SourceAlpha" type="matrix" values="0 0 0 0 0 0 0 0 0 0 0 0 0 0 0 0 0 0 127 0" result="hardAlpha"/>
<feOffset/>
<feGaussianBlur stdDeviation="8"/>
<feComposite in2="hardAlpha" operator="out"/>
<feColorMatrix type="matrix" values="0 0 0 0 0 0 0 0 0 0 0 0 0 0 0 0 0 0 0.1 0"/>
<feBlend mode="normal" in2="BackgroundImageFix" result="effect1_dropShadow_2001_4283"/>
<feBlend mode="normal" in="SourceGraphic" in2="effect1_dropShadow_2001_4283" result="shape"/>
</filter>
<filter id="filter4_d_2001_4283" x="-2" y="224" width="88" height="88" filterUnits="userSpaceOnUse" color-interpolation-filters="sRGB">
<feFlood flood-opacity="0" result="BackgroundImageFix"/>
<feColorMatrix in="SourceAlpha" type="matrix" values="0 0 0 0 0 0 0 0 0 0 0 0 0 0 0 0 0 0 127 0" result="hardAlpha"/>
<feOffset/>
<feGaussianBlur stdDeviation="8"/>
<feComposite in2="hardAlpha" operator="out"/>
<feColorMatrix type="matrix" values="0 0 0 0 0 0 0 0 0 0 0 0 0 0 0 0 0 0 0.1 0"/>
<feBlend mode="normal" in2="BackgroundImageFix" result="effect1_dropShadow_2001_4283"/>
<feBlend mode="normal" in="SourceGraphic" in2="effect1_dropShadow_2001_4283" result="shape"/>
</filter>
<filter id="filter5_d_2001_4283" x="-2" y="280" width="88" height="88" filterUnits="userSpaceOnUse" color-interpolation-filters="sRGB">
<feFlood flood-opacity="0" result="BackgroundImageFix"/>
<feColorMatrix in="SourceAlpha" type="matrix" values="0 0 0 0 0 0 0 0 0 0 0 0 0 0 0 0 0 0 127 0" result="hardAlpha"/>
<feOffset/>
<feGaussianBlur stdDeviation="8"/>
<feComposite in2="hardAlpha" operator="out"/>
<feColorMatrix type="matrix" values="0 0 0 0 0 0 0 0 0 0 0 0 0 0 0 0 0 0 0.1 0"/>
<feBlend mode="normal" in2="BackgroundImageFix" result="effect1_dropShadow_2001_4283"/>
<feBlend mode="normal" in="SourceGraphic" in2="effect1_dropShadow_2001_4283" result="shape"/>
</filter>
<filter id="filter6_d_2001_4283" x="-2" y="336" width="88" height="88" filterUnits="userSpaceOnUse" color-interpolation-filters="sRGB">
<feFlood flood-opacity="0" result="BackgroundImageFix"/>
<feColorMatrix in="SourceAlpha" type="matrix" values="0 0 0 0 0 0 0 0 0 0 0 0 0 0 0 0 0 0 127 0" result="hardAlpha"/>
<feOffset/>
<feGaussianBlur stdDeviation="8"/>
<feComposite in2="hardAlpha" operator="out"/>
<feColorMatrix type="matrix" values="0 0 0 0 0 0 0 0 0 0 0 0 0 0 0 0 0 0 0.1 0"/>
<feBlend mode="normal" in2="BackgroundImageFix" result="effect1_dropShadow_2001_4283"/>
<feBlend mode="normal" in="SourceGraphic" in2="effect1_dropShadow_2001_4283" result="shape"/>
</filter>
<filter id="filter7_d_2001_4283" x="54" y="0" width="88" height="88" filterUnits="userSpaceOnUse" color-interpolation-filters="sRGB">
<feFlood flood-opacity="0" result="BackgroundImageFix"/>
<feColorMatrix in="SourceAlpha" type="matrix" values="0 0 0 0 0 0 0 0 0 0 0 0 0 0 0 0 0 0 127 0" result="hardAlpha"/>
<feOffset/>
<feGaussianBlur stdDeviation="8"/>
<feComposite in2="hardAlpha" operator="out"/>
<feColorMatrix type="matrix" values="0 0 0 0 0 0 0 0 0 0 0 0 0 0 0 0 0 0 0.1 0"/>
<feBlend mode="normal" in2="BackgroundImageFix" result="effect1_dropShadow_2001_4283"/>
<feBlend mode="normal" in="SourceGraphic" in2="effect1_dropShadow_2001_4283" result="shape"/>
</filter>
<filter id="filter8_d_2001_4283" x="54" y="56" width="88" height="88" filterUnits="userSpaceOnUse" color-interpolation-filters="sRGB">
<feFlood flood-opacity="0" result="BackgroundImageFix"/>
<feColorMatrix in="SourceAlpha" type="matrix" values="0 0 0 0 0 0 0 0 0 0 0 0 0 0 0 0 0 0 127 0" result="hardAlpha"/>
<feOffset/>
<feGaussianBlur stdDeviation="8"/>
<feComposite in2="hardAlpha" operator="out"/>
<feColorMatrix type="matrix" values="0 0 0 0 0 0 0 0 0 0 0 0 0 0 0 0 0 0 0.1 0"/>
<feBlend mode="normal" in2="BackgroundImageFix" result="effect1_dropShadow_2001_4283"/>
<feBlend mode="normal" in="SourceGraphic" in2="effect1_dropShadow_2001_4283" result="shape"/>
</filter>
<filter id="filter9_d_2001_4283" x="54" y="112" width="88" height="88" filterUnits="userSpaceOnUse" color-interpolation-filters="sRGB">
<feFlood flood-opacity="0" result="BackgroundImageFix"/>
<feColorMatrix in="SourceAlpha" type="matrix" values="0 0 0 0 0 0 0 0 0 0 0 0 0 0 0 0 0 0 127 0" result="hardAlpha"/>
<feOffset/>
<feGaussianBlur stdDeviation="8"/>
<feComposite in2="hardAlpha" operator="out"/>
<feColorMatrix type="matrix" values="0 0 0 0 0 0 0 0 0 0 0 0 0 0 0 0 0 0 0.1 0"/>
<feBlend mode="normal" in2="BackgroundImageFix" result="effect1_dropShadow_2001_4283"/>
<feBlend mode="normal" in="SourceGraphic" in2="effect1_dropShadow_2001_4283" result="shape"/>
</filter>
<filter id="filter10_d_2001_4283" x="54" y="168" width="88" height="88" filterUnits="userSpaceOnUse" color-interpolation-filters="sRGB">
<feFlood flood-opacity="0" result="BackgroundImageFix"/>
<feColorMatrix in="SourceAlpha" type="matrix" values="0 0 0 0 0 0 0 0 0 0 0 0 0 0 0 0 0 0 127 0" result="hardAlpha"/>
<feOffset/>
<feGaussianBlur stdDeviation="8"/>
<feComposite in2="hardAlpha" operator="out"/>
<feColorMatrix type="matrix" values="0 0 0 0 0 0 0 0 0 0 0 0 0 0 0 0 0 0 0.1 0"/>
<feBlend mode="normal" in2="BackgroundImageFix" result="effect1_dropShadow_2001_4283"/>
<feBlend mode="normal" in="SourceGraphic" in2="effect1_dropShadow_2001_4283" result="shape"/>
</filter>
<filter id="filter11_d_2001_4283" x="54" y="280" width="88" height="88" filterUnits="userSpaceOnUse" color-interpolation-filters="sRGB">
<feFlood flood-opacity="0" result="BackgroundImageFix"/>
<feColorMatrix in="SourceAlpha" type="matrix" values="0 0 0 0 0 0 0 0 0 0 0 0 0 0 0 0 0 0 127 0" result="hardAlpha"/>
<feOffset/>
<feGaussianBlur stdDeviation="8"/>
<feComposite in2="hardAlpha" operator="out"/>
<feColorMatrix type="matrix" values="0 0 0 0 0 0 0 0 0 0 0 0 0 0 0 0 0 0 0.1 0"/>
<feBlend mode="normal" in2="BackgroundImageFix" result="effect1_dropShadow_2001_4283"/>
<feBlend mode="normal" in="SourceGraphic" in2="effect1_dropShadow_2001_4283" result="shape"/>
</filter>
<filter id="filter12_d_2001_4283" x="110" y="0" width="88" height="88" filterUnits="userSpaceOnUse" color-interpolation-filters="sRGB">
<feFlood flood-opacity="0" result="BackgroundImageFix"/>
<feColorMatrix in="SourceAlpha" type="matrix" values="0 0 0 0 0 0 0 0 0 0 0 0 0 0 0 0 0 0 127 0" result="hardAlpha"/>
<feOffset/>
<feGaussianBlur stdDeviation="8"/>
<feComposite in2="hardAlpha" operator="out"/>
<feColorMatrix type="matrix" values="0 0 0 0 0 0 0 0 0 0 0 0 0 0 0 0 0 0 0.1 0"/>
<feBlend mode="normal" in2="BackgroundImageFix" result="effect1_dropShadow_2001_4283"/>
<feBlend mode="normal" in="SourceGraphic" in2="effect1_dropShadow_2001_4283" result="shape"/>
</filter>
<filter id="filter13_d_2001_4283" x="110" y="112" width="88" height="88" filterUnits="userSpaceOnUse" color-interpolation-filters="sRGB">
<feFlood flood-opacity="0" result="BackgroundImageFix"/>
<feColorMatrix in="SourceAlpha" type="matrix" values="0 0 0 0 0 0 0 0 0 0 0 0 0 0 0 0 0 0 127 0" result="hardAlpha"/>
<feOffset/>
<feGaussianBlur stdDeviation="8"/>
<feComposite in2="hardAlpha" operator="out"/>
<feColorMatrix type="matrix" values="0 0 0 0 0 0 0 0 0 0 0 0 0 0 0 0 0 0 0.1 0"/>
<feBlend mode="normal" in2="BackgroundImageFix" result="effect1_dropShadow_2001_4283"/>
<feBlend mode="normal" in="SourceGraphic" in2="effect1_dropShadow_2001_4283" result="shape"/>
</filter>
<filter id="filter14_d_2001_4283" x="110" y="280" width="88" height="88" filterUnits="userSpaceOnUse" color-interpolation-filters="sRGB">
<feFlood flood-opacity="0" result="BackgroundImageFix"/>
<feColorMatrix in="SourceAlpha" type="matrix" values="0 0 0 0 0 0 0 0 0 0 0 0 0 0 0 0 0 0 127 0" result="hardAlpha"/>
<feOffset/>
<feGaussianBlur stdDeviation="8"/>
<feComposite in2="hardAlpha" operator="out"/>
<feColorMatrix type="matrix" values="0 0 0 0 0 0 0 0 0 0 0 0 0 0 0 0 0 0 0.1 0"/>
<feBlend mode="normal" in2="BackgroundImageFix" result="effect1_dropShadow_2001_4283"/>
<feBlend mode="normal" in="SourceGraphic" in2="effect1_dropShadow_2001_4283" result="shape"/>
</filter>
<filter id="filter15_d_2001_4283" x="110" y="336" width="88" height="88" filterUnits="userSpaceOnUse" color-interpolation-filters="sRGB">
<feFlood flood-opacity="0" result="BackgroundImageFix"/>
<feColorMatrix in="SourceAlpha" type="matrix" values="0 0 0 0 0 0 0 0 0 0 0 0 0 0 0 0 0 0 127 0" result="hardAlpha"/>
<feOffset/>
<feGaussianBlur stdDeviation="8"/>
<feComposite in2="hardAlpha" operator="out"/>
<feColorMatrix type="matrix" values="0 0 0 0 0 0 0 0 0 0 0 0 0 0 0 0 0 0 0.1 0"/>
<feBlend mode="normal" in2="BackgroundImageFix" result="effect1_dropShadow_2001_4283"/>
<feBlend mode="normal" in="SourceGraphic" in2="effect1_dropShadow_2001_4283" result="shape"/>
</filter>
<filter id="filter16_d_2001_4283" x="166" y="0" width="88" height="88" filterUnits="userSpaceOnUse" color-interpolation-filters="sRGB">
<feFlood flood-opacity="0" result="BackgroundImageFix"/>
<feColorMatrix in="SourceAlpha" type="matrix" values="0 0 0 0 0 0 0 0 0 0 0 0 0 0 0 0 0 0 127 0" result="hardAlpha"/>
<feOffset/>
<feGaussianBlur stdDeviation="8"/>
<feComposite in2="hardAlpha" operator="out"/>
<feColorMatrix type="matrix" values="0 0 0 0 0 0 0 0 0 0 0 0 0 0 0 0 0 0 0.1 0"/>
<feBlend mode="normal" in2="BackgroundImageFix" result="effect1_dropShadow_2001_4283"/>
<feBlend mode="normal" in="SourceGraphic" in2="effect1_dropShadow_2001_4283" result="shape"/>
</filter>
<filter id="filter17_d_2001_4283" x="166" y="56" width="88" height="88" filterUnits="userSpaceOnUse" color-interpolation-filters="sRGB">
<feFlood flood-opacity="0" result="BackgroundImageFix"/>
<feColorMatrix in="SourceAlpha" type="matrix" values="0 0 0 0 0 0 0 0 0 0 0 0 0 0 0 0 0 0 127 0" result="hardAlpha"/>
<feOffset/>
<feGaussianBlur stdDeviation="8"/>
<feComposite in2="hardAlpha" operator="out"/>
<feColorMatrix type="matrix" values="0 0 0 0 0 0 0 0 0 0 0 0 0 0 0 0 0 0 0.1 0"/>
<feBlend mode="normal" in2="BackgroundImageFix" result="effect1_dropShadow_2001_4283"/>
<feBlend mode="normal" in="SourceGraphic" in2="effect1_dropShadow_2001_4283" result="shape"/>
</filter>
<filter id="filter18_d_2001_4283" x="166" y="336" width="88" height="88" filterUnits="userSpaceOnUse" color-interpolation-filters="sRGB">
<feFlood flood-opacity="0" result="BackgroundImageFix"/>
<feColorMatrix in="SourceAlpha" type="matrix" values="0 0 0 0 0 0 0 0 0 0 0 0 0 0 0 0 0 0 127 0" result="hardAlpha"/>
<feOffset/>
<feGaussianBlur stdDeviation="8"/>
<feComposite in2="hardAlpha" operator="out"/>
<feColorMatrix type="matrix" values="0 0 0 0 0 0 0 0 0 0 0 0 0 0 0 0 0 0 0.1 0"/>
<feBlend mode="normal" in2="BackgroundImageFix" result="effect1_dropShadow_2001_4283"/>
<feBlend mode="normal" in="SourceGraphic" in2="effect1_dropShadow_2001_4283" result="shape"/>
</filter>
<filter id="filter19_d_2001_4283" x="222" y="0" width="88" height="88" filterUnits="userSpaceOnUse" color-interpolation-filters="sRGB">
<feFlood flood-opacity="0" result="BackgroundImageFix"/>
<feColorMatrix in="SourceAlpha" type="matrix" values="0 0 0 0 0 0 0 0 0 0 0 0 0 0 0 0 0 0 127 0" result="hardAlpha"/>
<feOffset/>
<feGaussianBlur stdDeviation="8"/>
<feComposite in2="hardAlpha" operator="out"/>
<feColorMatrix type="matrix" values="0 0 0 0 0 0 0 0 0 0 0 0 0 0 0 0 0 0 0.1 0"/>
<feBlend mode="normal" in2="BackgroundImageFix" result="effect1_dropShadow_2001_4283"/>
<feBlend mode="normal" in="SourceGraphic" in2="effect1_dropShadow_2001_4283" result="shape"/>
</filter>
<filter id="filter20_d_2001_4283" x="222" y="56" width="88" height="88" filterUnits="userSpaceOnUse" color-interpolation-filters="sRGB">
<feFlood flood-opacity="0" result="BackgroundImageFix"/>
<feColorMatrix in="SourceAlpha" type="matrix" values="0 0 0 0 0 0 0 0 0 0 0 0 0 0 0 0 0 0 127 0" result="hardAlpha"/>
<feOffset/>
<feGaussianBlur stdDeviation="8"/>
<feComposite in2="hardAlpha" operator="out"/>
<feColorMatrix type="matrix" values="0 0 0 0 0 0 0 0 0 0 0 0 0 0 0 0 0 0 0.1 0"/>
<feBlend mode="normal" in2="BackgroundImageFix" result="effect1_dropShadow_2001_4283"/>
<feBlend mode="normal" in="SourceGraphic" in2="effect1_dropShadow_2001_4283" result="shape"/>
</filter>
<filter id="filter21_d_2001_4283" x="222" y="112" width="88" height="88" filterUnits="userSpaceOnUse" color-interpolation-filters="sRGB">
<feFlood flood-opacity="0" result="BackgroundImageFix"/>
<feColorMatrix in="SourceAlpha" type="matrix" values="0 0 0 0 0 0 0 0 0 0 0 0 0 0 0 0 0 0 127 0" result="hardAlpha"/>
<feOffset/>
<feGaussianBlur stdDeviation="8"/>
<feComposite in2="hardAlpha" operator="out"/>
<feColorMatrix type="matrix" values="0 0 0 0 0 0 0 0 0 0 0 0 0 0 0 0 0 0 0.1 0"/>
<feBlend mode="normal" in2="BackgroundImageFix" result="effect1_dropShadow_2001_4283"/>
<feBlend mode="normal" in="SourceGraphic" in2="effect1_dropShadow_2001_4283" result="shape"/>
</filter>
<filter id="filter22_d_2001_4283" x="222" y="168" width="88" height="88" filterUnits="userSpaceOnUse" color-interpolation-filters="sRGB">
<feFlood flood-opacity="0" result="BackgroundImageFix"/>
<feColorMatrix in="SourceAlpha" type="matrix" values="0 0 0 0 0 0 0 0 0 0 0 0 0 0 0 0 0 0 127 0" result="hardAlpha"/>
<feOffset/>
<feGaussianBlur stdDeviation="8"/>
<feComposite in2="hardAlpha" operator="out"/>
<feColorMatrix type="matrix" values="0 0 0 0 0 0 0 0 0 0 0 0 0 0 0 0 0 0 0.1 0"/>
<feBlend mode="normal" in2="BackgroundImageFix" result="effect1_dropShadow_2001_4283"/>
<feBlend mode="normal" in="SourceGraphic" in2="effect1_dropShadow_2001_4283" result="shape"/>
</filter>
<filter id="filter23_d_2001_4283" x="222" y="224" width="88" height="88" filterUnits="userSpaceOnUse" color-interpolation-filters="sRGB">
<feFlood flood-opacity="0" result="BackgroundImageFix"/>
<feColorMatrix in="SourceAlpha" type="matrix" values="0 0 0 0 0 0 0 0 0 0 0 0 0 0 0 0 0 0 127 0" result="hardAlpha"/>
<feOffset/>
<feGaussianBlur stdDeviation="8"/>
<feComposite in2="hardAlpha" operator="out"/>
<feColorMatrix type="matrix" values="0 0 0 0 0 0 0 0 0 0 0 0 0 0 0 0 0 0 0.1 0"/>
<feBlend mode="normal" in2="BackgroundImageFix" result="effect1_dropShadow_2001_4283"/>
<feBlend mode="normal" in="SourceGraphic" in2="effect1_dropShadow_2001_4283" result="shape"/>
</filter>
<filter id="filter24_d_2001_4283" x="222" y="280" width="88" height="88" filterUnits="userSpaceOnUse" color-interpolation-filters="sRGB">
<feFlood flood-opacity="0" result="BackgroundImageFix"/>
<feColorMatrix in="SourceAlpha" type="matrix" values="0 0 0 0 0 0 0 0 0 0 0 0 0 0 0 0 0 0 127 0" result="hardAlpha"/>
<feOffset/>
<feGaussianBlur stdDeviation="8"/>
<feComposite in2="hardAlpha" operator="out"/>
<feColorMatrix type="matrix" values="0 0 0 0 0 0 0 0 0 0 0 0 0 0 0 0 0 0 0.1 0"/>
<feBlend mode="normal" in2="BackgroundImageFix" result="effect1_dropShadow_2001_4283"/>
<feBlend mode="normal" in="SourceGraphic" in2="effect1_dropShadow_2001_4283" result="shape"/>
</filter>
<filter id="filter25_d_2001_4283" x="222" y="336" width="88" height="88" filterUnits="userSpaceOnUse" color-interpolation-filters="sRGB">
<feFlood flood-opacity="0" result="BackgroundImageFix"/>
<feColorMatrix in="SourceAlpha" type="matrix" values="0 0 0 0 0 0 0 0 0 0 0 0 0 0 0 0 0 0 127 0" result="hardAlpha"/>
<feOffset/>
<feGaussianBlur stdDeviation="8"/>
<feComposite in2="hardAlpha" operator="out"/>
<feColorMatrix type="matrix" values="0 0 0 0 0 0 0 0 0 0 0 0 0 0 0 0 0 0 0.1 0"/>
<feBlend mode="normal" in2="BackgroundImageFix" result="effect1_dropShadow_2001_4283"/>
<feBlend mode="normal" in="SourceGraphic" in2="effect1_dropShadow_2001_4283" result="shape"/>
</filter>
<filter id="filter26_d_2001_4283" x="278" y="0" width="88" height="88" filterUnits="userSpaceOnUse" color-interpolation-filters="sRGB">
<feFlood flood-opacity="0" result="BackgroundImageFix"/>
<feColorMatrix in="SourceAlpha" type="matrix" values="0 0 0 0 0 0 0 0 0 0 0 0 0 0 0 0 0 0 127 0" result="hardAlpha"/>
<feOffset/>
<feGaussianBlur stdDeviation="8"/>
<feComposite in2="hardAlpha" operator="out"/>
<feColorMatrix type="matrix" values="0 0 0 0 0 0 0 0 0 0 0 0 0 0 0 0 0 0 0.1 0"/>
<feBlend mode="normal" in2="BackgroundImageFix" result="effect1_dropShadow_2001_4283"/>
<feBlend mode="normal" in="SourceGraphic" in2="effect1_dropShadow_2001_4283" result="shape"/>
</filter>
<filter id="filter27_d_2001_4283" x="278" y="56" width="88" height="88" filterUnits="userSpaceOnUse" color-interpolation-filters="sRGB">
<feFlood flood-opacity="0" result="BackgroundImageFix"/>
<feColorMatrix in="SourceAlpha" type="matrix" values="0 0 0 0 0 0 0 0 0 0 0 0 0 0 0 0 0 0 127 0" result="hardAlpha"/>
<feOffset/>
<feGaussianBlur stdDeviation="8"/>
<feComposite in2="hardAlpha" operator="out"/>
<feColorMatrix type="matrix" values="0 0 0 0 0 0 0 0 0 0 0 0 0 0 0 0 0 0 0.1 0"/>
<feBlend mode="normal" in2="BackgroundImageFix" result="effect1_dropShadow_2001_4283"/>
<feBlend mode="normal" in="SourceGraphic" in2="effect1_dropShadow_2001_4283" result="shape"/>
</filter>
<filter id="filter28_d_2001_4283" x="278" y="112" width="88" height="88" filterUnits="userSpaceOnUse" color-interpolation-filters="sRGB">
<feFlood flood-opacity="0" result="BackgroundImageFix"/>
<feColorMatrix in="SourceAlpha" type="matrix" values="0 0 0 0 0 0 0 0 0 0 0 0 0 0 0 0 0 0 127 0" result="hardAlpha"/>
<feOffset/>
<feGaussianBlur stdDeviation="8"/>
<feComposite in2="hardAlpha" operator="out"/>
<feColorMatrix type="matrix" values="0 0 0 0 0 0 0 0 0 0 0 0 0 0 0 0 0 0 0.1 0"/>
<feBlend mode="normal" in2="BackgroundImageFix" result="effect1_dropShadow_2001_4283"/>
<feBlend mode="normal" in="SourceGraphic" in2="effect1_dropShadow_2001_4283" result="shape"/>
</filter>
<filter id="filter29_d_2001_4283" x="278" y="168" width="88" height="88" filterUnits="userSpaceOnUse" color-interpolation-filters="sRGB">
<feFlood flood-opacity="0" result="BackgroundImageFix"/>
<feColorMatrix in="SourceAlpha" type="matrix" values="0 0 0 0 0 0 0 0 0 0 0 0 0 0 0 0 0 0 127 0" result="hardAlpha"/>
<feOffset/>
<feGaussianBlur stdDeviation="8"/>
<feComposite in2="hardAlpha" operator="out"/>
<feColorMatrix type="matrix" values="0 0 0 0 0 0 0 0 0 0 0 0 0 0 0 0 0 0 0.1 0"/>
<feBlend mode="normal" in2="BackgroundImageFix" result="effect1_dropShadow_2001_4283"/>
<feBlend mode="normal" in="SourceGraphic" in2="effect1_dropShadow_2001_4283" result="shape"/>
</filter>
<filter id="filter30_d_2001_4283" x="278" y="224" width="88" height="88" filterUnits="userSpaceOnUse" color-interpolation-filters="sRGB">
<feFlood flood-opacity="0" result="BackgroundImageFix"/>
<feColorMatrix in="SourceAlpha" type="matrix" values="0 0 0 0 0 0 0 0 0 0 0 0 0 0 0 0 0 0 127 0" result="hardAlpha"/>
<feOffset/>
<feGaussianBlur stdDeviation="8"/>
<feComposite in2="hardAlpha" operator="out"/>
<feColorMatrix type="matrix" values="0 0 0 0 0 0 0 0 0 0 0 0 0 0 0 0 0 0 0.1 0"/>
<feBlend mode="normal" in2="BackgroundImageFix" result="effect1_dropShadow_2001_4283"/>
<feBlend mode="normal" in="SourceGraphic" in2="effect1_dropShadow_2001_4283" result="shape"/>
</filter>
<filter id="filter31_d_2001_4283" x="278" y="280" width="88" height="88" filterUnits="userSpaceOnUse" color-interpolation-filters="sRGB">
<feFlood flood-opacity="0" result="BackgroundImageFix"/>
<feColorMatrix in="SourceAlpha" type="matrix" values="0 0 0 0 0 0 0 0 0 0 0 0 0 0 0 0 0 0 127 0" result="hardAlpha"/>
<feOffset/>
<feGaussianBlur stdDeviation="8"/>
<feComposite in2="hardAlpha" operator="out"/>
<feColorMatrix type="matrix" values="0 0 0 0 0 0 0 0 0 0 0 0 0 0 0 0 0 0 0.1 0"/>
<feBlend mode="normal" in2="BackgroundImageFix" result="effect1_dropShadow_2001_4283"/>
<feBlend mode="normal" in="SourceGraphic" in2="effect1_dropShadow_2001_4283" result="shape"/>
</filter>
<filter id="filter32_d_2001_4283" x="278" y="336" width="88" height="88" filterUnits="userSpaceOnUse" color-interpolation-filters="sRGB">
<feFlood flood-opacity="0" result="BackgroundImageFix"/>
<feColorMatrix in="SourceAlpha" type="matrix" values="0 0 0 0 0 0 0 0 0 0 0 0 0 0 0 0 0 0 127 0" result="hardAlpha"/>
<feOffset/>
<feGaussianBlur stdDeviation="8"/>
<feComposite in2="hardAlpha" operator="out"/>
<feColorMatrix type="matrix" values="0 0 0 0 0 0 0 0 0 0 0 0 0 0 0 0 0 0 0.1 0"/>
<feBlend mode="normal" in2="BackgroundImageFix" result="effect1_dropShadow_2001_4283"/>
<feBlend mode="normal" in="SourceGraphic" in2="effect1_dropShadow_2001_4283" result="shape"/>
</filter>
<filter id="filter33_d_2001_4283" x="110" y="56" width="88" height="88" filterUnits="userSpaceOnUse" color-interpolation-filters="sRGB">
<feFlood flood-opacity="0" result="BackgroundImageFix"/>
<feColorMatrix in="SourceAlpha" type="matrix" values="0 0 0 0 0 0 0 0 0 0 0 0 0 0 0 0 0 0 127 0" result="hardAlpha"/>
<feOffset/>
<feGaussianBlur stdDeviation="8"/>
<feComposite in2="hardAlpha" operator="out"/>
<feColorMatrix type="matrix" values="0 0 0 0 0 0 0 0 0 0 0 0 0 0 0 0 0 0 0.1 0"/>
<feBlend mode="normal" in2="BackgroundImageFix" result="effect1_dropShadow_2001_4283"/>
<feBlend mode="normal" in="SourceGraphic" in2="effect1_dropShadow_2001_4283" result="shape"/>
</filter>
<filter id="filter34_d_2001_4283" x="54" y="336" width="88" height="88" filterUnits="userSpaceOnUse" color-interpolation-filters="sRGB">
<feFlood flood-opacity="0" result="BackgroundImageFix"/>
<feColorMatrix in="SourceAlpha" type="matrix" values="0 0 0 0 0 0 0 0 0 0 0 0 0 0 0 0 0 0 127 0" result="hardAlpha"/>
<feOffset/>
<feGaussianBlur stdDeviation="8"/>
<feComposite in2="hardAlpha" operator="out"/>
<feColorMatrix type="matrix" values="0 0 0 0 0 0 0 0 0 0 0 0 0 0 0 0 0 0 0.1 0"/>
<feBlend mode="normal" in2="BackgroundImageFix" result="effect1_dropShadow_2001_4283"/>
<feBlend mode="normal" in="SourceGraphic" in2="effect1_dropShadow_2001_4283" result="shape"/>
</filter>
<filter id="filter35_d_2001_4283" x="166" y="280" width="88" height="88" filterUnits="userSpaceOnUse" color-interpolation-filters="sRGB">
<feFlood flood-opacity="0" result="BackgroundImageFix"/>
<feColorMatrix in="SourceAlpha" type="matrix" values="0 0 0 0 0 0 0 0 0 0 0 0 0 0 0 0 0 0 127 0" result="hardAlpha"/>
<feOffset/>
<feGaussianBlur stdDeviation="8"/>
<feComposite in2="hardAlpha" operator="out"/>
<feColorMatrix type="matrix" values="0 0 0 0 0 0 0 0 0 0 0 0 0 0 0 0 0 0 0.1 0"/>
<feBlend mode="normal" in2="BackgroundImageFix" result="effect1_dropShadow_2001_4283"/>
<feBlend mode="normal" in="SourceGraphic" in2="effect1_dropShadow_2001_4283" result="shape"/>
</filter>
<filter id="filter36_d_2001_4283" x="110" y="224" width="88" height="88" filterUnits="userSpaceOnUse" color-interpolation-filters="sRGB">
<feFlood flood-opacity="0" result="BackgroundImageFix"/>
<feColorMatrix in="SourceAlpha" type="matrix" values="0 0 0 0 0 0 0 0 0 0 0 0 0 0 0 0 0 0 127 0" result="hardAlpha"/>
<feOffset/>
<feGaussianBlur stdDeviation="8"/>
<feComposite in2="hardAlpha" operator="out"/>
<feColorMatrix type="matrix" values="0 0 0 0 0 0 0 0 0 0 0 0 0 0 0 0 0 0 0.1 0"/>
<feBlend mode="normal" in2="BackgroundImageFix" result="effect1_dropShadow_2001_4283"/>
<feBlend mode="normal" in="SourceGraphic" in2="effect1_dropShadow_2001_4283" result="shape"/>
</filter>
<filter id="filter37_d_2001_4283" x="166" y="168" width="88" height="88" filterUnits="userSpaceOnUse" color-interpolation-filters="sRGB">
<feFlood flood-opacity="0" result="BackgroundImageFix"/>
<feColorMatrix in="SourceAlpha" type="matrix" values="0 0 0 0 0 0 0 0 0 0 0 0 0 0 0 0 0 0 127 0" result="hardAlpha"/>
<feOffset/>
<feGaussianBlur stdDeviation="8"/>
<feComposite in2="hardAlpha" operator="out"/>
<feColorMatrix type="matrix" values="0 0 0 0 0 0 0 0 0 0 0 0 0 0 0 0 0 0 0.1 0"/>
<feBlend mode="normal" in2="BackgroundImageFix" result="effect1_dropShadow_2001_4283"/>
<feBlend mode="normal" in="SourceGraphic" in2="effect1_dropShadow_2001_4283" result="shape"/>
</filter>
<filter id="filter38_d_2001_4283" x="110" y="168" width="88" height="88" filterUnits="userSpaceOnUse" color-interpolation-filters="sRGB">
<feFlood flood-opacity="0" result="BackgroundImageFix"/>
<feColorMatrix in="SourceAlpha" type="matrix" values="0 0 0 0 0 0 0 0 0 0 0 0 0 0 0 0 0 0 127 0" result="hardAlpha"/>
<feOffset/>
<feGaussianBlur stdDeviation="8"/>
<feComposite in2="hardAlpha" operator="out"/>
<feColorMatrix type="matrix" values="0 0 0 0 0 0 0 0 0 0 0 0 0 0 0 0 0 0 0.1 0"/>
<feBlend mode="normal" in2="BackgroundImageFix" result="effect1_dropShadow_2001_4283"/>
<feBlend mode="normal" in="SourceGraphic" in2="effect1_dropShadow_2001_4283" result="shape"/>
</filter>
<filter id="filter39_d_2001_4283" x="166" y="112" width="88" height="88" filterUnits="userSpaceOnUse" color-interpolation-filters="sRGB">
<feFlood flood-opacity="0" result="BackgroundImageFix"/>
<feColorMatrix in="SourceAlpha" type="matrix" values="0 0 0 0 0 0 0 0 0 0 0 0 0 0 0 0 0 0 127 0" result="hardAlpha"/>
<feOffset/>
<feGaussianBlur stdDeviation="8"/>
<feComposite in2="hardAlpha" operator="out"/>
<feColorMatrix type="matrix" values="0 0 0 0 0 0 0 0 0 0 0 0 0 0 0 0 0 0 0.1 0"/>
<feBlend mode="normal" in2="BackgroundImageFix" result="effect1_dropShadow_2001_4283"/>
<feBlend mode="normal" in="SourceGraphic" in2="effect1_dropShadow_2001_4283" result="shape"/>
</filter>
<filter id="filter40_d_2001_4283" x="166" y="224" width="88" height="88" filterUnits="userSpaceOnUse" color-interpolation-filters="sRGB">
<feFlood flood-opacity="0" result="BackgroundImageFix"/>
<feColorMatrix in="SourceAlpha" type="matrix" values="0 0 0 0 0 0 0 0 0 0 0 0 0 0 0 0 0 0 127 0" result="hardAlpha"/>
<feOffset/>
<feGaussianBlur stdDeviation="8"/>
<feComposite in2="hardAlpha" operator="out"/>
<feColorMatrix type="matrix" values="0 0 0 0 0 0 0 0 0 0 0 0 0 0 0 0 0 0 0.1 0"/>
<feBlend mode="normal" in2="BackgroundImageFix" result="effect1_dropShadow_2001_4283"/>
<feBlend mode="normal" in="SourceGraphic" in2="effect1_dropShadow_2001_4283" result="shape"/>
</filter>
<filter id="filter41_d_2001_4283" x="54" y="224" width="88" height="88" filterUnits="userSpaceOnUse" color-interpolation-filters="sRGB">
<feFlood flood-opacity="0" result="BackgroundImageFix"/>
<feColorMatrix in="SourceAlpha" type="matrix" values="0 0 0 0 0 0 0 0 0 0 0 0 0 0 0 0 0 0 127 0" result="hardAlpha"/>
<feOffset/>
<feGaussianBlur stdDeviation="8"/>
<feComposite in2="hardAlpha" operator="out"/>
<feColorMatrix type="matrix" values="0 0 0 0 0 0 0 0 0 0 0 0 0 0 0 0 0 0 0.1 0"/>
<feBlend mode="normal" in2="BackgroundImageFix" result="effect1_dropShadow_2001_4283"/>
<feBlend mode="normal" in="SourceGraphic" in2="effect1_dropShadow_2001_4283" result="shape"/>
</filter>
<radialGradient id="paint0_radial_2001_4283" cx="0" cy="0" r="1" gradientUnits="userSpaceOnUse" gradientTransform="translate(182 212) rotate(90) scale(210 182)">
<stop offset="0.679584" stop-color="#F6F6F6" stop-opacity="0"/>
<stop offset="1" stop-color="#F6F6F6"/>
</radialGradient>
</defs>
</svg>
