<svg width="352" height="408" viewBox="0 0 352 408" fill="none" xmlns="http://www.w3.org/2000/svg">
<g clip-path="url(#clip0_235_414)">
<rect width="352" height="408" rx="24" fill="#F6F6F6"/>
<path d="M68 13V27.5C68 36.3366 75.1634 43.5 84 43.5H132C140.837 43.5 148 50.6634 148 59.5V73" stroke="#ECECEC"/>
<path d="M228 13V27.5C228 36.3366 220.837 43.5 212 43.5H164C155.163 43.5 148 50.6634 148 59.5V73" stroke="#ECECEC"/>
<g opacity="0.15" filter="url(#filter0_d_235_414)">
<rect x="8" y="64" width="56" height="56" rx="12" fill="white" shape-rendering="crispEdges"/>
<path d="M36 92.5C37.6569 92.5 39 91.1569 39 89.5C39 87.8431 37.6569 86.5 36 86.5C34.3431 86.5 33 87.8431 33 89.5C33 91.1569 34.3431 92.5 36 92.5Z" stroke="#B7B7B7" stroke-width="2" stroke-linecap="round" stroke-linejoin="round"/>
<path d="M36 102C38 98 44 95.4183 44 90C44 85.5817 40.4183 82 36 82C31.5817 82 28 85.5817 28 90C28 95.4183 34 98 36 102Z" stroke="#B7B7B7" stroke-width="2" stroke-linecap="round" stroke-linejoin="round"/>
</g>
<g opacity="0.15" filter="url(#filter1_d_235_414)">
<rect x="8" y="120" width="56" height="56" rx="12" fill="white" shape-rendering="crispEdges"/>
<path d="M46 148C46 153.523 41.5228 158 36 158M46 148C46 142.477 41.5228 138 36 138M46 148H44M36 158C30.4772 158 26 153.523 26 148M36 158V156M26 148C26 142.477 30.4772 138 36 138M26 148H28M36 138V140M43.0711 155.071L41.6569 153.657M30.3431 142.343L28.9289 140.929M41.6569 142.343L43.0711 140.929M28.9289 155.071L30.3431 153.657M32 148L34.5 146.5L36 144L37.5 146.5L40 148L37.5 149.5L36 152L34.5 149.5L32 148Z" stroke="#B7B7B7" stroke-width="2" stroke-linecap="round" stroke-linejoin="round"/>
</g>
<g opacity="0.15" filter="url(#filter2_d_235_414)">
<rect x="8" y="176" width="56" height="56" rx="12" fill="white" shape-rendering="crispEdges"/>
<path d="M40 205.374C43.5318 206.069 46 207.655 46 209.5C46 211.985 41.5228 214 36 214C30.4772 214 26 211.985 26 209.5C26 207.655 28.4682 206.069 32 205.374M36 209V195L41.3177 198.272C41.7056 198.511 41.8995 198.63 41.9614 198.781C42.0154 198.912 42.0111 199.06 41.9497 199.188C41.8792 199.334 41.6787 199.442 41.2777 199.658L36 202.5" stroke="#B7B7B7" stroke-width="2" stroke-linecap="round" stroke-linejoin="round"/>
</g>
<g opacity="0.15" filter="url(#filter3_d_235_414)">
<rect x="8" y="232" width="56" height="56" rx="12" fill="white" shape-rendering="crispEdges"/>
<path d="M28 263C28 263 29 262 32 262C35 262 37 264 40 264C43 264 44 263 44 263V251C44 251 43 252 40 252C37 252 35 250 32 250C29 250 28 251 28 251L28 270" stroke="#B7B7B7" stroke-width="2" stroke-linecap="round" stroke-linejoin="round"/>
</g>
<g opacity="0.15" filter="url(#filter4_d_235_414)">
<rect x="8" y="288" width="56" height="56" rx="12" fill="white" shape-rendering="crispEdges"/>
<path d="M35 308H31.8C30.1198 308 29.2798 308 28.638 308.327C28.0735 308.615 27.6146 309.074 27.327 309.638C27 310.28 27 311.12 27 312.8V318C27 318.93 27 319.395 27.1022 319.776C27.3796 320.812 28.1883 321.62 29.2235 321.898C29.605 322 30.07 322 31 322V324.336C31 324.868 31 325.135 31.1092 325.272C31.2042 325.391 31.3483 325.46 31.5005 325.46C31.6756 325.459 31.8837 325.293 32.2998 324.96L34.6852 323.052C35.1725 322.662 35.4162 322.467 35.6875 322.328C35.9282 322.205 36.1844 322.116 36.4492 322.061C36.7477 322 37.0597 322 37.6837 322H39.2C40.8802 322 41.7202 322 42.362 321.673C42.9265 321.385 43.3854 320.926 43.673 320.362C44 319.72 44 318.88 44 317.2V317M44.1213 307.879C45.2929 309.05 45.2929 310.95 44.1213 312.121C42.9497 313.293 41.0503 313.293 39.8787 312.121C38.7071 310.95 38.7071 309.05 39.8787 307.879C41.0503 306.707 42.9497 306.707 44.1213 307.879Z" stroke="#B7B7B7" stroke-width="2" stroke-linecap="round" stroke-linejoin="round"/>
</g>
<g opacity="0.15" filter="url(#filter5_d_235_414)">
<rect x="64" y="64" width="56" height="56" rx="12" fill="white" shape-rendering="crispEdges"/>
<path d="M92 95L89 92M92 95C93.3968 94.4687 94.7369 93.7987 96 93M92 95V100C92 100 95.03 99.45 96 98C97.08 96.38 96 93 96 93M89 92C89.5321 90.6194 90.2022 89.2961 91 88.05C92.1652 86.187 93.7876 84.6531 95.713 83.5941C97.6384 82.5351 99.8027 81.9864 102 82C102 84.72 101.22 89.5 96 93M89 92H84C84 92 84.55 88.97 86 88C87.62 86.92 91 88 91 88M84.5 96.5C83 97.76 82.5 101.5 82.5 101.5C82.5 101.5 86.24 101 87.5 99.5C88.21 98.66 88.2 97.37 87.41 96.59C87.0213 96.219 86.5093 96.0046 85.9722 95.988C85.4352 95.9714 84.9109 96.1537 84.5 96.5Z" stroke="#B7B7B7" stroke-width="2" stroke-linecap="round" stroke-linejoin="round"/>
</g>
<g opacity="0.15" filter="url(#filter6_d_235_414)">
<rect x="64" y="120" width="56" height="56" rx="12" fill="white" shape-rendering="crispEdges"/>
<path d="M83.076 143.483L87.364 146.546C87.5872 146.705 87.6987 146.785 87.8155 146.803C87.9182 146.819 88.0234 146.803 88.1165 146.756C88.2222 146.704 88.3045 146.594 88.469 146.375L89.3751 145.167C89.4216 145.104 89.4449 145.073 89.4722 145.047C89.4965 145.023 89.5232 145.002 89.5517 144.983C89.5839 144.963 89.6193 144.947 89.6902 144.915L93.5588 143.196C93.7192 143.125 93.7993 143.089 93.8598 143.034C93.9133 142.984 93.9554 142.924 93.9832 142.857C94.0146 142.781 94.0204 142.693 94.0321 142.518L94.3154 138.269M93.5 149.5L96.116 150.621C96.4195 150.751 96.5713 150.816 96.6517 150.924C96.7222 151.019 96.7569 151.136 96.7496 151.254C96.7413 151.388 96.6497 151.525 96.4665 151.8L95.2375 153.644C95.1507 153.774 95.1072 153.839 95.0499 153.886C94.9991 153.928 94.9406 153.959 94.8777 153.978C94.8067 154 94.7284 154 94.5719 154H92.5766C92.3693 154 92.2656 154 92.1774 153.965C92.0995 153.935 92.0305 153.885 91.9768 153.821C91.916 153.748 91.8832 153.65 91.8177 153.453L91.1048 151.314C91.0661 151.198 91.0468 151.14 91.0417 151.081C91.0372 151.029 91.0409 150.976 91.0528 150.925C91.0662 150.868 91.0935 150.813 91.1482 150.704L91.6897 149.621C91.7997 149.401 91.8547 149.291 91.9395 149.222C92.0141 149.162 92.1046 149.125 92.1999 149.114C92.3081 149.103 92.4248 149.142 92.6582 149.219L93.5 149.5ZM102 148C102 153.523 97.5228 158 92 158C86.4772 158 82 153.523 82 148C82 142.477 86.4772 138 92 138C97.5228 138 102 142.477 102 148Z" stroke="#B7B7B7" stroke-width="2" stroke-linecap="round" stroke-linejoin="round"/>
</g>
<g opacity="0.15" filter="url(#filter7_d_235_414)">
<rect x="64" y="176" width="56" height="56" rx="12" fill="white" shape-rendering="crispEdges"/>
<path d="M88 200V199M88 204.5V203.5M88 209V208M86.8 212H97.2C98.8802 212 99.7202 212 100.362 211.673C100.926 211.385 101.385 210.926 101.673 210.362C102 209.72 102 208.88 102 207.2V200.8C102 199.12 102 198.28 101.673 197.638C101.385 197.074 100.926 196.615 100.362 196.327C99.7202 196 98.8802 196 97.2 196H86.8C85.1198 196 84.2798 196 83.638 196.327C83.0735 196.615 82.6146 197.074 82.327 197.638C82 198.28 82 199.12 82 200.8V207.2C82 208.88 82 209.72 82.327 210.362C82.6146 210.926 83.0735 211.385 83.638 211.673C84.2798 212 85.1198 212 86.8 212Z" stroke="#B7B7B7" stroke-width="2" stroke-linecap="round" stroke-linejoin="round"/>
</g>
<g opacity="0.15" filter="url(#filter8_d_235_414)">
<rect x="64" y="288" width="56" height="56" rx="12" fill="white" shape-rendering="crispEdges"/>
<path d="M91 308H87.8C86.1198 308 85.2798 308 84.638 308.327C84.0735 308.615 83.6146 309.074 83.327 309.638C83 310.28 83 311.12 83 312.8V320.2C83 321.88 83 322.72 83.327 323.362C83.6146 323.926 84.0735 324.385 84.638 324.673C85.2798 325 86.1198 325 87.8 325H95.2C96.8802 325 97.7202 325 98.362 324.673C98.9265 324.385 99.3854 323.926 99.673 323.362C100 322.72 100 321.88 100 320.2V317M93 321H87M95 317H87M100.121 307.879C101.293 309.05 101.293 310.95 100.121 312.121C98.9497 313.293 97.0503 313.293 95.8787 312.121C94.7071 310.95 94.7071 309.05 95.8787 307.879C97.0503 306.707 98.9497 306.707 100.121 307.879Z" stroke="#B7B7B7" stroke-width="2" stroke-linecap="round" stroke-linejoin="round"/>
</g>
<g opacity="0.15" filter="url(#filter9_d_235_414)">
<rect x="64" y="232" width="56" height="56" rx="12" fill="white" shape-rendering="crispEdges"/>
<path d="M91 252H87.8C86.1198 252 85.2798 252 84.638 252.327C84.0735 252.615 83.6146 253.074 83.327 253.638C83 254.28 83 255.12 83 256.8V264.2C83 265.88 83 266.72 83.327 267.362C83.6146 267.926 84.0735 268.385 84.638 268.673C85.2798 269 86.1198 269 87.8 269H95.2C96.8802 269 97.7202 269 98.362 268.673C98.9265 268.385 99.3854 267.926 99.673 267.362C100 266.72 100 265.88 100 264.2V261M93 265H87M95 261H87M100.121 251.879C101.293 253.05 101.293 254.95 100.121 256.121C98.9497 257.293 97.0503 257.293 95.8787 256.121C94.7071 254.95 94.7071 253.05 95.8787 251.879C97.0503 250.707 98.9497 250.707 100.121 251.879Z" stroke="#B7B7B7" stroke-width="2" stroke-linecap="round" stroke-linejoin="round"/>
</g>
<g opacity="0.15" filter="url(#filter10_d_235_414)">
<rect x="120" y="120" width="56" height="56" rx="12" fill="white" shape-rendering="crispEdges"/>
<path d="M141 150.286C139.149 151.103 138 152.241 138 153.5C138 155.985 142.477 158 148 158C153.523 158 158 155.985 158 153.5C158 152.241 156.851 151.103 155 150.286M154 144C154 148.064 149.5 150 148 153C146.5 150 142 148.064 142 144C142 140.686 144.686 138 148 138C151.314 138 154 140.686 154 144ZM149 144C149 144.552 148.552 145 148 145C147.448 145 147 144.552 147 144C147 143.448 147.448 143 148 143C148.552 143 149 143.448 149 144Z" stroke="#B7B7B7" stroke-width="2" stroke-linecap="round" stroke-linejoin="round"/>
</g>
<g opacity="0.08" filter="url(#filter11_d_235_414)">
<rect x="120" y="176" width="56" height="56" rx="12" fill="#F6F6F6" shape-rendering="crispEdges"/>
<path d="M148 214C153.523 214 158 209.523 158 204C158 198.477 153.523 194 148 194C142.477 194 138 198.477 138 204C138 209.523 142.477 214 148 214Z" stroke="black" stroke-width="2" stroke-linecap="round" stroke-linejoin="round"/>
<path d="M150.722 200.266C151.211 200.103 151.455 200.022 151.617 200.08C151.759 200.13 151.87 200.241 151.92 200.383C151.978 200.545 151.897 200.789 151.734 201.278L150.246 205.741C150.2 205.88 150.177 205.949 150.137 206.007C150.102 206.058 150.058 206.102 150.007 206.137C149.949 206.177 149.88 206.2 149.741 206.246L145.278 207.734C144.789 207.897 144.545 207.978 144.383 207.92C144.241 207.87 144.13 207.759 144.08 207.617C144.022 207.455 144.103 207.211 144.266 206.722L145.754 202.259C145.8 202.12 145.823 202.051 145.863 201.993C145.898 201.942 145.942 201.898 145.993 201.863C146.051 201.823 146.12 201.8 146.259 201.754L150.722 200.266Z" stroke="black" stroke-width="2" stroke-linecap="round" stroke-linejoin="round"/>
</g>
<g opacity="0.15" filter="url(#filter12_d_235_414)">
<rect x="120" y="232" width="56" height="56" rx="12" fill="white" shape-rendering="crispEdges"/>
<path d="M144 270V268M145.5 263V255M152 270V268M150.5 263V255M144.8 268H151.2C152.88 268 153.72 268 154.362 267.673C154.926 267.385 155.385 266.926 155.673 266.362C156 265.72 156 264.88 156 263.2V254.8C156 253.12 156 252.28 155.673 251.638C155.385 251.074 154.926 250.615 154.362 250.327C153.72 250 152.88 250 151.2 250H144.8C143.12 250 142.28 250 141.638 250.327C141.074 250.615 140.615 251.074 140.327 251.638C140 252.28 140 253.12 140 254.8V263.2C140 264.88 140 265.72 140.327 266.362C140.615 266.926 141.074 267.385 141.638 267.673C142.28 268 143.12 268 144.8 268Z" stroke="#B7B7B7" stroke-width="2" stroke-linecap="round" stroke-linejoin="round"/>
</g>
<g opacity="0.15" filter="url(#filter13_d_235_414)">
<rect x="120" y="288" width="56" height="56" rx="12" fill="white" shape-rendering="crispEdges"/>
<path d="M153 306V317M158 313.8V309.2C158 308.08 158 307.52 157.782 307.092C157.59 306.716 157.284 306.41 156.908 306.218C156.48 306 155.92 306 154.8 306H144.118C142.657 306 141.926 306 141.336 306.267C140.815 306.503 140.373 306.882 140.061 307.361C139.707 307.903 139.596 308.626 139.374 310.07L138.851 313.47C138.558 315.375 138.411 316.328 138.694 317.069C138.942 317.72 139.409 318.264 140.014 318.608C140.704 319 141.667 319 143.595 319H144.4C144.96 319 145.24 319 145.454 319.109C145.642 319.205 145.795 319.358 145.891 319.546C146 319.76 146 320.04 146 320.6V323.534C146 324.896 147.104 326 148.466 326C148.791 326 149.085 325.809 149.217 325.512L152.578 317.95C152.731 317.606 152.807 317.434 152.928 317.308C153.035 317.197 153.166 317.112 153.311 317.059C153.475 317 153.663 317 154.04 317H154.8C155.92 317 156.48 317 156.908 316.782C157.284 316.59 157.59 316.284 157.782 315.908C158 315.48 158 314.92 158 313.8Z" stroke="#B7B7B7" stroke-width="2" stroke-linecap="round" stroke-linejoin="round"/>
</g>
<g opacity="0.15" filter="url(#filter14_d_235_414)">
<rect x="176" y="288" width="56" height="56" rx="12" fill="white" shape-rendering="crispEdges"/>
<path d="M209 306V317M214 313.8V309.2C214 308.08 214 307.52 213.782 307.092C213.59 306.716 213.284 306.41 212.908 306.218C212.48 306 211.92 306 210.8 306H200.118C198.657 306 197.926 306 197.336 306.267C196.815 306.503 196.373 306.882 196.061 307.361C195.707 307.903 195.596 308.626 195.374 310.07L194.851 313.47C194.558 315.375 194.411 316.328 194.694 317.069C194.942 317.72 195.409 318.264 196.014 318.608C196.704 319 197.667 319 199.595 319H200.4C200.96 319 201.24 319 201.454 319.109C201.642 319.205 201.795 319.358 201.891 319.546C202 319.76 202 320.04 202 320.6V323.534C202 324.896 203.104 326 204.466 326C204.791 326 205.085 325.809 205.217 325.512L208.578 317.95C208.731 317.606 208.807 317.434 208.928 317.308C209.035 317.197 209.166 317.112 209.311 317.059C209.475 317 209.663 317 210.04 317H210.8C211.92 317 212.48 317 212.908 316.782C213.284 316.59 213.59 316.284 213.782 315.908C214 315.48 214 314.92 214 313.8Z" stroke="#B7B7B7" stroke-width="2" stroke-linecap="round" stroke-linejoin="round"/>
</g>
<g opacity="0.15" filter="url(#filter15_d_235_414)">
<rect x="176" y="64" width="56" height="56" rx="12" fill="white" shape-rendering="crispEdges"/>
<path d="M204 82C207 84 207.923 88.292 208 92C207.923 95.708 207 100 204 102M204 82C201 84 200.077 88.292 200 92C200.077 95.708 201 100 204 102M204 82C198.477 82 194 86.4772 194 92M204 82C209.523 82 214 86.4772 214 92M204 102C209.523 102 214 97.5228 214 92M204 102C198.477 102 194 97.5228 194 92M214 92C212 95 207.708 95.9228 204 96C200.292 95.9228 196 95 194 92M214 92C212 89 207.708 88.0772 204 88C200.292 88.0772 196 89 194 92" stroke="#B7B7B7" stroke-width="2" stroke-linecap="round" stroke-linejoin="round"/>
</g>
<g opacity="0.15" filter="url(#filter16_d_235_414)">
<rect x="176" y="176" width="56" height="56" rx="12" fill="white" shape-rendering="crispEdges"/>
<path d="M194.687 207.645L196.595 206.544C196.698 206.484 196.82 206.463 196.937 206.485L200.691 207.188C201 207.246 201.285 207.008 201.283 206.694L201.269 203.404C201.268 203.315 201.292 203.227 201.337 203.15L203.232 199.906C203.33 199.737 203.322 199.527 203.209 199.367L200.019 194.826M211 196.859C205.5 199.5 208.5 203 209.5 203.5C211.377 204.438 213.988 204.5 213.988 204.5C213.996 204.334 214 204.168 214 204C214 198.477 209.523 194 204 194C198.477 194 194 198.477 194 204C194 209.523 198.477 214 204 214C204.168 214 204.334 213.996 204.5 213.988M208.758 213.94L205.591 205.591L213.94 208.758L210.238 210.238L208.758 213.94Z" stroke="#B7B7B7" stroke-width="2" stroke-linecap="round" stroke-linejoin="round"/>
</g>
<g opacity="0.15" filter="url(#filter17_d_235_414)">
<rect x="176" y="232" width="56" height="56" rx="12" fill="white" shape-rendering="crispEdges"/>
<path d="M202 256V255M202 260.5V259.5M202 265V264M197.2 252H210.8C211.92 252 212.48 252 212.908 252.218C213.284 252.41 213.59 252.716 213.782 253.092C214 253.52 214 254.08 214 255.2V256.5C212.067 256.5 210.5 258.067 210.5 260C210.5 261.933 212.067 263.5 214 263.5V264.8C214 265.92 214 266.48 213.782 266.908C213.59 267.284 213.284 267.59 212.908 267.782C212.48 268 211.92 268 210.8 268H197.2C196.08 268 195.52 268 195.092 267.782C194.716 267.59 194.41 267.284 194.218 266.908C194 266.48 194 265.92 194 264.8V263.5C195.933 263.5 197.5 261.933 197.5 260C197.5 258.067 195.933 256.5 194 256.5V255.2C194 254.08 194 253.52 194.218 253.092C194.41 252.716 194.716 252.41 195.092 252.218C195.52 252 196.08 252 197.2 252Z" stroke="#B7B7B7" stroke-width="2" stroke-linecap="round" stroke-linejoin="round"/>
</g>
<g opacity="0.15" filter="url(#filter18_d_235_414)">
<rect x="232" y="64" width="56" height="56" rx="12" fill="white" shape-rendering="crispEdges"/>
<path d="M260 102C261 97 268 96.4183 268 90C268 85.5817 264.418 82 260 82C255.582 82 252 85.5817 252 90C252 96.4183 259 97 260 102Z" stroke="#B7B7B7" stroke-width="2" stroke-linecap="round" stroke-linejoin="round"/>
<path d="M260 93C261.657 93 263 91.6569 263 90C263 88.3431 261.657 87 260 87C258.343 87 257 88.3431 257 90C257 91.6569 258.343 93 260 93Z" stroke="#B7B7B7" stroke-width="2" stroke-linecap="round" stroke-linejoin="round"/>
</g>
<g opacity="0.15" filter="url(#filter19_d_235_414)">
<rect x="232" y="120" width="56" height="56" rx="12" fill="white" shape-rendering="crispEdges"/>
<path d="M270 148H268M270 148C270 153.523 265.523 158 260 158M270 148C270 142.477 265.523 138 260 138M267.071 155.071L265.657 153.657M252 148H250M250 148C250 153.523 254.477 158 260 158M250 148C250 142.477 254.477 138 260 138M254.343 142.343L252.929 140.929M260 140V138M265.657 142.343L267.071 140.929M260 158V156M252.929 155.071L254.343 153.657M260 144L264 148L260 152L256 148L260 144Z" stroke="#B7B7B7" stroke-width="2" stroke-linecap="round" stroke-linejoin="round"/>
</g>
<g opacity="0.15" filter="url(#filter20_d_235_414)">
<rect x="232" y="176" width="56" height="56" rx="12" fill="white" shape-rendering="crispEdges"/>
<path d="M264 205.374C267.532 206.069 270 207.655 270 209.5C270 211.985 265.523 214 260 214C254.477 214 250 211.985 250 209.5C250 207.655 252.468 206.069 256 205.374M260 209V201M260 201C261.657 201 263 199.657 263 198C263 196.343 261.657 195 260 195C258.343 195 257 196.343 257 198C257 199.657 258.343 201 260 201Z" stroke="#B7B7B7" stroke-width="2" stroke-linecap="round" stroke-linejoin="round"/>
</g>
<g opacity="0.15" filter="url(#filter21_d_235_414)">
<rect x="232" y="232" width="56" height="56" rx="12" fill="white" shape-rendering="crispEdges"/>
<path d="M267 258V254.2C267 253.08 267 252.52 266.782 252.092C266.59 251.716 266.284 251.41 265.908 251.218C265.48 251 264.92 251 263.8 251H256.2C255.08 251 254.52 251 254.092 251.218C253.716 251.41 253.41 251.716 253.218 252.092C253 252.52 253 253.08 253 254.2V258M253 257H250V256M267 257H270V256M254 261.5H254.01M266 261.5H266.01M254.8 258H265.2C266.88 258 267.72 258 268.362 258.327C268.926 258.615 269.385 259.074 269.673 259.638C270 260.28 270 261.12 270 262.8V266C270 266.932 270 267.398 269.848 267.765C269.645 268.255 269.255 268.645 268.765 268.848C268.398 269 267.932 269 267 269H266.4C266.028 269 265.843 269 265.687 268.975C264.831 268.84 264.16 268.169 264.025 267.313C264 267.157 264 266.972 264 266.6C264 266.507 264 266.461 263.994 266.422C263.96 266.208 263.792 266.04 263.578 266.006C263.539 266 263.493 266 263.4 266H256.6C256.507 266 256.461 266 256.422 266.006C256.208 266.04 256.04 266.208 256.006 266.422C256 266.461 256 266.507 256 266.6C256 266.972 256 267.157 255.975 267.313C255.84 268.169 255.169 268.84 254.313 268.975C254.157 269 253.972 269 253.6 269H253C252.068 269 251.602 269 251.235 268.848C250.745 268.645 250.355 268.255 250.152 267.765C250 267.398 250 266.932 250 266V262.8C250 261.12 250 260.28 250.327 259.638C250.615 259.074 251.074 258.615 251.638 258.327C252.28 258 253.12 258 254.8 258ZM254.5 261.5C254.5 261.776 254.276 262 254 262C253.724 262 253.5 261.776 253.5 261.5C253.5 261.224 253.724 261 254 261C254.276 261 254.5 261.224 254.5 261.5ZM266.5 261.5C266.5 261.776 266.276 262 266 262C265.724 262 265.5 261.776 265.5 261.5C265.5 261.224 265.724 261 266 261C266.276 261 266.5 261.224 266.5 261.5Z" stroke="#B7B7B7" stroke-width="2" stroke-linecap="round" stroke-linejoin="round"/>
</g>
<g opacity="0.15" filter="url(#filter22_d_235_414)">
<rect x="232" y="288" width="56" height="56" rx="12" fill="white" shape-rendering="crispEdges"/>
<path d="M255 326V315M250 317V324C250 325.105 250.895 326 252 326H265.426C266.907 326 268.166 324.92 268.391 323.456L269.468 316.456C269.748 314.639 268.342 313 266.503 313H263C262.448 313 262 312.552 262 312V308.466C262 307.104 260.896 306 259.534 306C259.209 306 258.915 306.191 258.783 306.488L255.264 314.406C255.103 314.767 254.745 315 254.35 315H252C250.895 315 250 315.895 250 317Z" stroke="#B7B7B7" stroke-width="2" stroke-linecap="round" stroke-linejoin="round"/>
</g>
<g opacity="0.15" filter="url(#filter23_d_235_414)">
<rect x="288" y="64" width="56" height="56" rx="12" fill="white" shape-rendering="crispEdges"/>
<path d="M315.5 85H315.934C318.982 85 320.505 85 321.084 85.5473C321.584 86.0204 321.805 86.7173 321.67 87.3922C321.514 88.173 320.27 89.0529 317.782 90.8125L313.718 93.6875C311.23 95.4471 309.986 96.327 309.83 97.1078C309.695 97.7827 309.916 98.4796 310.416 98.9527C310.995 99.5 312.518 99.5 315.566 99.5H316.5M312 85C312 86.6569 310.657 88 309 88C307.343 88 306 86.6569 306 85C306 83.3431 307.343 82 309 82C310.657 82 312 83.3431 312 85ZM326 99C326 100.657 324.657 102 323 102C321.343 102 320 100.657 320 99C320 97.3431 321.343 96 323 96C324.657 96 326 97.3431 326 99Z" stroke="#B7B7B7" stroke-width="2" stroke-linecap="round" stroke-linejoin="round"/>
</g>
<g opacity="0.15" filter="url(#filter24_d_235_414)">
<rect x="288" y="120" width="56" height="56" rx="12" fill="white" shape-rendering="crispEdges"/>
<path d="M319 138.458C318.053 138.16 317.045 138 316 138C310.477 138 306 142.477 306 148C306 153.523 310.477 158 316 158C321.523 158 326 153.523 326 148C326 146.285 325.568 144.67 324.807 143.259M321 141.75H321.005M314.5 157.888L314.5 155.685C314.5 155.566 314.543 155.45 314.621 155.36L317.106 152.459C317.311 152.221 317.247 151.856 316.975 151.7L314.119 150.068C314.041 150.023 313.977 149.959 313.932 149.881L312.07 146.619C311.974 146.449 311.787 146.351 311.592 146.368L306.064 146.861M325 142C325 144.209 323 146 321 148C319 146 317 144.209 317 142C317 139.791 318.791 138 321 138C323.209 138 325 139.791 325 142ZM321.25 141.75C321.25 141.888 321.138 142 321 142C320.862 142 320.75 141.888 320.75 141.75C320.75 141.612 320.862 141.5 321 141.5C321.138 141.5 321.25 141.612 321.25 141.75Z" stroke="#B7B7B7" stroke-width="2" stroke-linecap="round" stroke-linejoin="round"/>
</g>
<g opacity="0.15" filter="url(#filter25_d_235_414)">
<rect x="288" y="176" width="56" height="56" rx="12" fill="white" shape-rendering="crispEdges"/>
<path d="M313.5 214H318.5M312 194H320M316 197V194M308 204H324M321 211L322.5 214M311 211L309.5 214M312.5 207.5H312.51M319.5 207.5H319.51M312.8 211H319.2C320.88 211 321.72 211 322.362 210.673C322.926 210.385 323.385 209.926 323.673 209.362C324 208.72 324 207.88 324 206.2V201.8C324 200.12 324 199.28 323.673 198.638C323.385 198.074 322.926 197.615 322.362 197.327C321.72 197 320.88 197 319.2 197H312.8C311.12 197 310.28 197 309.638 197.327C309.074 197.615 308.615 198.074 308.327 198.638C308 199.28 308 200.12 308 201.8V206.2C308 207.88 308 208.72 308.327 209.362C308.615 209.926 309.074 210.385 309.638 210.673C310.28 211 311.12 211 312.8 211ZM313 207.5C313 207.776 312.776 208 312.5 208C312.224 208 312 207.776 312 207.5C312 207.224 312.224 207 312.5 207C312.776 207 313 207.224 313 207.5ZM320 207.5C320 207.776 319.776 208 319.5 208C319.224 208 319 207.776 319 207.5C319 207.224 319.224 207 319.5 207C319.776 207 320 207.224 320 207.5Z" stroke="#B7B7B7" stroke-width="2" stroke-linecap="round" stroke-linejoin="round"/>
</g>
<g opacity="0.15" filter="url(#filter26_d_235_414)">
<rect x="288" y="232" width="56" height="56" rx="12" fill="white" shape-rendering="crispEdges"/>
<path d="M309 258V264.011C309 264.37 309 264.55 309.055 264.708C309.103 264.848 309.182 264.976 309.286 265.082C309.403 265.201 309.563 265.282 309.884 265.442L315.284 268.142C315.547 268.273 315.678 268.339 315.816 268.365C315.937 268.388 316.063 268.388 316.184 268.365C316.322 268.339 316.453 268.273 316.716 268.142L322.116 265.442C322.437 265.282 322.597 265.201 322.714 265.082C322.818 264.976 322.897 264.848 322.945 264.708C323 264.55 323 264.37 323 264.011V258M306 256.5L315.642 251.679C315.773 251.613 315.839 251.581 315.908 251.568C315.969 251.556 316.031 251.556 316.092 251.568C316.161 251.581 316.227 251.613 316.358 251.679L326 256.5L316.358 261.321C316.227 261.387 316.161 261.42 316.092 261.432C316.031 261.444 315.969 261.444 315.908 261.432C315.839 261.42 315.773 261.387 315.642 261.321L306 256.5Z" stroke="#B7B7B7" stroke-width="2" stroke-linecap="round" stroke-linejoin="round"/>
</g>
<g opacity="0.15" filter="url(#filter27_d_235_414)">
<rect x="288" y="288" width="56" height="56" rx="12" fill="white" shape-rendering="crispEdges"/>
<path d="M323 325L326 322M326 322L323 319M326 322H320M316 319.5H311.5C310.104 319.5 309.407 319.5 308.839 319.672C307.56 320.06 306.56 321.06 306.172 322.339C306 322.907 306 323.604 306 325M318.5 311.5C318.5 313.985 316.485 316 314 316C311.515 316 309.5 313.985 309.5 311.5C309.5 309.015 311.515 307 314 307C316.485 307 318.5 309.015 318.5 311.5Z" stroke="#B7B7B7" stroke-width="2" stroke-linecap="round" stroke-linejoin="round"/>
</g>
<g filter="url(#filter28_d_235_414)">
<rect x="120" y="64" width="56" height="56" rx="12" fill="#F6F6F6" shape-rendering="crispEdges"/>
<path d="M153.745 82.8127C154.709 81.8163 156.304 81.8034 157.284 82.7841C158.238 83.738 158.256 85.279 157.324 86.2546L154.546 89.1643C154.328 89.3924 154.219 89.5064 154.152 89.64C154.092 89.7582 154.057 89.8871 154.048 90.0191C154.037 90.1682 154.073 90.3218 154.144 90.6291L155.872 98.1167C155.944 98.4321 155.981 98.5898 155.969 98.7423C155.959 98.8774 155.921 99.0089 155.858 99.1289C155.787 99.2645 155.673 99.3789 155.444 99.6078L155.073 99.9786C154.467 100.585 154.164 100.888 153.854 100.943C153.583 100.991 153.304 100.925 153.083 100.761C152.831 100.573 152.695 100.166 152.424 99.3532L150.414 93.3239L147.069 96.6692C146.869 96.8689 146.769 96.9687 146.703 97.0863C146.643 97.1905 146.603 97.3044 146.584 97.4227C146.563 97.5563 146.579 97.6966 146.61 97.9773L146.794 99.6307C146.825 99.9113 146.84 100.052 146.819 100.185C146.8 100.304 146.76 100.417 146.701 100.522C146.634 100.639 146.535 100.739 146.335 100.939L146.137 101.136C145.664 101.609 145.428 101.846 145.165 101.914C144.934 101.974 144.69 101.95 144.476 101.846C144.231 101.727 144.046 101.449 143.675 100.892L142.106 98.5399C142.04 98.4404 142.007 98.3907 141.968 98.3456C141.934 98.3056 141.897 98.2683 141.857 98.2341C141.812 98.1956 141.762 98.1624 141.663 98.0961L139.31 96.5278C138.753 96.1567 138.475 95.9712 138.356 95.7269C138.252 95.5126 138.228 95.2681 138.288 95.0376C138.357 94.7747 138.593 94.5382 139.066 94.0652L139.264 93.8677C139.463 93.668 139.563 93.5681 139.681 93.5013C139.785 93.4422 139.899 93.4022 140.017 93.3833C140.151 93.362 140.291 93.3776 140.572 93.4088L142.225 93.5925C142.506 93.6237 142.646 93.6393 142.78 93.618C142.898 93.5991 143.012 93.5592 143.116 93.5C143.234 93.4332 143.334 93.3334 143.533 93.1337L146.879 89.7884L140.849 87.7786C140.036 87.5075 139.629 87.372 139.442 87.1191C139.278 86.8982 139.212 86.6196 139.26 86.3487C139.315 86.0385 139.618 85.7355 140.224 85.1293L140.595 84.7586C140.824 84.5297 140.938 84.4152 141.074 84.3443C141.194 84.2816 141.325 84.2439 141.46 84.2335C141.613 84.2217 141.77 84.2581 142.086 84.3309L149.545 86.0522C149.855 86.1238 150.01 86.1595 150.16 86.1489C150.304 86.1386 150.445 86.0971 150.571 86.0272C150.703 85.9548 150.813 85.8405 151.035 85.612L153.745 82.8127Z" stroke="#0E0E0E" stroke-width="2" stroke-linecap="round" stroke-linejoin="round"/>
<path d="M149.5 86L145 85L141.5 84L139 87L146.5 90L142.5 93.5H139.5L138.5 95.5L142 98.5L143.5 100.5L145 102L146.5 100.5L147 96.5L150.5 94L153 101L155.5 99.5L156 98L154.5 91.5V89L157.5 86V83.5L156 82L154 83L151.5 85.5L149.5 86Z" fill="#0E0E0E"/>
</g>
<g filter="url(#filter29_d_235_414)">
<rect x="176" y="120" width="56" height="56" rx="12" fill="#F6F6F6" shape-rendering="crispEdges"/>
<path d="M201 142V146.501C201 147.052 201 147.328 200.931 147.583C200.87 147.809 200.77 148.023 200.636 148.214C200.483 148.43 200.272 148.607 199.849 148.96L196.151 152.04C195.728 152.393 195.517 152.57 195.364 152.786C195.23 152.977 195.13 153.191 195.069 153.417C195 153.672 195 153.948 195 154.499V154.8C195 155.92 195 156.48 195.218 156.908C195.41 157.284 195.716 157.59 196.092 157.782C196.52 158 197.08 158 198.2 158H209.8C210.92 158 211.48 158 211.908 157.782C212.284 157.59 212.59 157.284 212.782 156.908C213 156.48 213 155.92 213 154.8V154.499C213 153.948 213 153.672 212.931 153.417C212.87 153.191 212.77 152.977 212.636 152.786C212.483 152.57 212.272 152.393 211.849 152.04L208.151 148.96C207.728 148.607 207.517 148.43 207.364 148.214C207.23 148.023 207.13 147.809 207.069 147.583C207 147.328 207 147.052 207 146.501V142M200.3 142H207.7C207.98 142 208.12 142 208.227 141.946C208.321 141.898 208.398 141.821 208.446 141.727C208.5 141.62 208.5 141.48 208.5 141.2V138.8C208.5 138.52 208.5 138.38 208.446 138.273C208.398 138.179 208.321 138.102 208.227 138.054C208.12 138 207.98 138 207.7 138H200.3C200.02 138 199.88 138 199.773 138.054C199.679 138.102 199.602 138.179 199.554 138.273C199.5 138.38 199.5 138.52 199.5 138.8V141.2C199.5 141.48 199.5 141.62 199.554 141.727C199.602 141.821 199.679 141.898 199.773 141.946C199.88 142 200.02 142 200.3 142ZM197.5 153H210.5C210.965 153 211.197 153 211.39 153.038C212.184 153.196 212.804 153.816 212.962 154.61C213 154.803 213 155.035 213 155.5C213 155.965 213 156.197 212.962 156.39C212.804 157.184 212.184 157.804 211.39 157.962C211.197 158 210.965 158 210.5 158H197.5C197.035 158 196.803 158 196.61 157.962C195.816 157.804 195.196 157.184 195.038 156.39C195 156.197 195 155.965 195 155.5C195 155.035 195 154.803 195.038 154.61C195.196 153.816 195.816 153.196 196.61 153.038C196.803 153 197.035 153 197.5 153Z" stroke="#0E0E0E" stroke-width="2" stroke-linecap="round" stroke-linejoin="round"/>
<path d="M199.423 139L200 138H208.938L208 141.5H199.423V139Z" fill="#0E0E0E"/>
<path d="M207 147.5V142.5H201L200.5 148.5L197 151L195 154L195.5 157.5L211.941 158L213 156L212.5 152.5L207 147.5Z" fill="#0E0E0E"/>
</g>
<rect width="352" height="408" fill="url(#paint0_radial_235_414)"/>
</g>
<defs>
<filter id="filter0_d_235_414" x="-8" y="48" width="88" height="88" filterUnits="userSpaceOnUse" color-interpolation-filters="sRGB">
<feFlood flood-opacity="0" result="BackgroundImageFix"/>
<feColorMatrix in="SourceAlpha" type="matrix" values="0 0 0 0 0 0 0 0 0 0 0 0 0 0 0 0 0 0 127 0" result="hardAlpha"/>
<feOffset/>
<feGaussianBlur stdDeviation="8"/>
<feComposite in2="hardAlpha" operator="out"/>
<feColorMatrix type="matrix" values="0 0 0 0 0 0 0 0 0 0 0 0 0 0 0 0 0 0 0.1 0"/>
<feBlend mode="normal" in2="BackgroundImageFix" result="effect1_dropShadow_235_414"/>
<feBlend mode="normal" in="SourceGraphic" in2="effect1_dropShadow_235_414" result="shape"/>
</filter>
<filter id="filter1_d_235_414" x="-8" y="104" width="88" height="88" filterUnits="userSpaceOnUse" color-interpolation-filters="sRGB">
<feFlood flood-opacity="0" result="BackgroundImageFix"/>
<feColorMatrix in="SourceAlpha" type="matrix" values="0 0 0 0 0 0 0 0 0 0 0 0 0 0 0 0 0 0 127 0" result="hardAlpha"/>
<feOffset/>
<feGaussianBlur stdDeviation="8"/>
<feComposite in2="hardAlpha" operator="out"/>
<feColorMatrix type="matrix" values="0 0 0 0 0 0 0 0 0 0 0 0 0 0 0 0 0 0 0.1 0"/>
<feBlend mode="normal" in2="BackgroundImageFix" result="effect1_dropShadow_235_414"/>
<feBlend mode="normal" in="SourceGraphic" in2="effect1_dropShadow_235_414" result="shape"/>
</filter>
<filter id="filter2_d_235_414" x="-8" y="160" width="88" height="88" filterUnits="userSpaceOnUse" color-interpolation-filters="sRGB">
<feFlood flood-opacity="0" result="BackgroundImageFix"/>
<feColorMatrix in="SourceAlpha" type="matrix" values="0 0 0 0 0 0 0 0 0 0 0 0 0 0 0 0 0 0 127 0" result="hardAlpha"/>
<feOffset/>
<feGaussianBlur stdDeviation="8"/>
<feComposite in2="hardAlpha" operator="out"/>
<feColorMatrix type="matrix" values="0 0 0 0 0 0 0 0 0 0 0 0 0 0 0 0 0 0 0.1 0"/>
<feBlend mode="normal" in2="BackgroundImageFix" result="effect1_dropShadow_235_414"/>
<feBlend mode="normal" in="SourceGraphic" in2="effect1_dropShadow_235_414" result="shape"/>
</filter>
<filter id="filter3_d_235_414" x="-8" y="216" width="88" height="88" filterUnits="userSpaceOnUse" color-interpolation-filters="sRGB">
<feFlood flood-opacity="0" result="BackgroundImageFix"/>
<feColorMatrix in="SourceAlpha" type="matrix" values="0 0 0 0 0 0 0 0 0 0 0 0 0 0 0 0 0 0 127 0" result="hardAlpha"/>
<feOffset/>
<feGaussianBlur stdDeviation="8"/>
<feComposite in2="hardAlpha" operator="out"/>
<feColorMatrix type="matrix" values="0 0 0 0 0 0 0 0 0 0 0 0 0 0 0 0 0 0 0.1 0"/>
<feBlend mode="normal" in2="BackgroundImageFix" result="effect1_dropShadow_235_414"/>
<feBlend mode="normal" in="SourceGraphic" in2="effect1_dropShadow_235_414" result="shape"/>
</filter>
<filter id="filter4_d_235_414" x="-8" y="272" width="88" height="88" filterUnits="userSpaceOnUse" color-interpolation-filters="sRGB">
<feFlood flood-opacity="0" result="BackgroundImageFix"/>
<feColorMatrix in="SourceAlpha" type="matrix" values="0 0 0 0 0 0 0 0 0 0 0 0 0 0 0 0 0 0 127 0" result="hardAlpha"/>
<feOffset/>
<feGaussianBlur stdDeviation="8"/>
<feComposite in2="hardAlpha" operator="out"/>
<feColorMatrix type="matrix" values="0 0 0 0 0 0 0 0 0 0 0 0 0 0 0 0 0 0 0.1 0"/>
<feBlend mode="normal" in2="BackgroundImageFix" result="effect1_dropShadow_235_414"/>
<feBlend mode="normal" in="SourceGraphic" in2="effect1_dropShadow_235_414" result="shape"/>
</filter>
<filter id="filter5_d_235_414" x="48" y="48" width="88" height="88" filterUnits="userSpaceOnUse" color-interpolation-filters="sRGB">
<feFlood flood-opacity="0" result="BackgroundImageFix"/>
<feColorMatrix in="SourceAlpha" type="matrix" values="0 0 0 0 0 0 0 0 0 0 0 0 0 0 0 0 0 0 127 0" result="hardAlpha"/>
<feOffset/>
<feGaussianBlur stdDeviation="8"/>
<feComposite in2="hardAlpha" operator="out"/>
<feColorMatrix type="matrix" values="0 0 0 0 0 0 0 0 0 0 0 0 0 0 0 0 0 0 0.1 0"/>
<feBlend mode="normal" in2="BackgroundImageFix" result="effect1_dropShadow_235_414"/>
<feBlend mode="normal" in="SourceGraphic" in2="effect1_dropShadow_235_414" result="shape"/>
</filter>
<filter id="filter6_d_235_414" x="48" y="104" width="88" height="88" filterUnits="userSpaceOnUse" color-interpolation-filters="sRGB">
<feFlood flood-opacity="0" result="BackgroundImageFix"/>
<feColorMatrix in="SourceAlpha" type="matrix" values="0 0 0 0 0 0 0 0 0 0 0 0 0 0 0 0 0 0 127 0" result="hardAlpha"/>
<feOffset/>
<feGaussianBlur stdDeviation="8"/>
<feComposite in2="hardAlpha" operator="out"/>
<feColorMatrix type="matrix" values="0 0 0 0 0 0 0 0 0 0 0 0 0 0 0 0 0 0 0.1 0"/>
<feBlend mode="normal" in2="BackgroundImageFix" result="effect1_dropShadow_235_414"/>
<feBlend mode="normal" in="SourceGraphic" in2="effect1_dropShadow_235_414" result="shape"/>
</filter>
<filter id="filter7_d_235_414" x="48" y="160" width="88" height="88" filterUnits="userSpaceOnUse" color-interpolation-filters="sRGB">
<feFlood flood-opacity="0" result="BackgroundImageFix"/>
<feColorMatrix in="SourceAlpha" type="matrix" values="0 0 0 0 0 0 0 0 0 0 0 0 0 0 0 0 0 0 127 0" result="hardAlpha"/>
<feOffset/>
<feGaussianBlur stdDeviation="8"/>
<feComposite in2="hardAlpha" operator="out"/>
<feColorMatrix type="matrix" values="0 0 0 0 0 0 0 0 0 0 0 0 0 0 0 0 0 0 0.1 0"/>
<feBlend mode="normal" in2="BackgroundImageFix" result="effect1_dropShadow_235_414"/>
<feBlend mode="normal" in="SourceGraphic" in2="effect1_dropShadow_235_414" result="shape"/>
</filter>
<filter id="filter8_d_235_414" x="48" y="272" width="88" height="88" filterUnits="userSpaceOnUse" color-interpolation-filters="sRGB">
<feFlood flood-opacity="0" result="BackgroundImageFix"/>
<feColorMatrix in="SourceAlpha" type="matrix" values="0 0 0 0 0 0 0 0 0 0 0 0 0 0 0 0 0 0 127 0" result="hardAlpha"/>
<feOffset/>
<feGaussianBlur stdDeviation="8"/>
<feComposite in2="hardAlpha" operator="out"/>
<feColorMatrix type="matrix" values="0 0 0 0 0 0 0 0 0 0 0 0 0 0 0 0 0 0 0.1 0"/>
<feBlend mode="normal" in2="BackgroundImageFix" result="effect1_dropShadow_235_414"/>
<feBlend mode="normal" in="SourceGraphic" in2="effect1_dropShadow_235_414" result="shape"/>
</filter>
<filter id="filter9_d_235_414" x="48" y="216" width="88" height="88" filterUnits="userSpaceOnUse" color-interpolation-filters="sRGB">
<feFlood flood-opacity="0" result="BackgroundImageFix"/>
<feColorMatrix in="SourceAlpha" type="matrix" values="0 0 0 0 0 0 0 0 0 0 0 0 0 0 0 0 0 0 127 0" result="hardAlpha"/>
<feOffset/>
<feGaussianBlur stdDeviation="8"/>
<feComposite in2="hardAlpha" operator="out"/>
<feColorMatrix type="matrix" values="0 0 0 0 0 0 0 0 0 0 0 0 0 0 0 0 0 0 0.1 0"/>
<feBlend mode="normal" in2="BackgroundImageFix" result="effect1_dropShadow_235_414"/>
<feBlend mode="normal" in="SourceGraphic" in2="effect1_dropShadow_235_414" result="shape"/>
</filter>
<filter id="filter10_d_235_414" x="104" y="104" width="88" height="88" filterUnits="userSpaceOnUse" color-interpolation-filters="sRGB">
<feFlood flood-opacity="0" result="BackgroundImageFix"/>
<feColorMatrix in="SourceAlpha" type="matrix" values="0 0 0 0 0 0 0 0 0 0 0 0 0 0 0 0 0 0 127 0" result="hardAlpha"/>
<feOffset/>
<feGaussianBlur stdDeviation="8"/>
<feComposite in2="hardAlpha" operator="out"/>
<feColorMatrix type="matrix" values="0 0 0 0 0 0 0 0 0 0 0 0 0 0 0 0 0 0 0.1 0"/>
<feBlend mode="normal" in2="BackgroundImageFix" result="effect1_dropShadow_235_414"/>
<feBlend mode="normal" in="SourceGraphic" in2="effect1_dropShadow_235_414" result="shape"/>
</filter>
<filter id="filter11_d_235_414" x="104" y="160" width="88" height="88" filterUnits="userSpaceOnUse" color-interpolation-filters="sRGB">
<feFlood flood-opacity="0" result="BackgroundImageFix"/>
<feColorMatrix in="SourceAlpha" type="matrix" values="0 0 0 0 0 0 0 0 0 0 0 0 0 0 0 0 0 0 127 0" result="hardAlpha"/>
<feOffset/>
<feGaussianBlur stdDeviation="8"/>
<feComposite in2="hardAlpha" operator="out"/>
<feColorMatrix type="matrix" values="0 0 0 0 0 0 0 0 0 0 0 0 0 0 0 0 0 0 0.1 0"/>
<feBlend mode="normal" in2="BackgroundImageFix" result="effect1_dropShadow_235_414"/>
<feBlend mode="normal" in="SourceGraphic" in2="effect1_dropShadow_235_414" result="shape"/>
</filter>
<filter id="filter12_d_235_414" x="104" y="216" width="88" height="88" filterUnits="userSpaceOnUse" color-interpolation-filters="sRGB">
<feFlood flood-opacity="0" result="BackgroundImageFix"/>
<feColorMatrix in="SourceAlpha" type="matrix" values="0 0 0 0 0 0 0 0 0 0 0 0 0 0 0 0 0 0 127 0" result="hardAlpha"/>
<feOffset/>
<feGaussianBlur stdDeviation="8"/>
<feComposite in2="hardAlpha" operator="out"/>
<feColorMatrix type="matrix" values="0 0 0 0 0 0 0 0 0 0 0 0 0 0 0 0 0 0 0.1 0"/>
<feBlend mode="normal" in2="BackgroundImageFix" result="effect1_dropShadow_235_414"/>
<feBlend mode="normal" in="SourceGraphic" in2="effect1_dropShadow_235_414" result="shape"/>
</filter>
<filter id="filter13_d_235_414" x="104" y="272" width="88" height="88" filterUnits="userSpaceOnUse" color-interpolation-filters="sRGB">
<feFlood flood-opacity="0" result="BackgroundImageFix"/>
<feColorMatrix in="SourceAlpha" type="matrix" values="0 0 0 0 0 0 0 0 0 0 0 0 0 0 0 0 0 0 127 0" result="hardAlpha"/>
<feOffset/>
<feGaussianBlur stdDeviation="8"/>
<feComposite in2="hardAlpha" operator="out"/>
<feColorMatrix type="matrix" values="0 0 0 0 0 0 0 0 0 0 0 0 0 0 0 0 0 0 0.1 0"/>
<feBlend mode="normal" in2="BackgroundImageFix" result="effect1_dropShadow_235_414"/>
<feBlend mode="normal" in="SourceGraphic" in2="effect1_dropShadow_235_414" result="shape"/>
</filter>
<filter id="filter14_d_235_414" x="160" y="272" width="88" height="88" filterUnits="userSpaceOnUse" color-interpolation-filters="sRGB">
<feFlood flood-opacity="0" result="BackgroundImageFix"/>
<feColorMatrix in="SourceAlpha" type="matrix" values="0 0 0 0 0 0 0 0 0 0 0 0 0 0 0 0 0 0 127 0" result="hardAlpha"/>
<feOffset/>
<feGaussianBlur stdDeviation="8"/>
<feComposite in2="hardAlpha" operator="out"/>
<feColorMatrix type="matrix" values="0 0 0 0 0 0 0 0 0 0 0 0 0 0 0 0 0 0 0.1 0"/>
<feBlend mode="normal" in2="BackgroundImageFix" result="effect1_dropShadow_235_414"/>
<feBlend mode="normal" in="SourceGraphic" in2="effect1_dropShadow_235_414" result="shape"/>
</filter>
<filter id="filter15_d_235_414" x="160" y="48" width="88" height="88" filterUnits="userSpaceOnUse" color-interpolation-filters="sRGB">
<feFlood flood-opacity="0" result="BackgroundImageFix"/>
<feColorMatrix in="SourceAlpha" type="matrix" values="0 0 0 0 0 0 0 0 0 0 0 0 0 0 0 0 0 0 127 0" result="hardAlpha"/>
<feOffset/>
<feGaussianBlur stdDeviation="8"/>
<feComposite in2="hardAlpha" operator="out"/>
<feColorMatrix type="matrix" values="0 0 0 0 0 0 0 0 0 0 0 0 0 0 0 0 0 0 0.1 0"/>
<feBlend mode="normal" in2="BackgroundImageFix" result="effect1_dropShadow_235_414"/>
<feBlend mode="normal" in="SourceGraphic" in2="effect1_dropShadow_235_414" result="shape"/>
</filter>
<filter id="filter16_d_235_414" x="160" y="160" width="88" height="88" filterUnits="userSpaceOnUse" color-interpolation-filters="sRGB">
<feFlood flood-opacity="0" result="BackgroundImageFix"/>
<feColorMatrix in="SourceAlpha" type="matrix" values="0 0 0 0 0 0 0 0 0 0 0 0 0 0 0 0 0 0 127 0" result="hardAlpha"/>
<feOffset/>
<feGaussianBlur stdDeviation="8"/>
<feComposite in2="hardAlpha" operator="out"/>
<feColorMatrix type="matrix" values="0 0 0 0 0 0 0 0 0 0 0 0 0 0 0 0 0 0 0.1 0"/>
<feBlend mode="normal" in2="BackgroundImageFix" result="effect1_dropShadow_235_414"/>
<feBlend mode="normal" in="SourceGraphic" in2="effect1_dropShadow_235_414" result="shape"/>
</filter>
<filter id="filter17_d_235_414" x="160" y="216" width="88" height="88" filterUnits="userSpaceOnUse" color-interpolation-filters="sRGB">
<feFlood flood-opacity="0" result="BackgroundImageFix"/>
<feColorMatrix in="SourceAlpha" type="matrix" values="0 0 0 0 0 0 0 0 0 0 0 0 0 0 0 0 0 0 127 0" result="hardAlpha"/>
<feOffset/>
<feGaussianBlur stdDeviation="8"/>
<feComposite in2="hardAlpha" operator="out"/>
<feColorMatrix type="matrix" values="0 0 0 0 0 0 0 0 0 0 0 0 0 0 0 0 0 0 0.1 0"/>
<feBlend mode="normal" in2="BackgroundImageFix" result="effect1_dropShadow_235_414"/>
<feBlend mode="normal" in="SourceGraphic" in2="effect1_dropShadow_235_414" result="shape"/>
</filter>
<filter id="filter18_d_235_414" x="216" y="48" width="88" height="88" filterUnits="userSpaceOnUse" color-interpolation-filters="sRGB">
<feFlood flood-opacity="0" result="BackgroundImageFix"/>
<feColorMatrix in="SourceAlpha" type="matrix" values="0 0 0 0 0 0 0 0 0 0 0 0 0 0 0 0 0 0 127 0" result="hardAlpha"/>
<feOffset/>
<feGaussianBlur stdDeviation="8"/>
<feComposite in2="hardAlpha" operator="out"/>
<feColorMatrix type="matrix" values="0 0 0 0 0 0 0 0 0 0 0 0 0 0 0 0 0 0 0.1 0"/>
<feBlend mode="normal" in2="BackgroundImageFix" result="effect1_dropShadow_235_414"/>
<feBlend mode="normal" in="SourceGraphic" in2="effect1_dropShadow_235_414" result="shape"/>
</filter>
<filter id="filter19_d_235_414" x="216" y="104" width="88" height="88" filterUnits="userSpaceOnUse" color-interpolation-filters="sRGB">
<feFlood flood-opacity="0" result="BackgroundImageFix"/>
<feColorMatrix in="SourceAlpha" type="matrix" values="0 0 0 0 0 0 0 0 0 0 0 0 0 0 0 0 0 0 127 0" result="hardAlpha"/>
<feOffset/>
<feGaussianBlur stdDeviation="8"/>
<feComposite in2="hardAlpha" operator="out"/>
<feColorMatrix type="matrix" values="0 0 0 0 0 0 0 0 0 0 0 0 0 0 0 0 0 0 0.1 0"/>
<feBlend mode="normal" in2="BackgroundImageFix" result="effect1_dropShadow_235_414"/>
<feBlend mode="normal" in="SourceGraphic" in2="effect1_dropShadow_235_414" result="shape"/>
</filter>
<filter id="filter20_d_235_414" x="216" y="160" width="88" height="88" filterUnits="userSpaceOnUse" color-interpolation-filters="sRGB">
<feFlood flood-opacity="0" result="BackgroundImageFix"/>
<feColorMatrix in="SourceAlpha" type="matrix" values="0 0 0 0 0 0 0 0 0 0 0 0 0 0 0 0 0 0 127 0" result="hardAlpha"/>
<feOffset/>
<feGaussianBlur stdDeviation="8"/>
<feComposite in2="hardAlpha" operator="out"/>
<feColorMatrix type="matrix" values="0 0 0 0 0 0 0 0 0 0 0 0 0 0 0 0 0 0 0.1 0"/>
<feBlend mode="normal" in2="BackgroundImageFix" result="effect1_dropShadow_235_414"/>
<feBlend mode="normal" in="SourceGraphic" in2="effect1_dropShadow_235_414" result="shape"/>
</filter>
<filter id="filter21_d_235_414" x="216" y="216" width="88" height="88" filterUnits="userSpaceOnUse" color-interpolation-filters="sRGB">
<feFlood flood-opacity="0" result="BackgroundImageFix"/>
<feColorMatrix in="SourceAlpha" type="matrix" values="0 0 0 0 0 0 0 0 0 0 0 0 0 0 0 0 0 0 127 0" result="hardAlpha"/>
<feOffset/>
<feGaussianBlur stdDeviation="8"/>
<feComposite in2="hardAlpha" operator="out"/>
<feColorMatrix type="matrix" values="0 0 0 0 0 0 0 0 0 0 0 0 0 0 0 0 0 0 0.1 0"/>
<feBlend mode="normal" in2="BackgroundImageFix" result="effect1_dropShadow_235_414"/>
<feBlend mode="normal" in="SourceGraphic" in2="effect1_dropShadow_235_414" result="shape"/>
</filter>
<filter id="filter22_d_235_414" x="216" y="272" width="88" height="88" filterUnits="userSpaceOnUse" color-interpolation-filters="sRGB">
<feFlood flood-opacity="0" result="BackgroundImageFix"/>
<feColorMatrix in="SourceAlpha" type="matrix" values="0 0 0 0 0 0 0 0 0 0 0 0 0 0 0 0 0 0 127 0" result="hardAlpha"/>
<feOffset/>
<feGaussianBlur stdDeviation="8"/>
<feComposite in2="hardAlpha" operator="out"/>
<feColorMatrix type="matrix" values="0 0 0 0 0 0 0 0 0 0 0 0 0 0 0 0 0 0 0.1 0"/>
<feBlend mode="normal" in2="BackgroundImageFix" result="effect1_dropShadow_235_414"/>
<feBlend mode="normal" in="SourceGraphic" in2="effect1_dropShadow_235_414" result="shape"/>
</filter>
<filter id="filter23_d_235_414" x="272" y="48" width="88" height="88" filterUnits="userSpaceOnUse" color-interpolation-filters="sRGB">
<feFlood flood-opacity="0" result="BackgroundImageFix"/>
<feColorMatrix in="SourceAlpha" type="matrix" values="0 0 0 0 0 0 0 0 0 0 0 0 0 0 0 0 0 0 127 0" result="hardAlpha"/>
<feOffset/>
<feGaussianBlur stdDeviation="8"/>
<feComposite in2="hardAlpha" operator="out"/>
<feColorMatrix type="matrix" values="0 0 0 0 0 0 0 0 0 0 0 0 0 0 0 0 0 0 0.1 0"/>
<feBlend mode="normal" in2="BackgroundImageFix" result="effect1_dropShadow_235_414"/>
<feBlend mode="normal" in="SourceGraphic" in2="effect1_dropShadow_235_414" result="shape"/>
</filter>
<filter id="filter24_d_235_414" x="272" y="104" width="88" height="88" filterUnits="userSpaceOnUse" color-interpolation-filters="sRGB">
<feFlood flood-opacity="0" result="BackgroundImageFix"/>
<feColorMatrix in="SourceAlpha" type="matrix" values="0 0 0 0 0 0 0 0 0 0 0 0 0 0 0 0 0 0 127 0" result="hardAlpha"/>
<feOffset/>
<feGaussianBlur stdDeviation="8"/>
<feComposite in2="hardAlpha" operator="out"/>
<feColorMatrix type="matrix" values="0 0 0 0 0 0 0 0 0 0 0 0 0 0 0 0 0 0 0.1 0"/>
<feBlend mode="normal" in2="BackgroundImageFix" result="effect1_dropShadow_235_414"/>
<feBlend mode="normal" in="SourceGraphic" in2="effect1_dropShadow_235_414" result="shape"/>
</filter>
<filter id="filter25_d_235_414" x="272" y="160" width="88" height="88" filterUnits="userSpaceOnUse" color-interpolation-filters="sRGB">
<feFlood flood-opacity="0" result="BackgroundImageFix"/>
<feColorMatrix in="SourceAlpha" type="matrix" values="0 0 0 0 0 0 0 0 0 0 0 0 0 0 0 0 0 0 127 0" result="hardAlpha"/>
<feOffset/>
<feGaussianBlur stdDeviation="8"/>
<feComposite in2="hardAlpha" operator="out"/>
<feColorMatrix type="matrix" values="0 0 0 0 0 0 0 0 0 0 0 0 0 0 0 0 0 0 0.1 0"/>
<feBlend mode="normal" in2="BackgroundImageFix" result="effect1_dropShadow_235_414"/>
<feBlend mode="normal" in="SourceGraphic" in2="effect1_dropShadow_235_414" result="shape"/>
</filter>
<filter id="filter26_d_235_414" x="272" y="216" width="88" height="88" filterUnits="userSpaceOnUse" color-interpolation-filters="sRGB">
<feFlood flood-opacity="0" result="BackgroundImageFix"/>
<feColorMatrix in="SourceAlpha" type="matrix" values="0 0 0 0 0 0 0 0 0 0 0 0 0 0 0 0 0 0 127 0" result="hardAlpha"/>
<feOffset/>
<feGaussianBlur stdDeviation="8"/>
<feComposite in2="hardAlpha" operator="out"/>
<feColorMatrix type="matrix" values="0 0 0 0 0 0 0 0 0 0 0 0 0 0 0 0 0 0 0.1 0"/>
<feBlend mode="normal" in2="BackgroundImageFix" result="effect1_dropShadow_235_414"/>
<feBlend mode="normal" in="SourceGraphic" in2="effect1_dropShadow_235_414" result="shape"/>
</filter>
<filter id="filter27_d_235_414" x="272" y="272" width="88" height="88" filterUnits="userSpaceOnUse" color-interpolation-filters="sRGB">
<feFlood flood-opacity="0" result="BackgroundImageFix"/>
<feColorMatrix in="SourceAlpha" type="matrix" values="0 0 0 0 0 0 0 0 0 0 0 0 0 0 0 0 0 0 127 0" result="hardAlpha"/>
<feOffset/>
<feGaussianBlur stdDeviation="8"/>
<feComposite in2="hardAlpha" operator="out"/>
<feColorMatrix type="matrix" values="0 0 0 0 0 0 0 0 0 0 0 0 0 0 0 0 0 0 0.1 0"/>
<feBlend mode="normal" in2="BackgroundImageFix" result="effect1_dropShadow_235_414"/>
<feBlend mode="normal" in="SourceGraphic" in2="effect1_dropShadow_235_414" result="shape"/>
</filter>
<filter id="filter28_d_235_414" x="104" y="48" width="88" height="88" filterUnits="userSpaceOnUse" color-interpolation-filters="sRGB">
<feFlood flood-opacity="0" result="BackgroundImageFix"/>
<feColorMatrix in="SourceAlpha" type="matrix" values="0 0 0 0 0 0 0 0 0 0 0 0 0 0 0 0 0 0 127 0" result="hardAlpha"/>
<feOffset/>
<feGaussianBlur stdDeviation="8"/>
<feComposite in2="hardAlpha" operator="out"/>
<feColorMatrix type="matrix" values="0 0 0 0 0 0 0 0 0 0 0 0 0 0 0 0 0 0 0.1 0"/>
<feBlend mode="normal" in2="BackgroundImageFix" result="effect1_dropShadow_235_414"/>
<feBlend mode="normal" in="SourceGraphic" in2="effect1_dropShadow_235_414" result="shape"/>
</filter>
<filter id="filter29_d_235_414" x="160" y="104" width="88" height="88" filterUnits="userSpaceOnUse" color-interpolation-filters="sRGB">
<feFlood flood-opacity="0" result="BackgroundImageFix"/>
<feColorMatrix in="SourceAlpha" type="matrix" values="0 0 0 0 0 0 0 0 0 0 0 0 0 0 0 0 0 0 127 0" result="hardAlpha"/>
<feOffset/>
<feGaussianBlur stdDeviation="8"/>
<feComposite in2="hardAlpha" operator="out"/>
<feColorMatrix type="matrix" values="0 0 0 0 0 0 0 0 0 0 0 0 0 0 0 0 0 0 0.1 0"/>
<feBlend mode="normal" in2="BackgroundImageFix" result="effect1_dropShadow_235_414"/>
<feBlend mode="normal" in="SourceGraphic" in2="effect1_dropShadow_235_414" result="shape"/>
</filter>
<radialGradient id="paint0_radial_235_414" cx="0" cy="0" r="1" gradientUnits="userSpaceOnUse" gradientTransform="translate(176 204) rotate(90) scale(204 176)">
<stop offset="0.679584" stop-color="#F6F6F6" stop-opacity="0"/>
<stop offset="1" stop-color="#F6F6F6"/>
</radialGradient>
<clipPath id="clip0_235_414">
<rect width="352" height="408" rx="24" fill="white"/>
</clipPath>
</defs>
</svg>
