<svg width="352" height="408" viewBox="0 0 352 408" fill="none" xmlns="http://www.w3.org/2000/svg">
<g clip-path="url(#clip0_652_4868)">
<rect width="352" height="408" rx="24" fill="#F6F6F6"/>
<path d="M69 108H79.2957C88.1322 108 95.2957 115.163 95.2957 124V188C95.2957 196.837 102.459 204 111.296 204H125" stroke="#ECECEC"/>
<path d="M69 172H79.2957C88.1322 172 95.2957 179.163 95.2957 188C95.2957 196.837 102.459 204 111.296 204H125" stroke="#ECECEC"/>
<path d="M69 236H79.2957C88.1322 236 95.2957 228.837 95.2957 220C95.2957 211.163 102.459 204 111.296 204H125" stroke="#ECECEC"/>
<path d="M69 300H79.2957C88.1322 300 95.2957 292.837 95.2957 284V220C95.2957 211.163 102.459 204 111.296 204H125" stroke="#ECECEC"/>
<path d="M283 76H272.704C263.868 76 256.704 83.1634 256.704 92V188C256.704 196.837 249.541 204 240.704 204H227" stroke="#ECECEC"/>
<path d="M283 140H272.704C263.868 140 256.704 147.163 256.704 156V188C256.704 196.837 249.541 204 240.704 204H227" stroke="#ECECEC"/>
<path d="M274 204H231.5" stroke="#ECECEC"/>
<path d="M283 268H272.704C263.868 268 256.704 260.837 256.704 252V220C256.704 211.163 249.541 204 240.704 204H227" stroke="#ECECEC"/>
<path d="M283 332H272.704C263.868 332 256.704 324.837 256.704 316V220C256.704 211.163 249.541 204 240.704 204H227" stroke="#ECECEC"/>
<rect x="24" y="80" width="56" height="56" rx="12" fill="#E84C88"/>
<path d="M44 111C44 111 45 110 48 110C51 110 53 112 56 112C59 112 60 111 60 111V100C60 100 59 101 56 101C53 101 51 99 48 99C45 99 44 100 44 100M44 118L44 98" stroke="white" stroke-width="2" stroke-linecap="round" stroke-linejoin="round"/>
<rect x="24" y="144" width="56" height="56" rx="12" fill="white"/>
<path d="M59 181L62 178M62 178L59 175M62 178H56M52 175.5H47.5C46.1044 175.5 45.4067 175.5 44.8389 175.672C43.5605 176.06 42.56 177.06 42.1722 178.339C42 178.907 42 179.604 42 181M54.5 167.5C54.5 169.985 52.4853 172 50 172C47.5147 172 45.5 169.985 45.5 167.5C45.5 165.015 47.5147 163 50 163C52.4853 163 54.5 165.015 54.5 167.5Z" stroke="#B7B7B7" stroke-width="2" stroke-linecap="round" stroke-linejoin="round"/>
<rect x="24" y="208" width="56" height="56" rx="12" fill="white"/>
<path d="M50 232V231M50 236.5V235.5M50 241V240M45.2 228H58.8C59.9201 228 60.4802 228 60.908 228.218C61.2843 228.41 61.5903 228.716 61.782 229.092C62 229.52 62 230.08 62 231.2V232.5C60.067 232.5 58.5 234.067 58.5 236C58.5 237.933 60.067 239.5 62 239.5V240.8C62 241.92 62 242.48 61.782 242.908C61.5903 243.284 61.2843 243.59 60.908 243.782C60.4802 244 59.9201 244 58.8 244H45.2C44.0799 244 43.5198 244 43.092 243.782C42.7157 243.59 42.4097 243.284 42.218 242.908C42 242.48 42 241.92 42 240.8V239.5C43.933 239.5 45.5 237.933 45.5 236C45.5 234.067 43.933 232.5 42 232.5V231.2C42 230.08 42 229.52 42.218 229.092C42.4097 228.716 42.7157 228.41 43.092 228.218C43.5198 228 44.0799 228 45.2 228Z" stroke="#B7B7B7" stroke-width="2" stroke-linecap="round" stroke-linejoin="round"/>
<rect x="24" y="272" width="56" height="56" rx="12" fill="white"/>
<path d="M49 294V298.501C49 299.052 49 299.328 48.9313 299.583C48.8705 299.809 48.7704 300.023 48.6356 300.214C48.4834 300.43 48.2718 300.607 47.8486 300.96L44.1514 304.04C43.7282 304.393 43.5166 304.57 43.3644 304.786C43.2296 304.977 43.1295 305.191 43.0687 305.417C43 305.672 43 305.948 43 306.499V306.8C43 307.92 43 308.48 43.218 308.908C43.4097 309.284 43.7157 309.59 44.092 309.782C44.5198 310 45.0799 310 46.2 310H57.8C58.9201 310 59.4802 310 59.908 309.782C60.2843 309.59 60.5903 309.284 60.782 308.908C61 308.48 61 307.92 61 306.8V306.499C61 305.948 61 305.672 60.9313 305.417C60.8705 305.191 60.7704 304.977 60.6356 304.786C60.4834 304.57 60.2718 304.393 59.8486 304.04L56.1514 300.96C55.7282 300.607 55.5166 300.43 55.3644 300.214C55.2296 300.023 55.1295 299.809 55.0687 299.583C55 299.328 55 299.052 55 298.501V294M48.3 294H55.7C55.98 294 56.12 294 56.227 293.946C56.3211 293.898 56.3976 293.821 56.4455 293.727C56.5 293.62 56.5 293.48 56.5 293.2V290.8C56.5 290.52 56.5 290.38 56.4455 290.273C56.3976 290.179 56.3211 290.102 56.227 290.054C56.12 290 55.98 290 55.7 290H48.3C48.02 290 47.88 290 47.773 290.054C47.6789 290.102 47.6024 290.179 47.5545 290.273C47.5 290.38 47.5 290.52 47.5 290.8V293.2C47.5 293.48 47.5 293.62 47.5545 293.727C47.6024 293.821 47.6789 293.898 47.773 293.946C47.88 294 48.02 294 48.3 294ZM45.5 305H58.5C58.9647 305 59.197 305 59.3902 305.038C60.1836 305.196 60.8038 305.816 60.9616 306.61C61 306.803 61 307.035 61 307.5C61 307.965 61 308.197 60.9616 308.39C60.8038 309.184 60.1836 309.804 59.3902 309.962C59.197 310 58.9647 310 58.5 310H45.5C45.0353 310 44.803 310 44.6098 309.962C43.8164 309.804 43.1962 309.184 43.0384 308.39C43 308.197 43 307.965 43 307.5C43 307.035 43 306.803 43.0384 306.61C43.1962 305.816 43.8164 305.196 44.6098 305.038C44.803 305 45.0353 305 45.5 305Z" stroke="#B7B7B7" stroke-width="2" stroke-linecap="round" stroke-linejoin="round"/>
<rect x="116" y="144" width="120" height="120" rx="20" fill="white"/>
<path d="M199.333 204H194.667M199.333 204C199.333 216.887 188.887 227.333 176 227.333M199.333 204C199.333 191.113 188.887 180.667 176 180.667M192.499 220.499L189.199 217.199M157.333 204H152.667M152.667 204C152.667 216.887 163.113 227.333 176 227.333M152.667 204C152.667 191.113 163.113 180.667 176 180.667M162.801 190.801L159.501 187.501M176 185.333V180.667M189.199 190.801L192.499 187.501M176 227.333V222.667M159.501 220.499L162.801 217.199M176 194.667L185.333 204L176 213.333L166.667 204L176 194.667Z" stroke="#E84C88" stroke-width="4" stroke-linecap="round" stroke-linejoin="round"/>
<g opacity="0.6">
<rect x="116" y="272" width="120" height="120" rx="20" fill="white"/>
<path d="M155.177 321.46L165.183 328.607C165.703 328.978 165.964 329.164 166.236 329.207C166.476 329.245 166.721 329.207 166.938 329.099C167.185 328.975 167.377 328.719 167.761 328.208L169.875 325.389C169.984 325.244 170.038 325.172 170.102 325.109C170.158 325.054 170.221 325.004 170.287 324.961C170.362 324.913 170.445 324.876 170.61 324.803L179.637 320.791C180.011 320.625 180.198 320.542 180.34 320.412C180.464 320.297 180.563 320.156 180.627 319.999C180.701 319.822 180.714 319.618 180.742 319.209L181.402 309.295M179.5 335.5L185.604 338.116C186.312 338.42 186.666 338.571 186.854 338.823C187.018 339.045 187.099 339.317 187.082 339.592C187.063 339.906 186.849 340.226 186.422 340.867L183.554 345.169C183.352 345.473 183.25 345.625 183.116 345.735C182.998 345.832 182.861 345.905 182.715 345.95C182.549 346 182.366 346 182.001 346H177.345C176.862 346 176.62 346 176.414 345.919C176.232 345.848 176.071 345.732 175.946 345.582C175.804 345.412 175.727 345.183 175.575 344.724L173.911 339.734C173.821 339.463 173.776 339.328 173.764 339.19C173.753 339.068 173.762 338.945 173.79 338.826C173.821 338.691 173.885 338.564 174.012 338.309L175.276 335.781C175.533 335.268 175.661 335.011 175.859 334.852C176.033 334.711 176.244 334.624 176.466 334.6C176.719 334.573 176.991 334.664 177.536 334.845L179.5 335.5ZM199.333 332C199.333 344.887 188.887 355.333 176 355.333C163.113 355.333 152.667 344.887 152.667 332C152.667 319.113 163.113 308.667 176 308.667C188.887 308.667 199.333 319.113 199.333 332Z" stroke="#ECECEC" stroke-width="4" stroke-linecap="round" stroke-linejoin="round"/>
</g>
<g opacity="0.6">
<rect x="116" y="400" width="120" height="120" rx="20" fill="white"/>
</g>
<g opacity="0.6">
<rect x="116" y="16" width="120" height="120" rx="20" fill="white"/>
<path d="M199.333 76.0001C199.333 88.8867 188.887 99.3334 176 99.3334M199.333 76.0001C199.333 63.1134 188.887 52.6667 176 52.6667M199.333 76.0001H194.667M176 99.3334C163.113 99.3334 152.667 88.8867 152.667 76.0001M176 99.3334V94.6667M152.667 76.0001C152.667 63.1134 163.113 52.6667 176 52.6667M152.667 76.0001H157.333M176 52.6667V57.3334M192.499 92.4992L189.199 89.1994M162.801 62.8008L159.501 59.5009M189.199 62.8008L192.499 59.5009M159.501 92.4992L162.801 89.1994M166.667 76.0001L172.5 72.5001L176 66.6667L179.5 72.5001L185.333 76.0001L179.5 79.5001L176 85.3334L172.5 79.5001L166.667 76.0001Z" stroke="#ECECEC" stroke-width="4" stroke-linecap="round" stroke-linejoin="round"/>
</g>
<g opacity="0.6">
<rect x="116" y="-112" width="120" height="120" rx="20" fill="white"/>
</g>
<rect x="272" y="48" width="56" height="56" rx="12" fill="white"/>
<path d="M299.5 69H299.934C302.982 69 304.505 69 305.084 69.5473C305.584 70.0204 305.805 70.7173 305.67 71.3922C305.514 72.173 304.27 73.0529 301.782 74.8125L297.718 77.6875C295.23 79.4471 293.986 80.327 293.83 81.1078C293.695 81.7827 293.916 82.4796 294.416 82.9527C294.995 83.5 296.518 83.5 299.566 83.5H300.5M296 69C296 70.6569 294.657 72 293 72C291.343 72 290 70.6569 290 69C290 67.3431 291.343 66 293 66C294.657 66 296 67.3431 296 69ZM310 83C310 84.6569 308.657 86 307 86C305.343 86 304 84.6569 304 83C304 81.3431 305.343 80 307 80C308.657 80 310 81.3431 310 83Z" stroke="#0E0E0E" stroke-width="2" stroke-linecap="round" stroke-linejoin="round"/>
<rect x="272" y="112" width="56" height="56" rx="12" fill="white"/>
<path d="M303 130.458C302.053 130.16 301.045 130 300 130C294.477 130 290 134.477 290 140C290 145.523 294.477 150 300 150C305.523 150 310 145.523 310 140C310 138.285 309.568 136.67 308.807 135.259M305 133.75H305.005M298.5 149.888L298.5 147.685C298.5 147.566 298.543 147.45 298.621 147.36L301.106 144.459C301.311 144.221 301.247 143.856 300.975 143.7L298.119 142.068C298.041 142.023 297.977 141.959 297.932 141.881L296.07 138.619C295.974 138.449 295.787 138.351 295.592 138.368L290.064 138.861M309 134C309 136.209 307 138 305 140C303 138 301 136.209 301 134C301 131.791 302.791 130 305 130C307.209 130 309 131.791 309 134ZM305.25 133.75C305.25 133.888 305.138 134 305 134C304.862 134 304.75 133.888 304.75 133.75C304.75 133.612 304.862 133.5 305 133.5C305.138 133.5 305.25 133.612 305.25 133.75Z" stroke="#0E0E0E" stroke-width="2" stroke-linecap="round" stroke-linejoin="round"/>
<rect x="272" y="176" width="56" height="56" rx="12" fill="white"/>
<path d="M297.5 214H302.5M296 194H304M300 197V194M292 204H308M305 211L306.5 214M295 211L293.5 214M296.5 207.5H296.51M303.5 207.5H303.51M296.8 211H303.2C304.88 211 305.72 211 306.362 210.673C306.926 210.385 307.385 209.926 307.673 209.362C308 208.72 308 207.88 308 206.2V201.8C308 200.12 308 199.28 307.673 198.638C307.385 198.074 306.926 197.615 306.362 197.327C305.72 197 304.88 197 303.2 197H296.8C295.12 197 294.28 197 293.638 197.327C293.074 197.615 292.615 198.074 292.327 198.638C292 199.28 292 200.12 292 201.8V206.2C292 207.88 292 208.72 292.327 209.362C292.615 209.926 293.074 210.385 293.638 210.673C294.28 211 295.12 211 296.8 211ZM297 207.5C297 207.776 296.776 208 296.5 208C296.224 208 296 207.776 296 207.5C296 207.224 296.224 207 296.5 207C296.776 207 297 207.224 297 207.5ZM304 207.5C304 207.776 303.776 208 303.5 208C303.224 208 303 207.776 303 207.5C303 207.224 303.224 207 303.5 207C303.776 207 304 207.224 304 207.5Z" stroke="#0E0E0E" stroke-width="2" stroke-linecap="round" stroke-linejoin="round"/>
<rect x="272" y="240" width="56" height="56" rx="12" fill="white"/>
<path d="M293 266V272.011C293 272.37 293 272.55 293.055 272.708C293.103 272.848 293.182 272.976 293.286 273.082C293.403 273.201 293.563 273.282 293.884 273.442L299.284 276.142C299.547 276.273 299.678 276.339 299.816 276.365C299.937 276.388 300.063 276.388 300.184 276.365C300.322 276.339 300.453 276.273 300.716 276.142L306.116 273.442C306.437 273.282 306.597 273.201 306.714 273.082C306.818 272.976 306.897 272.848 306.945 272.708C307 272.55 307 272.37 307 272.011V266M290 264.5L299.642 259.679C299.773 259.613 299.839 259.581 299.908 259.568C299.969 259.556 300.031 259.556 300.092 259.568C300.161 259.581 300.227 259.613 300.358 259.679L310 264.5L300.358 269.321C300.227 269.387 300.161 269.42 300.092 269.432C300.031 269.444 299.969 269.444 299.908 269.432C299.839 269.42 299.773 269.387 299.642 269.321L290 264.5Z" stroke="#0E0E0E" stroke-width="2" stroke-linecap="round" stroke-linejoin="round"/>
<rect x="272" y="304" width="56" height="56" rx="12" fill="white"/>
<path d="M290.687 335.645L292.595 334.544C292.698 334.484 292.82 334.463 292.937 334.485L296.691 335.188C297 335.246 297.285 335.008 297.283 334.694L297.269 331.404C297.268 331.315 297.292 331.227 297.337 331.15L299.232 327.906C299.33 327.737 299.322 327.527 299.209 327.367L296.019 322.826M307 324.859C301.5 327.5 304.5 331 305.5 331.5C307.377 332.438 309.988 332.5 309.988 332.5C309.996 332.334 310 332.168 310 332C310 326.477 305.523 322 300 322C294.477 322 290 326.477 290 332C290 337.523 294.477 342 300 342C300.168 342 300.334 341.996 300.5 341.988M304.758 341.94L301.591 333.591L309.94 336.758L306.238 338.238L304.758 341.94Z" stroke="#0E0E0E" stroke-width="2" stroke-linecap="round" stroke-linejoin="round"/>
</g>
<defs>
<clipPath id="clip0_652_4868">
<rect width="352" height="408" rx="24" fill="white"/>
</clipPath>
</defs>
</svg>
