<svg width="352" height="408" viewBox="0 0 352 408" fill="none" xmlns="http://www.w3.org/2000/svg">
<g clip-path="url(#clip0_652_5288)">
<rect width="352" height="408" rx="24" fill="#F6F6F6"/>
<circle cx="176" cy="54" r="150" fill="url(#paint0_linear_652_5288)" fill-opacity="0.6"/>
<circle cx="176" cy="354" r="150" fill="url(#paint1_linear_652_5288)" fill-opacity="0.6"/>
<g filter="url(#filter0_d_652_5288)">
<rect x="148" y="176" width="56" height="56" rx="12" fill="white" shape-rendering="crispEdges"/>
<path d="M183.24 197.58H182.84L179.46 194.2C179.19 193.93 178.75 193.93 178.47 194.2C178.2 194.47 178.2 194.91 178.47 195.19L180.86 197.58H171.14L173.53 195.19C173.8 194.92 173.8 194.48 173.53 194.2C173.26 193.93 172.82 193.93 172.54 194.2L169.17 197.58H168.77C167.87 197.58 166 197.58 166 200.14C166 201.11 166.2 201.75 166.62 202.17C166.86 202.42 167.15 202.55 167.46 202.62C167.75 202.69 168.06 202.7 168.36 202.7H183.64C183.95 202.7 184.24 202.68 184.52 202.62C185.36 202.42 186 201.82 186 200.14C186 197.58 184.13 197.58 183.24 197.58Z" fill="#E84C88"/>
<path d="M183.05 204H168.87C168.25 204 167.78 204.55 167.88 205.16L168.72 210.3C169 212.02 169.75 214 173.08 214H178.69C182.06 214 182.66 212.31 183.02 210.42L184.03 205.19C184.15 204.57 183.68 204 183.05 204ZM174.61 210.45C174.61 210.84 174.3 211.15 173.92 211.15C173.53 211.15 173.22 210.84 173.22 210.45V207.15C173.22 206.77 173.53 206.45 173.92 206.45C174.3 206.45 174.61 206.77 174.61 207.15V210.45ZM178.89 210.45C178.89 210.84 178.58 211.15 178.19 211.15C177.81 211.15 177.49 210.84 177.49 210.45V207.15C177.49 206.77 177.81 206.45 178.19 206.45C178.58 206.45 178.89 206.77 178.89 207.15V210.45Z" fill="#E84C88"/>
</g>
<g opacity="0.4">
<rect x="152" y="80" width="48" height="48" rx="10" fill="white"/>
<path d="M180 100.75C179.59 100.75 179.25 100.41 179.25 100V96.5C179.25 95.42 178.58 94.75 177.5 94.75H174.5C173.42 94.75 172.75 95.42 172.75 96.5V100C172.75 100.41 172.41 100.75 172 100.75C171.59 100.75 171.25 100.41 171.25 100V96.5C171.25 94.59 172.59 93.25 174.5 93.25H177.5C179.41 93.25 180.75 94.59 180.75 96.5V100C180.75 100.41 180.41 100.75 180 100.75Z" fill="#B7B7B7"/>
<path d="M172 109.78C171.59 109.78 171.25 109.44 171.25 109.03C171.25 108.61 171.59 108.28 172 108.28H183.76C184.06 108.28 184.29 108.02 184.26 107.72L183.58 102.03C183.34 100.09 183 98.5 179.6 98.5H172.4C169 98.5 168.66 100.09 168.43 102.03L167.53 109.53C167.24 111.99 168 114 171.51 114H180.49C183.65 114 184.58 112.37 184.53 110.25C184.52 109.98 184.3 109.78 184.03 109.78H172Z" fill="#B7B7B7"/>
</g>
<g opacity="0.4">
<rect x="152" y="280" width="48" height="48" rx="10" fill="white"/>
<path d="M183.96 300.96C183.29 300.22 182.28 299.79 180.88 299.64V298.88C180.88 297.51 180.3 296.19 179.28 295.27C178.25 294.33 176.91 293.89 175.52 294.02C173.13 294.25 171.12 296.56 171.12 299.06V299.64C169.72 299.79 168.71 300.22 168.04 300.96C167.07 302.04 167.1 303.48 167.21 304.48L167.91 310.05C168.12 312 168.91 314 173.21 314H178.79C183.09 314 183.88 312 184.09 310.06L184.79 304.47C184.9 303.48 184.93 302.04 183.96 300.96ZM175.66 295.41C176.66 295.32 177.61 295.63 178.35 296.3C179.08 296.96 179.49 297.9 179.49 298.88V299.58H172.51V299.06C172.51 297.28 173.98 295.57 175.66 295.41ZM176 310.58C173.91 310.58 172.21 308.88 172.21 306.79C172.21 304.7 173.91 303 176 303C178.09 303 179.79 304.7 179.79 306.79C179.79 308.88 178.09 310.58 176 310.58Z" fill="#B7B7B7"/>
<path d="M175 308.58C174.75 308.58 174.5 308.45 174.36 308.22C174.15 307.87 174.26 307.4 174.62 307.19L175.51 306.66V305.58C175.51 305.17 175.85 304.83 176.26 304.83C176.67 304.83 177 305.16 177 305.58V307.08C177 307.34 176.86 307.59 176.64 307.72L175.39 308.47C175.27 308.54 175.13 308.58 175 308.58Z" fill="#B7B7B7"/>
</g>
<g opacity="0.4">
<rect x="252" y="180" width="48" height="48" rx="10" fill="white"/>
<path d="M283.96 200.96C283.29 200.22 282.28 199.79 280.88 199.64V198.88C280.88 197.51 280.3 196.19 279.28 195.27C278.25 194.33 276.91 193.89 275.52 194.02C273.13 194.25 271.12 196.56 271.12 199.06V199.64C269.72 199.79 268.71 200.22 268.04 200.96C267.07 202.04 267.1 203.48 267.21 204.48L267.91 210.05C268.12 212 268.91 214 273.21 214H278.79C283.09 214 283.88 212 284.09 210.06L284.79 204.47C284.9 203.48 284.93 202.04 283.96 200.96ZM275.66 195.41C276.66 195.32 277.61 195.63 278.35 196.3C279.08 196.96 279.49 197.9 279.49 198.88V199.58H272.51V199.06C272.51 197.28 273.98 195.57 275.66 195.41ZM276 210.58C273.91 210.58 272.21 208.88 272.21 206.79C272.21 204.7 273.91 203 276 203C278.09 203 279.79 204.7 279.79 206.79C279.79 208.88 278.09 210.58 276 210.58Z" fill="#B7B7B7"/>
<path d="M277.6 207.31L277.07 206.78L277.57 206.28C277.86 205.99 277.86 205.51 277.57 205.22C277.28 204.93 276.8 204.93 276.51 205.22L276.01 205.72L275.48 205.19C275.19 204.9 274.71 204.9 274.42 205.19C274.13 205.48 274.13 205.96 274.42 206.25L274.95 206.78L274.4 207.33C274.11 207.62 274.11 208.1 274.4 208.39C274.55 208.54 274.74 208.61 274.93 208.61C275.12 208.61 275.31 208.54 275.46 208.39L276.01 207.84L276.54 208.37C276.69 208.52 276.88 208.59 277.07 208.59C277.26 208.59 277.45 208.52 277.6 208.37C277.89 208.08 277.89 207.61 277.6 207.31Z" fill="#B7B7B7"/>
</g>
<g opacity="0.4">
<rect x="232" y="100" width="48" height="48" rx="10" fill="white"/>
<path d="M263.96 120.96C263.29 120.22 262.28 119.79 260.88 119.64V118.88C260.88 117.51 260.3 116.19 259.28 115.27C258.25 114.33 256.91 113.89 255.52 114.02C253.13 114.25 251.12 116.56 251.12 119.06V119.64C249.72 119.79 248.71 120.22 248.04 120.96C247.07 122.04 247.1 123.48 247.21 124.48L247.91 130.05C248.12 132 248.91 134 253.21 134H258.79C263.09 134 263.88 132 264.09 130.06L264.79 124.47C264.9 123.48 264.92 122.04 263.96 120.96ZM255.66 115.41C256.66 115.32 257.61 115.63 258.35 116.3C259.08 116.96 259.49 117.9 259.49 118.88V119.58H252.51V119.06C252.51 117.28 253.98 115.57 255.66 115.41ZM252.42 125.15H252.41C251.86 125.15 251.41 124.7 251.41 124.15C251.41 123.6 251.86 123.15 252.41 123.15C252.97 123.15 253.42 123.6 253.42 124.15C253.42 124.7 252.97 125.15 252.42 125.15ZM259.42 125.15H259.41C258.86 125.15 258.41 124.7 258.41 124.15C258.41 123.6 258.86 123.15 259.41 123.15C259.97 123.15 260.42 123.6 260.42 124.15C260.42 124.7 259.97 125.15 259.42 125.15Z" fill="#B7B7B7"/>
</g>
<g opacity="0.4">
<rect x="72" y="100" width="48" height="48" rx="10" fill="white"/>
<path d="M103.24 117.58H102.84L99.46 114.2C99.19 113.93 98.75 113.93 98.47 114.2C98.2 114.47 98.2 114.91 98.47 115.19L100.86 117.58H91.14L93.53 115.19C93.8 114.92 93.8 114.48 93.53 114.2C93.26 113.93 92.82 113.93 92.54 114.2L89.17 117.58H88.77C87.87 117.58 86 117.58 86 120.14C86 121.11 86.2 121.75 86.62 122.17C86.86 122.42 87.15 122.55 87.46 122.62C87.75 122.69 88.06 122.7 88.36 122.7H103.64C103.95 122.7 104.24 122.68 104.52 122.62C105.36 122.42 106 121.82 106 120.14C106 117.58 104.13 117.58 103.24 117.58Z" fill="#B7B7B7"/>
<path d="M103.09 124H88.91C88.29 124 87.82 124.55 87.92 125.16L88.76 130.3C89.04 132.02 89.79 134 93.12 134H98.73C102.1 134 102.7 132.31 103.06 130.42L104.07 125.19C104.19 124.57 103.72 124 103.09 124ZM97.92 130.89C97.78 131.04 97.59 131.11 97.39 131.11C97.2 131.11 97.01 131.04 96.86 130.89L96.02 130.04L95.14 130.92C94.99 131.07 94.8 131.14 94.61 131.14C94.41 131.14 94.22 131.07 94.08 130.92C93.78 130.63 93.78 130.16 94.08 129.86L94.96 128.98L94.11 128.14C93.81 127.84 93.81 127.37 94.11 127.08C94.4 126.78 94.87 126.78 95.17 127.08L96.02 127.92L96.83 127.11C97.13 126.81 97.6 126.81 97.89 127.11C98.19 127.4 98.19 127.87 97.89 128.17L97.08 128.98L97.92 129.83C98.22 130.13 98.22 130.6 97.92 130.89Z" fill="#B7B7B7"/>
</g>
<g opacity="0.4">
<rect x="72" y="260" width="48" height="48" rx="10" fill="white"/>
<path d="M103.24 277.58H102.84L99.46 274.2C99.19 273.93 98.75 273.93 98.47 274.2C98.2 274.47 98.2 274.91 98.47 275.19L100.86 277.58H91.14L93.53 275.19C93.8 274.92 93.8 274.48 93.53 274.2C93.26 273.93 92.82 273.93 92.54 274.2L89.17 277.58H88.77C87.87 277.58 86 277.58 86 280.14C86 281.11 86.2 281.75 86.62 282.17C86.86 282.42 87.15 282.55 87.46 282.62C87.75 282.69 88.06 282.7 88.36 282.7H103.64C103.95 282.7 104.24 282.68 104.52 282.62C105.36 282.42 106 281.82 106 280.14C106 277.58 104.13 277.58 103.24 277.58Z" fill="#B7B7B7"/>
<path d="M103.09 284H88.91C88.29 284 87.82 284.55 87.92 285.16L88.76 290.3C89.04 292.02 89.79 294 93.12 294H98.73C102.1 294 102.7 292.31 103.06 290.42L104.07 285.19C104.19 284.57 103.72 284 103.09 284ZM98.88 288.05L95.63 291.05C95.49 291.18 95.31 291.25 95.12 291.25C94.93 291.25 94.74 291.18 94.59 291.03L93.09 289.53C92.8 289.24 92.8 288.76 93.09 288.47C93.39 288.18 93.86 288.18 94.16 288.47L95.15 289.46L97.87 286.95C98.17 286.67 98.65 286.69 98.93 286.99C99.21 287.3 99.19 287.77 98.88 288.05Z" fill="#B7B7B7"/>
</g>
<g opacity="0.4">
<rect x="232" y="260" width="48" height="48" rx="10" fill="white"/>
<path d="M263.96 280.96C263.29 280.22 262.28 279.79 260.88 279.64V278.88C260.88 277.51 260.3 276.19 259.28 275.27C258.25 274.33 256.91 273.89 255.52 274.02C253.13 274.25 251.12 276.56 251.12 279.06V279.64C249.72 279.79 248.71 280.22 248.04 280.96C247.07 282.04 247.1 283.48 247.21 284.48L247.91 290.05C248.12 292 248.91 294 253.21 294H258.79C263.09 294 263.88 292 264.09 290.06L264.79 284.47C264.9 283.48 264.93 282.04 263.96 280.96ZM255.66 275.41C256.66 275.32 257.61 275.63 258.35 276.3C259.08 276.96 259.49 277.9 259.49 278.88V279.58H252.51V279.06C252.51 277.28 253.98 275.57 255.66 275.41ZM256 290.58C253.91 290.58 252.21 288.88 252.21 286.79C252.21 284.7 253.91 283 256 283C258.09 283 259.79 284.7 259.79 286.79C259.79 288.88 258.09 290.58 256 290.58Z" fill="#B7B7B7"/>
<path d="M255.43 288.64C255.24 288.64 255.05 288.57 254.9 288.42L253.91 287.43C253.62 287.14 253.62 286.66 253.91 286.37C254.2 286.08 254.68 286.08 254.97 286.37L255.45 286.85L257.05 285.37C257.35 285.09 257.83 285.11 258.11 285.41C258.39 285.71 258.37 286.19 258.07 286.47L255.94 288.44C255.79 288.57 255.61 288.64 255.43 288.64Z" fill="#B7B7B7"/>
</g>
<g opacity="0.4">
<rect x="52" y="180" width="48" height="48" rx="10" fill="white"/>
<path d="M83.24 197.58H82.84L79.46 194.2C79.19 193.93 78.75 193.93 78.47 194.2C78.2 194.47 78.2 194.91 78.47 195.19L80.86 197.58H71.14L73.53 195.19C73.8 194.92 73.8 194.48 73.53 194.2C73.26 193.93 72.82 193.93 72.54 194.2L69.17 197.58H68.77C67.87 197.58 66 197.58 66 200.14C66 201.11 66.2 201.75 66.62 202.17C66.86 202.42 67.15 202.55 67.46 202.62C67.75 202.69 68.06 202.7 68.36 202.7H83.64C83.95 202.7 84.24 202.68 84.52 202.62C85.36 202.42 86 201.82 86 200.14C86 197.58 84.13 197.58 83.24 197.58Z" fill="#B7B7B7"/>
<path d="M83.05 204H68.87C68.25 204 67.78 204.55 67.88 205.16L68.72 210.3C69 212.02 69.75 214 73.08 214H78.69C82.06 214 82.66 212.31 83.02 210.42L84.03 205.19C84.15 204.57 83.68 204 83.05 204ZM76 211.5C73.66 211.5 71.75 209.59 71.75 207.25C71.75 206.84 72.09 206.5 72.5 206.5C72.91 206.5 73.25 206.84 73.25 207.25C73.25 208.77 74.48 210 76 210C77.52 210 78.75 208.77 78.75 207.25C78.75 206.84 79.09 206.5 79.5 206.5C79.91 206.5 80.25 206.84 80.25 207.25C80.25 209.59 78.34 211.5 76 211.5Z" fill="#B7B7B7"/>
</g>
<rect width="352" height="408" fill="url(#paint2_radial_652_5288)"/>
</g>
<defs>
<filter id="filter0_d_652_5288" x="132" y="160" width="88" height="88" filterUnits="userSpaceOnUse" color-interpolation-filters="sRGB">
<feFlood flood-opacity="0" result="BackgroundImageFix"/>
<feColorMatrix in="SourceAlpha" type="matrix" values="0 0 0 0 0 0 0 0 0 0 0 0 0 0 0 0 0 0 127 0" result="hardAlpha"/>
<feOffset/>
<feGaussianBlur stdDeviation="8"/>
<feComposite in2="hardAlpha" operator="out"/>
<feColorMatrix type="matrix" values="0 0 0 0 0 0 0 0 0 0 0 0 0 0 0 0 0 0 0.1 0"/>
<feBlend mode="normal" in2="BackgroundImageFix" result="effect1_dropShadow_652_5288"/>
<feBlend mode="normal" in="SourceGraphic" in2="effect1_dropShadow_652_5288" result="shape"/>
</filter>
<linearGradient id="paint0_linear_652_5288" x1="176" y1="127" x2="176" y2="204" gradientUnits="userSpaceOnUse">
<stop stop-color="#F6F6F6"/>
<stop offset="1" stop-color="#ECECEC"/>
</linearGradient>
<linearGradient id="paint1_linear_652_5288" x1="176" y1="310.5" x2="176" y2="204" gradientUnits="userSpaceOnUse">
<stop stop-color="#F6F6F6"/>
<stop offset="1" stop-color="#ECECEC"/>
</linearGradient>
<radialGradient id="paint2_radial_652_5288" cx="0" cy="0" r="1" gradientUnits="userSpaceOnUse" gradientTransform="translate(176 204) rotate(90) scale(204 176)">
<stop offset="0.679584" stop-color="#F6F6F6" stop-opacity="0"/>
<stop offset="1" stop-color="#F6F6F6"/>
</radialGradient>
<clipPath id="clip0_652_5288">
<rect width="352" height="408" rx="24" fill="white"/>
</clipPath>
</defs>
</svg>
