<svg width="352" height="408" viewBox="0 0 352 408" fill="none" xmlns="http://www.w3.org/2000/svg">
<g clip-path="url(#clip0_185_15818)">
<rect width="352" height="408" rx="24" fill="#F6F6F6"/>
<g opacity="0.08" filter="url(#filter0_d_185_15818)">
<rect x="8" y="8" width="56" height="56" rx="12" fill="#F6F6F6" shape-rendering="crispEdges"/>
<path d="M32.5 43V45.2C32.5 45.48 32.5 45.62 32.4455 45.727C32.3976 45.8211 32.3211 45.8976 32.227 45.9455C32.12 46 31.98 46 31.7 46H29.8C29.52 46 29.38 46 29.273 45.9455C29.1789 45.8976 29.1024 45.8211 29.0545 45.727C29 45.62 29 45.48 29 45.2V43M43 43V45.2C43 45.48 43 45.62 42.9455 45.727C42.8976 45.8211 42.8211 45.8976 42.727 45.9455C42.62 46 42.48 46 42.2 46H40.3C40.02 46 39.88 46 39.773 45.9455C39.6789 45.8976 39.6024 45.8211 39.5545 45.727C39.5 45.62 39.5 45.48 39.5 45.2V43M27 36H45M27 29.5H45M30.5 39.5H32M40 39.5H41.5M31.8 43H40.2C41.8802 43 42.7202 43 43.362 42.673C43.9265 42.3854 44.3854 41.9265 44.673 41.362C45 40.7202 45 39.8802 45 38.2V30.8C45 29.1198 45 28.2798 44.673 27.638C44.3854 27.0735 43.9265 26.6146 43.362 26.327C42.7202 26 41.8802 26 40.2 26H31.8C30.1198 26 29.2798 26 28.638 26.327C28.0735 26.6146 27.6146 27.0735 27.327 27.638C27 28.2798 27 29.1198 27 30.8V38.2C27 39.8802 27 40.7202 27.327 41.362C27.6146 41.9265 28.0735 42.3854 28.638 42.673C29.2798 43 30.1198 43 31.8 43Z" stroke="black" stroke-width="2" stroke-linecap="round" stroke-linejoin="round"/>
</g>
<g opacity="0.08" filter="url(#filter1_d_185_15818)">
<rect x="8" y="64" width="56" height="56" rx="12" fill="#F6F6F6" shape-rendering="crispEdges"/>
<path d="M36 92.5C37.6569 92.5 39 91.1569 39 89.5C39 87.8431 37.6569 86.5 36 86.5C34.3431 86.5 33 87.8431 33 89.5C33 91.1569 34.3431 92.5 36 92.5Z" stroke="black" stroke-width="2" stroke-linecap="round" stroke-linejoin="round"/>
<path d="M36 102C38 98 44 95.4183 44 90C44 85.5817 40.4183 82 36 82C31.5817 82 28 85.5817 28 90C28 95.4183 34 98 36 102Z" stroke="black" stroke-width="2" stroke-linecap="round" stroke-linejoin="round"/>
</g>
<g opacity="0.08" filter="url(#filter2_d_185_15818)">
<rect x="8" y="120" width="56" height="56" rx="12" fill="#F6F6F6" shape-rendering="crispEdges"/>
<path d="M46 148C46 153.523 41.5228 158 36 158M46 148C46 142.477 41.5228 138 36 138M46 148H44M36 158C30.4772 158 26 153.523 26 148M36 158V156M26 148C26 142.477 30.4772 138 36 138M26 148H28M36 138V140M43.0711 155.071L41.6569 153.657M30.3431 142.343L28.9289 140.929M41.6569 142.343L43.0711 140.929M28.9289 155.071L30.3431 153.657M32 148L34.5 146.5L36 144L37.5 146.5L40 148L37.5 149.5L36 152L34.5 149.5L32 148Z" stroke="black" stroke-width="2" stroke-linecap="round" stroke-linejoin="round"/>
</g>
<g opacity="0.08" filter="url(#filter3_d_185_15818)">
<rect x="8" y="176" width="56" height="56" rx="12" fill="#F6F6F6" shape-rendering="crispEdges"/>
<path d="M40 205.374C43.5318 206.069 46 207.655 46 209.5C46 211.985 41.5228 214 36 214C30.4772 214 26 211.985 26 209.5C26 207.655 28.4682 206.069 32 205.374M36 209V195L41.3177 198.272C41.7056 198.511 41.8995 198.63 41.9614 198.781C42.0154 198.912 42.0111 199.06 41.9497 199.188C41.8792 199.334 41.6787 199.442 41.2777 199.658L36 202.5" stroke="black" stroke-width="2" stroke-linecap="round" stroke-linejoin="round"/>
</g>
<g opacity="0.08" filter="url(#filter4_d_185_15818)">
<rect x="8" y="232" width="56" height="56" rx="12" fill="#F6F6F6" shape-rendering="crispEdges"/>
<path d="M28 263C28 263 29 262 32 262C35 262 37 264 40 264C43 264 44 263 44 263V251C44 251 43 252 40 252C37 252 35 250 32 250C29 250 28 251 28 251L28 270" stroke="black" stroke-width="2" stroke-linecap="round" stroke-linejoin="round"/>
</g>
<g opacity="0.08" filter="url(#filter5_d_185_15818)">
<rect x="8" y="288" width="56" height="56" rx="12" fill="#F6F6F6" shape-rendering="crispEdges"/>
<path d="M35 308H31.8C30.1198 308 29.2798 308 28.638 308.327C28.0735 308.615 27.6146 309.074 27.327 309.638C27 310.28 27 311.12 27 312.8V318C27 318.93 27 319.395 27.1022 319.776C27.3796 320.812 28.1883 321.62 29.2235 321.898C29.605 322 30.07 322 31 322V324.336C31 324.868 31 325.135 31.1092 325.272C31.2042 325.391 31.3483 325.46 31.5005 325.46C31.6756 325.459 31.8837 325.293 32.2998 324.96L34.6852 323.052C35.1725 322.662 35.4162 322.467 35.6875 322.328C35.9282 322.205 36.1844 322.116 36.4492 322.061C36.7477 322 37.0597 322 37.6837 322H39.2C40.8802 322 41.7202 322 42.362 321.673C42.9265 321.385 43.3854 320.926 43.673 320.362C44 319.72 44 318.88 44 317.2V317M44.1213 307.879C45.2929 309.05 45.2929 310.95 44.1213 312.121C42.9497 313.293 41.0503 313.293 39.8787 312.121C38.7071 310.95 38.7071 309.05 39.8787 307.879C41.0503 306.707 42.9497 306.707 44.1213 307.879Z" stroke="black" stroke-width="2" stroke-linecap="round" stroke-linejoin="round"/>
</g>
<g opacity="0.08" filter="url(#filter6_d_185_15818)">
<rect x="8" y="344" width="56" height="56" rx="12" fill="#F6F6F6" shape-rendering="crispEdges"/>
<path d="M43 369L46 366M46 366L43 363M46 366L40 366M40 381V379.8C40 378.12 40 377.28 39.673 376.638C39.3854 376.074 38.9265 375.615 38.362 375.327C37.7202 375 36.8802 375 35.2 375H30.8C29.1198 375 28.2798 375 27.638 375.327C27.0735 375.615 26.6146 376.074 26.327 376.638C26 377.28 26 378.12 26 379.8V381M36.5 367.5C36.5 369.433 34.933 371 33 371C31.067 371 29.5 369.433 29.5 367.5C29.5 365.567 31.067 364 33 364C34.933 364 36.5 365.567 36.5 367.5Z" stroke="black" stroke-width="2" stroke-linecap="round" stroke-linejoin="round"/>
</g>
<g opacity="0.08" filter="url(#filter7_d_185_15818)">
<rect x="64" y="8" width="56" height="56" rx="12" fill="#F6F6F6" shape-rendering="crispEdges"/>
<path d="M82 36H102M82 36C82 41.5228 86.4772 46 92 46M82 36C82 30.4772 86.4772 26 92 26M102 36C102 41.5228 97.5228 46 92 46M102 36C102 30.4772 97.5228 26 92 26M92 26C94.5013 28.7384 95.9228 32.292 96 36C95.9228 39.708 94.5013 43.2616 92 46M92 26C89.4987 28.7384 88.0772 32.292 88 36C88.0772 39.708 89.4987 43.2616 92 46" stroke="black" stroke-width="2" stroke-linecap="round" stroke-linejoin="round"/>
</g>
<g opacity="0.08" filter="url(#filter8_d_185_15818)">
<rect x="64" y="64" width="56" height="56" rx="12" fill="#F6F6F6" shape-rendering="crispEdges"/>
<path d="M92 95L89 92M92 95C93.3968 94.4687 94.7369 93.7987 96 93M92 95V100C92 100 95.03 99.45 96 98C97.08 96.38 96 93 96 93M89 92C89.5321 90.6194 90.2022 89.2961 91 88.05C92.1652 86.187 93.7876 84.6531 95.713 83.5941C97.6384 82.5351 99.8027 81.9864 102 82C102 84.72 101.22 89.5 96 93M89 92H84C84 92 84.55 88.97 86 88C87.62 86.92 91 88 91 88M84.5 96.5C83 97.76 82.5 101.5 82.5 101.5C82.5 101.5 86.24 101 87.5 99.5C88.21 98.66 88.2 97.37 87.41 96.59C87.0213 96.219 86.5093 96.0046 85.9722 95.988C85.4352 95.9714 84.9109 96.1537 84.5 96.5Z" stroke="black" stroke-width="2" stroke-linecap="round" stroke-linejoin="round"/>
</g>
<g opacity="0.08" filter="url(#filter9_d_185_15818)">
<rect x="64" y="120" width="56" height="56" rx="12" fill="#F6F6F6" shape-rendering="crispEdges"/>
<path d="M83.076 143.483L87.364 146.546C87.5872 146.705 87.6987 146.785 87.8155 146.803C87.9182 146.819 88.0234 146.803 88.1165 146.756C88.2222 146.704 88.3045 146.594 88.469 146.375L89.3751 145.167C89.4216 145.104 89.4449 145.073 89.4722 145.047C89.4965 145.023 89.5232 145.002 89.5517 144.983C89.5839 144.963 89.6193 144.947 89.6902 144.915L93.5588 143.196C93.7192 143.125 93.7993 143.089 93.8598 143.034C93.9133 142.984 93.9554 142.924 93.9832 142.857C94.0146 142.781 94.0204 142.693 94.0321 142.518L94.3154 138.269M93.5 149.5L96.116 150.621C96.4195 150.751 96.5713 150.816 96.6517 150.924C96.7222 151.019 96.7569 151.136 96.7496 151.254C96.7413 151.388 96.6497 151.525 96.4665 151.8L95.2375 153.644C95.1507 153.774 95.1072 153.839 95.0499 153.886C94.9991 153.928 94.9406 153.959 94.8777 153.978C94.8067 154 94.7284 154 94.5719 154H92.5766C92.3693 154 92.2656 154 92.1774 153.965C92.0995 153.935 92.0305 153.885 91.9768 153.821C91.916 153.748 91.8832 153.65 91.8177 153.453L91.1048 151.314C91.0661 151.198 91.0468 151.14 91.0417 151.081C91.0372 151.029 91.0409 150.976 91.0528 150.925C91.0662 150.868 91.0935 150.813 91.1482 150.704L91.6897 149.621C91.7997 149.401 91.8547 149.291 91.9395 149.222C92.0141 149.162 92.1046 149.125 92.1999 149.114C92.3081 149.103 92.4248 149.142 92.6582 149.219L93.5 149.5ZM102 148C102 153.523 97.5228 158 92 158C86.4772 158 82 153.523 82 148C82 142.477 86.4772 138 92 138C97.5228 138 102 142.477 102 148Z" stroke="black" stroke-width="2" stroke-linecap="round" stroke-linejoin="round"/>
</g>
<g opacity="0.08" filter="url(#filter10_d_185_15818)">
<rect x="64" y="176" width="56" height="56" rx="12" fill="#F6F6F6" shape-rendering="crispEdges"/>
<path d="M88 200V199M88 204.5V203.5M88 209V208M86.8 212H97.2C98.8802 212 99.7202 212 100.362 211.673C100.926 211.385 101.385 210.926 101.673 210.362C102 209.72 102 208.88 102 207.2V200.8C102 199.12 102 198.28 101.673 197.638C101.385 197.074 100.926 196.615 100.362 196.327C99.7202 196 98.8802 196 97.2 196H86.8C85.1198 196 84.2798 196 83.638 196.327C83.0735 196.615 82.6146 197.074 82.327 197.638C82 198.28 82 199.12 82 200.8V207.2C82 208.88 82 209.72 82.327 210.362C82.6146 210.926 83.0735 211.385 83.638 211.673C84.2798 212 85.1198 212 86.8 212Z" stroke="black" stroke-width="2" stroke-linecap="round" stroke-linejoin="round"/>
</g>
<g opacity="0.08" filter="url(#filter11_d_185_15818)">
<rect x="64" y="288" width="56" height="56" rx="12" fill="#F6F6F6" shape-rendering="crispEdges"/>
<path d="M91 308H87.8C86.1198 308 85.2798 308 84.638 308.327C84.0735 308.615 83.6146 309.074 83.327 309.638C83 310.28 83 311.12 83 312.8V320.2C83 321.88 83 322.72 83.327 323.362C83.6146 323.926 84.0735 324.385 84.638 324.673C85.2798 325 86.1198 325 87.8 325H95.2C96.8802 325 97.7202 325 98.362 324.673C98.9265 324.385 99.3854 323.926 99.673 323.362C100 322.72 100 321.88 100 320.2V317M93 321H87M95 317H87M100.121 307.879C101.293 309.05 101.293 310.95 100.121 312.121C98.9497 313.293 97.0503 313.293 95.8787 312.121C94.7071 310.95 94.7071 309.05 95.8787 307.879C97.0503 306.707 98.9497 306.707 100.121 307.879Z" stroke="black" stroke-width="2" stroke-linecap="round" stroke-linejoin="round"/>
</g>
<g opacity="0.08" filter="url(#filter12_d_185_15818)">
<rect x="120" y="8" width="56" height="56" rx="12" fill="#F6F6F6" shape-rendering="crispEdges"/>
<path d="M148 37C149.657 37 151 35.6569 151 34C151 32.3431 149.657 31 148 31C146.343 31 145 32.3431 145 34C145 35.6569 146.343 37 148 37Z" stroke="black" stroke-width="2" stroke-linecap="round" stroke-linejoin="round"/>
<path d="M148 46C152 42 156 38.4183 156 34C156 29.5817 152.418 26 148 26C143.582 26 140 29.5817 140 34C140 38.4183 144 42 148 46Z" stroke="black" stroke-width="2" stroke-linecap="round" stroke-linejoin="round"/>
</g>
<g opacity="0.08" filter="url(#filter13_d_185_15818)">
<rect x="120" y="120" width="56" height="56" rx="12" fill="#F6F6F6" shape-rendering="crispEdges"/>
<path d="M141 150.286C139.149 151.103 138 152.241 138 153.5C138 155.985 142.477 158 148 158C153.523 158 158 155.985 158 153.5C158 152.241 156.851 151.103 155 150.286M154 144C154 148.064 149.5 150 148 153C146.5 150 142 148.064 142 144C142 140.686 144.686 138 148 138C151.314 138 154 140.686 154 144ZM149 144C149 144.552 148.552 145 148 145C147.448 145 147 144.552 147 144C147 143.448 147.448 143 148 143C148.552 143 149 143.448 149 144Z" stroke="black" stroke-width="2" stroke-linecap="round" stroke-linejoin="round"/>
</g>
<g opacity="0.08" filter="url(#filter14_d_185_15818)">
<rect x="120" y="176" width="56" height="56" rx="12" fill="#F6F6F6" shape-rendering="crispEdges"/>
<path d="M148 214C153.523 214 158 209.523 158 204C158 198.477 153.523 194 148 194C142.477 194 138 198.477 138 204C138 209.523 142.477 214 148 214Z" stroke="black" stroke-width="2" stroke-linecap="round" stroke-linejoin="round"/>
<path d="M150.722 200.266C151.211 200.103 151.455 200.022 151.617 200.08C151.759 200.13 151.87 200.241 151.92 200.383C151.978 200.545 151.897 200.789 151.734 201.278L150.246 205.741C150.2 205.88 150.177 205.949 150.137 206.007C150.102 206.058 150.058 206.102 150.007 206.137C149.949 206.177 149.88 206.2 149.741 206.246L145.278 207.734C144.789 207.897 144.545 207.978 144.383 207.92C144.241 207.87 144.13 207.759 144.08 207.617C144.022 207.455 144.103 207.211 144.266 206.722L145.754 202.259C145.8 202.12 145.823 202.051 145.863 201.993C145.898 201.942 145.942 201.898 145.993 201.863C146.051 201.823 146.12 201.8 146.259 201.754L150.722 200.266Z" stroke="black" stroke-width="2" stroke-linecap="round" stroke-linejoin="round"/>
</g>
<g opacity="0.08" filter="url(#filter15_d_185_15818)">
<rect x="120" y="232" width="56" height="56" rx="12" fill="#F6F6F6" shape-rendering="crispEdges"/>
<path d="M144 270V268M145.5 263V255M152 270V268M150.5 263V255M144.8 268H151.2C152.88 268 153.72 268 154.362 267.673C154.926 267.385 155.385 266.926 155.673 266.362C156 265.72 156 264.88 156 263.2V254.8C156 253.12 156 252.28 155.673 251.638C155.385 251.074 154.926 250.615 154.362 250.327C153.72 250 152.88 250 151.2 250H144.8C143.12 250 142.28 250 141.638 250.327C141.074 250.615 140.615 251.074 140.327 251.638C140 252.28 140 253.12 140 254.8V263.2C140 264.88 140 265.72 140.327 266.362C140.615 266.926 141.074 267.385 141.638 267.673C142.28 268 143.12 268 144.8 268Z" stroke="black" stroke-width="2" stroke-linecap="round" stroke-linejoin="round"/>
</g>
<g opacity="0.08" filter="url(#filter16_d_185_15818)">
<rect x="120" y="288" width="56" height="56" rx="12" fill="#F6F6F6" shape-rendering="crispEdges"/>
<path d="M153 306V317M158 313.8V309.2C158 308.08 158 307.52 157.782 307.092C157.59 306.716 157.284 306.41 156.908 306.218C156.48 306 155.92 306 154.8 306H144.118C142.657 306 141.926 306 141.336 306.267C140.815 306.503 140.373 306.882 140.061 307.361C139.707 307.903 139.596 308.626 139.374 310.07L138.851 313.47C138.558 315.375 138.411 316.328 138.694 317.069C138.942 317.72 139.409 318.264 140.014 318.608C140.704 319 141.667 319 143.595 319H144.4C144.96 319 145.24 319 145.454 319.109C145.642 319.205 145.795 319.358 145.891 319.546C146 319.76 146 320.04 146 320.6V323.534C146 324.896 147.104 326 148.466 326C148.791 326 149.085 325.809 149.217 325.512L152.578 317.95C152.731 317.606 152.807 317.434 152.928 317.308C153.035 317.197 153.166 317.112 153.311 317.059C153.475 317 153.663 317 154.04 317H154.8C155.92 317 156.48 317 156.908 316.782C157.284 316.59 157.59 316.284 157.782 315.908C158 315.48 158 314.92 158 313.8Z" stroke="black" stroke-width="2" stroke-linecap="round" stroke-linejoin="round"/>
</g>
<g opacity="0.08" filter="url(#filter17_d_185_15818)">
<rect x="120" y="344" width="56" height="56" rx="12" fill="#F6F6F6" shape-rendering="crispEdges"/>
<path d="M152 366L155 363M155 363L158 366M155 363V369M152 381V379.8C152 378.12 152 377.28 151.673 376.638C151.385 376.074 150.926 375.615 150.362 375.327C149.72 375 148.88 375 147.2 375H142.8C141.12 375 140.28 375 139.638 375.327C139.074 375.615 138.615 376.074 138.327 376.638C138 377.28 138 378.12 138 379.8V381M148.5 367.5C148.5 369.433 146.933 371 145 371C143.067 371 141.5 369.433 141.5 367.5C141.5 365.567 143.067 364 145 364C146.933 364 148.5 365.567 148.5 367.5Z" stroke="black" stroke-width="2" stroke-linecap="round" stroke-linejoin="round"/>
</g>
<g opacity="0.08" filter="url(#filter18_d_185_15818)">
<rect x="176" y="8" width="56" height="56" rx="12" fill="#F6F6F6" shape-rendering="crispEdges"/>
<path d="M205 34.9999L195.5 44.4999M206.018 27.5384C207.236 28.3466 208.407 29.2994 209.501 30.3934C210.604 31.4968 211.564 32.6783 212.377 33.9077M201.255 31.896L198.38 30.9378C198.049 30.8274 197.684 30.8976 197.418 31.1231L194.56 33.5407C193.975 34.0356 194.142 34.9775 194.861 35.2424L197.568 36.2398M203.681 42.3524L204.678 45.0596C204.943 45.7786 205.885 45.9448 206.38 45.3599L208.797 42.5027C209.023 42.2363 209.093 41.8716 208.983 41.5405L208.024 38.6657M211.348 26.2706L206.442 27.0884C205.912 27.1767 205.426 27.4371 205.059 27.8293L198.446 34.8985C196.732 36.7308 196.78 39.5924 198.554 41.3667C200.328 43.1409 203.19 43.1886 205.022 41.4744L212.091 34.8614C212.483 34.4944 212.744 34.0085 212.832 33.4787L213.65 28.5722C213.875 27.2186 212.702 26.045 211.348 26.2706Z" stroke="black" stroke-width="2" stroke-linecap="round" stroke-linejoin="round"/>
</g>
<g opacity="0.08" filter="url(#filter19_d_185_15818)">
<rect x="176" y="64" width="56" height="56" rx="12" fill="#F6F6F6" shape-rendering="crispEdges"/>
<path d="M204 82C207 84 207.923 88.292 208 92C207.923 95.708 207 100 204 102M204 82C201 84 200.077 88.292 200 92C200.077 95.708 201 100 204 102M204 82C198.477 82 194 86.4772 194 92M204 82C209.523 82 214 86.4772 214 92M204 102C209.523 102 214 97.5228 214 92M204 102C198.477 102 194 97.5228 194 92M214 92C212 95 207.708 95.9228 204 96C200.292 95.9228 196 95 194 92M214 92C212 89 207.708 88.0772 204 88C200.292 88.0772 196 89 194 92" stroke="black" stroke-width="2" stroke-linecap="round" stroke-linejoin="round"/>
</g>
<g opacity="0.08" filter="url(#filter20_d_185_15818)">
<rect x="176" y="176" width="56" height="56" rx="12" fill="#F6F6F6" shape-rendering="crispEdges"/>
<path d="M194.687 207.645L196.595 206.544C196.698 206.484 196.82 206.463 196.937 206.485L200.691 207.188C201 207.246 201.285 207.008 201.283 206.694L201.269 203.404C201.268 203.315 201.292 203.227 201.337 203.15L203.232 199.906C203.33 199.737 203.322 199.527 203.209 199.367L200.019 194.826M211 196.859C205.5 199.5 208.5 203 209.5 203.5C211.377 204.438 213.988 204.5 213.988 204.5C213.996 204.334 214 204.168 214 204C214 198.477 209.523 194 204 194C198.477 194 194 198.477 194 204C194 209.523 198.477 214 204 214C204.168 214 204.334 213.996 204.5 213.988M208.758 213.94L205.591 205.591L213.94 208.758L210.238 210.238L208.758 213.94Z" stroke="black" stroke-width="2" stroke-linecap="round" stroke-linejoin="round"/>
</g>
<g opacity="0.08" filter="url(#filter21_d_185_15818)">
<rect x="176" y="232" width="56" height="56" rx="12" fill="#F6F6F6" shape-rendering="crispEdges"/>
<path d="M202 256V255M202 260.5V259.5M202 265V264M197.2 252H210.8C211.92 252 212.48 252 212.908 252.218C213.284 252.41 213.59 252.716 213.782 253.092C214 253.52 214 254.08 214 255.2V256.5C212.067 256.5 210.5 258.067 210.5 260C210.5 261.933 212.067 263.5 214 263.5V264.8C214 265.92 214 266.48 213.782 266.908C213.59 267.284 213.284 267.59 212.908 267.782C212.48 268 211.92 268 210.8 268H197.2C196.08 268 195.52 268 195.092 267.782C194.716 267.59 194.41 267.284 194.218 266.908C194 266.48 194 265.92 194 264.8V263.5C195.933 263.5 197.5 261.933 197.5 260C197.5 258.067 195.933 256.5 194 256.5V255.2C194 254.08 194 253.52 194.218 253.092C194.41 252.716 194.716 252.41 195.092 252.218C195.52 252 196.08 252 197.2 252Z" stroke="black" stroke-width="2" stroke-linecap="round" stroke-linejoin="round"/>
</g>
<g opacity="0.08" filter="url(#filter22_d_185_15818)">
<rect x="176" y="344" width="56" height="56" rx="12" fill="#F6F6F6" shape-rendering="crispEdges"/>
<path d="M208.5 376L213.5 381M213.5 376L208.5 381M204 375.5H199.5C198.104 375.5 197.407 375.5 196.839 375.672C195.56 376.06 194.56 377.06 194.172 378.339C194 378.907 194 379.604 194 381M206.5 367.5C206.5 369.985 204.485 372 202 372C199.515 372 197.5 369.985 197.5 367.5C197.5 365.015 199.515 363 202 363C204.485 363 206.5 365.015 206.5 367.5Z" stroke="black" stroke-width="2" stroke-linecap="round" stroke-linejoin="round"/>
</g>
<g opacity="0.08" filter="url(#filter23_d_185_15818)">
<rect x="232" y="8" width="56" height="56" rx="12" fill="#F6F6F6" shape-rendering="crispEdges"/>
<path d="M253 37H256M250 33L252 34L253.271 30.1881C253.533 29.4013 253.664 29.0078 253.907 28.717C254.122 28.4601 254.398 28.2613 254.71 28.1388C255.062 28 255.477 28 256.306 28H263.694C264.523 28 264.938 28 265.29 28.1388C265.602 28.2613 265.878 28.4601 266.093 28.717C266.336 29.0078 266.467 29.4013 266.729 30.1881L268 34L270 33M264 37H267M254.8 34H265.2C266.88 34 267.72 34 268.362 34.327C268.926 34.6146 269.385 35.0735 269.673 35.638C270 36.2798 270 37.1198 270 38.8V41.5C270 41.9647 270 42.197 269.962 42.3902C269.804 43.1836 269.184 43.8038 268.39 43.9616C268.197 44 267.965 44 267.5 44H267C265.895 44 265 43.1046 265 42C265 41.7239 264.776 41.5 264.5 41.5H255.5C255.224 41.5 255 41.7239 255 42C255 43.1046 254.105 44 253 44H252.5C252.035 44 251.803 44 251.61 43.9616C250.816 43.8038 250.196 43.1836 250.038 42.3902C250 42.197 250 41.9647 250 41.5V38.8C250 37.1198 250 36.2798 250.327 35.638C250.615 35.0735 251.074 34.6146 251.638 34.327C252.28 34 253.12 34 254.8 34Z" stroke="black" stroke-width="2" stroke-linecap="round" stroke-linejoin="round"/>
</g>
<g opacity="0.08" filter="url(#filter24_d_185_15818)">
<rect x="232" y="64" width="56" height="56" rx="12" fill="#F6F6F6" shape-rendering="crispEdges"/>
<path d="M260 102C261 97 268 96.4183 268 90C268 85.5817 264.418 82 260 82C255.582 82 252 85.5817 252 90C252 96.4183 259 97 260 102Z" stroke="black" stroke-width="2" stroke-linecap="round" stroke-linejoin="round"/>
<path d="M260 93C261.657 93 263 91.6569 263 90C263 88.3431 261.657 87 260 87C258.343 87 257 88.3431 257 90C257 91.6569 258.343 93 260 93Z" stroke="black" stroke-width="2" stroke-linecap="round" stroke-linejoin="round"/>
</g>
<g opacity="0.08" filter="url(#filter25_d_185_15818)">
<rect x="232" y="120" width="56" height="56" rx="12" fill="#F6F6F6" shape-rendering="crispEdges"/>
<path d="M270 148H268M270 148C270 153.523 265.523 158 260 158M270 148C270 142.477 265.523 138 260 138M267.071 155.071L265.657 153.657M252 148H250M250 148C250 153.523 254.477 158 260 158M250 148C250 142.477 254.477 138 260 138M254.343 142.343L252.929 140.929M260 140V138M265.657 142.343L267.071 140.929M260 158V156M252.929 155.071L254.343 153.657M260 144L264 148L260 152L256 148L260 144Z" stroke="black" stroke-width="2" stroke-linecap="round" stroke-linejoin="round"/>
</g>
<g opacity="0.08" filter="url(#filter26_d_185_15818)">
<rect x="232" y="176" width="56" height="56" rx="12" fill="#F6F6F6" shape-rendering="crispEdges"/>
<path d="M264 205.374C267.532 206.069 270 207.655 270 209.5C270 211.985 265.523 214 260 214C254.477 214 250 211.985 250 209.5C250 207.655 252.468 206.069 256 205.374M260 209V201M260 201C261.657 201 263 199.657 263 198C263 196.343 261.657 195 260 195C258.343 195 257 196.343 257 198C257 199.657 258.343 201 260 201Z" stroke="black" stroke-width="2" stroke-linecap="round" stroke-linejoin="round"/>
</g>
<g opacity="0.08" filter="url(#filter27_d_185_15818)">
<rect x="232" y="232" width="56" height="56" rx="12" fill="#F6F6F6" shape-rendering="crispEdges"/>
<path d="M267 258V254.2C267 253.08 267 252.52 266.782 252.092C266.59 251.716 266.284 251.41 265.908 251.218C265.48 251 264.92 251 263.8 251H256.2C255.08 251 254.52 251 254.092 251.218C253.716 251.41 253.41 251.716 253.218 252.092C253 252.52 253 253.08 253 254.2V258M253 257H250V256M267 257H270V256M254 261.5H254.01M266 261.5H266.01M254.8 258H265.2C266.88 258 267.72 258 268.362 258.327C268.926 258.615 269.385 259.074 269.673 259.638C270 260.28 270 261.12 270 262.8V266C270 266.932 270 267.398 269.848 267.765C269.645 268.255 269.255 268.645 268.765 268.848C268.398 269 267.932 269 267 269H266.4C266.028 269 265.843 269 265.687 268.975C264.831 268.84 264.16 268.169 264.025 267.313C264 267.157 264 266.972 264 266.6C264 266.507 264 266.461 263.994 266.422C263.96 266.208 263.792 266.04 263.578 266.006C263.539 266 263.493 266 263.4 266H256.6C256.507 266 256.461 266 256.422 266.006C256.208 266.04 256.04 266.208 256.006 266.422C256 266.461 256 266.507 256 266.6C256 266.972 256 267.157 255.975 267.313C255.84 268.169 255.169 268.84 254.313 268.975C254.157 269 253.972 269 253.6 269H253C252.068 269 251.602 269 251.235 268.848C250.745 268.645 250.355 268.255 250.152 267.765C250 267.398 250 266.932 250 266V262.8C250 261.12 250 260.28 250.327 259.638C250.615 259.074 251.074 258.615 251.638 258.327C252.28 258 253.12 258 254.8 258ZM254.5 261.5C254.5 261.776 254.276 262 254 262C253.724 262 253.5 261.776 253.5 261.5C253.5 261.224 253.724 261 254 261C254.276 261 254.5 261.224 254.5 261.5ZM266.5 261.5C266.5 261.776 266.276 262 266 262C265.724 262 265.5 261.776 265.5 261.5C265.5 261.224 265.724 261 266 261C266.276 261 266.5 261.224 266.5 261.5Z" stroke="black" stroke-width="2" stroke-linecap="round" stroke-linejoin="round"/>
</g>
<g opacity="0.08" filter="url(#filter28_d_185_15818)">
<rect x="232" y="288" width="56" height="56" rx="12" fill="#F6F6F6" shape-rendering="crispEdges"/>
<path d="M255 326V315M250 317V324C250 325.105 250.895 326 252 326H265.426C266.907 326 268.166 324.92 268.391 323.456L269.468 316.456C269.748 314.639 268.342 313 266.503 313H263C262.448 313 262 312.552 262 312V308.466C262 307.104 260.896 306 259.534 306C259.209 306 258.915 306.191 258.783 306.488L255.264 314.406C255.103 314.767 254.745 315 254.35 315H252C250.895 315 250 315.895 250 317Z" stroke="black" stroke-width="2" stroke-linecap="round" stroke-linejoin="round"/>
</g>
<g opacity="0.08" filter="url(#filter29_d_185_15818)">
<rect x="232" y="344" width="56" height="56" rx="12" fill="#F6F6F6" shape-rendering="crispEdges"/>
<path d="M264.5 364L269.5 369M269.5 364L264.5 369M264 381V379.8C264 378.12 264 377.28 263.673 376.638C263.385 376.074 262.926 375.615 262.362 375.327C261.72 375 260.88 375 259.2 375H254.8C253.12 375 252.28 375 251.638 375.327C251.074 375.615 250.615 376.074 250.327 376.638C250 377.28 250 378.12 250 379.8V381M260.5 367.5C260.5 369.433 258.933 371 257 371C255.067 371 253.5 369.433 253.5 367.5C253.5 365.567 255.067 364 257 364C258.933 364 260.5 365.567 260.5 367.5Z" stroke="black" stroke-width="2" stroke-linecap="round" stroke-linejoin="round"/>
</g>
<g opacity="0.08" filter="url(#filter30_d_185_15818)">
<rect x="288" y="8" width="56" height="56" rx="12" fill="#F6F6F6" shape-rendering="crispEdges"/>
<path d="M316 26C318.501 28.7384 319.923 32.292 320 36C319.923 39.708 318.501 43.2616 316 46M316 26C313.499 28.7384 312.077 32.292 312 36C312.077 39.708 313.499 43.2616 316 46M316 26C310.477 26 306 30.4772 306 36C306 41.5228 310.477 46 316 46M316 26C321.523 26 326 30.4772 326 36C326 41.5228 321.523 46 316 46M306.5 33H325.5M306.5 39H325.5" stroke="black" stroke-width="2" stroke-linecap="round" stroke-linejoin="round"/>
</g>
<g opacity="0.08" filter="url(#filter31_d_185_15818)">
<rect x="288" y="64" width="56" height="56" rx="12" fill="#F6F6F6" shape-rendering="crispEdges"/>
<path d="M315.5 85H315.934C318.982 85 320.505 85 321.084 85.5473C321.584 86.0204 321.805 86.7173 321.67 87.3922C321.514 88.173 320.27 89.0529 317.782 90.8125L313.718 93.6875C311.23 95.4471 309.986 96.327 309.83 97.1078C309.695 97.7827 309.916 98.4796 310.416 98.9527C310.995 99.5 312.518 99.5 315.566 99.5H316.5M312 85C312 86.6569 310.657 88 309 88C307.343 88 306 86.6569 306 85C306 83.3431 307.343 82 309 82C310.657 82 312 83.3431 312 85ZM326 99C326 100.657 324.657 102 323 102C321.343 102 320 100.657 320 99C320 97.3431 321.343 96 323 96C324.657 96 326 97.3431 326 99Z" stroke="black" stroke-width="2" stroke-linecap="round" stroke-linejoin="round"/>
</g>
<g opacity="0.08" filter="url(#filter32_d_185_15818)">
<rect x="288" y="120" width="56" height="56" rx="12" fill="#F6F6F6" shape-rendering="crispEdges"/>
<path d="M319 138.458C318.053 138.16 317.045 138 316 138C310.477 138 306 142.477 306 148C306 153.523 310.477 158 316 158C321.523 158 326 153.523 326 148C326 146.285 325.568 144.67 324.807 143.259M321 141.75H321.005M314.5 157.888L314.5 155.685C314.5 155.566 314.543 155.45 314.621 155.36L317.106 152.459C317.311 152.221 317.247 151.856 316.975 151.7L314.119 150.068C314.041 150.023 313.977 149.959 313.932 149.881L312.07 146.619C311.974 146.449 311.787 146.351 311.592 146.368L306.064 146.861M325 142C325 144.209 323 146 321 148C319 146 317 144.209 317 142C317 139.791 318.791 138 321 138C323.209 138 325 139.791 325 142ZM321.25 141.75C321.25 141.888 321.138 142 321 142C320.862 142 320.75 141.888 320.75 141.75C320.75 141.612 320.862 141.5 321 141.5C321.138 141.5 321.25 141.612 321.25 141.75Z" stroke="black" stroke-width="2" stroke-linecap="round" stroke-linejoin="round"/>
</g>
<g opacity="0.08" filter="url(#filter33_d_185_15818)">
<rect x="288" y="176" width="56" height="56" rx="12" fill="#F6F6F6" shape-rendering="crispEdges"/>
<path d="M313.5 214H318.5M312 194H320M316 197V194M308 204H324M321 211L322.5 214M311 211L309.5 214M312.5 207.5H312.51M319.5 207.5H319.51M312.8 211H319.2C320.88 211 321.72 211 322.362 210.673C322.926 210.385 323.385 209.926 323.673 209.362C324 208.72 324 207.88 324 206.2V201.8C324 200.12 324 199.28 323.673 198.638C323.385 198.074 322.926 197.615 322.362 197.327C321.72 197 320.88 197 319.2 197H312.8C311.12 197 310.28 197 309.638 197.327C309.074 197.615 308.615 198.074 308.327 198.638C308 199.28 308 200.12 308 201.8V206.2C308 207.88 308 208.72 308.327 209.362C308.615 209.926 309.074 210.385 309.638 210.673C310.28 211 311.12 211 312.8 211ZM313 207.5C313 207.776 312.776 208 312.5 208C312.224 208 312 207.776 312 207.5C312 207.224 312.224 207 312.5 207C312.776 207 313 207.224 313 207.5ZM320 207.5C320 207.776 319.776 208 319.5 208C319.224 208 319 207.776 319 207.5C319 207.224 319.224 207 319.5 207C319.776 207 320 207.224 320 207.5Z" stroke="black" stroke-width="2" stroke-linecap="round" stroke-linejoin="round"/>
</g>
<g opacity="0.08" filter="url(#filter34_d_185_15818)">
<rect x="288" y="232" width="56" height="56" rx="12" fill="#F6F6F6" shape-rendering="crispEdges"/>
<path d="M309 258V264.011C309 264.37 309 264.55 309.055 264.708C309.103 264.848 309.182 264.976 309.286 265.082C309.403 265.201 309.563 265.282 309.884 265.442L315.284 268.142C315.547 268.273 315.678 268.339 315.816 268.365C315.937 268.388 316.063 268.388 316.184 268.365C316.322 268.339 316.453 268.273 316.716 268.142L322.116 265.442C322.437 265.282 322.597 265.201 322.714 265.082C322.818 264.976 322.897 264.848 322.945 264.708C323 264.55 323 264.37 323 264.011V258M306 256.5L315.642 251.679C315.773 251.613 315.839 251.581 315.908 251.568C315.969 251.556 316.031 251.556 316.092 251.568C316.161 251.581 316.227 251.613 316.358 251.679L326 256.5L316.358 261.321C316.227 261.387 316.161 261.42 316.092 261.432C316.031 261.444 315.969 261.444 315.908 261.432C315.839 261.42 315.773 261.387 315.642 261.321L306 256.5Z" stroke="black" stroke-width="2" stroke-linecap="round" stroke-linejoin="round"/>
</g>
<g opacity="0.08" filter="url(#filter35_d_185_15818)">
<rect x="288" y="288" width="56" height="56" rx="12" fill="#F6F6F6" shape-rendering="crispEdges"/>
<path d="M323 325L326 322M326 322L323 319M326 322H320M316 319.5H311.5C310.104 319.5 309.407 319.5 308.839 319.672C307.56 320.06 306.56 321.06 306.172 322.339C306 322.907 306 323.604 306 325M318.5 311.5C318.5 313.985 316.485 316 314 316C311.515 316 309.5 313.985 309.5 311.5C309.5 309.015 311.515 307 314 307C316.485 307 318.5 309.015 318.5 311.5Z" stroke="black" stroke-width="2" stroke-linecap="round" stroke-linejoin="round"/>
</g>
<g opacity="0.08" filter="url(#filter36_d_185_15818)">
<rect x="288" y="344" width="56" height="56" rx="12" fill="#F6F6F6" shape-rendering="crispEdges"/>
<path d="M326 381V379C326 377.136 324.725 375.57 323 375.126M319.5 363.291C320.966 363.884 322 365.321 322 367C322 368.679 320.966 370.116 319.5 370.709M321 381C321 379.136 321 378.204 320.696 377.469C320.29 376.489 319.511 375.71 318.531 375.304C317.796 375 316.864 375 315 375H312C310.136 375 309.204 375 308.469 375.304C307.489 375.71 306.71 376.489 306.304 377.469C306 378.204 306 379.136 306 381M317.5 367C317.5 369.209 315.709 371 313.5 371C311.291 371 309.5 369.209 309.5 367C309.5 364.791 311.291 363 313.5 363C315.709 363 317.5 364.791 317.5 367Z" stroke="black" stroke-width="2" stroke-linecap="round" stroke-linejoin="round"/>
</g>
<g filter="url(#filter37_d_185_15818)">
<rect x="120" y="64" width="56" height="56" rx="12" fill="#F6F6F6" shape-rendering="crispEdges"/>
<path d="M153.745 82.8127C154.709 81.8163 156.304 81.8034 157.284 82.7841C158.238 83.738 158.256 85.279 157.324 86.2546L154.546 89.1643C154.328 89.3924 154.219 89.5064 154.152 89.64C154.092 89.7582 154.057 89.8871 154.048 90.0191C154.037 90.1682 154.073 90.3218 154.144 90.6291L155.872 98.1167C155.944 98.4321 155.981 98.5898 155.969 98.7423C155.959 98.8774 155.921 99.0089 155.858 99.1289C155.787 99.2645 155.673 99.3789 155.444 99.6078L155.073 99.9786C154.467 100.585 154.164 100.888 153.854 100.943C153.583 100.991 153.304 100.925 153.083 100.761C152.831 100.573 152.695 100.166 152.424 99.3532L150.414 93.3239L147.069 96.6692C146.869 96.8689 146.769 96.9687 146.703 97.0863C146.643 97.1905 146.603 97.3044 146.584 97.4227C146.563 97.5563 146.579 97.6966 146.61 97.9773L146.794 99.6307C146.825 99.9113 146.84 100.052 146.819 100.185C146.8 100.304 146.76 100.417 146.701 100.522C146.634 100.639 146.535 100.739 146.335 100.939L146.137 101.136C145.664 101.609 145.428 101.846 145.165 101.914C144.934 101.974 144.69 101.95 144.476 101.846C144.231 101.727 144.046 101.449 143.675 100.892L142.106 98.5399C142.04 98.4404 142.007 98.3907 141.968 98.3456C141.934 98.3056 141.897 98.2683 141.857 98.2341C141.812 98.1956 141.762 98.1624 141.663 98.0961L139.31 96.5278C138.753 96.1567 138.475 95.9712 138.356 95.7269C138.252 95.5126 138.228 95.2681 138.288 95.0376C138.357 94.7747 138.593 94.5382 139.066 94.0652L139.264 93.8677C139.463 93.668 139.563 93.5681 139.681 93.5013C139.785 93.4422 139.899 93.4022 140.017 93.3833C140.151 93.362 140.291 93.3776 140.572 93.4088L142.225 93.5925C142.506 93.6237 142.646 93.6393 142.78 93.618C142.898 93.5991 143.012 93.5592 143.116 93.5C143.234 93.4332 143.334 93.3334 143.533 93.1337L146.879 89.7884L140.849 87.7786C140.036 87.5075 139.629 87.372 139.442 87.1191C139.278 86.8982 139.212 86.6196 139.26 86.3487C139.315 86.0385 139.618 85.7355 140.224 85.1293L140.595 84.7586C140.824 84.5297 140.938 84.4152 141.074 84.3443C141.194 84.2816 141.325 84.2439 141.46 84.2335C141.613 84.2217 141.77 84.2581 142.086 84.3309L149.545 86.0522C149.855 86.1238 150.01 86.1595 150.16 86.1489C150.304 86.1386 150.445 86.0971 150.571 86.0272C150.703 85.9548 150.813 85.8405 151.035 85.612L153.745 82.8127Z" stroke="#0E0E0E" stroke-width="2" stroke-linecap="round" stroke-linejoin="round"/>
<path d="M149.5 86L145 85L141.5 84L139 87L146.5 90L142.5 93.5H139.5L138.5 95.5L142 98.5L143.5 100.5L145 102L146.5 100.5L147 96.5L150.5 94L153 101L155.5 99.5L156 98L154.5 91.5V89L157.5 86V83.5L156 82L154 83L151.5 85.5L149.5 86Z" fill="#0E0E0E"/>
</g>
<g filter="url(#filter38_d_185_15818)">
<rect x="176" y="120" width="56" height="56" rx="12" fill="#F6F6F6" shape-rendering="crispEdges"/>
<path d="M196 151C196 151 197 150 200 150C203 150 205 152 208 152C211 152 212 151 212 151V140C212 140 211 141 208 141C205 141 203 139 200 139C197 139 196 140 196 140M196 158L196 138" stroke="black" stroke-width="2" stroke-linecap="round" stroke-linejoin="round"/>
</g>
<g filter="url(#filter39_d_185_15818)">
<rect x="64" y="232" width="56" height="56" rx="12" fill="#F6F6F6" shape-rendering="crispEdges"/>
<path d="M83.4135 258.744C82.8181 258.513 82.5204 258.397 82.4335 258.23C82.3582 258.086 82.3581 257.914 82.4333 257.769C82.52 257.602 82.8175 257.486 83.4126 257.254L100.3 250.663C100.838 250.454 101.106 250.349 101.278 250.406C101.427 250.456 101.544 250.573 101.594 250.722C101.651 250.894 101.546 251.162 101.336 251.699L94.7461 268.587C94.5139 269.182 94.3977 269.48 94.2308 269.566C94.0862 269.642 93.9139 269.642 93.7693 269.566C93.6025 269.479 93.4867 269.182 93.2552 268.586L90.6271 261.828C90.5801 261.707 90.5566 261.647 90.5203 261.596C90.4881 261.551 90.4487 261.512 90.4036 261.479C90.3527 261.443 90.2923 261.42 90.1715 261.373L83.4135 258.744Z" stroke="#0E0E0E" stroke-width="2" stroke-linecap="round" stroke-linejoin="round"/>
<path d="M101 250.5L84 257L82.5 258L90.5 261.5L94 269.5L101.5 252L101 250.5Z" fill="#0E0E0E"/>
</g>
<g filter="url(#filter40_d_185_15818)">
<rect x="64" y="344" width="56" height="56" rx="12" fill="#F6F6F6" shape-rendering="crispEdges"/>
<path d="M89.3544 381C90.0596 381.622 90.9858 382 92.0002 382C93.0147 382 93.9409 381.622 94.6461 381M82.2941 365.82C82.2798 364.369 83.0623 363.013 84.3264 362.3M101.702 365.82C101.717 364.369 100.934 363.013 99.6702 362.3M98.0002 368C98.0002 366.409 97.3681 364.883 96.2429 363.757C95.1177 362.632 93.5915 362 92.0002 362C90.4089 362 88.8828 362.632 87.7576 363.757C86.6324 364.883 86.0002 366.409 86.0002 368C86.0002 371.09 85.2207 373.206 84.3499 374.605C83.6154 375.786 83.2481 376.376 83.2616 376.541C83.2765 376.723 83.3151 376.793 83.462 376.902C83.5947 377 84.1928 377 85.3891 377H98.6114C99.8077 377 100.406 377 100.538 376.902C100.685 376.793 100.724 376.723 100.739 376.541C100.752 376.376 100.385 375.786 99.6506 374.605C98.7798 373.206 98.0002 371.09 98.0002 368Z" stroke="#0E0E0E" stroke-width="2" stroke-linecap="round" stroke-linejoin="round"/>
<path d="M100.5 377H84L83 376.5L84.5 373.5L86 370.5V366.5L88 363.5L91.5 362L95.5 363L97.5 366L98 371L99.5 374L100.5 377Z" fill="#0E0E0E"/>
</g>
<g filter="url(#filter41_d_185_15818)">
<rect x="176" y="288" width="56" height="56" rx="12" fill="#F6F6F6" shape-rendering="crispEdges"/>
<path d="M201 310V314.501C201 315.052 201 315.328 200.931 315.583C200.87 315.809 200.77 316.023 200.636 316.214C200.483 316.43 200.272 316.607 199.849 316.96L196.151 320.04C195.728 320.393 195.517 320.57 195.364 320.786C195.23 320.977 195.13 321.191 195.069 321.417C195 321.672 195 321.948 195 322.499V322.8C195 323.92 195 324.48 195.218 324.908C195.41 325.284 195.716 325.59 196.092 325.782C196.52 326 197.08 326 198.2 326H209.8C210.92 326 211.48 326 211.908 325.782C212.284 325.59 212.59 325.284 212.782 324.908C213 324.48 213 323.92 213 322.8V322.499C213 321.948 213 321.672 212.931 321.417C212.87 321.191 212.77 320.977 212.636 320.786C212.483 320.57 212.272 320.393 211.849 320.04L208.151 316.96C207.728 316.607 207.517 316.43 207.364 316.214C207.23 316.023 207.13 315.809 207.069 315.583C207 315.328 207 315.052 207 314.501V310M200.3 310H207.7C207.98 310 208.12 310 208.227 309.946C208.321 309.898 208.398 309.821 208.446 309.727C208.5 309.62 208.5 309.48 208.5 309.2V306.8C208.5 306.52 208.5 306.38 208.446 306.273C208.398 306.179 208.321 306.102 208.227 306.054C208.12 306 207.98 306 207.7 306H200.3C200.02 306 199.88 306 199.773 306.054C199.679 306.102 199.602 306.179 199.554 306.273C199.5 306.38 199.5 306.52 199.5 306.8V309.2C199.5 309.48 199.5 309.62 199.554 309.727C199.602 309.821 199.679 309.898 199.773 309.946C199.88 310 200.02 310 200.3 310ZM197.5 321H210.5C210.965 321 211.197 321 211.39 321.038C212.184 321.196 212.804 321.816 212.962 322.61C213 322.803 213 323.035 213 323.5C213 323.965 213 324.197 212.962 324.39C212.804 325.184 212.184 325.804 211.39 325.962C211.197 326 210.965 326 210.5 326H197.5C197.035 326 196.803 326 196.61 325.962C195.816 325.804 195.196 325.184 195.038 324.39C195 324.197 195 323.965 195 323.5C195 323.035 195 322.803 195.038 322.61C195.196 321.816 195.816 321.196 196.61 321.038C196.803 321 197.035 321 197.5 321Z" stroke="#0E0E0E" stroke-width="2" stroke-linecap="round" stroke-linejoin="round"/>
<path d="M199.423 307L200 306H208.938L208 309.5H199.423V307Z" fill="#0E0E0E"/>
<path d="M207 315.5V310.5H201L200.5 316.5L197 319L195 322L195.5 325.5L211.941 326L213 324L212.5 320.5L207 315.5Z" fill="#0E0E0E"/>
</g>
<path d="M-279 73H73V481H-279V73Z" fill="url(#paint0_radial_185_15818)"/>
<g filter="url(#filter42_d_185_15818)">
<rect x="232" y="156" width="96" height="96" rx="16" fill="white" shape-rendering="crispEdges"/>
<path d="M291.489 185.626C293.419 183.633 296.607 183.607 298.569 185.568C300.476 187.476 300.512 190.558 298.648 192.509L293.091 198.329C292.656 198.785 292.438 199.013 292.304 199.28C292.185 199.517 292.114 199.774 292.096 200.038C292.075 200.337 292.146 200.644 292.287 201.258L295.743 216.234C295.889 216.864 295.962 217.18 295.938 217.485C295.917 217.755 295.842 218.018 295.716 218.258C295.575 218.529 295.346 218.758 294.888 219.216L294.146 219.957C292.934 221.17 292.328 221.776 291.708 221.886C291.166 221.981 290.609 221.85 290.167 221.522C289.661 221.146 289.39 220.333 288.848 218.707L284.828 206.648L278.138 213.339C277.738 213.738 277.539 213.938 277.405 214.173C277.287 214.381 277.207 214.609 277.169 214.846C277.126 215.113 277.158 215.393 277.22 215.955L277.587 219.262C277.65 219.823 277.681 220.104 277.638 220.371C277.601 220.607 277.521 220.835 277.402 221.043C277.269 221.279 277.069 221.478 276.67 221.878L276.275 222.273C275.329 223.219 274.856 223.692 274.33 223.829C273.869 223.949 273.38 223.901 272.951 223.692C272.463 223.455 272.092 222.898 271.349 221.785L268.213 217.08C268.08 216.881 268.014 216.782 267.937 216.691C267.868 216.611 267.794 216.537 267.714 216.468C267.624 216.391 267.524 216.325 267.325 216.193L262.62 213.056C261.507 212.314 260.95 211.943 260.713 211.454C260.505 211.025 260.456 210.537 260.576 210.075C260.713 209.55 261.186 209.077 262.133 208.131L262.528 207.736C262.927 207.336 263.127 207.136 263.362 207.003C263.57 206.885 263.798 206.805 264.035 206.767C264.302 206.724 264.582 206.755 265.144 206.818L268.45 207.185C269.012 207.248 269.292 207.279 269.56 207.236C269.796 207.199 270.024 207.119 270.232 207C270.468 206.867 270.667 206.667 271.067 206.268L277.757 199.577L265.699 195.557C264.072 195.015 263.259 194.744 262.883 194.238C262.555 193.797 262.424 193.239 262.52 192.698C262.629 192.077 263.236 191.471 264.448 190.259L265.189 189.517C265.647 189.06 265.876 188.831 266.147 188.689C266.387 188.563 266.65 188.488 266.92 188.467C267.225 188.444 267.541 188.516 268.172 188.662L283.09 192.105C283.71 192.248 284.02 192.319 284.319 192.298C284.608 192.277 284.889 192.194 285.143 192.055C285.405 191.91 285.627 191.681 286.069 191.224L291.489 185.626Z" stroke="#0E0E0E" stroke-width="3.5" stroke-linecap="round" stroke-linejoin="round"/>
</g>
<g filter="url(#filter43_d_185_15818)">
<rect x="168" y="144" width="120" height="120" rx="18" fill="white" shape-rendering="crispEdges"/>
<path d="M228 211C220.268 211 214 204.732 214 197V184.037C214 183.071 214 182.589 214.141 182.202C214.376 181.554 214.887 181.043 215.535 180.807C215.922 180.667 216.405 180.667 217.37 180.667H238.629C239.595 180.667 240.078 180.667 240.465 180.807C241.113 181.043 241.623 181.554 241.859 182.202C242 182.589 242 183.071 242 184.037V197C242 204.732 235.732 211 228 211ZM228 211V218M242 185.333H247.833C248.92 185.333 249.464 185.333 249.893 185.511C250.464 185.748 250.919 186.202 251.156 186.774C251.333 187.203 251.333 187.746 251.333 188.833V190C251.333 192.17 251.333 193.255 251.095 194.145C250.447 196.561 248.561 198.448 246.145 199.095C245.255 199.333 244.17 199.333 242 199.333M214 185.333H208.167C207.079 185.333 206.536 185.333 206.107 185.511C205.535 185.748 205.081 186.202 204.844 186.774C204.667 187.203 204.667 187.746 204.667 188.833V190C204.667 192.17 204.667 193.255 204.905 194.145C205.552 196.561 207.439 198.448 209.855 199.095C210.745 199.333 211.83 199.333 214 199.333M217.37 227.333H238.629C239.202 227.333 239.667 226.869 239.667 226.296C239.667 221.714 235.952 218 231.37 218H224.629C220.048 218 216.333 221.714 216.333 226.296C216.333 226.869 216.797 227.333 217.37 227.333Z" stroke="#0E0E0E" stroke-width="4" stroke-linecap="round" stroke-linejoin="round"/>
</g>
<g filter="url(#filter44_d_185_15818)">
<rect x="24" y="156" width="96" height="96" rx="16" fill="white" shape-rendering="crispEdges"/>
<path d="M76 194H80.6745C81.1637 194 81.4083 194 81.6385 194.055C81.8425 194.104 82.0376 194.185 82.2166 194.295C82.4184 194.418 82.5914 194.591 82.9373 194.937L91.0627 203.063C91.4086 203.409 91.5816 203.582 91.7053 203.783C91.8149 203.962 91.8957 204.157 91.9447 204.362C92 204.592 92 204.836 92 205.325V211C92 211.932 92 212.398 91.8478 212.765C91.6448 213.255 91.2554 213.645 90.7654 213.848C90.3978 214 89.9319 214 89 214M79 214H76M76 214V194.4C76 192.16 76 191.04 75.564 190.184C75.1805 189.431 74.5686 188.819 73.816 188.436C72.9603 188 71.8402 188 69.6 188H58.4C56.1598 188 55.0397 188 54.184 188.436C53.4314 188.819 52.8195 189.431 52.436 190.184C52 191.04 52 192.16 52 194.4V210C52 212.209 53.7909 214 56 214M76 214H68M68 214C68 217.314 65.3137 220 62 220C58.6863 220 56 217.314 56 214M68 214C68 210.686 65.3137 208 62 208C58.6863 208 56 210.686 56 214M89 215C89 217.761 86.7614 220 84 220C81.2386 220 79 217.761 79 215C79 212.239 81.2386 210 84 210C86.7614 210 89 212.239 89 215Z" stroke="#0E0E0E" stroke-width="3.5" stroke-linecap="round" stroke-linejoin="round"/>
</g>
<g filter="url(#filter45_d_185_15818)">
<rect x="64" y="144" width="120" height="120" rx="18" fill="white" shape-rendering="crispEdges"/>
<path d="M105.333 208.667L109.007 223.363C109.111 223.777 109.162 223.983 109.223 224.164C109.821 225.927 111.408 227.166 113.263 227.318C113.453 227.333 113.666 227.333 114.092 227.333C114.626 227.333 114.892 227.333 115.117 227.312C117.338 227.096 119.096 225.338 119.311 223.117C119.333 222.892 119.333 222.626 119.333 222.092V188.833M139.167 207.5C143.677 207.5 147.333 203.844 147.333 199.333C147.333 194.823 143.677 191.167 139.167 191.167M119.916 188.833H111.167C105.368 188.833 100.667 193.534 100.667 199.333C100.667 205.132 105.368 209.833 111.167 209.833H119.917C124.038 209.833 129.08 212.043 132.97 214.163C135.239 215.4 136.374 216.019 137.117 215.928C137.806 215.843 138.327 215.534 138.731 214.969C139.167 214.36 139.167 213.142 139.167 210.705V187.961C139.167 185.525 139.167 184.306 138.731 183.697C138.327 183.133 137.806 182.823 137.117 182.739C136.374 182.648 135.239 183.267 132.97 184.504C129.08 186.624 124.038 188.833 119.916 188.833Z" stroke="#0E0E0E" stroke-width="4" stroke-linecap="round" stroke-linejoin="round"/>
</g>
<g filter="url(#filter46_d_185_15818)">
<rect x="104" y="132" width="144" height="144" rx="20" fill="white" shape-rendering="crispEdges"/>
<rect x="104" y="132" width="144" height="144" rx="20" stroke="url(#paint1_linear_185_15818)" stroke-width="4" shape-rendering="crispEdges"/>
<path d="M167.833 220.333V225.467C167.833 226.12 167.833 226.447 167.706 226.696C167.594 226.916 167.416 227.094 167.196 227.206C166.947 227.333 166.62 227.333 165.967 227.333H161.533C160.88 227.333 160.553 227.333 160.304 227.206C160.084 227.094 159.906 226.916 159.794 226.696C159.667 226.447 159.667 226.12 159.667 225.467V220.333M192.333 220.333V225.467C192.333 226.12 192.333 226.447 192.206 226.696C192.094 226.916 191.916 227.094 191.696 227.206C191.447 227.333 191.12 227.333 190.467 227.333H186.033C185.38 227.333 185.053 227.333 184.804 227.206C184.584 227.094 184.406 226.916 184.294 226.696C184.167 226.447 184.167 226.12 184.167 225.467V220.333M155 204H197M155 188.833H197M163.167 212.167H166.667M185.333 212.167H188.833M166.2 220.333H185.8C189.72 220.333 191.681 220.333 193.178 219.57C194.495 218.899 195.566 217.828 196.237 216.511C197 215.014 197 213.054 197 209.133V191.867C197 187.946 197 185.986 196.237 184.489C195.566 183.172 194.495 182.101 193.178 181.43C191.681 180.667 189.72 180.667 185.8 180.667H166.2C162.28 180.667 160.319 180.667 158.822 181.43C157.505 182.101 156.434 183.172 155.763 184.489C155 185.986 155 187.946 155 191.867V209.133C155 213.054 155 215.014 155.763 216.511C156.434 217.828 157.505 218.899 158.822 219.57C160.319 220.333 162.28 220.333 166.2 220.333Z" stroke="#0E0E0E" stroke-width="4" stroke-linecap="round" stroke-linejoin="round"/>
</g>
</g>
<defs>
<filter id="filter0_d_185_15818" x="-8" y="-8" width="88" height="88" filterUnits="userSpaceOnUse" color-interpolation-filters="sRGB">
<feFlood flood-opacity="0" result="BackgroundImageFix"/>
<feColorMatrix in="SourceAlpha" type="matrix" values="0 0 0 0 0 0 0 0 0 0 0 0 0 0 0 0 0 0 127 0" result="hardAlpha"/>
<feOffset/>
<feGaussianBlur stdDeviation="8"/>
<feComposite in2="hardAlpha" operator="out"/>
<feColorMatrix type="matrix" values="0 0 0 0 0 0 0 0 0 0 0 0 0 0 0 0 0 0 0.1 0"/>
<feBlend mode="normal" in2="BackgroundImageFix" result="effect1_dropShadow_185_15818"/>
<feBlend mode="normal" in="SourceGraphic" in2="effect1_dropShadow_185_15818" result="shape"/>
</filter>
<filter id="filter1_d_185_15818" x="-8" y="48" width="88" height="88" filterUnits="userSpaceOnUse" color-interpolation-filters="sRGB">
<feFlood flood-opacity="0" result="BackgroundImageFix"/>
<feColorMatrix in="SourceAlpha" type="matrix" values="0 0 0 0 0 0 0 0 0 0 0 0 0 0 0 0 0 0 127 0" result="hardAlpha"/>
<feOffset/>
<feGaussianBlur stdDeviation="8"/>
<feComposite in2="hardAlpha" operator="out"/>
<feColorMatrix type="matrix" values="0 0 0 0 0 0 0 0 0 0 0 0 0 0 0 0 0 0 0.1 0"/>
<feBlend mode="normal" in2="BackgroundImageFix" result="effect1_dropShadow_185_15818"/>
<feBlend mode="normal" in="SourceGraphic" in2="effect1_dropShadow_185_15818" result="shape"/>
</filter>
<filter id="filter2_d_185_15818" x="-8" y="104" width="88" height="88" filterUnits="userSpaceOnUse" color-interpolation-filters="sRGB">
<feFlood flood-opacity="0" result="BackgroundImageFix"/>
<feColorMatrix in="SourceAlpha" type="matrix" values="0 0 0 0 0 0 0 0 0 0 0 0 0 0 0 0 0 0 127 0" result="hardAlpha"/>
<feOffset/>
<feGaussianBlur stdDeviation="8"/>
<feComposite in2="hardAlpha" operator="out"/>
<feColorMatrix type="matrix" values="0 0 0 0 0 0 0 0 0 0 0 0 0 0 0 0 0 0 0.1 0"/>
<feBlend mode="normal" in2="BackgroundImageFix" result="effect1_dropShadow_185_15818"/>
<feBlend mode="normal" in="SourceGraphic" in2="effect1_dropShadow_185_15818" result="shape"/>
</filter>
<filter id="filter3_d_185_15818" x="-8" y="160" width="88" height="88" filterUnits="userSpaceOnUse" color-interpolation-filters="sRGB">
<feFlood flood-opacity="0" result="BackgroundImageFix"/>
<feColorMatrix in="SourceAlpha" type="matrix" values="0 0 0 0 0 0 0 0 0 0 0 0 0 0 0 0 0 0 127 0" result="hardAlpha"/>
<feOffset/>
<feGaussianBlur stdDeviation="8"/>
<feComposite in2="hardAlpha" operator="out"/>
<feColorMatrix type="matrix" values="0 0 0 0 0 0 0 0 0 0 0 0 0 0 0 0 0 0 0.1 0"/>
<feBlend mode="normal" in2="BackgroundImageFix" result="effect1_dropShadow_185_15818"/>
<feBlend mode="normal" in="SourceGraphic" in2="effect1_dropShadow_185_15818" result="shape"/>
</filter>
<filter id="filter4_d_185_15818" x="-8" y="216" width="88" height="88" filterUnits="userSpaceOnUse" color-interpolation-filters="sRGB">
<feFlood flood-opacity="0" result="BackgroundImageFix"/>
<feColorMatrix in="SourceAlpha" type="matrix" values="0 0 0 0 0 0 0 0 0 0 0 0 0 0 0 0 0 0 127 0" result="hardAlpha"/>
<feOffset/>
<feGaussianBlur stdDeviation="8"/>
<feComposite in2="hardAlpha" operator="out"/>
<feColorMatrix type="matrix" values="0 0 0 0 0 0 0 0 0 0 0 0 0 0 0 0 0 0 0.1 0"/>
<feBlend mode="normal" in2="BackgroundImageFix" result="effect1_dropShadow_185_15818"/>
<feBlend mode="normal" in="SourceGraphic" in2="effect1_dropShadow_185_15818" result="shape"/>
</filter>
<filter id="filter5_d_185_15818" x="-8" y="272" width="88" height="88" filterUnits="userSpaceOnUse" color-interpolation-filters="sRGB">
<feFlood flood-opacity="0" result="BackgroundImageFix"/>
<feColorMatrix in="SourceAlpha" type="matrix" values="0 0 0 0 0 0 0 0 0 0 0 0 0 0 0 0 0 0 127 0" result="hardAlpha"/>
<feOffset/>
<feGaussianBlur stdDeviation="8"/>
<feComposite in2="hardAlpha" operator="out"/>
<feColorMatrix type="matrix" values="0 0 0 0 0 0 0 0 0 0 0 0 0 0 0 0 0 0 0.1 0"/>
<feBlend mode="normal" in2="BackgroundImageFix" result="effect1_dropShadow_185_15818"/>
<feBlend mode="normal" in="SourceGraphic" in2="effect1_dropShadow_185_15818" result="shape"/>
</filter>
<filter id="filter6_d_185_15818" x="-8" y="328" width="88" height="88" filterUnits="userSpaceOnUse" color-interpolation-filters="sRGB">
<feFlood flood-opacity="0" result="BackgroundImageFix"/>
<feColorMatrix in="SourceAlpha" type="matrix" values="0 0 0 0 0 0 0 0 0 0 0 0 0 0 0 0 0 0 127 0" result="hardAlpha"/>
<feOffset/>
<feGaussianBlur stdDeviation="8"/>
<feComposite in2="hardAlpha" operator="out"/>
<feColorMatrix type="matrix" values="0 0 0 0 0 0 0 0 0 0 0 0 0 0 0 0 0 0 0.1 0"/>
<feBlend mode="normal" in2="BackgroundImageFix" result="effect1_dropShadow_185_15818"/>
<feBlend mode="normal" in="SourceGraphic" in2="effect1_dropShadow_185_15818" result="shape"/>
</filter>
<filter id="filter7_d_185_15818" x="48" y="-8" width="88" height="88" filterUnits="userSpaceOnUse" color-interpolation-filters="sRGB">
<feFlood flood-opacity="0" result="BackgroundImageFix"/>
<feColorMatrix in="SourceAlpha" type="matrix" values="0 0 0 0 0 0 0 0 0 0 0 0 0 0 0 0 0 0 127 0" result="hardAlpha"/>
<feOffset/>
<feGaussianBlur stdDeviation="8"/>
<feComposite in2="hardAlpha" operator="out"/>
<feColorMatrix type="matrix" values="0 0 0 0 0 0 0 0 0 0 0 0 0 0 0 0 0 0 0.1 0"/>
<feBlend mode="normal" in2="BackgroundImageFix" result="effect1_dropShadow_185_15818"/>
<feBlend mode="normal" in="SourceGraphic" in2="effect1_dropShadow_185_15818" result="shape"/>
</filter>
<filter id="filter8_d_185_15818" x="48" y="48" width="88" height="88" filterUnits="userSpaceOnUse" color-interpolation-filters="sRGB">
<feFlood flood-opacity="0" result="BackgroundImageFix"/>
<feColorMatrix in="SourceAlpha" type="matrix" values="0 0 0 0 0 0 0 0 0 0 0 0 0 0 0 0 0 0 127 0" result="hardAlpha"/>
<feOffset/>
<feGaussianBlur stdDeviation="8"/>
<feComposite in2="hardAlpha" operator="out"/>
<feColorMatrix type="matrix" values="0 0 0 0 0 0 0 0 0 0 0 0 0 0 0 0 0 0 0.1 0"/>
<feBlend mode="normal" in2="BackgroundImageFix" result="effect1_dropShadow_185_15818"/>
<feBlend mode="normal" in="SourceGraphic" in2="effect1_dropShadow_185_15818" result="shape"/>
</filter>
<filter id="filter9_d_185_15818" x="48" y="104" width="88" height="88" filterUnits="userSpaceOnUse" color-interpolation-filters="sRGB">
<feFlood flood-opacity="0" result="BackgroundImageFix"/>
<feColorMatrix in="SourceAlpha" type="matrix" values="0 0 0 0 0 0 0 0 0 0 0 0 0 0 0 0 0 0 127 0" result="hardAlpha"/>
<feOffset/>
<feGaussianBlur stdDeviation="8"/>
<feComposite in2="hardAlpha" operator="out"/>
<feColorMatrix type="matrix" values="0 0 0 0 0 0 0 0 0 0 0 0 0 0 0 0 0 0 0.1 0"/>
<feBlend mode="normal" in2="BackgroundImageFix" result="effect1_dropShadow_185_15818"/>
<feBlend mode="normal" in="SourceGraphic" in2="effect1_dropShadow_185_15818" result="shape"/>
</filter>
<filter id="filter10_d_185_15818" x="48" y="160" width="88" height="88" filterUnits="userSpaceOnUse" color-interpolation-filters="sRGB">
<feFlood flood-opacity="0" result="BackgroundImageFix"/>
<feColorMatrix in="SourceAlpha" type="matrix" values="0 0 0 0 0 0 0 0 0 0 0 0 0 0 0 0 0 0 127 0" result="hardAlpha"/>
<feOffset/>
<feGaussianBlur stdDeviation="8"/>
<feComposite in2="hardAlpha" operator="out"/>
<feColorMatrix type="matrix" values="0 0 0 0 0 0 0 0 0 0 0 0 0 0 0 0 0 0 0.1 0"/>
<feBlend mode="normal" in2="BackgroundImageFix" result="effect1_dropShadow_185_15818"/>
<feBlend mode="normal" in="SourceGraphic" in2="effect1_dropShadow_185_15818" result="shape"/>
</filter>
<filter id="filter11_d_185_15818" x="48" y="272" width="88" height="88" filterUnits="userSpaceOnUse" color-interpolation-filters="sRGB">
<feFlood flood-opacity="0" result="BackgroundImageFix"/>
<feColorMatrix in="SourceAlpha" type="matrix" values="0 0 0 0 0 0 0 0 0 0 0 0 0 0 0 0 0 0 127 0" result="hardAlpha"/>
<feOffset/>
<feGaussianBlur stdDeviation="8"/>
<feComposite in2="hardAlpha" operator="out"/>
<feColorMatrix type="matrix" values="0 0 0 0 0 0 0 0 0 0 0 0 0 0 0 0 0 0 0.1 0"/>
<feBlend mode="normal" in2="BackgroundImageFix" result="effect1_dropShadow_185_15818"/>
<feBlend mode="normal" in="SourceGraphic" in2="effect1_dropShadow_185_15818" result="shape"/>
</filter>
<filter id="filter12_d_185_15818" x="104" y="-8" width="88" height="88" filterUnits="userSpaceOnUse" color-interpolation-filters="sRGB">
<feFlood flood-opacity="0" result="BackgroundImageFix"/>
<feColorMatrix in="SourceAlpha" type="matrix" values="0 0 0 0 0 0 0 0 0 0 0 0 0 0 0 0 0 0 127 0" result="hardAlpha"/>
<feOffset/>
<feGaussianBlur stdDeviation="8"/>
<feComposite in2="hardAlpha" operator="out"/>
<feColorMatrix type="matrix" values="0 0 0 0 0 0 0 0 0 0 0 0 0 0 0 0 0 0 0.1 0"/>
<feBlend mode="normal" in2="BackgroundImageFix" result="effect1_dropShadow_185_15818"/>
<feBlend mode="normal" in="SourceGraphic" in2="effect1_dropShadow_185_15818" result="shape"/>
</filter>
<filter id="filter13_d_185_15818" x="104" y="104" width="88" height="88" filterUnits="userSpaceOnUse" color-interpolation-filters="sRGB">
<feFlood flood-opacity="0" result="BackgroundImageFix"/>
<feColorMatrix in="SourceAlpha" type="matrix" values="0 0 0 0 0 0 0 0 0 0 0 0 0 0 0 0 0 0 127 0" result="hardAlpha"/>
<feOffset/>
<feGaussianBlur stdDeviation="8"/>
<feComposite in2="hardAlpha" operator="out"/>
<feColorMatrix type="matrix" values="0 0 0 0 0 0 0 0 0 0 0 0 0 0 0 0 0 0 0.1 0"/>
<feBlend mode="normal" in2="BackgroundImageFix" result="effect1_dropShadow_185_15818"/>
<feBlend mode="normal" in="SourceGraphic" in2="effect1_dropShadow_185_15818" result="shape"/>
</filter>
<filter id="filter14_d_185_15818" x="104" y="160" width="88" height="88" filterUnits="userSpaceOnUse" color-interpolation-filters="sRGB">
<feFlood flood-opacity="0" result="BackgroundImageFix"/>
<feColorMatrix in="SourceAlpha" type="matrix" values="0 0 0 0 0 0 0 0 0 0 0 0 0 0 0 0 0 0 127 0" result="hardAlpha"/>
<feOffset/>
<feGaussianBlur stdDeviation="8"/>
<feComposite in2="hardAlpha" operator="out"/>
<feColorMatrix type="matrix" values="0 0 0 0 0 0 0 0 0 0 0 0 0 0 0 0 0 0 0.1 0"/>
<feBlend mode="normal" in2="BackgroundImageFix" result="effect1_dropShadow_185_15818"/>
<feBlend mode="normal" in="SourceGraphic" in2="effect1_dropShadow_185_15818" result="shape"/>
</filter>
<filter id="filter15_d_185_15818" x="104" y="216" width="88" height="88" filterUnits="userSpaceOnUse" color-interpolation-filters="sRGB">
<feFlood flood-opacity="0" result="BackgroundImageFix"/>
<feColorMatrix in="SourceAlpha" type="matrix" values="0 0 0 0 0 0 0 0 0 0 0 0 0 0 0 0 0 0 127 0" result="hardAlpha"/>
<feOffset/>
<feGaussianBlur stdDeviation="8"/>
<feComposite in2="hardAlpha" operator="out"/>
<feColorMatrix type="matrix" values="0 0 0 0 0 0 0 0 0 0 0 0 0 0 0 0 0 0 0.1 0"/>
<feBlend mode="normal" in2="BackgroundImageFix" result="effect1_dropShadow_185_15818"/>
<feBlend mode="normal" in="SourceGraphic" in2="effect1_dropShadow_185_15818" result="shape"/>
</filter>
<filter id="filter16_d_185_15818" x="104" y="272" width="88" height="88" filterUnits="userSpaceOnUse" color-interpolation-filters="sRGB">
<feFlood flood-opacity="0" result="BackgroundImageFix"/>
<feColorMatrix in="SourceAlpha" type="matrix" values="0 0 0 0 0 0 0 0 0 0 0 0 0 0 0 0 0 0 127 0" result="hardAlpha"/>
<feOffset/>
<feGaussianBlur stdDeviation="8"/>
<feComposite in2="hardAlpha" operator="out"/>
<feColorMatrix type="matrix" values="0 0 0 0 0 0 0 0 0 0 0 0 0 0 0 0 0 0 0.1 0"/>
<feBlend mode="normal" in2="BackgroundImageFix" result="effect1_dropShadow_185_15818"/>
<feBlend mode="normal" in="SourceGraphic" in2="effect1_dropShadow_185_15818" result="shape"/>
</filter>
<filter id="filter17_d_185_15818" x="104" y="328" width="88" height="88" filterUnits="userSpaceOnUse" color-interpolation-filters="sRGB">
<feFlood flood-opacity="0" result="BackgroundImageFix"/>
<feColorMatrix in="SourceAlpha" type="matrix" values="0 0 0 0 0 0 0 0 0 0 0 0 0 0 0 0 0 0 127 0" result="hardAlpha"/>
<feOffset/>
<feGaussianBlur stdDeviation="8"/>
<feComposite in2="hardAlpha" operator="out"/>
<feColorMatrix type="matrix" values="0 0 0 0 0 0 0 0 0 0 0 0 0 0 0 0 0 0 0.1 0"/>
<feBlend mode="normal" in2="BackgroundImageFix" result="effect1_dropShadow_185_15818"/>
<feBlend mode="normal" in="SourceGraphic" in2="effect1_dropShadow_185_15818" result="shape"/>
</filter>
<filter id="filter18_d_185_15818" x="160" y="-8" width="88" height="88" filterUnits="userSpaceOnUse" color-interpolation-filters="sRGB">
<feFlood flood-opacity="0" result="BackgroundImageFix"/>
<feColorMatrix in="SourceAlpha" type="matrix" values="0 0 0 0 0 0 0 0 0 0 0 0 0 0 0 0 0 0 127 0" result="hardAlpha"/>
<feOffset/>
<feGaussianBlur stdDeviation="8"/>
<feComposite in2="hardAlpha" operator="out"/>
<feColorMatrix type="matrix" values="0 0 0 0 0 0 0 0 0 0 0 0 0 0 0 0 0 0 0.1 0"/>
<feBlend mode="normal" in2="BackgroundImageFix" result="effect1_dropShadow_185_15818"/>
<feBlend mode="normal" in="SourceGraphic" in2="effect1_dropShadow_185_15818" result="shape"/>
</filter>
<filter id="filter19_d_185_15818" x="160" y="48" width="88" height="88" filterUnits="userSpaceOnUse" color-interpolation-filters="sRGB">
<feFlood flood-opacity="0" result="BackgroundImageFix"/>
<feColorMatrix in="SourceAlpha" type="matrix" values="0 0 0 0 0 0 0 0 0 0 0 0 0 0 0 0 0 0 127 0" result="hardAlpha"/>
<feOffset/>
<feGaussianBlur stdDeviation="8"/>
<feComposite in2="hardAlpha" operator="out"/>
<feColorMatrix type="matrix" values="0 0 0 0 0 0 0 0 0 0 0 0 0 0 0 0 0 0 0.1 0"/>
<feBlend mode="normal" in2="BackgroundImageFix" result="effect1_dropShadow_185_15818"/>
<feBlend mode="normal" in="SourceGraphic" in2="effect1_dropShadow_185_15818" result="shape"/>
</filter>
<filter id="filter20_d_185_15818" x="160" y="160" width="88" height="88" filterUnits="userSpaceOnUse" color-interpolation-filters="sRGB">
<feFlood flood-opacity="0" result="BackgroundImageFix"/>
<feColorMatrix in="SourceAlpha" type="matrix" values="0 0 0 0 0 0 0 0 0 0 0 0 0 0 0 0 0 0 127 0" result="hardAlpha"/>
<feOffset/>
<feGaussianBlur stdDeviation="8"/>
<feComposite in2="hardAlpha" operator="out"/>
<feColorMatrix type="matrix" values="0 0 0 0 0 0 0 0 0 0 0 0 0 0 0 0 0 0 0.1 0"/>
<feBlend mode="normal" in2="BackgroundImageFix" result="effect1_dropShadow_185_15818"/>
<feBlend mode="normal" in="SourceGraphic" in2="effect1_dropShadow_185_15818" result="shape"/>
</filter>
<filter id="filter21_d_185_15818" x="160" y="216" width="88" height="88" filterUnits="userSpaceOnUse" color-interpolation-filters="sRGB">
<feFlood flood-opacity="0" result="BackgroundImageFix"/>
<feColorMatrix in="SourceAlpha" type="matrix" values="0 0 0 0 0 0 0 0 0 0 0 0 0 0 0 0 0 0 127 0" result="hardAlpha"/>
<feOffset/>
<feGaussianBlur stdDeviation="8"/>
<feComposite in2="hardAlpha" operator="out"/>
<feColorMatrix type="matrix" values="0 0 0 0 0 0 0 0 0 0 0 0 0 0 0 0 0 0 0.1 0"/>
<feBlend mode="normal" in2="BackgroundImageFix" result="effect1_dropShadow_185_15818"/>
<feBlend mode="normal" in="SourceGraphic" in2="effect1_dropShadow_185_15818" result="shape"/>
</filter>
<filter id="filter22_d_185_15818" x="160" y="328" width="88" height="88" filterUnits="userSpaceOnUse" color-interpolation-filters="sRGB">
<feFlood flood-opacity="0" result="BackgroundImageFix"/>
<feColorMatrix in="SourceAlpha" type="matrix" values="0 0 0 0 0 0 0 0 0 0 0 0 0 0 0 0 0 0 127 0" result="hardAlpha"/>
<feOffset/>
<feGaussianBlur stdDeviation="8"/>
<feComposite in2="hardAlpha" operator="out"/>
<feColorMatrix type="matrix" values="0 0 0 0 0 0 0 0 0 0 0 0 0 0 0 0 0 0 0.1 0"/>
<feBlend mode="normal" in2="BackgroundImageFix" result="effect1_dropShadow_185_15818"/>
<feBlend mode="normal" in="SourceGraphic" in2="effect1_dropShadow_185_15818" result="shape"/>
</filter>
<filter id="filter23_d_185_15818" x="216" y="-8" width="88" height="88" filterUnits="userSpaceOnUse" color-interpolation-filters="sRGB">
<feFlood flood-opacity="0" result="BackgroundImageFix"/>
<feColorMatrix in="SourceAlpha" type="matrix" values="0 0 0 0 0 0 0 0 0 0 0 0 0 0 0 0 0 0 127 0" result="hardAlpha"/>
<feOffset/>
<feGaussianBlur stdDeviation="8"/>
<feComposite in2="hardAlpha" operator="out"/>
<feColorMatrix type="matrix" values="0 0 0 0 0 0 0 0 0 0 0 0 0 0 0 0 0 0 0.1 0"/>
<feBlend mode="normal" in2="BackgroundImageFix" result="effect1_dropShadow_185_15818"/>
<feBlend mode="normal" in="SourceGraphic" in2="effect1_dropShadow_185_15818" result="shape"/>
</filter>
<filter id="filter24_d_185_15818" x="216" y="48" width="88" height="88" filterUnits="userSpaceOnUse" color-interpolation-filters="sRGB">
<feFlood flood-opacity="0" result="BackgroundImageFix"/>
<feColorMatrix in="SourceAlpha" type="matrix" values="0 0 0 0 0 0 0 0 0 0 0 0 0 0 0 0 0 0 127 0" result="hardAlpha"/>
<feOffset/>
<feGaussianBlur stdDeviation="8"/>
<feComposite in2="hardAlpha" operator="out"/>
<feColorMatrix type="matrix" values="0 0 0 0 0 0 0 0 0 0 0 0 0 0 0 0 0 0 0.1 0"/>
<feBlend mode="normal" in2="BackgroundImageFix" result="effect1_dropShadow_185_15818"/>
<feBlend mode="normal" in="SourceGraphic" in2="effect1_dropShadow_185_15818" result="shape"/>
</filter>
<filter id="filter25_d_185_15818" x="216" y="104" width="88" height="88" filterUnits="userSpaceOnUse" color-interpolation-filters="sRGB">
<feFlood flood-opacity="0" result="BackgroundImageFix"/>
<feColorMatrix in="SourceAlpha" type="matrix" values="0 0 0 0 0 0 0 0 0 0 0 0 0 0 0 0 0 0 127 0" result="hardAlpha"/>
<feOffset/>
<feGaussianBlur stdDeviation="8"/>
<feComposite in2="hardAlpha" operator="out"/>
<feColorMatrix type="matrix" values="0 0 0 0 0 0 0 0 0 0 0 0 0 0 0 0 0 0 0.1 0"/>
<feBlend mode="normal" in2="BackgroundImageFix" result="effect1_dropShadow_185_15818"/>
<feBlend mode="normal" in="SourceGraphic" in2="effect1_dropShadow_185_15818" result="shape"/>
</filter>
<filter id="filter26_d_185_15818" x="216" y="160" width="88" height="88" filterUnits="userSpaceOnUse" color-interpolation-filters="sRGB">
<feFlood flood-opacity="0" result="BackgroundImageFix"/>
<feColorMatrix in="SourceAlpha" type="matrix" values="0 0 0 0 0 0 0 0 0 0 0 0 0 0 0 0 0 0 127 0" result="hardAlpha"/>
<feOffset/>
<feGaussianBlur stdDeviation="8"/>
<feComposite in2="hardAlpha" operator="out"/>
<feColorMatrix type="matrix" values="0 0 0 0 0 0 0 0 0 0 0 0 0 0 0 0 0 0 0.1 0"/>
<feBlend mode="normal" in2="BackgroundImageFix" result="effect1_dropShadow_185_15818"/>
<feBlend mode="normal" in="SourceGraphic" in2="effect1_dropShadow_185_15818" result="shape"/>
</filter>
<filter id="filter27_d_185_15818" x="216" y="216" width="88" height="88" filterUnits="userSpaceOnUse" color-interpolation-filters="sRGB">
<feFlood flood-opacity="0" result="BackgroundImageFix"/>
<feColorMatrix in="SourceAlpha" type="matrix" values="0 0 0 0 0 0 0 0 0 0 0 0 0 0 0 0 0 0 127 0" result="hardAlpha"/>
<feOffset/>
<feGaussianBlur stdDeviation="8"/>
<feComposite in2="hardAlpha" operator="out"/>
<feColorMatrix type="matrix" values="0 0 0 0 0 0 0 0 0 0 0 0 0 0 0 0 0 0 0.1 0"/>
<feBlend mode="normal" in2="BackgroundImageFix" result="effect1_dropShadow_185_15818"/>
<feBlend mode="normal" in="SourceGraphic" in2="effect1_dropShadow_185_15818" result="shape"/>
</filter>
<filter id="filter28_d_185_15818" x="216" y="272" width="88" height="88" filterUnits="userSpaceOnUse" color-interpolation-filters="sRGB">
<feFlood flood-opacity="0" result="BackgroundImageFix"/>
<feColorMatrix in="SourceAlpha" type="matrix" values="0 0 0 0 0 0 0 0 0 0 0 0 0 0 0 0 0 0 127 0" result="hardAlpha"/>
<feOffset/>
<feGaussianBlur stdDeviation="8"/>
<feComposite in2="hardAlpha" operator="out"/>
<feColorMatrix type="matrix" values="0 0 0 0 0 0 0 0 0 0 0 0 0 0 0 0 0 0 0.1 0"/>
<feBlend mode="normal" in2="BackgroundImageFix" result="effect1_dropShadow_185_15818"/>
<feBlend mode="normal" in="SourceGraphic" in2="effect1_dropShadow_185_15818" result="shape"/>
</filter>
<filter id="filter29_d_185_15818" x="216" y="328" width="88" height="88" filterUnits="userSpaceOnUse" color-interpolation-filters="sRGB">
<feFlood flood-opacity="0" result="BackgroundImageFix"/>
<feColorMatrix in="SourceAlpha" type="matrix" values="0 0 0 0 0 0 0 0 0 0 0 0 0 0 0 0 0 0 127 0" result="hardAlpha"/>
<feOffset/>
<feGaussianBlur stdDeviation="8"/>
<feComposite in2="hardAlpha" operator="out"/>
<feColorMatrix type="matrix" values="0 0 0 0 0 0 0 0 0 0 0 0 0 0 0 0 0 0 0.1 0"/>
<feBlend mode="normal" in2="BackgroundImageFix" result="effect1_dropShadow_185_15818"/>
<feBlend mode="normal" in="SourceGraphic" in2="effect1_dropShadow_185_15818" result="shape"/>
</filter>
<filter id="filter30_d_185_15818" x="272" y="-8" width="88" height="88" filterUnits="userSpaceOnUse" color-interpolation-filters="sRGB">
<feFlood flood-opacity="0" result="BackgroundImageFix"/>
<feColorMatrix in="SourceAlpha" type="matrix" values="0 0 0 0 0 0 0 0 0 0 0 0 0 0 0 0 0 0 127 0" result="hardAlpha"/>
<feOffset/>
<feGaussianBlur stdDeviation="8"/>
<feComposite in2="hardAlpha" operator="out"/>
<feColorMatrix type="matrix" values="0 0 0 0 0 0 0 0 0 0 0 0 0 0 0 0 0 0 0.1 0"/>
<feBlend mode="normal" in2="BackgroundImageFix" result="effect1_dropShadow_185_15818"/>
<feBlend mode="normal" in="SourceGraphic" in2="effect1_dropShadow_185_15818" result="shape"/>
</filter>
<filter id="filter31_d_185_15818" x="272" y="48" width="88" height="88" filterUnits="userSpaceOnUse" color-interpolation-filters="sRGB">
<feFlood flood-opacity="0" result="BackgroundImageFix"/>
<feColorMatrix in="SourceAlpha" type="matrix" values="0 0 0 0 0 0 0 0 0 0 0 0 0 0 0 0 0 0 127 0" result="hardAlpha"/>
<feOffset/>
<feGaussianBlur stdDeviation="8"/>
<feComposite in2="hardAlpha" operator="out"/>
<feColorMatrix type="matrix" values="0 0 0 0 0 0 0 0 0 0 0 0 0 0 0 0 0 0 0.1 0"/>
<feBlend mode="normal" in2="BackgroundImageFix" result="effect1_dropShadow_185_15818"/>
<feBlend mode="normal" in="SourceGraphic" in2="effect1_dropShadow_185_15818" result="shape"/>
</filter>
<filter id="filter32_d_185_15818" x="272" y="104" width="88" height="88" filterUnits="userSpaceOnUse" color-interpolation-filters="sRGB">
<feFlood flood-opacity="0" result="BackgroundImageFix"/>
<feColorMatrix in="SourceAlpha" type="matrix" values="0 0 0 0 0 0 0 0 0 0 0 0 0 0 0 0 0 0 127 0" result="hardAlpha"/>
<feOffset/>
<feGaussianBlur stdDeviation="8"/>
<feComposite in2="hardAlpha" operator="out"/>
<feColorMatrix type="matrix" values="0 0 0 0 0 0 0 0 0 0 0 0 0 0 0 0 0 0 0.1 0"/>
<feBlend mode="normal" in2="BackgroundImageFix" result="effect1_dropShadow_185_15818"/>
<feBlend mode="normal" in="SourceGraphic" in2="effect1_dropShadow_185_15818" result="shape"/>
</filter>
<filter id="filter33_d_185_15818" x="272" y="160" width="88" height="88" filterUnits="userSpaceOnUse" color-interpolation-filters="sRGB">
<feFlood flood-opacity="0" result="BackgroundImageFix"/>
<feColorMatrix in="SourceAlpha" type="matrix" values="0 0 0 0 0 0 0 0 0 0 0 0 0 0 0 0 0 0 127 0" result="hardAlpha"/>
<feOffset/>
<feGaussianBlur stdDeviation="8"/>
<feComposite in2="hardAlpha" operator="out"/>
<feColorMatrix type="matrix" values="0 0 0 0 0 0 0 0 0 0 0 0 0 0 0 0 0 0 0.1 0"/>
<feBlend mode="normal" in2="BackgroundImageFix" result="effect1_dropShadow_185_15818"/>
<feBlend mode="normal" in="SourceGraphic" in2="effect1_dropShadow_185_15818" result="shape"/>
</filter>
<filter id="filter34_d_185_15818" x="272" y="216" width="88" height="88" filterUnits="userSpaceOnUse" color-interpolation-filters="sRGB">
<feFlood flood-opacity="0" result="BackgroundImageFix"/>
<feColorMatrix in="SourceAlpha" type="matrix" values="0 0 0 0 0 0 0 0 0 0 0 0 0 0 0 0 0 0 127 0" result="hardAlpha"/>
<feOffset/>
<feGaussianBlur stdDeviation="8"/>
<feComposite in2="hardAlpha" operator="out"/>
<feColorMatrix type="matrix" values="0 0 0 0 0 0 0 0 0 0 0 0 0 0 0 0 0 0 0.1 0"/>
<feBlend mode="normal" in2="BackgroundImageFix" result="effect1_dropShadow_185_15818"/>
<feBlend mode="normal" in="SourceGraphic" in2="effect1_dropShadow_185_15818" result="shape"/>
</filter>
<filter id="filter35_d_185_15818" x="272" y="272" width="88" height="88" filterUnits="userSpaceOnUse" color-interpolation-filters="sRGB">
<feFlood flood-opacity="0" result="BackgroundImageFix"/>
<feColorMatrix in="SourceAlpha" type="matrix" values="0 0 0 0 0 0 0 0 0 0 0 0 0 0 0 0 0 0 127 0" result="hardAlpha"/>
<feOffset/>
<feGaussianBlur stdDeviation="8"/>
<feComposite in2="hardAlpha" operator="out"/>
<feColorMatrix type="matrix" values="0 0 0 0 0 0 0 0 0 0 0 0 0 0 0 0 0 0 0.1 0"/>
<feBlend mode="normal" in2="BackgroundImageFix" result="effect1_dropShadow_185_15818"/>
<feBlend mode="normal" in="SourceGraphic" in2="effect1_dropShadow_185_15818" result="shape"/>
</filter>
<filter id="filter36_d_185_15818" x="272" y="328" width="88" height="88" filterUnits="userSpaceOnUse" color-interpolation-filters="sRGB">
<feFlood flood-opacity="0" result="BackgroundImageFix"/>
<feColorMatrix in="SourceAlpha" type="matrix" values="0 0 0 0 0 0 0 0 0 0 0 0 0 0 0 0 0 0 127 0" result="hardAlpha"/>
<feOffset/>
<feGaussianBlur stdDeviation="8"/>
<feComposite in2="hardAlpha" operator="out"/>
<feColorMatrix type="matrix" values="0 0 0 0 0 0 0 0 0 0 0 0 0 0 0 0 0 0 0.1 0"/>
<feBlend mode="normal" in2="BackgroundImageFix" result="effect1_dropShadow_185_15818"/>
<feBlend mode="normal" in="SourceGraphic" in2="effect1_dropShadow_185_15818" result="shape"/>
</filter>
<filter id="filter37_d_185_15818" x="104" y="48" width="88" height="88" filterUnits="userSpaceOnUse" color-interpolation-filters="sRGB">
<feFlood flood-opacity="0" result="BackgroundImageFix"/>
<feColorMatrix in="SourceAlpha" type="matrix" values="0 0 0 0 0 0 0 0 0 0 0 0 0 0 0 0 0 0 127 0" result="hardAlpha"/>
<feOffset/>
<feGaussianBlur stdDeviation="8"/>
<feComposite in2="hardAlpha" operator="out"/>
<feColorMatrix type="matrix" values="0 0 0 0 0 0 0 0 0 0 0 0 0 0 0 0 0 0 0.1 0"/>
<feBlend mode="normal" in2="BackgroundImageFix" result="effect1_dropShadow_185_15818"/>
<feBlend mode="normal" in="SourceGraphic" in2="effect1_dropShadow_185_15818" result="shape"/>
</filter>
<filter id="filter38_d_185_15818" x="160" y="104" width="88" height="88" filterUnits="userSpaceOnUse" color-interpolation-filters="sRGB">
<feFlood flood-opacity="0" result="BackgroundImageFix"/>
<feColorMatrix in="SourceAlpha" type="matrix" values="0 0 0 0 0 0 0 0 0 0 0 0 0 0 0 0 0 0 127 0" result="hardAlpha"/>
<feOffset/>
<feGaussianBlur stdDeviation="8"/>
<feComposite in2="hardAlpha" operator="out"/>
<feColorMatrix type="matrix" values="0 0 0 0 0 0 0 0 0 0 0 0 0 0 0 0 0 0 0.1 0"/>
<feBlend mode="normal" in2="BackgroundImageFix" result="effect1_dropShadow_185_15818"/>
<feBlend mode="normal" in="SourceGraphic" in2="effect1_dropShadow_185_15818" result="shape"/>
</filter>
<filter id="filter39_d_185_15818" x="48" y="216" width="88" height="88" filterUnits="userSpaceOnUse" color-interpolation-filters="sRGB">
<feFlood flood-opacity="0" result="BackgroundImageFix"/>
<feColorMatrix in="SourceAlpha" type="matrix" values="0 0 0 0 0 0 0 0 0 0 0 0 0 0 0 0 0 0 127 0" result="hardAlpha"/>
<feOffset/>
<feGaussianBlur stdDeviation="8"/>
<feComposite in2="hardAlpha" operator="out"/>
<feColorMatrix type="matrix" values="0 0 0 0 0 0 0 0 0 0 0 0 0 0 0 0 0 0 0.1 0"/>
<feBlend mode="normal" in2="BackgroundImageFix" result="effect1_dropShadow_185_15818"/>
<feBlend mode="normal" in="SourceGraphic" in2="effect1_dropShadow_185_15818" result="shape"/>
</filter>
<filter id="filter40_d_185_15818" x="48" y="328" width="88" height="88" filterUnits="userSpaceOnUse" color-interpolation-filters="sRGB">
<feFlood flood-opacity="0" result="BackgroundImageFix"/>
<feColorMatrix in="SourceAlpha" type="matrix" values="0 0 0 0 0 0 0 0 0 0 0 0 0 0 0 0 0 0 127 0" result="hardAlpha"/>
<feOffset/>
<feGaussianBlur stdDeviation="8"/>
<feComposite in2="hardAlpha" operator="out"/>
<feColorMatrix type="matrix" values="0 0 0 0 0 0 0 0 0 0 0 0 0 0 0 0 0 0 0.1 0"/>
<feBlend mode="normal" in2="BackgroundImageFix" result="effect1_dropShadow_185_15818"/>
<feBlend mode="normal" in="SourceGraphic" in2="effect1_dropShadow_185_15818" result="shape"/>
</filter>
<filter id="filter41_d_185_15818" x="160" y="272" width="88" height="88" filterUnits="userSpaceOnUse" color-interpolation-filters="sRGB">
<feFlood flood-opacity="0" result="BackgroundImageFix"/>
<feColorMatrix in="SourceAlpha" type="matrix" values="0 0 0 0 0 0 0 0 0 0 0 0 0 0 0 0 0 0 127 0" result="hardAlpha"/>
<feOffset/>
<feGaussianBlur stdDeviation="8"/>
<feComposite in2="hardAlpha" operator="out"/>
<feColorMatrix type="matrix" values="0 0 0 0 0 0 0 0 0 0 0 0 0 0 0 0 0 0 0.1 0"/>
<feBlend mode="normal" in2="BackgroundImageFix" result="effect1_dropShadow_185_15818"/>
<feBlend mode="normal" in="SourceGraphic" in2="effect1_dropShadow_185_15818" result="shape"/>
</filter>
<filter id="filter42_d_185_15818" x="216" y="140" width="128" height="128" filterUnits="userSpaceOnUse" color-interpolation-filters="sRGB">
<feFlood flood-opacity="0" result="BackgroundImageFix"/>
<feColorMatrix in="SourceAlpha" type="matrix" values="0 0 0 0 0 0 0 0 0 0 0 0 0 0 0 0 0 0 127 0" result="hardAlpha"/>
<feOffset/>
<feGaussianBlur stdDeviation="8"/>
<feComposite in2="hardAlpha" operator="out"/>
<feColorMatrix type="matrix" values="0 0 0 0 0 0 0 0 0 0 0 0 0 0 0 0 0 0 0.1 0"/>
<feBlend mode="normal" in2="BackgroundImageFix" result="effect1_dropShadow_185_15818"/>
<feBlend mode="normal" in="SourceGraphic" in2="effect1_dropShadow_185_15818" result="shape"/>
</filter>
<filter id="filter43_d_185_15818" x="152" y="128" width="152" height="152" filterUnits="userSpaceOnUse" color-interpolation-filters="sRGB">
<feFlood flood-opacity="0" result="BackgroundImageFix"/>
<feColorMatrix in="SourceAlpha" type="matrix" values="0 0 0 0 0 0 0 0 0 0 0 0 0 0 0 0 0 0 127 0" result="hardAlpha"/>
<feOffset/>
<feGaussianBlur stdDeviation="8"/>
<feComposite in2="hardAlpha" operator="out"/>
<feColorMatrix type="matrix" values="0 0 0 0 0 0 0 0 0 0 0 0 0 0 0 0 0 0 0.1 0"/>
<feBlend mode="normal" in2="BackgroundImageFix" result="effect1_dropShadow_185_15818"/>
<feBlend mode="normal" in="SourceGraphic" in2="effect1_dropShadow_185_15818" result="shape"/>
</filter>
<filter id="filter44_d_185_15818" x="8" y="140" width="128" height="128" filterUnits="userSpaceOnUse" color-interpolation-filters="sRGB">
<feFlood flood-opacity="0" result="BackgroundImageFix"/>
<feColorMatrix in="SourceAlpha" type="matrix" values="0 0 0 0 0 0 0 0 0 0 0 0 0 0 0 0 0 0 127 0" result="hardAlpha"/>
<feOffset/>
<feGaussianBlur stdDeviation="8"/>
<feComposite in2="hardAlpha" operator="out"/>
<feColorMatrix type="matrix" values="0 0 0 0 0 0 0 0 0 0 0 0 0 0 0 0 0 0 0.1 0"/>
<feBlend mode="normal" in2="BackgroundImageFix" result="effect1_dropShadow_185_15818"/>
<feBlend mode="normal" in="SourceGraphic" in2="effect1_dropShadow_185_15818" result="shape"/>
</filter>
<filter id="filter45_d_185_15818" x="48" y="128" width="152" height="152" filterUnits="userSpaceOnUse" color-interpolation-filters="sRGB">
<feFlood flood-opacity="0" result="BackgroundImageFix"/>
<feColorMatrix in="SourceAlpha" type="matrix" values="0 0 0 0 0 0 0 0 0 0 0 0 0 0 0 0 0 0 127 0" result="hardAlpha"/>
<feOffset/>
<feGaussianBlur stdDeviation="8"/>
<feComposite in2="hardAlpha" operator="out"/>
<feColorMatrix type="matrix" values="0 0 0 0 0 0 0 0 0 0 0 0 0 0 0 0 0 0 0.1 0"/>
<feBlend mode="normal" in2="BackgroundImageFix" result="effect1_dropShadow_185_15818"/>
<feBlend mode="normal" in="SourceGraphic" in2="effect1_dropShadow_185_15818" result="shape"/>
</filter>
<filter id="filter46_d_185_15818" x="86" y="114" width="180" height="180" filterUnits="userSpaceOnUse" color-interpolation-filters="sRGB">
<feFlood flood-opacity="0" result="BackgroundImageFix"/>
<feColorMatrix in="SourceAlpha" type="matrix" values="0 0 0 0 0 0 0 0 0 0 0 0 0 0 0 0 0 0 127 0" result="hardAlpha"/>
<feOffset/>
<feGaussianBlur stdDeviation="8"/>
<feComposite in2="hardAlpha" operator="out"/>
<feColorMatrix type="matrix" values="0 0 0 0 0 0 0 0 0 0 0 0 0 0 0 0 0 0 0.1 0"/>
<feBlend mode="normal" in2="BackgroundImageFix" result="effect1_dropShadow_185_15818"/>
<feBlend mode="normal" in="SourceGraphic" in2="effect1_dropShadow_185_15818" result="shape"/>
</filter>
<radialGradient id="paint0_radial_185_15818" cx="0" cy="0" r="1" gradientUnits="userSpaceOnUse" gradientTransform="translate(176 204) rotate(90) scale(204 176)">
<stop offset="0.679584" stop-color="#F6F6F6" stop-opacity="0"/>
<stop offset="1" stop-color="#F6F6F6"/>
</radialGradient>
<linearGradient id="paint1_linear_185_15818" x1="173.5" y1="209.5" x2="237.5" y2="136" gradientUnits="userSpaceOnUse">
<stop stop-color="#F3F3F3"/>
<stop offset="1" stop-color="#161616"/>
</linearGradient>
<clipPath id="clip0_185_15818">
<rect width="352" height="408" rx="24" fill="white"/>
</clipPath>
</defs>
</svg>
