<svg width="352" height="352" viewBox="0 0 352 352" fill="none" xmlns="http://www.w3.org/2000/svg">
<g clip-path="url(#clip0_290_752)">
<rect width="352" height="352" rx="24" fill="#F6F6F6"/>
<g opacity="0.08" filter="url(#filter0_d_290_752)">
<rect x="8" y="-20" width="56" height="56" rx="12" fill="#F6F6F6" shape-rendering="crispEdges"/>
<path d="M32.5 15V17.2C32.5 17.48 32.5 17.62 32.4455 17.727C32.3976 17.8211 32.3211 17.8976 32.227 17.9455C32.12 18 31.98 18 31.7 18H29.8C29.52 18 29.38 18 29.273 17.9455C29.1789 17.8976 29.1024 17.8211 29.0545 17.727C29 17.62 29 17.48 29 17.2V15M43 15V17.2C43 17.48 43 17.62 42.9455 17.727C42.8976 17.8211 42.8211 17.8976 42.727 17.9455C42.62 18 42.48 18 42.2 18H40.3C40.02 18 39.88 18 39.773 17.9455C39.6789 17.8976 39.6024 17.8211 39.5545 17.727C39.5 17.62 39.5 17.48 39.5 17.2V15M27 8H45M27 1.5H45M30.5 11.5H32M40 11.5H41.5M31.8 15H40.2C41.8802 15 42.7202 15 43.362 14.673C43.9265 14.3854 44.3854 13.9265 44.673 13.362C45 12.7202 45 11.8802 45 10.2V2.8C45 1.11984 45 0.279764 44.673 -0.361971C44.3854 -0.926458 43.9265 -1.3854 43.362 -1.67302C42.7202 -2 41.8802 -2 40.2 -2H31.8C30.1198 -2 29.2798 -2 28.638 -1.67302C28.0735 -1.3854 27.6146 -0.926458 27.327 -0.361971C27 0.279764 27 1.11984 27 2.8V10.2C27 11.8802 27 12.7202 27.327 13.362C27.6146 13.9265 28.0735 14.3854 28.638 14.673C29.2798 15 30.1198 15 31.8 15Z" stroke="black" stroke-width="2" stroke-linecap="round" stroke-linejoin="round"/>
</g>
<g opacity="0.08" filter="url(#filter1_d_290_752)">
<rect x="8" y="36" width="56" height="56" rx="12" fill="#F6F6F6" shape-rendering="crispEdges"/>
<path d="M36 64.5C37.6569 64.5 39 63.1569 39 61.5C39 59.8431 37.6569 58.5 36 58.5C34.3431 58.5 33 59.8431 33 61.5C33 63.1569 34.3431 64.5 36 64.5Z" stroke="black" stroke-width="2" stroke-linecap="round" stroke-linejoin="round"/>
<path d="M36 74C38 70 44 67.4183 44 62C44 57.5817 40.4183 54 36 54C31.5817 54 28 57.5817 28 62C28 67.4183 34 70 36 74Z" stroke="black" stroke-width="2" stroke-linecap="round" stroke-linejoin="round"/>
</g>
<g opacity="0.08" filter="url(#filter2_d_290_752)">
<rect x="8" y="92" width="56" height="56" rx="12" fill="#F6F6F6" shape-rendering="crispEdges"/>
<path d="M46 120C46 125.523 41.5228 130 36 130M46 120C46 114.477 41.5228 110 36 110M46 120H44M36 130C30.4772 130 26 125.523 26 120M36 130V128M26 120C26 114.477 30.4772 110 36 110M26 120H28M36 110V112M43.0711 127.071L41.6569 125.657M30.3431 114.343L28.9289 112.929M41.6569 114.343L43.0711 112.929M28.9289 127.071L30.3431 125.657M32 120L34.5 118.5L36 116L37.5 118.5L40 120L37.5 121.5L36 124L34.5 121.5L32 120Z" stroke="black" stroke-width="2" stroke-linecap="round" stroke-linejoin="round"/>
</g>
<g opacity="0.08" filter="url(#filter3_d_290_752)">
<rect x="8" y="148" width="56" height="56" rx="12" fill="#F6F6F6" shape-rendering="crispEdges"/>
<path d="M40 177.374C43.5318 178.069 46 179.655 46 181.5C46 183.985 41.5228 186 36 186C30.4772 186 26 183.985 26 181.5C26 179.655 28.4682 178.069 32 177.374M36 181V167L41.3177 170.272C41.7056 170.511 41.8995 170.63 41.9614 170.781C42.0154 170.912 42.0111 171.06 41.9497 171.188C41.8792 171.334 41.6787 171.442 41.2777 171.658L36 174.5" stroke="black" stroke-width="2" stroke-linecap="round" stroke-linejoin="round"/>
</g>
<g opacity="0.08" filter="url(#filter4_d_290_752)">
<rect x="8" y="204" width="56" height="56" rx="12" fill="#F6F6F6" shape-rendering="crispEdges"/>
<path d="M28 235C28 235 29 234 32 234C35 234 37 236 40 236C43 236 44 235 44 235V223C44 223 43 224 40 224C37 224 35 222 32 222C29 222 28 223 28 223L28 242" stroke="black" stroke-width="2" stroke-linecap="round" stroke-linejoin="round"/>
</g>
<g opacity="0.08" filter="url(#filter5_d_290_752)">
<rect x="8" y="260" width="56" height="56" rx="12" fill="#F6F6F6" shape-rendering="crispEdges"/>
<path d="M35 280H31.8C30.1198 280 29.2798 280 28.638 280.327C28.0735 280.615 27.6146 281.074 27.327 281.638C27 282.28 27 283.12 27 284.8V290C27 290.93 27 291.395 27.1022 291.776C27.3796 292.812 28.1883 293.62 29.2235 293.898C29.605 294 30.07 294 31 294V296.336C31 296.868 31 297.135 31.1092 297.272C31.2042 297.391 31.3483 297.46 31.5005 297.46C31.6756 297.459 31.8837 297.293 32.2998 296.96L34.6852 295.052C35.1725 294.662 35.4162 294.467 35.6875 294.328C35.9282 294.205 36.1844 294.116 36.4492 294.061C36.7477 294 37.0597 294 37.6837 294H39.2C40.8802 294 41.7202 294 42.362 293.673C42.9265 293.385 43.3854 292.926 43.673 292.362C44 291.72 44 290.88 44 289.2V289M44.1213 279.879C45.2929 281.05 45.2929 282.95 44.1213 284.121C42.9497 285.293 41.0503 285.293 39.8787 284.121C38.7071 282.95 38.7071 281.05 39.8787 279.879C41.0503 278.707 42.9497 278.707 44.1213 279.879Z" stroke="black" stroke-width="2" stroke-linecap="round" stroke-linejoin="round"/>
</g>
<g opacity="0.08" filter="url(#filter6_d_290_752)">
<rect x="8" y="316" width="56" height="56" rx="12" fill="#F6F6F6" shape-rendering="crispEdges"/>
<path d="M43 341L46 338M46 338L43 335M46 338L40 338M40 353V351.8C40 350.12 40 349.28 39.673 348.638C39.3854 348.074 38.9265 347.615 38.362 347.327C37.7202 347 36.8802 347 35.2 347H30.8C29.1198 347 28.2798 347 27.638 347.327C27.0735 347.615 26.6146 348.074 26.327 348.638C26 349.28 26 350.12 26 351.8V353M36.5 339.5C36.5 341.433 34.933 343 33 343C31.067 343 29.5 341.433 29.5 339.5C29.5 337.567 31.067 336 33 336C34.933 336 36.5 337.567 36.5 339.5Z" stroke="black" stroke-width="2" stroke-linecap="round" stroke-linejoin="round"/>
</g>
<g opacity="0.08" filter="url(#filter7_d_290_752)">
<rect x="64" y="-20" width="56" height="56" rx="12" fill="#F6F6F6" shape-rendering="crispEdges"/>
<path d="M82 8H102M82 8C82 13.5228 86.4772 18 92 18M82 8C82 2.47715 86.4772 -2 92 -2M102 8C102 13.5228 97.5228 18 92 18M102 8C102 2.47715 97.5228 -2 92 -2M92 -2C94.5013 0.738353 95.9228 4.29203 96 8C95.9228 11.708 94.5013 15.2616 92 18M92 -2C89.4987 0.738353 88.0772 4.29203 88 8C88.0772 11.708 89.4987 15.2616 92 18" stroke="black" stroke-width="2" stroke-linecap="round" stroke-linejoin="round"/>
</g>
<g opacity="0.08" filter="url(#filter8_d_290_752)">
<rect x="64" y="36" width="56" height="56" rx="12" fill="#F6F6F6" shape-rendering="crispEdges"/>
<path d="M92 66.9998L89 63.9998M92 66.9998C93.3968 66.4685 94.7369 65.7985 96 64.9998M92 66.9998V71.9998C92 71.9998 95.03 71.4498 96 69.9998C97.08 68.3798 96 64.9998 96 64.9998M89 63.9998C89.5321 62.6192 90.2022 61.2958 91 60.0498C92.1652 58.1867 93.7876 56.6528 95.713 55.5939C97.6384 54.5349 99.8027 53.9861 102 53.9998C102 56.7198 101.22 61.4998 96 64.9998M89 63.9998H84C84 63.9998 84.55 60.9698 86 59.9998C87.62 58.9198 91 59.9998 91 59.9998M84.5 68.4998C83 69.7598 82.5 73.4998 82.5 73.4998C82.5 73.4998 86.24 72.9998 87.5 71.4998C88.21 70.6598 88.2 69.3698 87.41 68.5898C87.0213 68.2188 86.5093 68.0044 85.9722 67.9878C85.4352 67.9712 84.9109 68.1535 84.5 68.4998Z" stroke="black" stroke-width="2" stroke-linecap="round" stroke-linejoin="round"/>
</g>
<g opacity="0.08" filter="url(#filter9_d_290_752)">
<rect x="64" y="92" width="56" height="56" rx="12" fill="#F6F6F6" shape-rendering="crispEdges"/>
<path d="M83.076 115.483L87.364 118.546C87.5872 118.705 87.6987 118.785 87.8155 118.803C87.9182 118.819 88.0234 118.803 88.1165 118.756C88.2222 118.704 88.3045 118.594 88.469 118.375L89.3751 117.167C89.4216 117.104 89.4449 117.073 89.4722 117.047C89.4965 117.023 89.5232 117.002 89.5517 116.983C89.5839 116.963 89.6193 116.947 89.6902 116.915L93.5588 115.196C93.7192 115.125 93.7993 115.089 93.8598 115.034C93.9133 114.984 93.9554 114.924 93.9832 114.857C94.0146 114.781 94.0204 114.693 94.0321 114.518L94.3154 110.269M93.5 121.5L96.116 122.621C96.4195 122.751 96.5713 122.816 96.6517 122.924C96.7222 123.019 96.7569 123.136 96.7496 123.254C96.7413 123.388 96.6497 123.525 96.4665 123.8L95.2375 125.644C95.1507 125.774 95.1072 125.839 95.0499 125.886C94.9991 125.928 94.9406 125.959 94.8777 125.978C94.8067 126 94.7284 126 94.5719 126H92.5766C92.3693 126 92.2656 126 92.1774 125.965C92.0995 125.935 92.0305 125.885 91.9768 125.821C91.916 125.748 91.8832 125.65 91.8177 125.453L91.1048 123.314C91.0661 123.198 91.0468 123.14 91.0417 123.081C91.0372 123.029 91.0409 122.976 91.0528 122.925C91.0662 122.868 91.0935 122.813 91.1482 122.704L91.6897 121.621C91.7997 121.401 91.8547 121.291 91.9395 121.222C92.0141 121.162 92.1046 121.125 92.1999 121.114C92.3081 121.103 92.4248 121.142 92.6582 121.219L93.5 121.5ZM102 120C102 125.523 97.5228 130 92 130C86.4772 130 82 125.523 82 120C82 114.477 86.4772 110 92 110C97.5228 110 102 114.477 102 120Z" stroke="black" stroke-width="2" stroke-linecap="round" stroke-linejoin="round"/>
</g>
<g opacity="0.08" filter="url(#filter10_d_290_752)">
<rect x="64" y="148" width="56" height="56" rx="12" fill="#F6F6F6" shape-rendering="crispEdges"/>
<path d="M88 172V171M88 176.5V175.5M88 181V180M86.8 184H97.2C98.8802 184 99.7202 184 100.362 183.673C100.926 183.385 101.385 182.926 101.673 182.362C102 181.72 102 180.88 102 179.2V172.8C102 171.12 102 170.28 101.673 169.638C101.385 169.074 100.926 168.615 100.362 168.327C99.7202 168 98.8802 168 97.2 168H86.8C85.1198 168 84.2798 168 83.638 168.327C83.0735 168.615 82.6146 169.074 82.327 169.638C82 170.28 82 171.12 82 172.8V179.2C82 180.88 82 181.72 82.327 182.362C82.6146 182.926 83.0735 183.385 83.638 183.673C84.2798 184 85.1198 184 86.8 184Z" stroke="black" stroke-width="2" stroke-linecap="round" stroke-linejoin="round"/>
</g>
<g opacity="0.08" filter="url(#filter11_d_290_752)">
<rect x="64" y="260" width="56" height="56" rx="12" fill="#F6F6F6" shape-rendering="crispEdges"/>
<path d="M91 280H87.8C86.1198 280 85.2798 280 84.638 280.327C84.0735 280.615 83.6146 281.074 83.327 281.638C83 282.28 83 283.12 83 284.8V292.2C83 293.88 83 294.72 83.327 295.362C83.6146 295.926 84.0735 296.385 84.638 296.673C85.2798 297 86.1198 297 87.8 297H95.2C96.8802 297 97.7202 297 98.362 296.673C98.9265 296.385 99.3854 295.926 99.673 295.362C100 294.72 100 293.88 100 292.2V289M93 293H87M95 289H87M100.121 279.879C101.293 281.05 101.293 282.95 100.121 284.121C98.9497 285.293 97.0503 285.293 95.8787 284.121C94.7071 282.95 94.7071 281.05 95.8787 279.879C97.0503 278.707 98.9497 278.707 100.121 279.879Z" stroke="black" stroke-width="2" stroke-linecap="round" stroke-linejoin="round"/>
</g>
<g opacity="0.08" filter="url(#filter12_d_290_752)">
<rect x="120" y="-20" width="56" height="56" rx="12" fill="#F6F6F6" shape-rendering="crispEdges"/>
<path d="M148 9C149.657 9 151 7.65685 151 6C151 4.34315 149.657 3 148 3C146.343 3 145 4.34315 145 6C145 7.65685 146.343 9 148 9Z" stroke="black" stroke-width="2" stroke-linecap="round" stroke-linejoin="round"/>
<path d="M148 18C152 14 156 10.4183 156 6C156 1.58172 152.418 -2 148 -2C143.582 -2 140 1.58172 140 6C140 10.4183 144 14 148 18Z" stroke="black" stroke-width="2" stroke-linecap="round" stroke-linejoin="round"/>
</g>
<g opacity="0.08" filter="url(#filter13_d_290_752)">
<rect x="120" y="92" width="56" height="56" rx="12" fill="#F6F6F6" shape-rendering="crispEdges"/>
<path d="M141 122.286C139.149 123.103 138 124.241 138 125.5C138 127.985 142.477 130 148 130C153.523 130 158 127.985 158 125.5C158 124.241 156.851 123.103 155 122.286M154 116C154 120.064 149.5 122 148 125C146.5 122 142 120.064 142 116C142 112.686 144.686 110 148 110C151.314 110 154 112.686 154 116ZM149 116C149 116.552 148.552 117 148 117C147.448 117 147 116.552 147 116C147 115.448 147.448 115 148 115C148.552 115 149 115.448 149 116Z" stroke="black" stroke-width="2" stroke-linecap="round" stroke-linejoin="round"/>
</g>
<g opacity="0.08" filter="url(#filter14_d_290_752)">
<rect x="120" y="148" width="56" height="56" rx="12" fill="#F6F6F6" shape-rendering="crispEdges"/>
<path d="M148 186C153.523 186 158 181.523 158 176C158 170.477 153.523 166 148 166C142.477 166 138 170.477 138 176C138 181.523 142.477 186 148 186Z" stroke="black" stroke-width="2" stroke-linecap="round" stroke-linejoin="round"/>
<path d="M150.722 172.266C151.211 172.103 151.455 172.022 151.617 172.08C151.759 172.13 151.87 172.241 151.92 172.383C151.978 172.545 151.897 172.789 151.734 173.278L150.246 177.741C150.2 177.88 150.177 177.949 150.137 178.007C150.102 178.058 150.058 178.102 150.007 178.137C149.949 178.177 149.88 178.2 149.741 178.246L145.278 179.734C144.789 179.897 144.545 179.978 144.383 179.92C144.241 179.87 144.13 179.759 144.08 179.617C144.022 179.455 144.103 179.211 144.266 178.722L145.754 174.259C145.8 174.12 145.823 174.051 145.863 173.993C145.898 173.942 145.942 173.898 145.993 173.863C146.051 173.823 146.12 173.8 146.259 173.754L150.722 172.266Z" stroke="black" stroke-width="2" stroke-linecap="round" stroke-linejoin="round"/>
</g>
<g opacity="0.08" filter="url(#filter15_d_290_752)">
<rect x="120" y="204" width="56" height="56" rx="12" fill="#F6F6F6" shape-rendering="crispEdges"/>
<path d="M144 242V240M145.5 235V227M152 242V240M150.5 235V227M144.8 240H151.2C152.88 240 153.72 240 154.362 239.673C154.926 239.385 155.385 238.926 155.673 238.362C156 237.72 156 236.88 156 235.2V226.8C156 225.12 156 224.28 155.673 223.638C155.385 223.074 154.926 222.615 154.362 222.327C153.72 222 152.88 222 151.2 222H144.8C143.12 222 142.28 222 141.638 222.327C141.074 222.615 140.615 223.074 140.327 223.638C140 224.28 140 225.12 140 226.8V235.2C140 236.88 140 237.72 140.327 238.362C140.615 238.926 141.074 239.385 141.638 239.673C142.28 240 143.12 240 144.8 240Z" stroke="black" stroke-width="2" stroke-linecap="round" stroke-linejoin="round"/>
</g>
<g opacity="0.08" filter="url(#filter16_d_290_752)">
<rect x="120" y="260" width="56" height="56" rx="12" fill="#F6F6F6" shape-rendering="crispEdges"/>
<path d="M153 278V289M158 285.8V281.2C158 280.08 158 279.52 157.782 279.092C157.59 278.716 157.284 278.41 156.908 278.218C156.48 278 155.92 278 154.8 278H144.118C142.657 278 141.926 278 141.336 278.267C140.815 278.503 140.373 278.882 140.061 279.361C139.707 279.903 139.596 280.626 139.374 282.07L138.851 285.47C138.558 287.375 138.411 288.328 138.694 289.069C138.942 289.72 139.409 290.264 140.014 290.608C140.704 291 141.667 291 143.595 291H144.4C144.96 291 145.24 291 145.454 291.109C145.642 291.205 145.795 291.358 145.891 291.546C146 291.76 146 292.04 146 292.6V295.534C146 296.896 147.104 298 148.466 298C148.791 298 149.085 297.809 149.217 297.512L152.578 289.95C152.731 289.606 152.807 289.434 152.928 289.308C153.035 289.197 153.166 289.112 153.311 289.059C153.475 289 153.663 289 154.04 289H154.8C155.92 289 156.48 289 156.908 288.782C157.284 288.59 157.59 288.284 157.782 287.908C158 287.48 158 286.92 158 285.8Z" stroke="black" stroke-width="2" stroke-linecap="round" stroke-linejoin="round"/>
</g>
<g opacity="0.08" filter="url(#filter17_d_290_752)">
<rect x="120" y="316" width="56" height="56" rx="12" fill="#F6F6F6" shape-rendering="crispEdges"/>
<path d="M152 338L155 335M155 335L158 338M155 335V341M152 353V351.8C152 350.12 152 349.28 151.673 348.638C151.385 348.074 150.926 347.615 150.362 347.327C149.72 347 148.88 347 147.2 347H142.8C141.12 347 140.28 347 139.638 347.327C139.074 347.615 138.615 348.074 138.327 348.638C138 349.28 138 350.12 138 351.8V353M148.5 339.5C148.5 341.433 146.933 343 145 343C143.067 343 141.5 341.433 141.5 339.5C141.5 337.567 143.067 336 145 336C146.933 336 148.5 337.567 148.5 339.5Z" stroke="black" stroke-width="2" stroke-linecap="round" stroke-linejoin="round"/>
</g>
<g opacity="0.08" filter="url(#filter18_d_290_752)">
<rect x="176" y="-20" width="56" height="56" rx="12" fill="#F6F6F6" shape-rendering="crispEdges"/>
<path d="M205 6.99991L195.5 16.4999M206.018 -0.461625C207.236 0.34658 208.407 1.29941 209.501 2.3934C210.604 3.49683 211.564 4.67831 212.377 5.90766M201.255 3.89605L198.38 2.93776C198.049 2.8274 197.684 2.89763 197.418 3.12306L194.56 5.54065C193.975 6.03559 194.142 6.97749 194.861 7.24238L197.568 8.23977M203.681 14.3524L204.678 17.0596C204.943 17.7786 205.885 17.9448 206.38 17.3599L208.797 14.5027C209.023 14.2363 209.093 13.8716 208.983 13.5405L208.024 10.6657M211.348 -1.72937L206.442 -0.91162C205.912 -0.82332 205.426 -0.562913 205.059 -0.170677L198.446 6.89846C196.732 8.73084 196.78 11.5924 198.554 13.3667C200.328 15.1409 203.19 15.1886 205.022 13.4744L212.091 6.86137C212.483 6.49444 212.744 6.00849 212.832 5.47869L213.65 0.57222C213.875 -0.781423 212.702 -1.95497 211.348 -1.72937Z" stroke="black" stroke-width="2" stroke-linecap="round" stroke-linejoin="round"/>
</g>
<g opacity="0.08" filter="url(#filter19_d_290_752)">
<rect x="176" y="36" width="56" height="56" rx="12" fill="#F6F6F6" shape-rendering="crispEdges"/>
<path d="M204 54C207 56 207.923 60.292 208 64C207.923 67.708 207 72 204 74M204 54C201 56 200.077 60.292 200 64C200.077 67.708 201 72 204 74M204 54C198.477 54 194 58.4772 194 64M204 54C209.523 54 214 58.4772 214 64M204 74C209.523 74 214 69.5228 214 64M204 74C198.477 74 194 69.5228 194 64M214 64C212 67 207.708 67.9228 204 68C200.292 67.9228 196 67 194 64M214 64C212 61 207.708 60.0772 204 60C200.292 60.0772 196 61 194 64" stroke="black" stroke-width="2" stroke-linecap="round" stroke-linejoin="round"/>
</g>
<g opacity="0.08" filter="url(#filter20_d_290_752)">
<rect x="176" y="148" width="56" height="56" rx="12" fill="#F6F6F6" shape-rendering="crispEdges"/>
<path d="M194.687 179.645L196.595 178.544C196.698 178.484 196.82 178.463 196.937 178.485L200.691 179.188C201 179.246 201.285 179.008 201.283 178.694L201.269 175.404C201.268 175.315 201.292 175.227 201.337 175.15L203.232 171.906C203.33 171.737 203.322 171.527 203.209 171.367L200.019 166.826M211 168.859C205.5 171.5 208.5 175 209.5 175.5C211.377 176.438 213.988 176.5 213.988 176.5C213.996 176.334 214 176.168 214 176C214 170.477 209.523 166 204 166C198.477 166 194 170.477 194 176C194 181.523 198.477 186 204 186C204.168 186 204.334 185.996 204.5 185.988M208.758 185.94L205.591 177.591L213.94 180.758L210.238 182.238L208.758 185.94Z" stroke="black" stroke-width="2" stroke-linecap="round" stroke-linejoin="round"/>
</g>
<g opacity="0.08" filter="url(#filter21_d_290_752)">
<rect x="176" y="204" width="56" height="56" rx="12" fill="#F6F6F6" shape-rendering="crispEdges"/>
<path d="M202 228V227M202 232.5V231.5M202 237V236M197.2 224H210.8C211.92 224 212.48 224 212.908 224.218C213.284 224.41 213.59 224.716 213.782 225.092C214 225.52 214 226.08 214 227.2V228.5C212.067 228.5 210.5 230.067 210.5 232C210.5 233.933 212.067 235.5 214 235.5V236.8C214 237.92 214 238.48 213.782 238.908C213.59 239.284 213.284 239.59 212.908 239.782C212.48 240 211.92 240 210.8 240H197.2C196.08 240 195.52 240 195.092 239.782C194.716 239.59 194.41 239.284 194.218 238.908C194 238.48 194 237.92 194 236.8V235.5C195.933 235.5 197.5 233.933 197.5 232C197.5 230.067 195.933 228.5 194 228.5V227.2C194 226.08 194 225.52 194.218 225.092C194.41 224.716 194.716 224.41 195.092 224.218C195.52 224 196.08 224 197.2 224Z" stroke="black" stroke-width="2" stroke-linecap="round" stroke-linejoin="round"/>
</g>
<g opacity="0.08" filter="url(#filter22_d_290_752)">
<rect x="176" y="316" width="56" height="56" rx="12" fill="#F6F6F6" shape-rendering="crispEdges"/>
<path d="M208.5 348L213.5 353M213.5 348L208.5 353M204 347.5H199.5C198.104 347.5 197.407 347.5 196.839 347.672C195.56 348.06 194.56 349.06 194.172 350.339C194 350.907 194 351.604 194 353M206.5 339.5C206.5 341.985 204.485 344 202 344C199.515 344 197.5 341.985 197.5 339.5C197.5 337.015 199.515 335 202 335C204.485 335 206.5 337.015 206.5 339.5Z" stroke="black" stroke-width="2" stroke-linecap="round" stroke-linejoin="round"/>
</g>
<g opacity="0.08" filter="url(#filter23_d_290_752)">
<rect x="232" y="-20" width="56" height="56" rx="12" fill="#F6F6F6" shape-rendering="crispEdges"/>
<path d="M253 9H256M250 5L252 6L253.271 2.18807C253.533 1.40125 253.664 1.00784 253.907 0.716981C254.122 0.460134 254.398 0.261322 254.71 0.138775C255.062 0 255.477 0 256.306 0H263.694C264.523 0 264.938 0 265.29 0.138775C265.602 0.261322 265.878 0.460134 266.093 0.716981C266.336 1.00784 266.467 1.40125 266.729 2.18807L268 6L270 5M264 9H267M254.8 6H265.2C266.88 6 267.72 6 268.362 6.32698C268.926 6.6146 269.385 7.07354 269.673 7.63803C270 8.27976 270 9.11984 270 10.8V13.5C270 13.9647 270 14.197 269.962 14.3902C269.804 15.1836 269.184 15.8038 268.39 15.9616C268.197 16 267.965 16 267.5 16H267C265.895 16 265 15.1046 265 14C265 13.7239 264.776 13.5 264.5 13.5H255.5C255.224 13.5 255 13.7239 255 14C255 15.1046 254.105 16 253 16H252.5C252.035 16 251.803 16 251.61 15.9616C250.816 15.8038 250.196 15.1836 250.038 14.3902C250 14.197 250 13.9647 250 13.5V10.8C250 9.11984 250 8.27976 250.327 7.63803C250.615 7.07354 251.074 6.6146 251.638 6.32698C252.28 6 253.12 6 254.8 6Z" stroke="black" stroke-width="2" stroke-linecap="round" stroke-linejoin="round"/>
</g>
<g opacity="0.08" filter="url(#filter24_d_290_752)">
<rect x="232" y="36" width="56" height="56" rx="12" fill="#F6F6F6" shape-rendering="crispEdges"/>
<path d="M260 74C261 69 268 68.4183 268 62C268 57.5817 264.418 54 260 54C255.582 54 252 57.5817 252 62C252 68.4183 259 69 260 74Z" stroke="black" stroke-width="2" stroke-linecap="round" stroke-linejoin="round"/>
<path d="M260 65C261.657 65 263 63.6569 263 62C263 60.3431 261.657 59 260 59C258.343 59 257 60.3431 257 62C257 63.6569 258.343 65 260 65Z" stroke="black" stroke-width="2" stroke-linecap="round" stroke-linejoin="round"/>
</g>
<g opacity="0.08" filter="url(#filter25_d_290_752)">
<rect x="232" y="92" width="56" height="56" rx="12" fill="#F6F6F6" shape-rendering="crispEdges"/>
<path d="M270 120H268M270 120C270 125.523 265.523 130 260 130M270 120C270 114.477 265.523 110 260 110M267.071 127.071L265.657 125.657M252 120H250M250 120C250 125.523 254.477 130 260 130M250 120C250 114.477 254.477 110 260 110M254.343 114.343L252.929 112.929M260 112V110M265.657 114.343L267.071 112.929M260 130V128M252.929 127.071L254.343 125.657M260 116L264 120L260 124L256 120L260 116Z" stroke="black" stroke-width="2" stroke-linecap="round" stroke-linejoin="round"/>
</g>
<g opacity="0.08" filter="url(#filter26_d_290_752)">
<rect x="232" y="148" width="56" height="56" rx="12" fill="#F6F6F6" shape-rendering="crispEdges"/>
<path d="M264 177.374C267.532 178.069 270 179.655 270 181.5C270 183.985 265.523 186 260 186C254.477 186 250 183.985 250 181.5C250 179.655 252.468 178.069 256 177.374M260 181V173M260 173C261.657 173 263 171.657 263 170C263 168.343 261.657 167 260 167C258.343 167 257 168.343 257 170C257 171.657 258.343 173 260 173Z" stroke="black" stroke-width="2" stroke-linecap="round" stroke-linejoin="round"/>
</g>
<g opacity="0.08" filter="url(#filter27_d_290_752)">
<rect x="232" y="204" width="56" height="56" rx="12" fill="#F6F6F6" shape-rendering="crispEdges"/>
<path d="M267 230V226.2C267 225.08 267 224.52 266.782 224.092C266.59 223.716 266.284 223.41 265.908 223.218C265.48 223 264.92 223 263.8 223H256.2C255.08 223 254.52 223 254.092 223.218C253.716 223.41 253.41 223.716 253.218 224.092C253 224.52 253 225.08 253 226.2V230M253 229H250V228M267 229H270V228M254 233.5H254.01M266 233.5H266.01M254.8 230H265.2C266.88 230 267.72 230 268.362 230.327C268.926 230.615 269.385 231.074 269.673 231.638C270 232.28 270 233.12 270 234.8V238C270 238.932 270 239.398 269.848 239.765C269.645 240.255 269.255 240.645 268.765 240.848C268.398 241 267.932 241 267 241H266.4C266.028 241 265.843 241 265.687 240.975C264.831 240.84 264.16 240.169 264.025 239.313C264 239.157 264 238.972 264 238.6C264 238.507 264 238.461 263.994 238.422C263.96 238.208 263.792 238.04 263.578 238.006C263.539 238 263.493 238 263.4 238H256.6C256.507 238 256.461 238 256.422 238.006C256.208 238.04 256.04 238.208 256.006 238.422C256 238.461 256 238.507 256 238.6C256 238.972 256 239.157 255.975 239.313C255.84 240.169 255.169 240.84 254.313 240.975C254.157 241 253.972 241 253.6 241H253C252.068 241 251.602 241 251.235 240.848C250.745 240.645 250.355 240.255 250.152 239.765C250 239.398 250 238.932 250 238V234.8C250 233.12 250 232.28 250.327 231.638C250.615 231.074 251.074 230.615 251.638 230.327C252.28 230 253.12 230 254.8 230ZM254.5 233.5C254.5 233.776 254.276 234 254 234C253.724 234 253.5 233.776 253.5 233.5C253.5 233.224 253.724 233 254 233C254.276 233 254.5 233.224 254.5 233.5ZM266.5 233.5C266.5 233.776 266.276 234 266 234C265.724 234 265.5 233.776 265.5 233.5C265.5 233.224 265.724 233 266 233C266.276 233 266.5 233.224 266.5 233.5Z" stroke="black" stroke-width="2" stroke-linecap="round" stroke-linejoin="round"/>
</g>
<g opacity="0.08" filter="url(#filter28_d_290_752)">
<rect x="232" y="260" width="56" height="56" rx="12" fill="#F6F6F6" shape-rendering="crispEdges"/>
<path d="M255 298V287M250 289V296C250 297.105 250.895 298 252 298H265.426C266.907 298 268.166 296.92 268.391 295.456L269.468 288.456C269.748 286.639 268.342 285 266.503 285H263C262.448 285 262 284.552 262 284V280.466C262 279.104 260.896 278 259.534 278C259.209 278 258.915 278.191 258.783 278.488L255.264 286.406C255.103 286.767 254.745 287 254.35 287H252C250.895 287 250 287.895 250 289Z" stroke="black" stroke-width="2" stroke-linecap="round" stroke-linejoin="round"/>
</g>
<g opacity="0.08" filter="url(#filter29_d_290_752)">
<rect x="232" y="316" width="56" height="56" rx="12" fill="#F6F6F6" shape-rendering="crispEdges"/>
<path d="M264.5 336L269.5 341M269.5 336L264.5 341M264 353V351.8C264 350.12 264 349.28 263.673 348.638C263.385 348.074 262.926 347.615 262.362 347.327C261.72 347 260.88 347 259.2 347H254.8C253.12 347 252.28 347 251.638 347.327C251.074 347.615 250.615 348.074 250.327 348.638C250 349.28 250 350.12 250 351.8V353M260.5 339.5C260.5 341.433 258.933 343 257 343C255.067 343 253.5 341.433 253.5 339.5C253.5 337.567 255.067 336 257 336C258.933 336 260.5 337.567 260.5 339.5Z" stroke="black" stroke-width="2" stroke-linecap="round" stroke-linejoin="round"/>
</g>
<g opacity="0.08" filter="url(#filter30_d_290_752)">
<rect x="288" y="-20" width="56" height="56" rx="12" fill="#F6F6F6" shape-rendering="crispEdges"/>
<path d="M316 -2C318.501 0.738353 319.923 4.29203 320 8C319.923 11.708 318.501 15.2616 316 18M316 -2C313.499 0.738353 312.077 4.29203 312 8C312.077 11.708 313.499 15.2616 316 18M316 -2C310.477 -2 306 2.47715 306 8C306 13.5228 310.477 18 316 18M316 -2C321.523 -2 326 2.47715 326 8C326 13.5228 321.523 18 316 18M306.5 5H325.5M306.5 11H325.5" stroke="black" stroke-width="2" stroke-linecap="round" stroke-linejoin="round"/>
</g>
<g opacity="0.08" filter="url(#filter31_d_290_752)">
<rect x="288" y="36" width="56" height="56" rx="12" fill="#F6F6F6" shape-rendering="crispEdges"/>
<path d="M315.5 57H315.934C318.982 57 320.505 57 321.084 57.5473C321.584 58.0204 321.805 58.7173 321.67 59.3922C321.514 60.173 320.27 61.0529 317.782 62.8125L313.718 65.6875C311.23 67.4471 309.986 68.327 309.83 69.1078C309.695 69.7827 309.916 70.4796 310.416 70.9527C310.995 71.5 312.518 71.5 315.566 71.5H316.5M312 57C312 58.6569 310.657 60 309 60C307.343 60 306 58.6569 306 57C306 55.3431 307.343 54 309 54C310.657 54 312 55.3431 312 57ZM326 71C326 72.6569 324.657 74 323 74C321.343 74 320 72.6569 320 71C320 69.3431 321.343 68 323 68C324.657 68 326 69.3431 326 71Z" stroke="black" stroke-width="2" stroke-linecap="round" stroke-linejoin="round"/>
</g>
<g opacity="0.08" filter="url(#filter32_d_290_752)">
<rect x="288" y="92" width="56" height="56" rx="12" fill="#F6F6F6" shape-rendering="crispEdges"/>
<path d="M319 110.458C318.053 110.16 317.045 110 316 110C310.477 110 306 114.477 306 120C306 125.523 310.477 130 316 130C321.523 130 326 125.523 326 120C326 118.285 325.568 116.67 324.807 115.259M321 113.75H321.005M314.5 129.888L314.5 127.685C314.5 127.566 314.543 127.45 314.621 127.36L317.106 124.459C317.311 124.221 317.247 123.856 316.975 123.7L314.119 122.068C314.041 122.023 313.977 121.959 313.932 121.881L312.07 118.619C311.974 118.449 311.787 118.351 311.592 118.368L306.064 118.861M325 114C325 116.209 323 118 321 120C319 118 317 116.209 317 114C317 111.791 318.791 110 321 110C323.209 110 325 111.791 325 114ZM321.25 113.75C321.25 113.888 321.138 114 321 114C320.862 114 320.75 113.888 320.75 113.75C320.75 113.612 320.862 113.5 321 113.5C321.138 113.5 321.25 113.612 321.25 113.75Z" stroke="black" stroke-width="2" stroke-linecap="round" stroke-linejoin="round"/>
</g>
<g opacity="0.08" filter="url(#filter33_d_290_752)">
<rect x="288" y="148" width="56" height="56" rx="12" fill="#F6F6F6" shape-rendering="crispEdges"/>
<path d="M313.5 186H318.5M312 166H320M316 169V166M308 176H324M321 183L322.5 186M311 183L309.5 186M312.5 179.5H312.51M319.5 179.5H319.51M312.8 183H319.2C320.88 183 321.72 183 322.362 182.673C322.926 182.385 323.385 181.926 323.673 181.362C324 180.72 324 179.88 324 178.2V173.8C324 172.12 324 171.28 323.673 170.638C323.385 170.074 322.926 169.615 322.362 169.327C321.72 169 320.88 169 319.2 169H312.8C311.12 169 310.28 169 309.638 169.327C309.074 169.615 308.615 170.074 308.327 170.638C308 171.28 308 172.12 308 173.8V178.2C308 179.88 308 180.72 308.327 181.362C308.615 181.926 309.074 182.385 309.638 182.673C310.28 183 311.12 183 312.8 183ZM313 179.5C313 179.776 312.776 180 312.5 180C312.224 180 312 179.776 312 179.5C312 179.224 312.224 179 312.5 179C312.776 179 313 179.224 313 179.5ZM320 179.5C320 179.776 319.776 180 319.5 180C319.224 180 319 179.776 319 179.5C319 179.224 319.224 179 319.5 179C319.776 179 320 179.224 320 179.5Z" stroke="black" stroke-width="2" stroke-linecap="round" stroke-linejoin="round"/>
</g>
<g opacity="0.08" filter="url(#filter34_d_290_752)">
<rect x="288" y="204" width="56" height="56" rx="12" fill="#F6F6F6" shape-rendering="crispEdges"/>
<path d="M309 230V236.011C309 236.37 309 236.55 309.055 236.708C309.103 236.848 309.182 236.976 309.286 237.082C309.403 237.201 309.563 237.282 309.884 237.442L315.284 240.142C315.547 240.273 315.678 240.339 315.816 240.365C315.937 240.388 316.063 240.388 316.184 240.365C316.322 240.339 316.453 240.273 316.716 240.142L322.116 237.442C322.437 237.282 322.597 237.201 322.714 237.082C322.818 236.976 322.897 236.848 322.945 236.708C323 236.55 323 236.37 323 236.011V230M306 228.5L315.642 223.679C315.773 223.613 315.839 223.581 315.908 223.568C315.969 223.556 316.031 223.556 316.092 223.568C316.161 223.581 316.227 223.613 316.358 223.679L326 228.5L316.358 233.321C316.227 233.387 316.161 233.42 316.092 233.432C316.031 233.444 315.969 233.444 315.908 233.432C315.839 233.42 315.773 233.387 315.642 233.321L306 228.5Z" stroke="black" stroke-width="2" stroke-linecap="round" stroke-linejoin="round"/>
</g>
<g opacity="0.08" filter="url(#filter35_d_290_752)">
<rect x="288" y="260" width="56" height="56" rx="12" fill="#F6F6F6" shape-rendering="crispEdges"/>
<path d="M323 297L326 294M326 294L323 291M326 294H320M316 291.5H311.5C310.104 291.5 309.407 291.5 308.839 291.672C307.56 292.06 306.56 293.06 306.172 294.339C306 294.907 306 295.604 306 297M318.5 283.5C318.5 285.985 316.485 288 314 288C311.515 288 309.5 285.985 309.5 283.5C309.5 281.015 311.515 279 314 279C316.485 279 318.5 281.015 318.5 283.5Z" stroke="black" stroke-width="2" stroke-linecap="round" stroke-linejoin="round"/>
</g>
<g opacity="0.08" filter="url(#filter36_d_290_752)">
<rect x="288" y="316" width="56" height="56" rx="12" fill="#F6F6F6" shape-rendering="crispEdges"/>
<path d="M326 353V351C326 349.136 324.725 347.57 323 347.126M319.5 335.291C320.966 335.884 322 337.321 322 339C322 340.679 320.966 342.116 319.5 342.709M321 353C321 351.136 321 350.204 320.696 349.469C320.29 348.489 319.511 347.71 318.531 347.304C317.796 347 316.864 347 315 347H312C310.136 347 309.204 347 308.469 347.304C307.489 347.71 306.71 348.489 306.304 349.469C306 350.204 306 351.136 306 353M317.5 339C317.5 341.209 315.709 343 313.5 343C311.291 343 309.5 341.209 309.5 339C309.5 336.791 311.291 335 313.5 335C315.709 335 317.5 336.791 317.5 339Z" stroke="black" stroke-width="2" stroke-linecap="round" stroke-linejoin="round"/>
</g>
<g opacity="0.08" filter="url(#filter37_d_290_752)">
<rect x="120" y="36" width="56" height="56" rx="12" fill="#F6F6F6" shape-rendering="crispEdges"/>
<path d="M153.745 54.813C154.709 53.8165 156.304 53.8036 157.284 54.7844C158.238 55.7382 158.256 57.2792 157.324 58.2548L154.546 61.1646C154.328 61.3926 154.219 61.5067 154.152 61.6402C154.092 61.7585 154.057 61.8873 154.048 62.0193C154.037 62.1684 154.073 62.3221 154.144 62.6293L155.872 70.1169C155.944 70.4323 155.981 70.59 155.969 70.7426C155.959 70.8776 155.921 71.0091 155.858 71.1291C155.787 71.2647 155.673 71.3792 155.444 71.608L155.073 71.9788C154.467 72.585 154.164 72.888 153.854 72.9429C153.583 72.9908 153.304 72.925 153.083 72.761C152.831 72.5733 152.695 72.1666 152.424 71.3534L150.414 65.3241L147.069 68.6695C146.869 68.8691 146.769 68.969 146.703 69.0866C146.643 69.1907 146.603 69.3047 146.584 69.423C146.563 69.5565 146.579 69.6968 146.61 69.9775L146.794 71.6309C146.825 71.9116 146.84 72.0519 146.819 72.1854C146.8 72.3037 146.76 72.4177 146.701 72.5219C146.634 72.6394 146.535 72.7393 146.335 72.939L146.137 73.1365C145.664 73.6095 145.428 73.8461 145.165 73.9146C144.934 73.9746 144.69 73.9504 144.476 73.8463C144.231 73.7276 144.046 73.4493 143.675 72.8926L142.106 70.5401C142.04 70.4407 142.007 70.391 141.968 70.3459C141.934 70.3058 141.897 70.2685 141.857 70.2343C141.812 70.1958 141.762 70.1627 141.663 70.0964L139.31 68.5281C138.753 68.157 138.475 67.9714 138.356 67.7271C138.252 67.5128 138.228 67.2684 138.288 67.0378C138.357 66.775 138.593 66.5385 139.066 66.0654L139.264 65.8679C139.463 65.6682 139.563 65.5684 139.681 65.5016C139.785 65.4424 139.899 65.4024 140.017 65.3836C140.151 65.3623 140.291 65.3779 140.572 65.4091L142.225 65.5928C142.506 65.6239 142.646 65.6395 142.78 65.6182C142.898 65.5994 143.012 65.5594 143.116 65.5002C143.234 65.4334 143.334 65.3336 143.533 65.1339L146.879 61.7886L140.849 59.7788C140.036 59.5078 139.629 59.3722 139.442 59.1193C139.278 58.8985 139.212 58.6198 139.26 58.349C139.315 58.0388 139.618 57.7357 140.224 57.1296L140.595 56.7588C140.824 56.5299 140.938 56.4155 141.074 56.3446C141.194 56.2818 141.325 56.2441 141.46 56.2337C141.613 56.222 141.77 56.2584 142.086 56.3311L149.545 58.0525C149.855 58.124 150.01 58.1598 150.16 58.1491C150.304 58.1389 150.445 58.0973 150.571 58.0274C150.703 57.955 150.813 57.8407 151.035 57.6122L153.745 54.813Z" stroke="#0E0E0E" stroke-width="2" stroke-linecap="round" stroke-linejoin="round"/>
</g>
<g opacity="0.08" filter="url(#filter38_d_290_752)">
<rect x="176" y="92" width="56" height="56" rx="12" fill="#F6F6F6" shape-rendering="crispEdges"/>
<path d="M196 123C196 123 197 122 200 122C203 122 205 124 208 124C211 124 212 123 212 123V112C212 112 211 113 208 113C205 113 203 111 200 111C197 111 196 112 196 112M196 130L196 110" stroke="black" stroke-width="2" stroke-linecap="round" stroke-linejoin="round"/>
</g>
<g opacity="0.08" filter="url(#filter39_d_290_752)">
<rect x="64" y="204" width="56" height="56" rx="12" fill="#F6F6F6" shape-rendering="crispEdges"/>
<path d="M83.4135 230.744C82.8181 230.513 82.5204 230.397 82.4335 230.23C82.3582 230.086 82.3581 229.914 82.4333 229.769C82.52 229.602 82.8175 229.486 83.4126 229.254L100.3 222.663C100.838 222.454 101.106 222.349 101.278 222.406C101.427 222.456 101.544 222.573 101.594 222.722C101.651 222.894 101.546 223.162 101.336 223.699L94.7461 240.587C94.5139 241.182 94.3977 241.48 94.2308 241.566C94.0862 241.642 93.9139 241.642 93.7693 241.566C93.6025 241.479 93.4867 241.182 93.2552 240.586L90.6271 233.828C90.5801 233.707 90.5566 233.647 90.5203 233.596C90.4881 233.551 90.4487 233.512 90.4036 233.479C90.3527 233.443 90.2923 233.42 90.1715 233.373L83.4135 230.744Z" stroke="#0E0E0E" stroke-width="2" stroke-linecap="round" stroke-linejoin="round"/>
</g>
<g opacity="0.08" filter="url(#filter40_d_290_752)">
<rect x="64" y="316" width="56" height="56" rx="12" fill="#F6F6F6" shape-rendering="crispEdges"/>
<path d="M89.3544 353C90.0596 353.622 90.9858 354 92.0002 354C93.0147 354 93.9409 353.622 94.6461 353M82.2941 337.82C82.2798 336.369 83.0623 335.013 84.3264 334.3M101.702 337.82C101.717 336.369 100.934 335.013 99.6702 334.3M98.0002 340C98.0002 338.409 97.3681 336.883 96.2429 335.757C95.1177 334.632 93.5915 334 92.0002 334C90.4089 334 88.8828 334.632 87.7576 335.757C86.6324 336.883 86.0002 338.409 86.0002 340C86.0002 343.09 85.2207 345.206 84.3499 346.605C83.6154 347.786 83.2481 348.376 83.2616 348.541C83.2765 348.723 83.3151 348.793 83.462 348.902C83.5947 349 84.1928 349 85.3891 349H98.6114C99.8077 349 100.406 349 100.538 348.902C100.685 348.793 100.724 348.723 100.739 348.541C100.752 348.376 100.385 347.786 99.6506 346.605C98.7798 345.206 98.0002 343.09 98.0002 340Z" stroke="#0E0E0E" stroke-width="2" stroke-linecap="round" stroke-linejoin="round"/>
</g>
<g opacity="0.08" filter="url(#filter41_d_290_752)">
<rect x="176" y="260" width="56" height="56" rx="12" fill="#F6F6F6" shape-rendering="crispEdges"/>
<path d="M201 282V286.501C201 287.052 201 287.328 200.931 287.583C200.87 287.809 200.77 288.023 200.636 288.214C200.483 288.43 200.272 288.607 199.849 288.96L196.151 292.04C195.728 292.393 195.517 292.57 195.364 292.786C195.23 292.977 195.13 293.191 195.069 293.417C195 293.672 195 293.948 195 294.499V294.8C195 295.92 195 296.48 195.218 296.908C195.41 297.284 195.716 297.59 196.092 297.782C196.52 298 197.08 298 198.2 298H209.8C210.92 298 211.48 298 211.908 297.782C212.284 297.59 212.59 297.284 212.782 296.908C213 296.48 213 295.92 213 294.8V294.499C213 293.948 213 293.672 212.931 293.417C212.87 293.191 212.77 292.977 212.636 292.786C212.483 292.57 212.272 292.393 211.849 292.04L208.151 288.96C207.728 288.607 207.517 288.43 207.364 288.214C207.23 288.023 207.13 287.809 207.069 287.583C207 287.328 207 287.052 207 286.501V282M200.3 282H207.7C207.98 282 208.12 282 208.227 281.946C208.321 281.898 208.398 281.821 208.446 281.727C208.5 281.62 208.5 281.48 208.5 281.2V278.8C208.5 278.52 208.5 278.38 208.446 278.273C208.398 278.179 208.321 278.102 208.227 278.054C208.12 278 207.98 278 207.7 278H200.3C200.02 278 199.88 278 199.773 278.054C199.679 278.102 199.602 278.179 199.554 278.273C199.5 278.38 199.5 278.52 199.5 278.8V281.2C199.5 281.48 199.5 281.62 199.554 281.727C199.602 281.821 199.679 281.898 199.773 281.946C199.88 282 200.02 282 200.3 282ZM197.5 293H210.5C210.965 293 211.197 293 211.39 293.038C212.184 293.196 212.804 293.816 212.962 294.61C213 294.803 213 295.035 213 295.5C213 295.965 213 296.197 212.962 296.39C212.804 297.184 212.184 297.804 211.39 297.962C211.197 298 210.965 298 210.5 298H197.5C197.035 298 196.803 298 196.61 297.962C195.816 297.804 195.196 297.184 195.038 296.39C195 296.197 195 295.965 195 295.5C195 295.035 195 294.803 195.038 294.61C195.196 293.816 195.816 293.196 196.61 293.038C196.803 293 197.035 293 197.5 293Z" stroke="#0E0E0E" stroke-width="2" stroke-linecap="round" stroke-linejoin="round"/>
</g>
<g filter="url(#filter42_d_290_752)">
<rect x="136" y="136" width="80" height="80" rx="16" fill="white" shape-rendering="crispEdges"/>
<path d="M176 162.667C180 165.333 181.23 171.056 181.333 176C181.23 180.944 180 186.667 176 189.333M176 162.667C172 165.333 170.77 171.056 170.667 176C170.77 180.944 172 186.667 176 189.333M176 162.667C168.636 162.667 162.667 168.636 162.667 176M176 162.667C183.364 162.667 189.333 168.636 189.333 176M176 189.333C183.364 189.333 189.333 183.364 189.333 176M176 189.333C168.636 189.333 162.667 183.364 162.667 176M189.333 176C186.667 180 180.944 181.23 176 181.333C171.056 181.23 165.333 180 162.667 176M189.333 176C186.667 172 180.944 170.769 176 170.667C171.056 170.769 165.333 172 162.667 176" stroke="#0E0E0E" stroke-width="2.25" stroke-linecap="round" stroke-linejoin="round"/>
</g>
<rect width="352" height="352" fill="url(#paint0_radial_290_752)"/>
</g>
<defs>
<filter id="filter0_d_290_752" x="-8" y="-36" width="88" height="88" filterUnits="userSpaceOnUse" color-interpolation-filters="sRGB">
<feFlood flood-opacity="0" result="BackgroundImageFix"/>
<feColorMatrix in="SourceAlpha" type="matrix" values="0 0 0 0 0 0 0 0 0 0 0 0 0 0 0 0 0 0 127 0" result="hardAlpha"/>
<feOffset/>
<feGaussianBlur stdDeviation="8"/>
<feComposite in2="hardAlpha" operator="out"/>
<feColorMatrix type="matrix" values="0 0 0 0 0 0 0 0 0 0 0 0 0 0 0 0 0 0 0.1 0"/>
<feBlend mode="normal" in2="BackgroundImageFix" result="effect1_dropShadow_290_752"/>
<feBlend mode="normal" in="SourceGraphic" in2="effect1_dropShadow_290_752" result="shape"/>
</filter>
<filter id="filter1_d_290_752" x="-8" y="20" width="88" height="88" filterUnits="userSpaceOnUse" color-interpolation-filters="sRGB">
<feFlood flood-opacity="0" result="BackgroundImageFix"/>
<feColorMatrix in="SourceAlpha" type="matrix" values="0 0 0 0 0 0 0 0 0 0 0 0 0 0 0 0 0 0 127 0" result="hardAlpha"/>
<feOffset/>
<feGaussianBlur stdDeviation="8"/>
<feComposite in2="hardAlpha" operator="out"/>
<feColorMatrix type="matrix" values="0 0 0 0 0 0 0 0 0 0 0 0 0 0 0 0 0 0 0.1 0"/>
<feBlend mode="normal" in2="BackgroundImageFix" result="effect1_dropShadow_290_752"/>
<feBlend mode="normal" in="SourceGraphic" in2="effect1_dropShadow_290_752" result="shape"/>
</filter>
<filter id="filter2_d_290_752" x="-8" y="76" width="88" height="88" filterUnits="userSpaceOnUse" color-interpolation-filters="sRGB">
<feFlood flood-opacity="0" result="BackgroundImageFix"/>
<feColorMatrix in="SourceAlpha" type="matrix" values="0 0 0 0 0 0 0 0 0 0 0 0 0 0 0 0 0 0 127 0" result="hardAlpha"/>
<feOffset/>
<feGaussianBlur stdDeviation="8"/>
<feComposite in2="hardAlpha" operator="out"/>
<feColorMatrix type="matrix" values="0 0 0 0 0 0 0 0 0 0 0 0 0 0 0 0 0 0 0.1 0"/>
<feBlend mode="normal" in2="BackgroundImageFix" result="effect1_dropShadow_290_752"/>
<feBlend mode="normal" in="SourceGraphic" in2="effect1_dropShadow_290_752" result="shape"/>
</filter>
<filter id="filter3_d_290_752" x="-8" y="132" width="88" height="88" filterUnits="userSpaceOnUse" color-interpolation-filters="sRGB">
<feFlood flood-opacity="0" result="BackgroundImageFix"/>
<feColorMatrix in="SourceAlpha" type="matrix" values="0 0 0 0 0 0 0 0 0 0 0 0 0 0 0 0 0 0 127 0" result="hardAlpha"/>
<feOffset/>
<feGaussianBlur stdDeviation="8"/>
<feComposite in2="hardAlpha" operator="out"/>
<feColorMatrix type="matrix" values="0 0 0 0 0 0 0 0 0 0 0 0 0 0 0 0 0 0 0.1 0"/>
<feBlend mode="normal" in2="BackgroundImageFix" result="effect1_dropShadow_290_752"/>
<feBlend mode="normal" in="SourceGraphic" in2="effect1_dropShadow_290_752" result="shape"/>
</filter>
<filter id="filter4_d_290_752" x="-8" y="188" width="88" height="88" filterUnits="userSpaceOnUse" color-interpolation-filters="sRGB">
<feFlood flood-opacity="0" result="BackgroundImageFix"/>
<feColorMatrix in="SourceAlpha" type="matrix" values="0 0 0 0 0 0 0 0 0 0 0 0 0 0 0 0 0 0 127 0" result="hardAlpha"/>
<feOffset/>
<feGaussianBlur stdDeviation="8"/>
<feComposite in2="hardAlpha" operator="out"/>
<feColorMatrix type="matrix" values="0 0 0 0 0 0 0 0 0 0 0 0 0 0 0 0 0 0 0.1 0"/>
<feBlend mode="normal" in2="BackgroundImageFix" result="effect1_dropShadow_290_752"/>
<feBlend mode="normal" in="SourceGraphic" in2="effect1_dropShadow_290_752" result="shape"/>
</filter>
<filter id="filter5_d_290_752" x="-8" y="244" width="88" height="88" filterUnits="userSpaceOnUse" color-interpolation-filters="sRGB">
<feFlood flood-opacity="0" result="BackgroundImageFix"/>
<feColorMatrix in="SourceAlpha" type="matrix" values="0 0 0 0 0 0 0 0 0 0 0 0 0 0 0 0 0 0 127 0" result="hardAlpha"/>
<feOffset/>
<feGaussianBlur stdDeviation="8"/>
<feComposite in2="hardAlpha" operator="out"/>
<feColorMatrix type="matrix" values="0 0 0 0 0 0 0 0 0 0 0 0 0 0 0 0 0 0 0.1 0"/>
<feBlend mode="normal" in2="BackgroundImageFix" result="effect1_dropShadow_290_752"/>
<feBlend mode="normal" in="SourceGraphic" in2="effect1_dropShadow_290_752" result="shape"/>
</filter>
<filter id="filter6_d_290_752" x="-8" y="300" width="88" height="88" filterUnits="userSpaceOnUse" color-interpolation-filters="sRGB">
<feFlood flood-opacity="0" result="BackgroundImageFix"/>
<feColorMatrix in="SourceAlpha" type="matrix" values="0 0 0 0 0 0 0 0 0 0 0 0 0 0 0 0 0 0 127 0" result="hardAlpha"/>
<feOffset/>
<feGaussianBlur stdDeviation="8"/>
<feComposite in2="hardAlpha" operator="out"/>
<feColorMatrix type="matrix" values="0 0 0 0 0 0 0 0 0 0 0 0 0 0 0 0 0 0 0.1 0"/>
<feBlend mode="normal" in2="BackgroundImageFix" result="effect1_dropShadow_290_752"/>
<feBlend mode="normal" in="SourceGraphic" in2="effect1_dropShadow_290_752" result="shape"/>
</filter>
<filter id="filter7_d_290_752" x="48" y="-36" width="88" height="88" filterUnits="userSpaceOnUse" color-interpolation-filters="sRGB">
<feFlood flood-opacity="0" result="BackgroundImageFix"/>
<feColorMatrix in="SourceAlpha" type="matrix" values="0 0 0 0 0 0 0 0 0 0 0 0 0 0 0 0 0 0 127 0" result="hardAlpha"/>
<feOffset/>
<feGaussianBlur stdDeviation="8"/>
<feComposite in2="hardAlpha" operator="out"/>
<feColorMatrix type="matrix" values="0 0 0 0 0 0 0 0 0 0 0 0 0 0 0 0 0 0 0.1 0"/>
<feBlend mode="normal" in2="BackgroundImageFix" result="effect1_dropShadow_290_752"/>
<feBlend mode="normal" in="SourceGraphic" in2="effect1_dropShadow_290_752" result="shape"/>
</filter>
<filter id="filter8_d_290_752" x="48" y="20" width="88" height="88" filterUnits="userSpaceOnUse" color-interpolation-filters="sRGB">
<feFlood flood-opacity="0" result="BackgroundImageFix"/>
<feColorMatrix in="SourceAlpha" type="matrix" values="0 0 0 0 0 0 0 0 0 0 0 0 0 0 0 0 0 0 127 0" result="hardAlpha"/>
<feOffset/>
<feGaussianBlur stdDeviation="8"/>
<feComposite in2="hardAlpha" operator="out"/>
<feColorMatrix type="matrix" values="0 0 0 0 0 0 0 0 0 0 0 0 0 0 0 0 0 0 0.1 0"/>
<feBlend mode="normal" in2="BackgroundImageFix" result="effect1_dropShadow_290_752"/>
<feBlend mode="normal" in="SourceGraphic" in2="effect1_dropShadow_290_752" result="shape"/>
</filter>
<filter id="filter9_d_290_752" x="48" y="76" width="88" height="88" filterUnits="userSpaceOnUse" color-interpolation-filters="sRGB">
<feFlood flood-opacity="0" result="BackgroundImageFix"/>
<feColorMatrix in="SourceAlpha" type="matrix" values="0 0 0 0 0 0 0 0 0 0 0 0 0 0 0 0 0 0 127 0" result="hardAlpha"/>
<feOffset/>
<feGaussianBlur stdDeviation="8"/>
<feComposite in2="hardAlpha" operator="out"/>
<feColorMatrix type="matrix" values="0 0 0 0 0 0 0 0 0 0 0 0 0 0 0 0 0 0 0.1 0"/>
<feBlend mode="normal" in2="BackgroundImageFix" result="effect1_dropShadow_290_752"/>
<feBlend mode="normal" in="SourceGraphic" in2="effect1_dropShadow_290_752" result="shape"/>
</filter>
<filter id="filter10_d_290_752" x="48" y="132" width="88" height="88" filterUnits="userSpaceOnUse" color-interpolation-filters="sRGB">
<feFlood flood-opacity="0" result="BackgroundImageFix"/>
<feColorMatrix in="SourceAlpha" type="matrix" values="0 0 0 0 0 0 0 0 0 0 0 0 0 0 0 0 0 0 127 0" result="hardAlpha"/>
<feOffset/>
<feGaussianBlur stdDeviation="8"/>
<feComposite in2="hardAlpha" operator="out"/>
<feColorMatrix type="matrix" values="0 0 0 0 0 0 0 0 0 0 0 0 0 0 0 0 0 0 0.1 0"/>
<feBlend mode="normal" in2="BackgroundImageFix" result="effect1_dropShadow_290_752"/>
<feBlend mode="normal" in="SourceGraphic" in2="effect1_dropShadow_290_752" result="shape"/>
</filter>
<filter id="filter11_d_290_752" x="48" y="244" width="88" height="88" filterUnits="userSpaceOnUse" color-interpolation-filters="sRGB">
<feFlood flood-opacity="0" result="BackgroundImageFix"/>
<feColorMatrix in="SourceAlpha" type="matrix" values="0 0 0 0 0 0 0 0 0 0 0 0 0 0 0 0 0 0 127 0" result="hardAlpha"/>
<feOffset/>
<feGaussianBlur stdDeviation="8"/>
<feComposite in2="hardAlpha" operator="out"/>
<feColorMatrix type="matrix" values="0 0 0 0 0 0 0 0 0 0 0 0 0 0 0 0 0 0 0.1 0"/>
<feBlend mode="normal" in2="BackgroundImageFix" result="effect1_dropShadow_290_752"/>
<feBlend mode="normal" in="SourceGraphic" in2="effect1_dropShadow_290_752" result="shape"/>
</filter>
<filter id="filter12_d_290_752" x="104" y="-36" width="88" height="88" filterUnits="userSpaceOnUse" color-interpolation-filters="sRGB">
<feFlood flood-opacity="0" result="BackgroundImageFix"/>
<feColorMatrix in="SourceAlpha" type="matrix" values="0 0 0 0 0 0 0 0 0 0 0 0 0 0 0 0 0 0 127 0" result="hardAlpha"/>
<feOffset/>
<feGaussianBlur stdDeviation="8"/>
<feComposite in2="hardAlpha" operator="out"/>
<feColorMatrix type="matrix" values="0 0 0 0 0 0 0 0 0 0 0 0 0 0 0 0 0 0 0.1 0"/>
<feBlend mode="normal" in2="BackgroundImageFix" result="effect1_dropShadow_290_752"/>
<feBlend mode="normal" in="SourceGraphic" in2="effect1_dropShadow_290_752" result="shape"/>
</filter>
<filter id="filter13_d_290_752" x="104" y="76" width="88" height="88" filterUnits="userSpaceOnUse" color-interpolation-filters="sRGB">
<feFlood flood-opacity="0" result="BackgroundImageFix"/>
<feColorMatrix in="SourceAlpha" type="matrix" values="0 0 0 0 0 0 0 0 0 0 0 0 0 0 0 0 0 0 127 0" result="hardAlpha"/>
<feOffset/>
<feGaussianBlur stdDeviation="8"/>
<feComposite in2="hardAlpha" operator="out"/>
<feColorMatrix type="matrix" values="0 0 0 0 0 0 0 0 0 0 0 0 0 0 0 0 0 0 0.1 0"/>
<feBlend mode="normal" in2="BackgroundImageFix" result="effect1_dropShadow_290_752"/>
<feBlend mode="normal" in="SourceGraphic" in2="effect1_dropShadow_290_752" result="shape"/>
</filter>
<filter id="filter14_d_290_752" x="104" y="132" width="88" height="88" filterUnits="userSpaceOnUse" color-interpolation-filters="sRGB">
<feFlood flood-opacity="0" result="BackgroundImageFix"/>
<feColorMatrix in="SourceAlpha" type="matrix" values="0 0 0 0 0 0 0 0 0 0 0 0 0 0 0 0 0 0 127 0" result="hardAlpha"/>
<feOffset/>
<feGaussianBlur stdDeviation="8"/>
<feComposite in2="hardAlpha" operator="out"/>
<feColorMatrix type="matrix" values="0 0 0 0 0 0 0 0 0 0 0 0 0 0 0 0 0 0 0.1 0"/>
<feBlend mode="normal" in2="BackgroundImageFix" result="effect1_dropShadow_290_752"/>
<feBlend mode="normal" in="SourceGraphic" in2="effect1_dropShadow_290_752" result="shape"/>
</filter>
<filter id="filter15_d_290_752" x="104" y="188" width="88" height="88" filterUnits="userSpaceOnUse" color-interpolation-filters="sRGB">
<feFlood flood-opacity="0" result="BackgroundImageFix"/>
<feColorMatrix in="SourceAlpha" type="matrix" values="0 0 0 0 0 0 0 0 0 0 0 0 0 0 0 0 0 0 127 0" result="hardAlpha"/>
<feOffset/>
<feGaussianBlur stdDeviation="8"/>
<feComposite in2="hardAlpha" operator="out"/>
<feColorMatrix type="matrix" values="0 0 0 0 0 0 0 0 0 0 0 0 0 0 0 0 0 0 0.1 0"/>
<feBlend mode="normal" in2="BackgroundImageFix" result="effect1_dropShadow_290_752"/>
<feBlend mode="normal" in="SourceGraphic" in2="effect1_dropShadow_290_752" result="shape"/>
</filter>
<filter id="filter16_d_290_752" x="104" y="244" width="88" height="88" filterUnits="userSpaceOnUse" color-interpolation-filters="sRGB">
<feFlood flood-opacity="0" result="BackgroundImageFix"/>
<feColorMatrix in="SourceAlpha" type="matrix" values="0 0 0 0 0 0 0 0 0 0 0 0 0 0 0 0 0 0 127 0" result="hardAlpha"/>
<feOffset/>
<feGaussianBlur stdDeviation="8"/>
<feComposite in2="hardAlpha" operator="out"/>
<feColorMatrix type="matrix" values="0 0 0 0 0 0 0 0 0 0 0 0 0 0 0 0 0 0 0.1 0"/>
<feBlend mode="normal" in2="BackgroundImageFix" result="effect1_dropShadow_290_752"/>
<feBlend mode="normal" in="SourceGraphic" in2="effect1_dropShadow_290_752" result="shape"/>
</filter>
<filter id="filter17_d_290_752" x="104" y="300" width="88" height="88" filterUnits="userSpaceOnUse" color-interpolation-filters="sRGB">
<feFlood flood-opacity="0" result="BackgroundImageFix"/>
<feColorMatrix in="SourceAlpha" type="matrix" values="0 0 0 0 0 0 0 0 0 0 0 0 0 0 0 0 0 0 127 0" result="hardAlpha"/>
<feOffset/>
<feGaussianBlur stdDeviation="8"/>
<feComposite in2="hardAlpha" operator="out"/>
<feColorMatrix type="matrix" values="0 0 0 0 0 0 0 0 0 0 0 0 0 0 0 0 0 0 0.1 0"/>
<feBlend mode="normal" in2="BackgroundImageFix" result="effect1_dropShadow_290_752"/>
<feBlend mode="normal" in="SourceGraphic" in2="effect1_dropShadow_290_752" result="shape"/>
</filter>
<filter id="filter18_d_290_752" x="160" y="-36" width="88" height="88" filterUnits="userSpaceOnUse" color-interpolation-filters="sRGB">
<feFlood flood-opacity="0" result="BackgroundImageFix"/>
<feColorMatrix in="SourceAlpha" type="matrix" values="0 0 0 0 0 0 0 0 0 0 0 0 0 0 0 0 0 0 127 0" result="hardAlpha"/>
<feOffset/>
<feGaussianBlur stdDeviation="8"/>
<feComposite in2="hardAlpha" operator="out"/>
<feColorMatrix type="matrix" values="0 0 0 0 0 0 0 0 0 0 0 0 0 0 0 0 0 0 0.1 0"/>
<feBlend mode="normal" in2="BackgroundImageFix" result="effect1_dropShadow_290_752"/>
<feBlend mode="normal" in="SourceGraphic" in2="effect1_dropShadow_290_752" result="shape"/>
</filter>
<filter id="filter19_d_290_752" x="160" y="20" width="88" height="88" filterUnits="userSpaceOnUse" color-interpolation-filters="sRGB">
<feFlood flood-opacity="0" result="BackgroundImageFix"/>
<feColorMatrix in="SourceAlpha" type="matrix" values="0 0 0 0 0 0 0 0 0 0 0 0 0 0 0 0 0 0 127 0" result="hardAlpha"/>
<feOffset/>
<feGaussianBlur stdDeviation="8"/>
<feComposite in2="hardAlpha" operator="out"/>
<feColorMatrix type="matrix" values="0 0 0 0 0 0 0 0 0 0 0 0 0 0 0 0 0 0 0.1 0"/>
<feBlend mode="normal" in2="BackgroundImageFix" result="effect1_dropShadow_290_752"/>
<feBlend mode="normal" in="SourceGraphic" in2="effect1_dropShadow_290_752" result="shape"/>
</filter>
<filter id="filter20_d_290_752" x="160" y="132" width="88" height="88" filterUnits="userSpaceOnUse" color-interpolation-filters="sRGB">
<feFlood flood-opacity="0" result="BackgroundImageFix"/>
<feColorMatrix in="SourceAlpha" type="matrix" values="0 0 0 0 0 0 0 0 0 0 0 0 0 0 0 0 0 0 127 0" result="hardAlpha"/>
<feOffset/>
<feGaussianBlur stdDeviation="8"/>
<feComposite in2="hardAlpha" operator="out"/>
<feColorMatrix type="matrix" values="0 0 0 0 0 0 0 0 0 0 0 0 0 0 0 0 0 0 0.1 0"/>
<feBlend mode="normal" in2="BackgroundImageFix" result="effect1_dropShadow_290_752"/>
<feBlend mode="normal" in="SourceGraphic" in2="effect1_dropShadow_290_752" result="shape"/>
</filter>
<filter id="filter21_d_290_752" x="160" y="188" width="88" height="88" filterUnits="userSpaceOnUse" color-interpolation-filters="sRGB">
<feFlood flood-opacity="0" result="BackgroundImageFix"/>
<feColorMatrix in="SourceAlpha" type="matrix" values="0 0 0 0 0 0 0 0 0 0 0 0 0 0 0 0 0 0 127 0" result="hardAlpha"/>
<feOffset/>
<feGaussianBlur stdDeviation="8"/>
<feComposite in2="hardAlpha" operator="out"/>
<feColorMatrix type="matrix" values="0 0 0 0 0 0 0 0 0 0 0 0 0 0 0 0 0 0 0.1 0"/>
<feBlend mode="normal" in2="BackgroundImageFix" result="effect1_dropShadow_290_752"/>
<feBlend mode="normal" in="SourceGraphic" in2="effect1_dropShadow_290_752" result="shape"/>
</filter>
<filter id="filter22_d_290_752" x="160" y="300" width="88" height="88" filterUnits="userSpaceOnUse" color-interpolation-filters="sRGB">
<feFlood flood-opacity="0" result="BackgroundImageFix"/>
<feColorMatrix in="SourceAlpha" type="matrix" values="0 0 0 0 0 0 0 0 0 0 0 0 0 0 0 0 0 0 127 0" result="hardAlpha"/>
<feOffset/>
<feGaussianBlur stdDeviation="8"/>
<feComposite in2="hardAlpha" operator="out"/>
<feColorMatrix type="matrix" values="0 0 0 0 0 0 0 0 0 0 0 0 0 0 0 0 0 0 0.1 0"/>
<feBlend mode="normal" in2="BackgroundImageFix" result="effect1_dropShadow_290_752"/>
<feBlend mode="normal" in="SourceGraphic" in2="effect1_dropShadow_290_752" result="shape"/>
</filter>
<filter id="filter23_d_290_752" x="216" y="-36" width="88" height="88" filterUnits="userSpaceOnUse" color-interpolation-filters="sRGB">
<feFlood flood-opacity="0" result="BackgroundImageFix"/>
<feColorMatrix in="SourceAlpha" type="matrix" values="0 0 0 0 0 0 0 0 0 0 0 0 0 0 0 0 0 0 127 0" result="hardAlpha"/>
<feOffset/>
<feGaussianBlur stdDeviation="8"/>
<feComposite in2="hardAlpha" operator="out"/>
<feColorMatrix type="matrix" values="0 0 0 0 0 0 0 0 0 0 0 0 0 0 0 0 0 0 0.1 0"/>
<feBlend mode="normal" in2="BackgroundImageFix" result="effect1_dropShadow_290_752"/>
<feBlend mode="normal" in="SourceGraphic" in2="effect1_dropShadow_290_752" result="shape"/>
</filter>
<filter id="filter24_d_290_752" x="216" y="20" width="88" height="88" filterUnits="userSpaceOnUse" color-interpolation-filters="sRGB">
<feFlood flood-opacity="0" result="BackgroundImageFix"/>
<feColorMatrix in="SourceAlpha" type="matrix" values="0 0 0 0 0 0 0 0 0 0 0 0 0 0 0 0 0 0 127 0" result="hardAlpha"/>
<feOffset/>
<feGaussianBlur stdDeviation="8"/>
<feComposite in2="hardAlpha" operator="out"/>
<feColorMatrix type="matrix" values="0 0 0 0 0 0 0 0 0 0 0 0 0 0 0 0 0 0 0.1 0"/>
<feBlend mode="normal" in2="BackgroundImageFix" result="effect1_dropShadow_290_752"/>
<feBlend mode="normal" in="SourceGraphic" in2="effect1_dropShadow_290_752" result="shape"/>
</filter>
<filter id="filter25_d_290_752" x="216" y="76" width="88" height="88" filterUnits="userSpaceOnUse" color-interpolation-filters="sRGB">
<feFlood flood-opacity="0" result="BackgroundImageFix"/>
<feColorMatrix in="SourceAlpha" type="matrix" values="0 0 0 0 0 0 0 0 0 0 0 0 0 0 0 0 0 0 127 0" result="hardAlpha"/>
<feOffset/>
<feGaussianBlur stdDeviation="8"/>
<feComposite in2="hardAlpha" operator="out"/>
<feColorMatrix type="matrix" values="0 0 0 0 0 0 0 0 0 0 0 0 0 0 0 0 0 0 0.1 0"/>
<feBlend mode="normal" in2="BackgroundImageFix" result="effect1_dropShadow_290_752"/>
<feBlend mode="normal" in="SourceGraphic" in2="effect1_dropShadow_290_752" result="shape"/>
</filter>
<filter id="filter26_d_290_752" x="216" y="132" width="88" height="88" filterUnits="userSpaceOnUse" color-interpolation-filters="sRGB">
<feFlood flood-opacity="0" result="BackgroundImageFix"/>
<feColorMatrix in="SourceAlpha" type="matrix" values="0 0 0 0 0 0 0 0 0 0 0 0 0 0 0 0 0 0 127 0" result="hardAlpha"/>
<feOffset/>
<feGaussianBlur stdDeviation="8"/>
<feComposite in2="hardAlpha" operator="out"/>
<feColorMatrix type="matrix" values="0 0 0 0 0 0 0 0 0 0 0 0 0 0 0 0 0 0 0.1 0"/>
<feBlend mode="normal" in2="BackgroundImageFix" result="effect1_dropShadow_290_752"/>
<feBlend mode="normal" in="SourceGraphic" in2="effect1_dropShadow_290_752" result="shape"/>
</filter>
<filter id="filter27_d_290_752" x="216" y="188" width="88" height="88" filterUnits="userSpaceOnUse" color-interpolation-filters="sRGB">
<feFlood flood-opacity="0" result="BackgroundImageFix"/>
<feColorMatrix in="SourceAlpha" type="matrix" values="0 0 0 0 0 0 0 0 0 0 0 0 0 0 0 0 0 0 127 0" result="hardAlpha"/>
<feOffset/>
<feGaussianBlur stdDeviation="8"/>
<feComposite in2="hardAlpha" operator="out"/>
<feColorMatrix type="matrix" values="0 0 0 0 0 0 0 0 0 0 0 0 0 0 0 0 0 0 0.1 0"/>
<feBlend mode="normal" in2="BackgroundImageFix" result="effect1_dropShadow_290_752"/>
<feBlend mode="normal" in="SourceGraphic" in2="effect1_dropShadow_290_752" result="shape"/>
</filter>
<filter id="filter28_d_290_752" x="216" y="244" width="88" height="88" filterUnits="userSpaceOnUse" color-interpolation-filters="sRGB">
<feFlood flood-opacity="0" result="BackgroundImageFix"/>
<feColorMatrix in="SourceAlpha" type="matrix" values="0 0 0 0 0 0 0 0 0 0 0 0 0 0 0 0 0 0 127 0" result="hardAlpha"/>
<feOffset/>
<feGaussianBlur stdDeviation="8"/>
<feComposite in2="hardAlpha" operator="out"/>
<feColorMatrix type="matrix" values="0 0 0 0 0 0 0 0 0 0 0 0 0 0 0 0 0 0 0.1 0"/>
<feBlend mode="normal" in2="BackgroundImageFix" result="effect1_dropShadow_290_752"/>
<feBlend mode="normal" in="SourceGraphic" in2="effect1_dropShadow_290_752" result="shape"/>
</filter>
<filter id="filter29_d_290_752" x="216" y="300" width="88" height="88" filterUnits="userSpaceOnUse" color-interpolation-filters="sRGB">
<feFlood flood-opacity="0" result="BackgroundImageFix"/>
<feColorMatrix in="SourceAlpha" type="matrix" values="0 0 0 0 0 0 0 0 0 0 0 0 0 0 0 0 0 0 127 0" result="hardAlpha"/>
<feOffset/>
<feGaussianBlur stdDeviation="8"/>
<feComposite in2="hardAlpha" operator="out"/>
<feColorMatrix type="matrix" values="0 0 0 0 0 0 0 0 0 0 0 0 0 0 0 0 0 0 0.1 0"/>
<feBlend mode="normal" in2="BackgroundImageFix" result="effect1_dropShadow_290_752"/>
<feBlend mode="normal" in="SourceGraphic" in2="effect1_dropShadow_290_752" result="shape"/>
</filter>
<filter id="filter30_d_290_752" x="272" y="-36" width="88" height="88" filterUnits="userSpaceOnUse" color-interpolation-filters="sRGB">
<feFlood flood-opacity="0" result="BackgroundImageFix"/>
<feColorMatrix in="SourceAlpha" type="matrix" values="0 0 0 0 0 0 0 0 0 0 0 0 0 0 0 0 0 0 127 0" result="hardAlpha"/>
<feOffset/>
<feGaussianBlur stdDeviation="8"/>
<feComposite in2="hardAlpha" operator="out"/>
<feColorMatrix type="matrix" values="0 0 0 0 0 0 0 0 0 0 0 0 0 0 0 0 0 0 0.1 0"/>
<feBlend mode="normal" in2="BackgroundImageFix" result="effect1_dropShadow_290_752"/>
<feBlend mode="normal" in="SourceGraphic" in2="effect1_dropShadow_290_752" result="shape"/>
</filter>
<filter id="filter31_d_290_752" x="272" y="20" width="88" height="88" filterUnits="userSpaceOnUse" color-interpolation-filters="sRGB">
<feFlood flood-opacity="0" result="BackgroundImageFix"/>
<feColorMatrix in="SourceAlpha" type="matrix" values="0 0 0 0 0 0 0 0 0 0 0 0 0 0 0 0 0 0 127 0" result="hardAlpha"/>
<feOffset/>
<feGaussianBlur stdDeviation="8"/>
<feComposite in2="hardAlpha" operator="out"/>
<feColorMatrix type="matrix" values="0 0 0 0 0 0 0 0 0 0 0 0 0 0 0 0 0 0 0.1 0"/>
<feBlend mode="normal" in2="BackgroundImageFix" result="effect1_dropShadow_290_752"/>
<feBlend mode="normal" in="SourceGraphic" in2="effect1_dropShadow_290_752" result="shape"/>
</filter>
<filter id="filter32_d_290_752" x="272" y="76" width="88" height="88" filterUnits="userSpaceOnUse" color-interpolation-filters="sRGB">
<feFlood flood-opacity="0" result="BackgroundImageFix"/>
<feColorMatrix in="SourceAlpha" type="matrix" values="0 0 0 0 0 0 0 0 0 0 0 0 0 0 0 0 0 0 127 0" result="hardAlpha"/>
<feOffset/>
<feGaussianBlur stdDeviation="8"/>
<feComposite in2="hardAlpha" operator="out"/>
<feColorMatrix type="matrix" values="0 0 0 0 0 0 0 0 0 0 0 0 0 0 0 0 0 0 0.1 0"/>
<feBlend mode="normal" in2="BackgroundImageFix" result="effect1_dropShadow_290_752"/>
<feBlend mode="normal" in="SourceGraphic" in2="effect1_dropShadow_290_752" result="shape"/>
</filter>
<filter id="filter33_d_290_752" x="272" y="132" width="88" height="88" filterUnits="userSpaceOnUse" color-interpolation-filters="sRGB">
<feFlood flood-opacity="0" result="BackgroundImageFix"/>
<feColorMatrix in="SourceAlpha" type="matrix" values="0 0 0 0 0 0 0 0 0 0 0 0 0 0 0 0 0 0 127 0" result="hardAlpha"/>
<feOffset/>
<feGaussianBlur stdDeviation="8"/>
<feComposite in2="hardAlpha" operator="out"/>
<feColorMatrix type="matrix" values="0 0 0 0 0 0 0 0 0 0 0 0 0 0 0 0 0 0 0.1 0"/>
<feBlend mode="normal" in2="BackgroundImageFix" result="effect1_dropShadow_290_752"/>
<feBlend mode="normal" in="SourceGraphic" in2="effect1_dropShadow_290_752" result="shape"/>
</filter>
<filter id="filter34_d_290_752" x="272" y="188" width="88" height="88" filterUnits="userSpaceOnUse" color-interpolation-filters="sRGB">
<feFlood flood-opacity="0" result="BackgroundImageFix"/>
<feColorMatrix in="SourceAlpha" type="matrix" values="0 0 0 0 0 0 0 0 0 0 0 0 0 0 0 0 0 0 127 0" result="hardAlpha"/>
<feOffset/>
<feGaussianBlur stdDeviation="8"/>
<feComposite in2="hardAlpha" operator="out"/>
<feColorMatrix type="matrix" values="0 0 0 0 0 0 0 0 0 0 0 0 0 0 0 0 0 0 0.1 0"/>
<feBlend mode="normal" in2="BackgroundImageFix" result="effect1_dropShadow_290_752"/>
<feBlend mode="normal" in="SourceGraphic" in2="effect1_dropShadow_290_752" result="shape"/>
</filter>
<filter id="filter35_d_290_752" x="272" y="244" width="88" height="88" filterUnits="userSpaceOnUse" color-interpolation-filters="sRGB">
<feFlood flood-opacity="0" result="BackgroundImageFix"/>
<feColorMatrix in="SourceAlpha" type="matrix" values="0 0 0 0 0 0 0 0 0 0 0 0 0 0 0 0 0 0 127 0" result="hardAlpha"/>
<feOffset/>
<feGaussianBlur stdDeviation="8"/>
<feComposite in2="hardAlpha" operator="out"/>
<feColorMatrix type="matrix" values="0 0 0 0 0 0 0 0 0 0 0 0 0 0 0 0 0 0 0.1 0"/>
<feBlend mode="normal" in2="BackgroundImageFix" result="effect1_dropShadow_290_752"/>
<feBlend mode="normal" in="SourceGraphic" in2="effect1_dropShadow_290_752" result="shape"/>
</filter>
<filter id="filter36_d_290_752" x="272" y="300" width="88" height="88" filterUnits="userSpaceOnUse" color-interpolation-filters="sRGB">
<feFlood flood-opacity="0" result="BackgroundImageFix"/>
<feColorMatrix in="SourceAlpha" type="matrix" values="0 0 0 0 0 0 0 0 0 0 0 0 0 0 0 0 0 0 127 0" result="hardAlpha"/>
<feOffset/>
<feGaussianBlur stdDeviation="8"/>
<feComposite in2="hardAlpha" operator="out"/>
<feColorMatrix type="matrix" values="0 0 0 0 0 0 0 0 0 0 0 0 0 0 0 0 0 0 0.1 0"/>
<feBlend mode="normal" in2="BackgroundImageFix" result="effect1_dropShadow_290_752"/>
<feBlend mode="normal" in="SourceGraphic" in2="effect1_dropShadow_290_752" result="shape"/>
</filter>
<filter id="filter37_d_290_752" x="104" y="20" width="88" height="88" filterUnits="userSpaceOnUse" color-interpolation-filters="sRGB">
<feFlood flood-opacity="0" result="BackgroundImageFix"/>
<feColorMatrix in="SourceAlpha" type="matrix" values="0 0 0 0 0 0 0 0 0 0 0 0 0 0 0 0 0 0 127 0" result="hardAlpha"/>
<feOffset/>
<feGaussianBlur stdDeviation="8"/>
<feComposite in2="hardAlpha" operator="out"/>
<feColorMatrix type="matrix" values="0 0 0 0 0 0 0 0 0 0 0 0 0 0 0 0 0 0 0.1 0"/>
<feBlend mode="normal" in2="BackgroundImageFix" result="effect1_dropShadow_290_752"/>
<feBlend mode="normal" in="SourceGraphic" in2="effect1_dropShadow_290_752" result="shape"/>
</filter>
<filter id="filter38_d_290_752" x="160" y="76" width="88" height="88" filterUnits="userSpaceOnUse" color-interpolation-filters="sRGB">
<feFlood flood-opacity="0" result="BackgroundImageFix"/>
<feColorMatrix in="SourceAlpha" type="matrix" values="0 0 0 0 0 0 0 0 0 0 0 0 0 0 0 0 0 0 127 0" result="hardAlpha"/>
<feOffset/>
<feGaussianBlur stdDeviation="8"/>
<feComposite in2="hardAlpha" operator="out"/>
<feColorMatrix type="matrix" values="0 0 0 0 0 0 0 0 0 0 0 0 0 0 0 0 0 0 0.1 0"/>
<feBlend mode="normal" in2="BackgroundImageFix" result="effect1_dropShadow_290_752"/>
<feBlend mode="normal" in="SourceGraphic" in2="effect1_dropShadow_290_752" result="shape"/>
</filter>
<filter id="filter39_d_290_752" x="48" y="188" width="88" height="88" filterUnits="userSpaceOnUse" color-interpolation-filters="sRGB">
<feFlood flood-opacity="0" result="BackgroundImageFix"/>
<feColorMatrix in="SourceAlpha" type="matrix" values="0 0 0 0 0 0 0 0 0 0 0 0 0 0 0 0 0 0 127 0" result="hardAlpha"/>
<feOffset/>
<feGaussianBlur stdDeviation="8"/>
<feComposite in2="hardAlpha" operator="out"/>
<feColorMatrix type="matrix" values="0 0 0 0 0 0 0 0 0 0 0 0 0 0 0 0 0 0 0.1 0"/>
<feBlend mode="normal" in2="BackgroundImageFix" result="effect1_dropShadow_290_752"/>
<feBlend mode="normal" in="SourceGraphic" in2="effect1_dropShadow_290_752" result="shape"/>
</filter>
<filter id="filter40_d_290_752" x="48" y="300" width="88" height="88" filterUnits="userSpaceOnUse" color-interpolation-filters="sRGB">
<feFlood flood-opacity="0" result="BackgroundImageFix"/>
<feColorMatrix in="SourceAlpha" type="matrix" values="0 0 0 0 0 0 0 0 0 0 0 0 0 0 0 0 0 0 127 0" result="hardAlpha"/>
<feOffset/>
<feGaussianBlur stdDeviation="8"/>
<feComposite in2="hardAlpha" operator="out"/>
<feColorMatrix type="matrix" values="0 0 0 0 0 0 0 0 0 0 0 0 0 0 0 0 0 0 0.1 0"/>
<feBlend mode="normal" in2="BackgroundImageFix" result="effect1_dropShadow_290_752"/>
<feBlend mode="normal" in="SourceGraphic" in2="effect1_dropShadow_290_752" result="shape"/>
</filter>
<filter id="filter41_d_290_752" x="160" y="244" width="88" height="88" filterUnits="userSpaceOnUse" color-interpolation-filters="sRGB">
<feFlood flood-opacity="0" result="BackgroundImageFix"/>
<feColorMatrix in="SourceAlpha" type="matrix" values="0 0 0 0 0 0 0 0 0 0 0 0 0 0 0 0 0 0 127 0" result="hardAlpha"/>
<feOffset/>
<feGaussianBlur stdDeviation="8"/>
<feComposite in2="hardAlpha" operator="out"/>
<feColorMatrix type="matrix" values="0 0 0 0 0 0 0 0 0 0 0 0 0 0 0 0 0 0 0.1 0"/>
<feBlend mode="normal" in2="BackgroundImageFix" result="effect1_dropShadow_290_752"/>
<feBlend mode="normal" in="SourceGraphic" in2="effect1_dropShadow_290_752" result="shape"/>
</filter>
<filter id="filter42_d_290_752" x="120" y="120" width="112" height="112" filterUnits="userSpaceOnUse" color-interpolation-filters="sRGB">
<feFlood flood-opacity="0" result="BackgroundImageFix"/>
<feColorMatrix in="SourceAlpha" type="matrix" values="0 0 0 0 0 0 0 0 0 0 0 0 0 0 0 0 0 0 127 0" result="hardAlpha"/>
<feOffset/>
<feGaussianBlur stdDeviation="8"/>
<feComposite in2="hardAlpha" operator="out"/>
<feColorMatrix type="matrix" values="0 0 0 0 0 0 0 0 0 0 0 0 0 0 0 0 0 0 0.1 0"/>
<feBlend mode="normal" in2="BackgroundImageFix" result="effect1_dropShadow_290_752"/>
<feBlend mode="normal" in="SourceGraphic" in2="effect1_dropShadow_290_752" result="shape"/>
</filter>
<radialGradient id="paint0_radial_290_752" cx="0" cy="0" r="1" gradientUnits="userSpaceOnUse" gradientTransform="translate(176 176) rotate(90) scale(176)">
<stop offset="0.679584" stop-color="#F6F6F6" stop-opacity="0"/>
<stop offset="1" stop-color="#F6F6F6"/>
</radialGradient>
<clipPath id="clip0_290_752">
<rect width="352" height="352" rx="24" fill="white"/>
</clipPath>
</defs>
</svg>
